<svg width="190" height="305" viewBox="0 0 190 305" fill="none" xmlns="http://www.w3.org/2000/svg">
<g clip-path="url(#clip0_956_175086)">
<path d="M186.44 5.61719H3.95996V305.506H186.44V5.61719Z" fill="#BFD5FE"/>
<path d="M181.627 10.3281H8.67188V150.798H181.627V10.3281Z" fill="#E0F1FC"/>
<path d="M181.628 155.512H8.67236V295.981H181.628V155.512Z" fill="#E0F1FC"/>
<path d="M135.305 49.2305H96.9043V111.494H135.305V49.2305Z" fill="#1C85E8"/>
<path d="M115.052 51.6328H99.1104V69.2792H115.052V51.6328Z" fill="#C0E5FF"/>
<path d="M115.052 71.582H99.1104V109.081H115.052V71.582Z" fill="#C0E5FF"/>
<path d="M133 51.6328H117.358V69.2792H133V51.6328Z" fill="#C0E5FF"/>
<path d="M133 71.582H117.358V109.081H133V71.582Z" fill="#C0E5FF"/>
<path d="M68.2292 191.906H29.8281V254.17H68.2292V191.906Z" fill="#1C85E8"/>
<path d="M47.8755 194.312H31.9336V211.959H47.8755V194.312Z" fill="#C0E5FF"/>
<path d="M47.8755 214.262H31.9336V251.76H47.8755V214.262Z" fill="#C0E5FF"/>
<path d="M65.9229 194.312H50.2817V211.959H65.9229V194.312Z" fill="#C0E5FF"/>
<path d="M65.9229 214.262H50.2817V251.76H65.9229V214.262Z" fill="#C0E5FF"/>
<path d="M181.628 146.484H8.67236V150.796H181.628V146.484Z" fill="#0E66AF"/>
<path d="M162.777 205.84H107.632V235.618H162.777V205.84Z" fill="#1F2D49"/>
<path d="M132.488 210.981C132.487 210.599 132.391 210.289 132.2 210.051C131.982 209.776 131.687 209.678 131.314 209.756C131.184 209.784 130.993 209.92 130.74 210.166H130.723C130.505 209.805 130.184 209.668 129.759 209.756C129.664 209.775 129.576 209.821 129.495 209.893C129.477 209.907 129.446 209.937 129.402 209.98C129.37 210.013 129.344 210.036 129.324 210.049V210.046C129.324 209.98 129.301 209.923 129.253 209.875C129.206 209.827 129.149 209.802 129.083 209.802H128.799C128.731 209.802 128.673 209.827 128.626 209.875C128.579 209.923 128.555 209.98 128.555 210.046V211.873C128.555 211.969 128.589 212.052 128.658 212.122C128.728 212.19 128.811 212.224 128.907 212.224H128.96C129.058 212.224 129.141 212.19 129.209 212.122C129.279 212.052 129.314 211.969 129.314 211.873V210.801C129.314 210.685 129.354 210.584 129.432 210.498C129.511 210.41 129.608 210.365 129.722 210.361C129.841 210.358 129.944 210.398 130.03 210.481C130.114 210.564 130.157 210.665 130.157 210.784V211.873C130.157 211.969 130.192 212.052 130.262 212.122C130.33 212.19 130.413 212.224 130.511 212.224H130.582C130.678 212.224 130.761 212.19 130.831 212.122C130.899 212.052 130.933 211.969 130.933 211.873V210.801C130.933 210.685 130.972 210.584 131.05 210.498C131.13 210.41 131.227 210.365 131.341 210.361C131.461 210.358 131.564 210.398 131.648 210.481C131.735 210.564 131.778 210.665 131.778 210.784V211.873C131.778 211.969 131.812 212.052 131.88 212.122C131.949 212.19 132.032 212.224 132.129 212.224H132.137C132.234 212.224 132.317 212.19 132.386 212.122C132.454 212.052 132.488 211.969 132.488 211.873V210.981ZM134.114 210.332C134.253 210.332 134.379 210.37 134.493 210.447C134.603 210.522 134.684 210.62 134.734 210.742H133.492C133.544 210.62 133.625 210.522 133.736 210.447C133.85 210.37 133.976 210.332 134.114 210.332ZM135.198 211.997C135.219 211.908 135.201 211.827 135.142 211.755C135.085 211.682 135.011 211.646 134.92 211.648H134.114C133.973 211.648 133.844 211.608 133.729 211.528C133.616 211.452 133.536 211.35 133.487 211.223H135.218C135.283 211.223 135.339 211.201 135.386 211.157C135.433 211.112 135.457 211.057 135.457 210.994V210.991C135.457 210.649 135.333 210.358 135.083 210.117C134.836 209.876 134.537 209.756 134.188 209.756C134.163 209.756 134.139 209.757 134.114 209.758C134.09 209.757 134.065 209.756 134.041 209.756C133.691 209.756 133.392 209.876 133.143 210.117C132.895 210.358 132.771 210.649 132.771 210.991C132.771 211.331 132.895 211.622 133.143 211.863C133.392 212.104 133.691 212.224 134.041 212.224C134.065 212.224 134.09 212.223 134.114 212.222C134.139 212.223 134.163 212.224 134.188 212.224C134.438 212.224 134.683 212.223 134.922 212.222C134.987 212.22 135.046 212.199 135.098 212.158C135.149 212.118 135.181 212.065 135.196 212.002L135.198 211.997ZM138.333 210.996C138.331 210.615 138.236 210.305 138.047 210.066C137.829 209.792 137.534 209.694 137.161 209.771C137.088 209.785 136.897 209.883 136.59 210.063V210.061C136.59 209.994 136.566 209.937 136.519 209.89C136.472 209.841 136.415 209.817 136.348 209.817H136.067C135.999 209.817 135.94 209.841 135.892 209.89C135.844 209.937 135.821 209.995 135.821 210.063V211.865C135.821 211.968 135.857 212.056 135.931 212.129C136.004 212.202 136.092 212.239 136.194 212.239H136.207C136.309 212.239 136.397 212.202 136.47 212.129C136.543 212.056 136.58 211.968 136.58 211.865V210.828C136.583 210.824 136.584 210.824 136.583 210.825C136.584 210.802 136.587 210.783 136.59 210.767C136.611 210.656 136.697 210.554 136.849 210.461C137.021 210.356 137.188 210.342 137.349 210.42C137.502 210.495 137.579 210.67 137.579 210.945V211.865C137.579 211.968 137.615 212.056 137.688 212.129C137.762 212.202 137.85 212.239 137.952 212.239H137.959C138.064 212.239 138.152 212.202 138.226 212.129C138.299 212.056 138.335 211.968 138.335 211.865L138.333 210.996ZM138.672 210.989C138.674 211.37 138.77 211.679 138.96 211.917C139.177 212.192 139.472 212.291 139.847 212.214C139.918 212.2 140.108 212.102 140.416 211.921V211.924C140.416 211.991 140.44 212.048 140.489 212.095C140.536 212.142 140.593 212.166 140.66 212.166H140.94C141.009 212.166 141.067 212.142 141.114 212.095C141.163 212.046 141.187 211.988 141.187 211.921V210.12C141.187 210.017 141.15 209.929 141.077 209.856C141.004 209.783 140.915 209.746 140.811 209.746H140.801C140.697 209.746 140.608 209.783 140.535 209.856C140.462 209.929 140.425 210.017 140.425 210.12V211.157C140.424 211.16 140.423 211.161 140.423 211.16C140.421 211.182 140.419 211.202 140.416 211.218C140.396 211.329 140.311 211.431 140.159 211.523C139.985 211.629 139.818 211.643 139.659 211.565C139.506 211.49 139.429 211.315 139.429 211.04V210.12C139.429 210.017 139.393 209.929 139.319 209.856C139.246 209.783 139.157 209.746 139.053 209.746H139.046C138.943 209.746 138.855 209.783 138.782 209.856C138.709 209.929 138.672 210.017 138.672 210.12V210.989Z" fill="white"/>
<path d="M112.646 216.469H132.598" stroke="white" stroke-miterlimit="10" stroke-linecap="round"/>
<path d="M112.646 221.082H132.598" stroke="white" stroke-miterlimit="10" stroke-linecap="round"/>
<path d="M112.646 225.793H132.598" stroke="white" stroke-miterlimit="10" stroke-linecap="round"/>
<path d="M112.646 230.402H132.598" stroke="white" stroke-miterlimit="10" stroke-linecap="round"/>
<path d="M137.109 216.469H157.062" stroke="white" stroke-miterlimit="10" stroke-linecap="round"/>
<path d="M137.109 221.082H157.062" stroke="white" stroke-miterlimit="10" stroke-linecap="round"/>
<path d="M137.109 225.793H157.062" stroke="white" stroke-miterlimit="10" stroke-linecap="round"/>
<path d="M137.109 230.402H157.062" stroke="white" stroke-miterlimit="10" stroke-linecap="round"/>
<path d="M145.833 238.324C149.242 236.619 149.242 236.519 160.271 236.82C168.693 236.92 170.899 244.741 171.4 246.245C171.902 247.749 172.904 252.962 171.4 255.168C169.896 257.274 167.991 256.772 167.991 256.772L142.725 257.975C139.416 257.173 139.316 255.068 139.115 253.865C138.915 252.561 138.915 249.654 139.617 247.448C140.218 245.142 142.424 240.028 145.833 238.324Z" fill="#1F2D49"/>
<path d="M149.743 229.6C150.144 230.703 150.646 231.806 151.448 232.808L150.545 237.922C150.545 237.922 152.45 239.526 154.757 239.526C157.063 239.526 157.865 239.626 160.171 238.122C159.87 235.816 159.669 233.41 159.669 233.41C159.669 233.41 160.472 232.608 161.073 231.605C161.675 230.703 162.076 229.399 162.076 229.399C162.076 229.399 163.881 229.399 164.382 227.996C164.883 226.592 164.783 225.689 164.081 225.389C163.379 225.088 164.382 225.689 162.677 224.988C160.873 224.186 158.767 219.072 156.662 219.072C154.757 219.072 155.859 218.47 154.255 219.072C152.751 219.674 153.152 220.977 151.949 221.98C150.545 223.183 146.936 225.288 147.036 227.093C147.136 228.998 149.743 229.6 149.743 229.6Z" fill="white"/>
<path d="M155.559 234.412C153.253 234.311 151.448 232.707 151.448 232.707L151.147 234.612C151.147 234.612 153.152 235.715 155.559 235.815C158.065 235.915 159.669 234.311 159.669 234.311L159.569 233.509C159.669 233.409 157.865 234.512 155.559 234.412Z" fill="#C0E5FF"/>
<path d="M153.153 227.697C153.43 227.697 153.654 227.382 153.654 226.995C153.654 226.607 153.43 226.293 153.153 226.293C152.876 226.293 152.651 226.607 152.651 226.995C152.651 227.382 152.876 227.697 153.153 227.697Z" fill="#383C42"/>
<path d="M158.466 227.697C158.743 227.697 158.967 227.382 158.967 226.995C158.967 226.607 158.743 226.293 158.466 226.293C158.189 226.293 157.965 226.607 157.965 226.995C157.965 227.382 158.189 227.697 158.466 227.697Z" fill="#383C42"/>
<path d="M155.559 227.695V229.801H156.361" stroke="#383C42" stroke-width="0.5" stroke-miterlimit="10" stroke-linecap="round"/>
<path d="M157.263 231.803C157.263 231.803 158.165 231.703 158.566 231.202C158.967 230.701 158.967 230.199 158.967 230.199" stroke="#383C42" stroke-width="0.5" stroke-miterlimit="10" stroke-linecap="round"/>
<path d="M160.772 245.742H163.579V237.32C163.579 237.019 161.073 236.618 161.073 236.919L160.772 245.742Z" fill="#0087FA"/>
<path d="M146.836 245.742H149.643L149.443 237.019C149.342 236.618 146.736 237.421 146.836 237.822V245.742Z" fill="#0087FA"/>
<path d="M147.136 257.874H163.379C164.081 257.874 164.582 257.273 164.582 256.571L163.881 245.341C163.881 244.74 163.279 244.238 162.677 244.238H147.537C146.936 244.238 146.334 244.74 146.334 245.441L145.833 256.671C145.933 257.373 146.535 257.874 147.136 257.874Z" fill="#0087FA"/>
<path d="M144.53 221.078C145.232 221.78 146.836 218.873 148.54 217.268C150.245 215.664 156.862 212.155 158.968 217.669C158.968 217.669 164.482 215.965 164.182 225.49C164.182 225.49 159.469 227.094 156.561 220.176C156.561 220.176 154.857 224.387 151.348 226.493C147.839 228.498 145.933 227.495 144.329 226.092C142.725 224.788 142.825 222.382 142.926 221.68C142.825 220.978 143.126 219.775 144.53 221.078Z" fill="#0158D9"/>
<path d="M38.0491 173.055H36.144V199.524H38.0491V173.055Z" fill="#63B0E5"/>
<path d="M37.0465 212.257C40.8119 212.257 43.8644 209.204 43.8644 205.439C43.8644 201.674 40.8119 198.621 37.0465 198.621C33.281 198.621 30.2285 201.674 30.2285 205.439C30.2285 209.204 33.281 212.257 37.0465 212.257Z" fill="white"/>
<path d="M43.1629 206.043C43.1629 209.05 40.4557 211.357 37.0468 211.357C33.7381 211.357 30.9307 208.95 30.9307 206.043C30.9307 203.135 33.6378 207.446 37.0468 207.446C40.4557 207.446 43.1629 203.135 43.1629 206.043Z" fill="#88D2FF"/>
<path d="M96.3025 173.055H94.3975V199.524H96.3025V173.055Z" fill="#63B0E5"/>
<path d="M95.2999 212.257C99.0653 212.257 102.118 209.204 102.118 205.439C102.118 201.674 99.0653 198.621 95.2999 198.621C91.5344 198.621 88.4819 201.674 88.4819 205.439C88.4819 209.204 91.5344 212.257 95.2999 212.257Z" fill="white"/>
<path d="M101.416 206.043C101.416 209.05 98.7092 211.357 95.3002 211.357C91.9915 211.357 89.1841 208.95 89.1841 206.043C89.1841 203.135 91.8912 207.446 95.3002 207.446C98.7092 207.446 101.416 203.135 101.416 206.043Z" fill="#88D2FF"/>
<path d="M155.559 173.055H153.654V199.524H155.559V173.055Z" fill="#63B0E5"/>
<path d="M154.657 212.257C158.422 212.257 161.475 209.204 161.475 205.439C161.475 201.674 158.422 198.621 154.657 198.621C150.891 198.621 147.839 201.674 147.839 205.439C147.839 209.204 150.891 212.257 154.657 212.257Z" fill="white"/>
<path d="M160.673 206.043C160.673 209.05 157.965 211.357 154.557 211.357C151.148 211.357 148.44 208.95 148.44 206.043C148.44 203.135 151.148 207.446 154.557 207.446C157.965 207.446 160.673 203.135 160.673 206.043Z" fill="#88D2FF"/>
<path d="M181.728 253.168H100.614V259.184H181.728V253.168Z" fill="#94B9FF"/>
<path d="M181.627 259.082H102.72V292.069H181.627V259.082Z" fill="#94B9FF"/>
<path d="M181.627 259.184H102.72V260.988H181.627V259.184Z" fill="#739FE5"/>
<path d="M8.67236 155.512V186.794C8.67236 189.802 11.0787 192.208 14.0866 192.208C17.0945 192.208 19.5009 189.802 19.5009 186.794V155.512H8.67236Z" fill="white"/>
<path d="M30.3296 155.512V186.794C30.3296 189.802 32.7359 192.208 35.7438 192.208C38.7518 192.208 41.1581 189.802 41.1581 186.794V155.512H30.3296Z" fill="white"/>
<path d="M51.8862 155.512V186.794C51.8862 189.802 54.2926 192.208 57.3005 192.208C60.3084 192.208 62.7147 189.802 62.7147 186.794V155.512H51.8862Z" fill="white"/>
<path d="M73.5435 155.512V186.794C73.5435 189.802 75.9498 192.208 78.9577 192.208C81.9656 192.208 84.372 189.802 84.372 186.794V155.512H73.5435Z" fill="white"/>
<path d="M95.1997 155.512V186.794C95.1997 189.802 97.606 192.208 100.614 192.208C103.622 192.208 106.028 189.802 106.028 186.794V155.512H95.1997Z" fill="white"/>
<path d="M116.757 155.512V186.794C116.757 189.802 119.163 192.208 122.171 192.208C125.179 192.208 127.585 189.802 127.585 186.794V155.512H116.757Z" fill="white"/>
<path d="M138.414 155.512V186.794C138.414 189.802 140.82 192.208 143.828 192.208C146.836 192.208 149.242 189.802 149.242 186.794V155.512H138.414Z" fill="white"/>
<path d="M160.071 155.512V186.794C160.071 189.802 162.477 192.208 165.485 192.208C168.493 192.208 170.899 189.802 170.899 186.794V155.512H160.071Z" fill="white"/>
<path d="M19.501 155.512V186.794C19.501 189.802 21.9073 192.208 24.9152 192.208C27.9231 192.208 30.3295 189.802 30.3295 186.794V155.512H19.501Z" fill="#0087FA"/>
<path d="M41.0576 155.512V186.794C41.0576 189.802 43.4639 192.208 46.4719 192.208C49.4798 192.208 51.8861 189.802 51.8861 186.794V155.512H41.0576Z" fill="#0087FA"/>
<path d="M62.7148 155.512V186.794C62.7148 189.802 65.1212 192.208 68.1291 192.208C71.137 192.208 73.5433 189.802 73.5433 186.794V155.512H62.7148Z" fill="#0087FA"/>
<path d="M84.3721 155.512V186.794C84.3721 189.802 86.7784 192.208 89.7863 192.208C92.7942 192.208 95.2006 189.802 95.2006 186.794V155.512H84.3721Z" fill="#0087FA"/>
<path d="M106.028 155.512V186.794C106.028 189.802 108.435 192.208 111.443 192.208C114.45 192.208 116.857 189.802 116.857 186.794V155.512H106.028Z" fill="#0087FA"/>
<path d="M127.585 155.512V186.794C127.585 189.802 129.992 192.208 133 192.208C136.008 192.208 138.414 189.802 138.414 186.794V155.512H127.585Z" fill="#0087FA"/>
<path d="M149.242 155.512V186.794C149.242 189.802 151.649 192.208 154.656 192.208C157.664 192.208 160.071 189.802 160.071 186.794V155.512H149.242Z" fill="#0087FA"/>
<path d="M170.899 155.512V186.794C170.899 189.802 173.306 192.208 176.314 192.208C179.322 192.208 181.728 189.802 181.728 186.794V155.512H170.899Z" fill="#0087FA"/>
<path d="M8.67188 10.3281V41.6104C8.67188 44.6184 11.0782 47.0247 14.0861 47.0247C17.094 47.0247 19.5004 44.6184 19.5004 41.6104V10.3281H8.67188Z" fill="white"/>
<path d="M30.3291 10.3281V41.6104C30.3291 44.6184 32.7354 47.0247 35.7434 47.0247C38.7513 47.0247 41.1576 44.6184 41.1576 41.6104V10.3281H30.3291Z" fill="white"/>
<path d="M51.8857 10.3281V41.6104C51.8857 44.6184 54.2921 47.0247 57.3 47.0247C60.3079 47.0247 62.7142 44.6184 62.7142 41.6104V10.3281H51.8857Z" fill="white"/>
<path d="M73.543 10.3281V41.6104C73.543 44.6184 75.9493 47.0247 78.9572 47.0247C81.9651 47.0247 84.3715 44.6184 84.3715 41.6104V10.3281H73.543Z" fill="white"/>
<path d="M95.1997 10.3281V41.6104C95.1997 44.6184 97.606 47.0247 100.614 47.0247C103.622 47.0247 106.028 44.6184 106.028 41.6104V10.3281H95.1997Z" fill="white"/>
<path d="M116.756 10.3281V41.6104C116.756 44.6184 119.163 47.0247 122.171 47.0247C125.179 47.0247 127.585 44.6184 127.585 41.6104V10.3281H116.756Z" fill="white"/>
<path d="M138.414 10.3281V41.6104C138.414 44.6184 140.82 47.0247 143.828 47.0247C146.836 47.0247 149.242 44.6184 149.242 41.6104V10.3281H138.414Z" fill="white"/>
<path d="M160.07 10.3281V41.6104C160.07 44.6184 162.477 47.0247 165.485 47.0247C168.492 47.0247 170.899 44.6184 170.899 41.6104V10.3281H160.07Z" fill="white"/>
<path d="M19.501 10.3281V41.6104C19.501 44.6184 21.9073 47.0247 24.9152 47.0247C27.9231 47.0247 30.3295 44.6184 30.3295 41.6104V10.3281H19.501Z" fill="#0087FA"/>
<path d="M41.0576 10.3281V41.6104C41.0576 44.6184 43.4639 47.0247 46.4719 47.0247C49.4798 47.0247 51.8861 44.6184 51.8861 41.6104V10.3281H41.0576Z" fill="#0087FA"/>
<path d="M62.7148 10.3281V41.6104C62.7148 44.6184 65.1212 47.0247 68.1291 47.0247C71.137 47.0247 73.5433 44.6184 73.5433 41.6104V10.3281H62.7148Z" fill="#0087FA"/>
<path d="M84.3716 10.3281V41.6104C84.3716 44.6184 86.7779 47.0247 89.7858 47.0247C92.7937 47.0247 95.2001 44.6184 95.2001 41.6104V10.3281H84.3716Z" fill="#0087FA"/>
<path d="M106.028 10.3281V41.6104C106.028 44.6184 108.435 47.0247 111.443 47.0247C114.45 47.0247 116.857 44.6184 116.857 41.6104V10.3281H106.028Z" fill="#0087FA"/>
<path d="M127.585 10.3281V41.6104C127.585 44.6184 129.991 47.0247 132.999 47.0247C136.007 47.0247 138.413 44.6184 138.413 41.6104V10.3281H127.585Z" fill="#0087FA"/>
<path d="M149.242 10.3281V41.6104C149.242 44.6184 151.649 47.0247 154.656 47.0247C157.664 47.0247 160.071 44.6184 160.071 41.6104V10.3281H149.242Z" fill="#0087FA"/>
<path d="M170.899 10.3281V41.6104C170.899 44.6184 173.306 47.0247 176.314 47.0247C179.322 47.0247 181.728 44.6184 181.728 41.6104V10.3281H170.899Z" fill="#0087FA"/>
<path d="M129.892 253.066H111.443C109.939 253.066 108.736 251.963 108.736 250.559V241.335C108.736 239.931 109.939 238.828 111.443 238.828H127.084C128.087 238.828 128.989 239.329 129.49 240.232L131.696 244.242C132.298 245.345 132.599 246.649 132.599 247.952V250.659C132.599 251.963 131.395 253.066 129.892 253.066Z" fill="#B0B6BF"/>
<path d="M126.382 234.219H110.54C109.537 234.219 108.835 235.021 108.835 235.923V237.126C108.835 238.129 109.638 238.831 110.54 238.831H126.382C127.384 238.831 128.086 238.029 128.086 237.126V235.923C128.086 234.921 127.384 234.219 126.382 234.219Z" fill="#B0B6BF"/>
<path d="M181.628 291.668H8.67236V295.979H181.628V291.668Z" fill="#0E66AF"/>
<path d="M48.7775 292.068H19.8013V289.361L34.3395 286.754L48.7775 289.261V292.068Z" fill="#0087FA"/>
<path d="M54.0915 246.148H14.4873V250.861H54.0915V246.148Z" fill="#0087FA"/>
<path d="M35.4428 250.859H33.1367V287.556H35.4428V250.859Z" fill="#0087FA"/>
<path d="M35.4428 250.859H33.1367V256.574H35.4428V250.859Z" fill="#0158D9"/>
<path d="M48.7775 289.965H19.8013V292.07H48.7775V289.965Z" fill="#0158D9"/>
<path d="M79.3581 263.395H55.395V267.004H79.3581V263.395Z" fill="#96BAFD"/>
<path d="M76.2504 267.104L72.7412 267.004L72.9417 267.605H76.3507L76.2504 267.104Z" fill="#7AA2E2"/>
<path d="M58.7043 267.104L58.604 267.605H62.013L62.2135 267.004L58.7043 267.104Z" fill="#7AA2E2"/>
<path d="M76.3504 267.605H72.9414L75.3477 276.529H76.952C77.5535 277.431 77.5535 278.334 76.952 279.336H76.0496L79.3583 291.569C79.4586 292.371 81.5641 292.17 81.4638 291.368L76.3504 267.605Z" fill="#96BAFD"/>
<path d="M58.1024 276.529H59.6064L62.0127 267.605H58.6037L53.4903 291.368C53.39 292.17 55.4956 292.371 55.5958 291.569L58.9045 279.336H58.1024C57.4006 278.334 57.4006 277.431 58.1024 276.529Z" fill="#96BAFD"/>
<path d="M59.6061 276.531L58.9043 279.339H76.0494L75.3476 276.531H59.6061Z" fill="#7AA2E2"/>
<path d="M76.9519 276.531H75.3477L76.0495 279.339H76.9519C77.6537 278.336 77.6537 277.434 76.9519 276.531Z" fill="#7AA2E2"/>
<path d="M58.1026 276.531C57.4007 277.434 57.4007 278.336 58.1026 279.339H58.9047L59.6065 276.531H58.1026Z" fill="#7AA2E2"/>
<path d="M76.5509 278.938H58.5034C57.9019 278.135 57.9019 277.333 58.5034 276.531H76.5509C77.1525 277.333 77.1525 278.135 76.5509 278.938Z" fill="#96BAFD"/>
<path d="M50.7826 244.34H30.8301V246.044H50.7826V244.34Z" fill="#B0B6BF"/>
<path d="M31.8327 244.14L30.7298 245.644L23.21 228.699L24.6137 228.098L31.8327 244.14Z" fill="#B0B6BF"/>
<path d="M44.4659 281.441H38.5503V284.449H44.4659V281.441Z" fill="white"/>
<path d="M45.1676 288.362C44.1649 289.064 36.7454 288.863 35.2415 288.663C33.7375 288.362 34.1385 286.156 35.7428 284.953C36.2441 284.552 37.347 283.75 38.6504 284.05C41.7586 284.852 44.7665 284.251 45.1676 284.652C45.5686 285.053 46.1702 287.66 45.1676 288.362Z" fill="#0158D9"/>
<path d="M71.6372 254.07C71.6372 254.07 42.0594 254.07 41.9591 254.07C39.6531 254.07 37.748 255.975 37.748 258.281V281.643H46.1702L47.2731 261.891H71.7375V254.07H71.6372Z" fill="#B8BAC1"/>
<path d="M75.9492 252.263C75.9492 249.456 76.0494 247.049 75.6484 243.139C75.2473 239.229 75.0468 236.722 73.8436 235.72C72.6404 234.717 74.9465 234.216 64.0178 234.516C61.6114 236.923 59.7064 242.537 59.2051 244.041C59.2051 244.142 59.1048 244.342 59.1048 244.643C58.9043 246.047 58.9043 248.854 58.9043 251.16C58.9043 253.065 58.9043 254.469 58.9043 254.469L75.8489 256.474C75.9492 256.574 75.9492 255.07 75.9492 252.263Z" fill="#63B0E5"/>
<path d="M48.8775 283.949H42.9619V286.957H48.8775V283.949Z" fill="white"/>
<path d="M49.4791 290.768C48.4765 291.47 41.0569 291.269 39.553 291.069C38.049 290.868 38.4501 288.562 40.0543 287.359C40.5556 286.958 41.6585 286.156 42.9619 286.457C46.0701 287.259 49.078 286.657 49.4791 287.058C49.7799 287.459 50.4817 290.066 49.4791 290.768Z" fill="#0158D9"/>
<path d="M75.9489 256.574L60.408 254.77C60.408 254.77 49.6798 256.073 45.97 256.374C42.3605 256.675 41.9595 258.479 41.9595 260.785V284.147H50.3816L51.4845 264.395C51.4845 264.395 71.8381 264.696 75.0465 263.593C78.3553 262.39 75.9489 256.574 75.9489 256.574Z" fill="#E0E1E4"/>
<path d="M72.9409 227.098L71.2364 229.805L72.1388 235.419C72.1388 235.419 70.334 236.823 67.9277 237.024C65.5214 237.224 65.2206 237.124 63.9171 236.422C64.2179 234.116 64.5187 231.81 64.5187 231.81C64.5187 231.81 63.115 231.409 62.1124 230.306C61.1098 229.203 60.6084 227.799 60.6084 227.799C60.6084 227.799 57.9013 226.195 59.6058 225.493C61.4105 224.691 58.3024 217.171 60.3076 217.171C62.2127 217.171 66.7245 216.169 68.3288 216.77C69.8327 217.372 69.4317 218.675 70.6348 219.678C72.0385 220.881 73.4422 221.583 73.4422 223.388C73.4422 225.193 72.9409 227.098 72.9409 227.098Z" fill="white"/>
<path d="M62.5134 226.897C63.7317 226.897 64.7192 225.865 64.7192 224.591C64.7192 223.318 63.7317 222.285 62.5134 222.285C61.2952 222.285 60.3076 223.318 60.3076 224.591C60.3076 225.865 61.2952 226.897 62.5134 226.897Z" stroke="#383C42" stroke-width="0.5" stroke-miterlimit="10" stroke-linecap="round"/>
<path d="M61.912 225.396C62.1888 225.396 62.4133 225.082 62.4133 224.694C62.4133 224.306 62.1888 223.992 61.912 223.992C61.6351 223.992 61.4106 224.306 61.4106 224.694C61.4106 225.082 61.6351 225.396 61.912 225.396Z" fill="#383C42"/>
<path d="M62.313 229.608C62.313 229.608 63.2154 229.508 63.6164 229.007C64.0175 228.505 64.0175 228.004 64.0175 228.004" stroke="#383C42" stroke-width="0.5" stroke-miterlimit="10" stroke-linecap="round"/>
<path d="M75.9489 221.584C75.4476 213.864 71.1362 214.465 71.1362 214.465C69.0307 209.051 59.2048 214.566 57.8012 217.975C56.3975 221.384 59.9067 218.576 59.9067 218.576C60.5083 219.88 61.912 220.782 63.0149 218.175C63.1151 217.975 65.722 220.983 66.123 218.677C66.123 218.476 67.627 219.679 68.3289 219.278C68.2286 220.782 69.2312 224.091 69.2312 224.091C69.2312 224.091 70.5347 223.289 70.9357 223.088C71.1362 222.888 71.3368 222.787 71.5373 222.687V229.305C71.5373 229.305 74.2444 227.299 74.846 226.297C75.4476 225.294 75.8486 223.991 75.9489 223.389C76.0492 222.687 75.9489 221.584 75.9489 221.584Z" fill="#0158D9"/>
<path d="M71.1364 225.293C70.6351 225.293 70.1338 224.892 70.1338 224.29V222.686C70.1338 222.185 70.5348 221.684 71.1364 221.684C71.6377 221.684 72.1391 222.085 72.1391 222.686V224.29C72.1391 224.792 71.738 225.293 71.1364 225.293Z" fill="white"/>
<path d="M72.8408 244.141C73.9437 243.54 74.3448 241.935 73.7432 240.431L73.4424 239.529C72.8408 238.025 71.4371 237.223 70.3342 237.925L59.2049 244.141C59.0044 245.645 59.0044 248.653 59.0044 251.16C59.4054 251.059 59.7062 250.959 59.8065 250.859L72.8408 244.141Z" fill="#1C85E8"/>
<path d="M46.5717 243.042C46.5717 244.847 44.767 246.551 42.6614 246.25C41.6588 246.15 41.1575 244.947 40.4556 244.445C39.7538 243.844 38.7512 243.844 38.6509 243.142C38.3501 241.438 40.4556 239.934 42.5612 239.934C44.767 239.934 46.5717 241.337 46.5717 243.042Z" fill="white"/>
<path d="M73.7433 239.632L73.3423 238.83C72.7407 237.426 71.2367 236.724 70.0335 237.326L57.4003 243.442L46.5718 241.035C45.5692 240.835 44.5665 241.838 44.1655 243.241L44.0652 243.642C43.6642 245.146 44.1655 246.55 45.1681 246.75L56.6984 249.758C57.0995 249.859 58.3027 249.558 58.5032 249.458L72.6404 243.141C73.9438 242.64 74.3449 241.035 73.7433 239.632Z" fill="#63B0E5"/>
<path d="M64.4186 231.814C64.4186 231.814 67.226 232.115 69.0308 231.313C70.8355 230.511 68.6297 232.416 67.5268 232.716C66.4239 233.017 64.3184 233.017 64.3184 233.017L64.4186 231.814Z" fill="#C0E5FF"/>
<path d="M63.3158 221.283L61.0098 221.583C60.8092 221.583 60.709 221.483 60.709 221.383C60.709 221.182 60.8092 221.082 60.9095 221.082L63.2156 220.781C63.4161 220.781 63.5164 220.882 63.5164 220.982C63.5164 221.082 63.4161 221.283 63.3158 221.283Z" fill="#383C42"/>
<path d="M107.131 118.109H83.1675V121.719H107.131V118.109Z" fill="#96BAFD"/>
<path d="M104.023 121.719H100.514L100.714 122.32H104.123L104.023 121.719Z" fill="#7AA2E2"/>
<path d="M86.4767 121.719L86.3765 122.32H89.7854L89.986 121.719H86.4767Z" fill="#7AA2E2"/>
<path d="M104.123 122.32H100.714L103.12 131.244H104.724C105.326 132.146 105.326 133.049 104.724 134.051H103.822L107.131 146.283C107.231 147.085 109.337 146.885 109.236 146.083L104.123 122.32Z" fill="#96BAFD"/>
<path d="M85.8749 131.244H87.3788L89.7852 122.32H86.3762L81.2627 146.083C81.1625 146.885 83.268 147.085 83.3683 146.283L86.677 134.051H85.8749C85.173 133.049 85.173 132.146 85.8749 131.244Z" fill="#96BAFD"/>
<path d="M87.3786 131.246L86.6768 133.953H103.822L103.12 131.246H87.3786Z" fill="#7AA2E2"/>
<path d="M104.724 131.246H103.12L103.822 134.053H104.724C105.426 133.051 105.426 132.148 104.724 131.246Z" fill="#7AA2E2"/>
<path d="M85.875 131.246C85.1732 132.148 85.1732 133.051 85.875 134.053H86.6771L87.379 131.246H85.875Z" fill="#7AA2E2"/>
<path d="M104.323 133.652H86.2759C85.6743 132.85 85.6743 132.048 86.2759 131.246H104.323C104.925 132.048 104.925 132.85 104.323 133.652Z" fill="#96BAFD"/>
<path d="M157.764 118.109H133.801V121.719H157.764V118.109Z" fill="#96BAFD"/>
<path d="M154.656 121.719H151.247L151.347 122.32H154.756L154.656 121.719Z" fill="#7AA2E2"/>
<path d="M137.111 121.719L137.01 122.32H140.419L140.62 121.719H137.111Z" fill="#7AA2E2"/>
<path d="M154.757 122.32H151.348L153.754 131.244H155.358C155.96 132.146 155.96 133.049 155.358 134.051H154.456L157.765 146.283C157.865 147.085 159.97 146.885 159.87 146.083L154.757 122.32Z" fill="#96BAFD"/>
<path d="M136.509 131.244H138.013L140.419 122.32H137.01L131.897 146.083C131.796 146.885 133.902 147.085 134.002 146.283L137.311 134.051H136.509C135.907 133.049 135.907 132.146 136.509 131.244Z" fill="#96BAFD"/>
<path d="M138.012 131.246L137.311 133.953H154.556L153.754 131.246H138.012Z" fill="#7AA2E2"/>
<path d="M155.358 131.246H153.754L154.456 134.053H155.358C156.06 133.051 156.06 132.148 155.358 131.246Z" fill="#7AA2E2"/>
<path d="M136.509 131.246C135.807 132.148 135.807 133.051 136.509 134.053H137.311L138.013 131.246H136.509Z" fill="#7AA2E2"/>
<path d="M154.957 133.652H136.91C136.308 132.85 136.308 132.048 136.91 131.246H154.957C155.559 132.048 155.559 132.85 154.957 133.652Z" fill="#96BAFD"/>
<path d="M56.1969 118.109H32.2339V121.719H56.1969V118.109Z" fill="#96BAFD"/>
<path d="M53.0887 121.719H49.6797L49.78 122.32H53.1889L53.0887 121.719Z" fill="#7AA2E2"/>
<path d="M35.5431 121.719L35.4429 122.32H38.8518L39.0524 121.719H35.5431Z" fill="#7AA2E2"/>
<path d="M53.1892 122.32H49.7803L52.1866 131.244H53.7908C54.3924 132.146 54.3924 133.049 53.7908 134.051H52.8885L56.1972 146.283C56.2974 147.085 58.403 146.885 58.3027 146.083L53.1892 122.32Z" fill="#96BAFD"/>
<path d="M34.9413 131.244H36.4452L38.8516 122.32H35.4426L30.3292 146.083C30.2289 146.885 32.3344 147.085 32.4347 146.283L35.7434 134.051H34.9413C34.2394 133.049 34.2394 132.146 34.9413 131.244Z" fill="#96BAFD"/>
<path d="M36.445 131.246L35.7432 133.953H52.8883L52.1864 131.246H36.445Z" fill="#7AA2E2"/>
<path d="M53.7907 131.246H52.1865L52.8884 134.053H53.7907C54.4926 133.051 54.4926 132.148 53.7907 131.246Z" fill="#7AA2E2"/>
<path d="M34.9414 131.246C34.2396 132.148 34.2396 133.051 34.9414 134.053H35.7435L36.4454 131.246H34.9414Z" fill="#7AA2E2"/>
<path d="M53.3898 133.652H35.3423C34.7407 132.85 34.7407 132.048 35.3423 131.246H53.3898C53.9914 132.048 53.9914 132.85 53.3898 133.652Z" fill="#96BAFD"/>
<path d="M190.25 0H0.25V5.51451H190.25V0Z" fill="#0158D9"/>
<path d="M33.4375 83.8237C36.8465 82.1192 36.8465 82.019 47.8755 82.3198C56.2977 82.42 58.5035 90.2406 59.0048 91.7446C59.5061 93.2485 60.5088 98.4622 59.0048 100.668C57.5009 102.774 55.5959 107.085 55.5959 107.085L30.3294 107.687C27.0207 106.884 26.9204 100.568 26.7199 99.3646C26.5193 98.1614 26.5193 95.1535 27.2212 92.9477C27.8228 90.6417 29.9283 85.5282 33.4375 83.8237Z" fill="#96BAFD"/>
<path d="M37.2476 75.2013C37.6486 76.3042 38.15 77.4071 38.9521 78.4098L38.0497 83.5232C38.0497 83.5232 39.9547 85.1274 42.2608 85.1274C44.5668 85.1274 45.369 85.2277 47.675 83.7238C47.3742 81.4177 47.1737 79.0114 47.1737 79.0114C47.1737 79.0114 47.9758 78.2092 48.5774 77.2066C49.179 76.3042 49.58 75.0008 49.58 75.0008C49.58 75.0008 51.1843 75.5021 51.8861 73.9982C52.3874 72.4942 52.6882 71.8926 51.7858 71.1908C50.7832 70.4889 51.8861 72.0931 50.2819 71.3913C48.4771 70.5892 46.3716 64.6736 44.2661 64.6736C42.361 64.6736 43.4639 64.072 41.8597 64.6736C40.3558 65.2752 40.7568 66.5786 39.5536 67.5813C38.15 68.7844 34.5405 70.89 34.6407 72.6947C34.6407 74.5997 37.2476 75.2013 37.2476 75.2013Z" fill="white"/>
<path d="M43.063 80.1107C40.7569 80.0105 38.9522 78.4062 38.9522 78.4062L38.6514 80.3113C38.6514 80.3113 40.6566 81.4142 43.063 81.5144C45.5696 81.6147 47.1738 80.0105 47.1738 80.0105L47.0735 79.2084C47.0735 79.1081 45.2688 80.1107 43.063 80.1107Z" fill="#C0E5FF"/>
<path d="M40.7572 73.1967C41.034 73.1967 41.2585 72.8824 41.2585 72.4948C41.2585 72.1072 41.034 71.793 40.7572 71.793C40.4803 71.793 40.2559 72.1072 40.2559 72.4948C40.2559 72.8824 40.4803 73.1967 40.7572 73.1967Z" fill="#383C42"/>
<path d="M45.9706 73.1967C46.2474 73.1967 46.4719 72.8824 46.4719 72.4948C46.4719 72.1072 46.2474 71.793 45.9706 71.793C45.6937 71.793 45.4692 72.1072 45.4692 72.4948C45.4692 72.8824 45.6937 73.1967 45.9706 73.1967Z" fill="#383C42"/>
<path d="M43.6644 73.1953V75.3009H42.8623" stroke="#383C42" stroke-width="0.5" stroke-miterlimit="10" stroke-linecap="round"/>
<path d="M41.9603 77.3073C41.9603 77.3073 41.058 77.2071 40.6569 76.7058C40.2559 76.2044 40.2559 75.7031 40.2559 75.7031" stroke="#383C42" stroke-width="0.5" stroke-miterlimit="10" stroke-linecap="round"/>
<path d="M51.9864 64.1712C50.9838 61.5644 46.4719 59.5591 44.8677 60.7623C40.7569 56.852 31.1315 67.0789 35.2424 70.9892C35.1421 71.29 36.7463 73.9971 37.1474 71.29C37.4482 69.0842 40.1553 70.6884 41.3585 68.3823C41.7595 69.4852 44.1658 69.2847 44.1658 68.282C44.8677 69.4852 45.7701 69.2847 47.1738 68.7834C47.1738 68.7834 46.4719 71.0894 49.179 71.0894C50.4825 74.8995 49.9811 72.7939 51.7859 70.8889C53.3901 69.4852 53.0893 66.7781 51.9864 64.1712Z" fill="#0158D9"/>
<path d="M51.4849 106.984L30.229 107.586V113.602C30.7303 113 31.3319 112.599 32.0338 112.399C32.7356 111.797 33.638 111.396 34.5404 111.396H34.9414C36.9467 111.396 38.6512 113.1 38.6512 115.106V118.114H49.6802C51.886 118.114 54.0918 117.412 55.9968 116.108L61.3108 112.298L51.4849 106.984Z" fill="#0B1628"/>
<path d="M25.8178 114.002L31.9339 115.908C32.335 116.008 32.7361 115.807 32.8363 115.406L34.0395 111.596C34.1397 111.195 33.9392 110.794 33.5382 110.694L25.8178 108.287C25.0157 107.987 24.1134 108.488 23.8126 109.29L23.612 109.892C23.211 111.696 24.1134 113.501 25.8178 114.002Z" fill="white"/>
<path d="M29.3267 115.106L32.7356 116.209L34.3399 111.095L30.9309 109.992C30.7304 111.797 30.1288 113.501 29.3267 115.106Z" fill="#C0E5FF"/>
<path d="M34.841 118.313L60.3081 112.999C62.4136 112.598 63.8173 110.493 63.316 108.387C62.9149 106.282 60.8094 104.878 58.7038 105.379L33.2368 110.693L34.841 118.313Z" fill="#1F2D49"/>
<path d="M30.1294 142.474V136.057C30.1294 135.656 30.4302 135.355 30.8312 135.355H34.8418C35.2429 135.355 35.5436 135.656 35.5436 136.057V144.179C35.5436 145.081 34.8418 145.783 33.9394 145.783H33.3378C31.6334 145.683 30.1294 144.179 30.1294 142.474Z" fill="white"/>
<path d="M35.5436 138.363H30.1294V140.469H35.5436V138.363Z" fill="#C0E5FF"/>
<path d="M30.8306 118.113V115.106C30.8306 114.003 31.3319 113.1 32.0338 112.398C31.3319 112.599 30.6301 113 30.229 113.602V118.113H30.8306Z" fill="#1F2D49"/>
<path d="M35.0421 111.396C34.1397 110.995 33.2373 110.594 33.2373 110.594C32.335 110.694 32.8363 111.897 32.0342 112.398C32.335 112.298 32.736 112.198 33.0368 112.198H33.4379C35.4431 112.198 37.1476 113.902 37.1476 115.908V118.013H38.6516V115.005C38.7519 113.1 35.9445 111.797 35.0421 111.396Z" fill="#0B1628"/>
<path d="M33.5381 112.297H33.137C32.736 112.297 32.4352 112.397 32.1344 112.497C31.4325 113.199 30.9312 114.102 30.9312 115.205V118.212H30.2294V113.701C29.728 114.302 29.4272 115.104 29.4272 116.007V139.067H37.3481V138.165V118.112V116.007C37.2478 113.901 35.5433 112.297 33.5381 112.297Z" fill="#1F2D49"/>
<path d="M37.0473 146.788H31.4325C30.4299 146.788 29.728 145.986 29.728 145.083V143.279C29.728 142.978 29.9286 142.777 30.2293 142.777H37.0473C38.0499 142.777 38.7518 143.579 38.7518 144.482V144.983C38.7518 145.986 37.9497 146.788 37.0473 146.788Z" fill="#0087FA"/>
<path d="M28.8256 110.593L28.0235 112.598C27.5222 113.902 26.0182 114.603 24.6145 114.102L22.9101 113.4C21.2056 112.698 20.3032 110.793 20.9048 109.089V108.989C21.6066 107.284 23.5116 106.382 25.2161 106.983L27.4219 107.786C28.6251 108.287 29.2267 109.59 28.8256 110.593Z" fill="#0087FA"/>
<path d="M174.709 100.867H14.4878V105.58H174.709V100.867Z" fill="#0087FA"/>
<path d="M39.1524 100.864H32.4348L31.7329 90.3359H39.5535L39.1524 100.864Z" fill="#C1D5FE"/>
<path d="M39.5538 98.3582H31.5327V93.4453H39.8546L39.5538 98.3582Z" fill="#0158D9"/>
<path d="M39.9546 88.832H31.4321V90.336H39.9546V88.832Z" fill="white"/>
<path d="M39.2527 87.6289H32.0337V88.8321H39.2527V87.6289Z" fill="white"/>
<path d="M36.3448 96.8572C36.6456 98.5617 35.2419 100.266 33.0361 100.667C30.8303 101.068 28.825 100.066 28.5242 98.3611C28.2234 96.8572 29.2261 93.9495 30.9305 93.2477C31.2313 93.1474 31.0308 94.4509 31.3316 94.3506C33.5374 93.9495 36.044 95.1527 36.3448 96.8572Z" fill="white"/>
<path d="M35.442 95.957C35.442 95.957 34.5396 96.9597 32.4341 96.5586L35.442 95.957Z" fill="white"/>
<path d="M35.442 95.957C35.442 95.957 34.5396 96.9597 32.4341 96.5586" stroke="#C0E5FF" stroke-width="0.5" stroke-miterlimit="10" stroke-linecap="round"/>
<path d="M35.8439 97.2578C35.8439 97.2578 34.9415 98.2604 32.8359 97.8594L35.8439 97.2578Z" fill="white"/>
<path d="M35.8439 97.2578C35.8439 97.2578 34.9415 98.2604 32.8359 97.8594" stroke="#C0E5FF" stroke-width="0.5" stroke-miterlimit="10" stroke-linecap="round"/>
<path d="M35.6427 98.5625C35.6427 98.5625 34.7403 99.5651 32.6348 99.1641L35.6427 98.5625Z" fill="white"/>
<path d="M35.6427 98.5625C35.6427 98.5625 34.7403 99.5651 32.6348 99.1641" stroke="#C0E5FF" stroke-width="0.5" stroke-miterlimit="10" stroke-linecap="round"/>
<path d="M162.176 93.9431C162.176 93.9431 157.564 91.3362 158.767 87.5262C159.87 83.7162 162.176 93.9431 162.176 93.9431Z" fill="#C0E5FF"/>
<path d="M162.878 93.9454C162.878 93.9454 159.369 89.9349 161.675 86.7265C163.981 83.518 162.878 93.9454 162.878 93.9454Z" fill="#C0E5FF"/>
<path d="M163.58 93.9475C163.58 93.9475 168.392 91.6414 167.49 87.7311C166.487 83.9211 163.58 93.9475 163.58 93.9475Z" fill="#C0E5FF"/>
<path d="M161.675 92.3403C161.675 92.3403 159.77 89.6332 159.97 88.6306C160.171 87.6279 160.371 88.5303 160.873 89.7335C161.374 91.0369 161.675 92.3403 161.675 92.3403Z" fill="#94C3E0"/>
<path d="M162.878 92.2409C162.878 92.2409 161.775 89.3332 162.377 88.2303C162.978 87.1274 162.878 89.0324 162.878 89.0324V92.2409Z" fill="#94C3E0"/>
<path d="M164.783 93.0416C164.783 93.0416 167.19 91.0363 167.19 89.8331C167.19 88.5297 166.889 89.6326 166.387 90.7355C165.886 91.8384 164.783 93.0416 164.783 93.0416Z" fill="#94C3E0"/>
<path d="M163.58 93.9434C163.58 93.9434 161.274 89.1307 164.382 86.6241C167.49 84.1175 163.58 93.9434 163.58 93.9434Z" fill="#C0E5FF"/>
<path d="M164.181 91.6398C164.181 91.6398 163.98 89.0329 164.783 87.93C165.585 86.8271 165.083 88.5316 165.083 88.5316L164.181 91.6398Z" fill="#94C3E0"/>
<path d="M166.588 100.866H159.369C158.967 100.866 158.566 100.465 158.566 100.064V94.0482C158.566 93.6472 158.967 93.2461 159.369 93.2461H166.588C166.989 93.2461 167.39 93.6472 167.39 94.0482V100.064C167.39 100.565 166.989 100.866 166.588 100.866Z" fill="#63B0E5"/>
<path d="M166.588 100.866H159.369C158.967 100.866 158.566 100.465 158.566 100.064C158.566 100.064 163.379 100.866 165.184 98.6603C166.989 96.4545 166.588 93.2461 166.588 93.2461C166.989 93.2461 167.39 93.6472 167.39 94.0482V100.064C167.39 100.565 166.989 100.866 166.588 100.866Z" fill="#449BCC"/>
<path d="M123.976 252.361H111.744C110.641 252.361 109.738 251.459 109.738 250.356V241.533C109.738 240.43 110.641 239.527 111.744 239.527H124.076C125.179 239.527 126.081 240.43 126.081 241.533V250.356C126.081 251.459 125.179 252.361 123.976 252.361Z" fill="#919BAA"/>
<path d="M124.978 238.228H110.34C109.738 238.228 109.237 237.727 109.237 237.125V235.822C109.237 235.22 109.738 234.719 110.34 234.719H124.978C125.58 234.719 126.081 235.22 126.081 235.822V237.125C126.081 237.727 125.58 238.228 124.978 238.228Z" fill="#919BAA"/>
</g>
<defs>
<clipPath id="clip0_956_175086">
<rect width="189.5" height="304.7" fill="white" transform="translate(0.25)"/>
</clipPath>
</defs>
</svg>
