<svg width="191" height="306" viewBox="0 0 191 306" fill="none" xmlns="http://www.w3.org/2000/svg">
<path d="M187.04 5.61719H4.56006V305.506H187.04V5.61719Z" fill="#BFD5FE"/>
<path d="M182.228 155.512H9.27246V295.981H182.228V155.512Z" fill="#E0F1FC"/>
<path d="M68.7292 191.906H30.3281V254.17H68.7292V191.906Z" fill="#1C85E8"/>
<path d="M48.4761 194.312H32.5342V211.959H48.4761V194.312Z" fill="#C0E5FF"/>
<path d="M48.4761 214.262H32.5342V251.76H48.4761V214.262Z" fill="#C0E5FF"/>
<path d="M66.5235 194.312H50.8823V211.959H66.5235V194.312Z" fill="#C0E5FF"/>
<path d="M66.5235 214.262H50.8823V251.76H66.5235V214.262Z" fill="#C0E5FF"/>
<path d="M163.379 205.84H108.233V235.618H163.379V205.84Z" fill="#1F2D49"/>
<path d="M133.066 210.981C133.065 210.599 132.969 210.289 132.778 210.051C132.56 209.776 132.265 209.678 131.892 209.756C131.762 209.784 131.571 209.92 131.318 210.166H131.301C131.083 209.805 130.762 209.668 130.337 209.756C130.243 209.775 130.155 209.821 130.073 209.893C130.055 209.907 130.024 209.937 129.98 209.98C129.948 210.013 129.922 210.036 129.902 210.049V210.046C129.902 209.98 129.879 209.923 129.832 209.875C129.784 209.827 129.727 209.802 129.661 209.802H129.377C129.309 209.802 129.251 209.827 129.204 209.875C129.157 209.923 129.133 209.98 129.133 210.046V211.873C129.133 211.969 129.167 212.052 129.236 212.122C129.306 212.19 129.389 212.224 129.485 212.224H129.539C129.636 212.224 129.719 212.19 129.788 212.122C129.858 212.052 129.893 211.969 129.893 211.873V210.801C129.893 210.685 129.932 210.584 130.01 210.498C130.09 210.41 130.186 210.365 130.3 210.361C130.419 210.358 130.522 210.398 130.608 210.481C130.693 210.564 130.735 210.665 130.735 210.784V211.873C130.735 211.969 130.77 212.052 130.84 212.122C130.908 212.19 130.991 212.224 131.089 212.224H131.16C131.256 212.224 131.339 212.19 131.409 212.122C131.477 212.052 131.511 211.969 131.511 211.873V210.801C131.511 210.685 131.55 210.584 131.628 210.498C131.708 210.41 131.805 210.365 131.919 210.361C132.039 210.358 132.142 210.398 132.227 210.481C132.313 210.564 132.356 210.665 132.356 210.784V211.873C132.356 211.969 132.39 212.052 132.458 212.122C132.527 212.19 132.61 212.224 132.708 212.224H132.715C132.812 212.224 132.896 212.19 132.964 212.122C133.032 212.052 133.066 211.969 133.066 211.873V210.981ZM134.692 210.332C134.831 210.332 134.957 210.37 135.071 210.447C135.181 210.522 135.262 210.62 135.312 210.742H134.07C134.122 210.62 134.203 210.522 134.314 210.447C134.428 210.37 134.554 210.332 134.692 210.332ZM135.776 211.997C135.798 211.908 135.779 211.827 135.72 211.755C135.663 211.682 135.589 211.646 135.498 211.648H134.692C134.551 211.648 134.422 211.608 134.307 211.528C134.194 211.452 134.114 211.35 134.065 211.223H135.796C135.861 211.223 135.917 211.201 135.964 211.157C136.012 211.112 136.035 211.057 136.035 210.994V210.991C136.035 210.649 135.911 210.358 135.662 210.117C135.414 209.876 135.116 209.756 134.766 209.756C134.741 209.756 134.717 209.757 134.692 209.758C134.668 209.757 134.644 209.756 134.619 209.756C134.269 209.756 133.97 209.876 133.721 210.117C133.473 210.358 133.35 210.649 133.35 210.991C133.35 211.331 133.473 211.622 133.721 211.863C133.97 212.104 134.269 212.224 134.619 212.224C134.644 212.224 134.668 212.223 134.692 212.222C134.717 212.223 134.741 212.224 134.766 212.224C135.016 212.224 135.261 212.223 135.5 212.222C135.566 212.22 135.624 212.199 135.676 212.158C135.727 212.118 135.759 212.065 135.774 212.002L135.776 211.997ZM138.911 210.996C138.91 210.615 138.814 210.305 138.625 210.066C138.407 209.792 138.112 209.694 137.739 209.771C137.666 209.785 137.476 209.883 137.168 210.063V210.061C137.168 209.994 137.144 209.937 137.097 209.89C137.05 209.841 136.993 209.817 136.926 209.817H136.646C136.577 209.817 136.519 209.841 136.47 209.89C136.423 209.937 136.399 209.995 136.399 210.063V211.865C136.399 211.968 136.436 212.056 136.509 212.129C136.582 212.202 136.67 212.239 136.772 212.239H136.785C136.887 212.239 136.975 212.202 137.048 212.129C137.122 212.056 137.158 211.968 137.158 211.865V210.828C137.161 210.824 137.162 210.824 137.161 210.825C137.162 210.802 137.165 210.783 137.168 210.767C137.189 210.656 137.275 210.554 137.427 210.461C137.599 210.356 137.766 210.342 137.927 210.42C138.08 210.495 138.157 210.67 138.157 210.945V211.865C138.157 211.968 138.193 212.056 138.267 212.129C138.34 212.202 138.428 212.239 138.53 212.239H138.538C138.642 212.239 138.73 212.202 138.804 212.129C138.877 212.056 138.914 211.968 138.914 211.865L138.911 210.996ZM139.25 210.989C139.252 211.37 139.348 211.679 139.539 211.917C139.755 212.192 140.05 212.291 140.425 212.214C140.496 212.2 140.686 212.102 140.994 211.921V211.924C140.994 211.991 141.018 212.048 141.067 212.095C141.114 212.142 141.171 212.166 141.238 212.166H141.519C141.587 212.166 141.645 212.142 141.692 212.095C141.741 212.046 141.765 211.988 141.765 211.921V210.12C141.765 210.017 141.729 209.929 141.655 209.856C141.582 209.783 141.493 209.746 141.389 209.746H141.379C141.275 209.746 141.187 209.783 141.113 209.856C141.04 209.929 141.003 210.017 141.003 210.12V211.157C141.002 211.16 141.001 211.161 141.001 211.16C140.999 211.182 140.997 211.202 140.994 211.218C140.974 211.329 140.889 211.431 140.737 211.523C140.563 211.629 140.396 211.643 140.237 211.565C140.084 211.49 140.007 211.315 140.007 211.04V210.12C140.007 210.017 139.971 209.929 139.897 209.856C139.824 209.783 139.736 209.746 139.631 209.746H139.624C139.521 209.746 139.434 209.783 139.36 209.856C139.287 209.929 139.25 210.017 139.25 210.12V210.989Z" fill="white"/>
<path d="M113.146 216.469H133.199" stroke="white" stroke-miterlimit="10" stroke-linecap="round"/>
<path d="M113.146 221.082H133.199" stroke="white" stroke-miterlimit="10" stroke-linecap="round"/>
<path d="M113.146 225.793H133.199" stroke="white" stroke-miterlimit="10" stroke-linecap="round"/>
<path d="M113.146 230.402H133.199" stroke="white" stroke-miterlimit="10" stroke-linecap="round"/>
<path d="M137.711 216.469H157.663" stroke="white" stroke-miterlimit="10" stroke-linecap="round"/>
<path d="M137.711 221.082H157.663" stroke="white" stroke-miterlimit="10" stroke-linecap="round"/>
<path d="M137.711 225.793H157.663" stroke="white" stroke-miterlimit="10" stroke-linecap="round"/>
<path d="M137.711 230.402H157.663" stroke="white" stroke-miterlimit="10" stroke-linecap="round"/>
<path d="M146.434 238.324C149.843 236.619 149.843 236.519 160.872 236.82C169.294 236.92 171.5 244.741 172.001 246.245C172.502 247.749 173.505 252.962 172.001 255.168C170.497 257.274 168.592 256.772 168.592 256.772L143.325 257.975C140.017 257.173 139.916 255.068 139.716 253.865C139.515 252.561 139.515 249.654 140.217 247.448C140.819 245.142 143.025 240.028 146.434 238.324Z" fill="#1F2D49"/>
<path d="M150.344 229.6C150.745 230.703 151.246 231.806 152.048 232.808L151.146 237.922C151.146 237.922 153.051 239.526 155.357 239.526C157.663 239.526 158.465 239.626 160.771 238.122C160.471 235.816 160.27 233.41 160.27 233.41C160.27 233.41 161.072 232.608 161.674 231.605C162.275 230.703 162.676 229.399 162.676 229.399C162.676 229.399 164.481 229.399 164.982 227.996C165.484 226.592 165.384 225.689 164.682 225.389C163.98 225.088 164.982 225.689 163.278 224.988C161.473 224.186 159.368 219.072 157.262 219.072C155.357 219.072 156.46 218.47 154.856 219.072C153.352 219.674 153.753 220.977 152.55 221.98C151.146 223.183 147.537 225.288 147.637 227.093C147.737 228.998 150.344 229.6 150.344 229.6Z" fill="white"/>
<path d="M156.159 234.412C153.853 234.311 152.048 232.707 152.048 232.707L151.748 234.612C151.748 234.612 153.753 235.715 156.159 235.815C158.666 235.915 160.27 234.311 160.27 234.311L160.17 233.509C160.17 233.409 158.365 234.512 156.159 234.412Z" fill="#C0E5FF"/>
<path d="M153.753 227.697C154.03 227.697 154.255 227.382 154.255 226.995C154.255 226.607 154.03 226.293 153.753 226.293C153.476 226.293 153.252 226.607 153.252 226.995C153.252 227.382 153.476 227.697 153.753 227.697Z" fill="#383C42"/>
<path d="M159.067 227.697C159.344 227.697 159.568 227.382 159.568 226.995C159.568 226.607 159.344 226.293 159.067 226.293C158.79 226.293 158.565 226.607 158.565 226.995C158.565 227.382 158.79 227.697 159.067 227.697Z" fill="#383C42"/>
<path d="M156.059 227.695V229.801H156.861" stroke="#383C42" stroke-width="0.5" stroke-miterlimit="10" stroke-linecap="round"/>
<path d="M157.863 231.803C157.863 231.803 158.766 231.703 159.167 231.202C159.568 230.701 159.568 230.199 159.568 230.199" stroke="#383C42" stroke-width="0.5" stroke-miterlimit="10" stroke-linecap="round"/>
<path d="M161.373 245.742H164.18V237.32C164.18 237.019 161.673 236.618 161.673 236.919L161.373 245.742Z" fill="#0087FA"/>
<path d="M147.436 245.742H150.243L150.043 237.019C149.943 236.618 147.336 237.421 147.436 237.822V245.742Z" fill="#0087FA"/>
<path d="M147.737 257.874H163.98C164.682 257.874 165.183 257.273 165.183 256.571L164.481 245.341C164.481 244.74 163.88 244.238 163.278 244.238H148.138C147.536 244.238 146.935 244.74 146.935 245.441L146.434 256.671C146.534 257.373 147.035 257.874 147.737 257.874Z" fill="#0087FA"/>
<path d="M145.03 221.078C145.732 221.78 147.336 218.873 149.04 217.268C150.745 215.664 157.362 212.155 159.468 217.669C159.468 217.669 164.982 215.965 164.682 225.49C164.682 225.49 159.969 227.094 157.061 220.176C157.061 220.176 155.357 224.387 151.848 226.493C148.339 228.498 146.433 227.495 144.829 226.092C143.225 224.788 143.325 222.382 143.426 221.68C143.426 220.978 143.726 219.775 145.03 221.078Z" fill="#0158D9"/>
<path d="M38.6496 173.055H36.7446V199.524H38.6496V173.055Z" fill="#63B0E5"/>
<path d="M37.647 212.257C41.4125 212.257 44.465 209.204 44.465 205.439C44.465 201.674 41.4125 198.621 37.647 198.621C33.8816 198.621 30.8291 201.674 30.8291 205.439C30.8291 209.204 33.8816 212.257 37.647 212.257Z" fill="white"/>
<path d="M43.7634 206.043C43.7634 209.05 41.0563 211.357 37.6473 211.357C34.2384 211.357 31.5312 208.95 31.5312 206.043C31.5312 203.135 34.2384 207.446 37.6473 207.446C41.0563 207.446 43.7634 203.135 43.7634 206.043Z" fill="#88D2FF"/>
<path d="M96.8025 173.055H94.8975V199.524H96.8025V173.055Z" fill="#63B0E5"/>
<path d="M95.9005 212.257C99.6659 212.257 102.718 209.204 102.718 205.439C102.718 201.674 99.6659 198.621 95.9005 198.621C92.135 198.621 89.0825 201.674 89.0825 205.439C89.0825 209.204 92.135 212.257 95.9005 212.257Z" fill="white"/>
<path d="M101.916 206.043C101.916 209.05 99.2092 211.357 95.8002 211.357C92.4915 211.357 89.6841 208.95 89.6841 206.043C89.6841 203.135 92.3912 207.446 95.8002 207.446C99.2092 207.446 101.916 203.135 101.916 206.043Z" fill="#88D2FF"/>
<path d="M156.158 173.055H154.253V199.524H156.158V173.055Z" fill="#63B0E5"/>
<path d="M155.256 212.257C159.022 212.257 162.074 209.204 162.074 205.439C162.074 201.674 159.022 198.621 155.256 198.621C151.491 198.621 148.438 201.674 148.438 205.439C148.438 209.204 151.491 212.257 155.256 212.257Z" fill="white"/>
<path d="M161.272 206.043C161.272 209.05 158.565 211.357 155.156 211.357C151.847 211.357 149.04 208.95 149.04 206.043C149.04 203.135 151.747 207.446 155.156 207.446C158.565 207.446 161.272 203.135 161.272 206.043Z" fill="#88D2FF"/>
<path d="M182.228 253.168H101.114V259.184H182.228V253.168Z" fill="#94B9FF"/>
<path d="M182.227 259.082H103.32V292.069H182.227V259.082Z" fill="#94B9FF"/>
<path d="M182.227 259.184H103.32V260.988H182.227V259.184Z" fill="#739FE5"/>
<path d="M9.27246 155.512V186.794C9.27246 189.802 11.6788 192.208 14.6867 192.208C17.6946 192.208 20.101 189.802 20.101 186.794V155.512H9.27246Z" fill="white"/>
<path d="M30.8291 155.512V186.794C30.8291 189.802 33.2354 192.208 36.2434 192.208C39.2513 192.208 41.6576 189.802 41.6576 186.794V155.512H30.8291Z" fill="white"/>
<path d="M52.4863 155.512V186.794C52.4863 189.802 54.8927 192.208 57.9006 192.208C60.9085 192.208 63.3148 189.802 63.3148 186.794V155.512H52.4863Z" fill="white"/>
<path d="M74.1436 155.512V186.794C74.1436 189.802 76.5499 192.208 79.5578 192.208C82.5657 192.208 84.9721 189.802 84.9721 186.794V155.512H74.1436Z" fill="white"/>
<path d="M95.7002 155.512V186.794C95.7002 189.802 98.1065 192.208 101.114 192.208C104.122 192.208 106.529 189.802 106.529 186.794V155.512H95.7002Z" fill="white"/>
<path d="M117.357 155.512V186.794C117.357 189.802 119.763 192.208 122.771 192.208C125.779 192.208 128.185 189.802 128.185 186.794V155.512H117.357Z" fill="white"/>
<path d="M139.014 155.512V186.794C139.014 189.802 141.42 192.208 144.428 192.208C147.436 192.208 149.842 189.802 149.842 186.794V155.512H139.014Z" fill="white"/>
<path d="M160.57 155.512V186.794C160.57 189.802 162.977 192.208 165.985 192.208C168.992 192.208 171.399 189.802 171.399 186.794V155.512H160.57Z" fill="white"/>
<path d="M20.1011 155.512V186.794C20.1011 189.802 22.5074 192.208 25.5153 192.208C28.5232 192.208 30.9296 189.802 30.9296 186.794V155.512H20.1011Z" fill="#0087FA"/>
<path d="M41.6577 155.512V186.794C41.6577 189.802 44.064 192.208 47.072 192.208C50.0799 192.208 52.4862 189.802 52.4862 186.794V155.512H41.6577Z" fill="#0087FA"/>
<path d="M63.3149 155.512V186.794C63.3149 189.802 65.7213 192.208 68.7292 192.208C71.7371 192.208 74.1434 189.802 74.1434 186.794V155.512H63.3149Z" fill="#0087FA"/>
<path d="M84.9722 155.512V186.794C84.9722 189.802 87.3785 192.208 90.3864 192.208C93.3943 192.208 95.8007 189.802 95.8007 186.794V155.512H84.9722Z" fill="#0087FA"/>
<path d="M106.529 155.512V186.794C106.529 189.802 108.935 192.208 111.943 192.208C114.951 192.208 117.357 189.802 117.357 186.794V155.512H106.529Z" fill="#0087FA"/>
<path d="M128.186 155.512V186.794C128.186 189.802 130.592 192.208 133.6 192.208C136.608 192.208 139.014 189.802 139.014 186.794V155.512H128.186Z" fill="#0087FA"/>
<path d="M149.842 155.512V186.794C149.842 189.802 152.249 192.208 155.257 192.208C158.264 192.208 160.671 189.802 160.671 186.794V155.512H149.842Z" fill="#0087FA"/>
<path d="M171.399 155.512V186.794C171.399 189.802 173.805 192.208 176.813 192.208C179.821 192.208 182.227 189.802 182.227 186.794V155.512H171.399Z" fill="#0087FA"/>
<path d="M130.491 253.066H112.043C110.539 253.066 109.335 251.963 109.335 250.559V241.335C109.335 239.931 110.539 238.828 112.043 238.828H127.684C128.686 238.828 129.589 239.329 130.09 240.232L132.296 244.242C132.897 245.345 133.198 246.649 133.198 247.952V250.659C133.198 251.963 131.995 253.066 130.491 253.066Z" fill="#B0B6BF"/>
<path d="M126.982 234.219H111.141C110.138 234.219 109.436 235.021 109.436 235.923V237.126C109.436 238.129 110.238 238.831 111.141 238.831H126.982C127.985 238.831 128.687 238.029 128.687 237.126V235.923C128.687 234.921 127.885 234.219 126.982 234.219Z" fill="#B0B6BF"/>
<path d="M182.228 291.668H9.27246V295.979H182.228V291.668Z" fill="#0E66AF"/>
<path d="M49.3781 292.068H20.4019V289.361L34.8399 286.754L49.3781 289.261V292.068Z" fill="#0087FA"/>
<path d="M54.6921 246.148H15.0879V250.861H54.6921V246.148Z" fill="#0087FA"/>
<path d="M36.0434 250.859H33.7373V287.556H36.0434V250.859Z" fill="#0087FA"/>
<path d="M36.0434 250.859H33.7373V256.574H36.0434V250.859Z" fill="#0158D9"/>
<path d="M49.3781 289.965H20.4019V292.07H49.3781V289.965Z" fill="#0158D9"/>
<path d="M79.9587 263.395H55.9956V267.004H79.9587V263.395Z" fill="#96BAFD"/>
<path d="M76.851 267.104L73.3418 267.004L73.5423 267.605H76.9513L76.851 267.104Z" fill="#7AA2E2"/>
<path d="M59.3049 267.104L59.2046 267.605H62.6136L62.7138 267.004L59.3049 267.104Z" fill="#7AA2E2"/>
<path d="M76.951 267.605H73.542L75.9483 276.529H77.5525C78.1541 277.431 78.1541 278.334 77.5525 279.336H76.6502L79.9589 291.569C80.0591 292.371 82.1647 292.17 82.0644 291.368L76.951 267.605Z" fill="#96BAFD"/>
<path d="M58.703 276.529H60.207L62.6133 267.605H59.2043L54.0909 291.368C53.9906 292.17 56.0961 292.371 56.1964 291.569L59.5051 279.336H58.703C58.0012 278.334 58.0012 277.431 58.703 276.529Z" fill="#96BAFD"/>
<path d="M60.2067 276.531L59.5049 279.339H76.65L75.9482 276.531H60.2067Z" fill="#7AA2E2"/>
<path d="M77.5525 276.531H75.9482L76.6501 279.339H77.5525C78.154 278.336 78.154 277.434 77.5525 276.531Z" fill="#7AA2E2"/>
<path d="M58.7031 276.531C58.0013 277.434 58.0013 278.336 58.7031 279.339H59.5053L60.2071 276.531H58.7031Z" fill="#7AA2E2"/>
<path d="M77.1515 278.938H59.104C58.5024 278.135 58.5024 277.333 59.104 276.531H77.1515C77.7531 277.333 77.7531 278.135 77.1515 278.938Z" fill="#96BAFD"/>
<path d="M51.2836 244.34H31.3311V246.044H51.2836V244.34Z" fill="#B0B6BF"/>
<path d="M32.4337 244.14L31.3308 245.644L23.811 228.699L25.2147 228.098L32.4337 244.14Z" fill="#B0B6BF"/>
<path d="M45.1661 281.441H39.2505V284.449H45.1661V281.441Z" fill="white"/>
<path d="M45.6676 288.362C44.6649 289.064 37.2454 288.863 35.7415 288.663C34.2375 288.362 34.6385 286.156 36.2428 284.953C36.7441 284.552 37.847 283.75 39.1504 284.05C42.2586 284.852 45.2665 284.251 45.6676 284.652C46.0686 285.053 46.7705 287.66 45.6676 288.362Z" fill="#0158D9"/>
<path d="M72.2378 254.07C72.2378 254.07 42.66 254.07 42.5597 254.07C40.2536 254.07 38.3486 255.975 38.3486 258.281V281.643H46.7708L47.8737 261.891H72.3381L72.2378 254.07Z" fill="#B8BAC1"/>
<path d="M76.5492 252.263C76.5492 249.456 76.6495 247.049 76.2485 243.139C75.8474 239.229 75.6469 236.722 74.4437 235.72C73.2405 234.717 75.5466 234.216 64.6179 234.516C62.2115 236.923 60.3065 242.537 59.8052 244.041C59.8052 244.142 59.7049 244.342 59.7049 244.643C59.5044 246.047 59.5044 248.854 59.5044 251.16C59.5044 253.065 59.5044 254.469 59.5044 254.469L76.449 256.474C76.5492 256.574 76.5492 255.07 76.5492 252.263Z" fill="#63B0E5"/>
<path d="M49.4776 283.949H43.562V286.957H49.4776V283.949Z" fill="white"/>
<path d="M49.9791 290.768C48.9765 291.47 41.5569 291.269 40.053 291.069C38.549 290.768 38.9501 288.562 40.5543 287.359C41.0556 286.958 42.1585 286.156 43.4619 286.457C46.5701 287.259 49.578 286.657 49.9791 287.058C50.3801 287.459 51.082 290.066 49.9791 290.768Z" fill="#0158D9"/>
<path d="M76.549 256.574L61.0081 254.77C61.0081 254.77 50.2799 256.073 46.5701 256.374C42.9606 256.675 42.5596 258.479 42.5596 260.785V284.147H50.9817L52.0846 264.395C52.0846 264.395 72.4382 264.696 75.6466 263.593C78.9553 262.39 76.549 256.574 76.549 256.574Z" fill="#E0E1E4"/>
<path d="M73.4409 227.098L71.7364 229.805L72.6388 235.419C72.6388 235.419 70.834 236.823 68.4277 237.024C66.0214 237.224 65.7206 237.124 64.4171 236.422C64.7179 234.116 65.0187 231.81 65.0187 231.81C65.0187 231.81 63.615 231.409 62.6124 230.306C61.6098 229.203 61.1084 227.799 61.1084 227.799C61.1084 227.799 58.4013 226.195 60.1058 225.493C61.9105 224.691 58.8024 217.171 60.8076 217.171C62.7127 217.171 67.2245 216.169 68.8288 216.77C70.3327 217.372 69.9317 218.675 71.1348 219.678C72.5385 220.881 73.9422 221.583 73.9422 223.388C73.8419 225.193 73.4409 227.098 73.4409 227.098Z" fill="white"/>
<path d="M63.0134 226.897C64.2317 226.897 65.2192 225.865 65.2192 224.591C65.2192 223.318 64.2317 222.285 63.0134 222.285C61.7952 222.285 60.8076 223.318 60.8076 224.591C60.8076 225.865 61.7952 226.897 63.0134 226.897Z" stroke="#383C42" stroke-width="0.5" stroke-miterlimit="10" stroke-linecap="round"/>
<path d="M62.5125 225.396C62.7894 225.396 63.0139 225.082 63.0139 224.694C63.0139 224.306 62.7894 223.992 62.5125 223.992C62.2357 223.992 62.0112 224.306 62.0112 224.694C62.0112 225.082 62.2357 225.396 62.5125 225.396Z" fill="#383C42"/>
<path d="M62.9131 229.608C62.9131 229.608 63.8155 229.508 64.2165 229.007C64.6176 228.505 64.6176 228.004 64.6176 228.004" stroke="#383C42" stroke-width="0.5" stroke-miterlimit="10" stroke-linecap="round"/>
<path d="M76.549 221.584C76.0477 213.864 71.7363 214.465 71.7363 214.465C69.6308 209.051 59.8049 214.566 58.4013 217.975C56.9976 221.384 60.5068 218.576 60.5068 218.576C61.1084 219.88 62.5121 220.782 63.615 218.175C63.7152 217.975 66.3221 220.983 66.7232 218.677C66.7232 218.476 68.2271 219.679 68.929 219.278C68.8287 220.782 69.8313 224.091 69.8313 224.091C69.8313 224.091 71.1348 223.289 71.5358 223.088C71.7363 222.888 71.9369 222.787 72.1374 222.687V229.305C72.1374 229.305 74.8445 227.299 75.4461 226.297C76.0477 225.294 76.4487 223.991 76.549 223.389C76.6493 222.687 76.549 221.584 76.549 221.584Z" fill="#0158D9"/>
<path d="M71.737 225.293C71.2357 225.293 70.7344 224.892 70.7344 224.29V222.686C70.7344 222.185 71.1354 221.684 71.737 221.684C72.2383 221.684 72.7397 222.085 72.7397 222.686V224.29C72.7397 224.792 72.2383 225.293 71.737 225.293Z" fill="white"/>
<path d="M73.4414 244.141C74.5443 243.54 74.9453 241.935 74.3438 240.431L74.043 239.529C73.4414 238.025 72.0377 237.223 70.9348 237.925L59.8055 244.141C59.605 245.645 59.605 248.653 59.605 251.16C60.006 251.059 60.3068 250.959 60.4071 250.859L73.4414 244.141Z" fill="#1C85E8"/>
<path d="M47.0717 243.042C47.0717 244.847 45.267 246.551 43.1614 246.25C42.1588 246.15 41.6575 244.947 40.9556 244.445C40.2538 243.844 39.2512 243.844 39.1509 243.142C38.8501 241.438 40.9556 239.934 43.0612 239.934C45.1667 239.934 47.0717 241.337 47.0717 243.042Z" fill="white"/>
<path d="M74.3434 239.632L73.9424 238.83C73.3408 237.426 71.8368 236.724 70.6336 237.326L58.0004 243.442L47.1719 241.035C46.1693 240.835 45.1666 241.838 44.7656 243.241L44.6653 243.642C44.2642 245.146 44.7656 246.55 45.7682 246.75L57.2986 249.758C57.6996 249.859 58.9028 249.558 59.1033 249.458L73.2405 243.141C74.4437 242.64 74.945 241.035 74.3434 239.632Z" fill="#63B0E5"/>
<path d="M65.0187 231.814C65.0187 231.814 67.8261 232.115 69.6309 231.313C71.4356 230.511 69.2298 232.416 68.1269 232.716C67.024 233.017 64.9185 233.017 64.9185 233.017L65.0187 231.814Z" fill="#C0E5FF"/>
<path d="M63.8158 221.283L61.5098 221.583C61.3092 221.583 61.209 221.483 61.209 221.383C61.209 221.182 61.3092 221.082 61.4095 221.082L63.7156 220.781C63.9161 220.781 64.0164 220.882 64.0164 220.982C64.1166 221.082 64.0164 221.283 63.8158 221.283Z" fill="#383C42"/>
<path d="M190.75 0H0.75V5.51451H190.75V0Z" fill="#0158D9"/>
<path d="M124.576 252.361H112.244C111.141 252.361 110.238 251.459 110.238 250.356V241.533C110.238 240.43 111.141 239.527 112.244 239.527H124.576C125.679 239.527 126.581 240.43 126.581 241.533V250.356C126.581 251.459 125.679 252.361 124.576 252.361Z" fill="#919BAA"/>
<path d="M125.578 238.228H110.94C110.338 238.228 109.837 237.727 109.837 237.125V235.822C109.837 235.22 110.338 234.719 110.94 234.719H125.578C126.18 234.719 126.681 235.22 126.681 235.822V237.125C126.581 237.727 126.18 238.228 125.578 238.228Z" fill="#919BAA"/>
<path d="M182.228 9.71875H9.27246V150.188H182.228V9.71875Z" fill="white"/>
<path d="M16.1907 9.71875H9.27246V150.188H16.1907V9.71875Z" fill="#E0F1FC"/>
<path d="M29.927 9.71875H23.0088V150.188H29.927V9.71875Z" fill="#E0F1FC"/>
<path d="M43.5627 9.71875H36.6445V150.188H43.5627V9.71875Z" fill="#E0F1FC"/>
<path d="M57.2991 9.71875H50.3809V150.188H57.2991V9.71875Z" fill="#E0F1FC"/>
<path d="M71.0349 9.71875H64.1167V150.188H71.0349V9.71875Z" fill="#E0F1FC"/>
<path d="M84.7707 9.71875H77.8525V150.188H84.7707V9.71875Z" fill="#E0F1FC"/>
<path d="M98.407 9.71875H91.4888V150.188H98.407V9.71875Z" fill="#E0F1FC"/>
<path d="M112.143 9.71875H105.225V150.188H112.143V9.71875Z" fill="#E0F1FC"/>
<path d="M125.879 9.71875H118.961V150.188H125.879V9.71875Z" fill="#E0F1FC"/>
<path d="M139.615 9.71875H132.697V150.188H139.615V9.71875Z" fill="#E0F1FC"/>
<path d="M153.351 9.71875H146.433V150.188H153.351V9.71875Z" fill="#E0F1FC"/>
<path d="M166.987 9.71875H160.069V150.188H166.987V9.71875Z" fill="#E0F1FC"/>
<path d="M180.724 9.71875H173.806V150.188H180.724V9.71875Z" fill="#E0F1FC"/>
<path d="M27.2201 79.1016H25.5156V123.518H27.2201V79.1016Z" fill="#C1D5FE"/>
<path d="M27.2201 79.1016H25.5156V80.2045H27.2201V79.1016Z" fill="#96BAFD"/>
<path d="M35.141 79.1033H17.7954C16.7927 79.1033 16.0909 78.1007 16.1912 76.9978L17.4946 66.6706C17.5949 65.7683 18.2967 65.0664 19.0988 65.0664H33.8376C34.6397 65.0664 35.2413 65.7683 35.3416 66.5704L36.7453 76.8975C36.8455 78.1007 36.0434 79.1033 35.141 79.1033Z" fill="#C1D5FE"/>
<path d="M21.8057 79.1016V89.4287" stroke="#C1D5FE" stroke-width="0.75" stroke-miterlimit="10"/>
<path d="M21.8057 79.1016V80.2045" stroke="#94B9FF" stroke-width="0.75" stroke-miterlimit="10"/>
<path d="M21.8062 93.3374C21.1043 93.3374 20.603 92.7358 20.603 92.1342V90.7305C20.603 90.0287 21.2046 89.5273 21.8062 89.5273C22.508 89.5273 23.0094 90.1289 23.0094 90.7305V92.1342C23.0094 92.7358 22.508 93.3374 21.8062 93.3374Z" fill="#94B9FF"/>
<path d="M31.4312 68.4727L32.2333 75.7919" stroke="#94B9FF" stroke-width="0.75" stroke-miterlimit="10" stroke-linecap="round"/>
<path d="M21.1042 68.4727L20.1016 75.7919" stroke="#94B9FF" stroke-width="0.75" stroke-miterlimit="10" stroke-linecap="round"/>
<path d="M26.1177 68.7734V76.0927" stroke="#94B9FF" stroke-width="0.75" stroke-miterlimit="10" stroke-linecap="round"/>
<path d="M135.906 48.6211H97.5049V110.885H135.906V48.6211Z" fill="#1C85E8"/>
<path d="M115.552 51.0273H99.6104V68.6738H115.552V51.0273Z" fill="#0E66AF"/>
<path d="M115.552 70.9766H99.6104V108.475H115.552V70.9766Z" fill="#0E66AF"/>
<path d="M133.6 51.0273H117.958V68.6738H133.6V51.0273Z" fill="#0E66AF"/>
<path d="M133.6 70.9766H117.958V108.475H133.6V70.9766Z" fill="#0E66AF"/>
<path d="M115.953 51.7305H100.312V69.1764H115.953V51.7305Z" fill="#C0E5FF"/>
<path d="M115.953 71.4805H100.312V108.478H115.953V71.4805Z" fill="#C0E5FF"/>
<path d="M133.6 51.7305H118.259V69.1764H133.6V51.7305Z" fill="#C0E5FF"/>
<path d="M133.6 71.4805H118.259V108.478H133.6V71.4805Z" fill="#C0E5FF"/>
<path d="M96.0007 100.26H90.8872V46.1172H108.433V87.8269C108.433 94.6449 102.919 100.26 96.0007 100.26Z" fill="#C1D5FE"/>
<path d="M99.7104 99.6562H90.8872V103.968H99.7104V99.6562Z" fill="#96BAFD"/>
<path d="M99.7104 103.969H90.8872V114.496H99.7104V103.969Z" fill="#C1D5FE"/>
<path d="M101.716 90.4369C104.022 87.028 102.217 66.7747 102.217 66.7747C102.217 66.7747 101.615 59.4554 100.613 72.4897C99.5099 85.6243 97.2038 97.1546 101.716 90.4369Z" fill="#96BAFD"/>
<path d="M171.098 52.4375H148.94V146.385H171.098V52.4375Z" fill="#E0E1E4"/>
<path d="M168.592 128.137H151.346V140.168H168.592V128.137Z" fill="#B0B6BF"/>
<path d="M168.592 113.898H151.346V125.93H168.592V113.898Z" fill="#B0B6BF"/>
<path d="M168.592 99.4609H151.346V111.493H168.592V99.4609Z" fill="#B0B6BF"/>
<path d="M162.475 128.137H159.969V140.168H162.475V128.137Z" fill="#0158D9"/>
<path d="M159.568 128.137H157.062V140.168H159.568V128.137Z" fill="#0158D9"/>
<path d="M156.66 128.137H154.154V140.168H156.66V128.137Z" fill="#0158D9"/>
<path d="M153.853 128.137H151.346V140.168H153.853V128.137Z" fill="#0158D9"/>
<path d="M159.969 115.5H157.462V125.927H159.969V115.5Z" fill="#0087FA"/>
<path d="M162.877 115.5H160.37V125.927H162.877V115.5Z" fill="#0087FA"/>
<path d="M165.684 115.5H163.178V125.927H165.684V115.5Z" fill="#0087FA"/>
<path d="M168.592 115.5H166.085V125.927H168.592V115.5Z" fill="#0087FA"/>
<path d="M154.734 115.312L153.02 125.598L155.493 126.01L157.207 115.724L154.734 115.312Z" fill="#0087FA"/>
<path d="M166.266 102.789L164.865 111.195L166.547 111.476L167.948 103.069L166.266 102.789Z" fill="#C1D5FE"/>
<path d="M162.976 102.172H161.272V111.396H162.976V102.172Z" fill="#C1D5FE"/>
<path d="M161.072 102.172H159.367V111.396H161.072V102.172Z" fill="#C1D5FE"/>
<path d="M159.066 102.172H157.362V111.396H159.066V102.172Z" fill="#C1D5FE"/>
<path d="M157.061 102.172H155.357V111.396H157.061V102.172Z" fill="#C1D5FE"/>
<path d="M155.156 102.172H153.452V111.396H155.156V102.172Z" fill="#C1D5FE"/>
<path d="M153.151 102.172H151.447V111.396H153.151V102.172Z" fill="#C1D5FE"/>
<path d="M168.592 84.8242H151.346V96.8559H168.592V84.8242Z" fill="#B0B6BF"/>
<path d="M168.592 70.1836H151.346V82.2153H168.592V70.1836Z" fill="#B0B6BF"/>
<path d="M168.592 55.4453H151.346V67.477H168.592V55.4453Z" fill="#B0B6BF"/>
<path d="M164.962 129.293L162.565 130.027L165.679 140.189L168.076 139.454L164.962 129.293Z" fill="#0158D9"/>
<path d="M162.977 96.857H159.468V90.3399C159.468 89.7383 159.969 89.1367 160.671 89.1367H161.874C162.476 89.1367 163.077 89.638 163.077 90.3399L162.977 96.857Z" fill="#C1D5FE"/>
<path d="M162.075 87.332H160.37V89.1368H162.075V87.332Z" fill="#C1D5FE"/>
<path d="M162.977 91.0391H159.468V95.6512H162.977V91.0391Z" fill="#0087FA"/>
<path d="M165.885 67.4806H153.653C153.452 67.4806 153.252 67.2801 153.252 67.0795V63.9714C153.252 63.7708 153.452 63.5703 153.653 63.5703H165.885C166.086 63.5703 166.286 63.7708 166.286 63.9714V67.0795C166.286 67.2801 166.086 67.4806 165.885 67.4806Z" fill="#0158D9"/>
<path d="M152.75 61.4661C152.75 61.4661 152.65 62.7695 154.254 62.7695C154.254 62.7695 154.455 61.3658 152.75 61.4661Z" fill="#C0E5FF"/>
<path d="M160.872 62.7695C160.872 62.7695 159.568 62.7695 159.669 64.2735C159.669 64.2735 161.072 64.3738 160.872 62.7695Z" fill="#C0E5FF"/>
<path d="M165.885 61.1641C165.885 61.1641 164.582 61.1641 164.682 62.668C164.682 62.668 166.085 62.7683 165.885 61.1641Z" fill="#C0E5FF"/>
<path d="M162.476 62.8711C162.476 62.8711 161.673 63.8737 162.977 64.7761C162.877 64.7761 163.779 63.7735 162.476 62.8711Z" fill="#C0E5FF"/>
<path d="M161.373 60.0625C161.373 60.0625 160.571 61.0651 161.874 61.9675C161.874 61.9675 162.777 60.9649 161.373 60.0625Z" fill="#C0E5FF"/>
<path d="M158.365 60.8633C158.365 60.8633 157.563 61.8659 158.867 62.7683C158.867 62.7683 159.769 61.7657 158.365 60.8633Z" fill="#C0E5FF"/>
<path d="M155.257 62.168C155.257 62.168 154.054 62.6693 154.755 64.073C154.755 64.073 156.059 63.5717 155.257 62.168Z" fill="#C0E5FF"/>
<path d="M156.56 61.9648C156.56 61.9648 156.36 63.2683 157.864 63.3685C157.864 63.3685 158.164 62.0651 156.56 61.9648Z" fill="#C0E5FF"/>
<path d="M163.879 82.215H157.162V79.9089C157.162 79.0065 157.863 78.3047 158.766 78.3047H162.175C163.077 78.3047 163.779 79.0065 163.779 79.9089L163.879 82.215Z" fill="#C1D5FE"/>
<path d="M162.175 76.6992H159.067V78.2032H162.175V76.6992Z" fill="#C1D5FE"/>
<path d="M157.964 87.832H152.449V96.8558H157.964V87.832Z" fill="#0158D9"/>
<path d="M156.761 89.1367H153.652V95.5536H156.761V89.1367Z" fill="#C1D5FE"/>
<path d="M29.3257 139.762C29.3257 139.762 29.4259 145.276 29.7267 145.677C30.0275 146.078 31.732 146.78 33.1357 145.978L34.0381 140.163L29.3257 139.762Z" fill="#1C85E8"/>
<path d="M88.8823 139.762C88.8823 139.762 88.7821 145.276 88.4813 145.677C88.1805 146.078 86.476 146.78 85.0723 145.978L84.1699 140.163L88.8823 139.762Z" fill="#1C85E8"/>
<path d="M89.2831 139.762C85.8741 140.865 30.0271 141.066 27.7211 139.762C25.415 138.459 31.9321 116.802 33.2356 114.496C34.539 112.19 82.3649 113.193 83.9691 114.496C85.6736 115.699 92.692 138.559 89.2831 139.762Z" fill="#94B9FF"/>
<path d="M33.6367 94.4414H30.4282V116.399H33.6367V94.4414Z" fill="#1C85E8"/>
<path d="M40.1538 94.4414H36.9453V116.399H40.1538V94.4414Z" fill="#1C85E8"/>
<path d="M46.5707 94.4414H43.3623V116.399H46.5707V94.4414Z" fill="#1C85E8"/>
<path d="M53.0878 94.4414H49.8794V116.399H53.0878V94.4414Z" fill="#1C85E8"/>
<path d="M59.6049 94.4414H56.3965V116.399H59.6049V94.4414Z" fill="#1C85E8"/>
<path d="M66.122 94.4414H62.9136V116.399H66.122V94.4414Z" fill="#1C85E8"/>
<path d="M72.6391 94.4414H69.4307V116.399H72.6391V94.4414Z" fill="#1C85E8"/>
<path d="M79.1562 94.4414H75.9478V116.399H79.1562V94.4414Z" fill="#1C85E8"/>
<path d="M85.6733 94.4414H82.4648V116.399H85.6733V94.4414Z" fill="#1C85E8"/>
<path d="M33.6367 94.4414H30.4282V97.5496H33.6367V94.4414Z" fill="#0E66AF"/>
<path d="M40.1538 94.4414H36.9453V97.5496H40.1538V94.4414Z" fill="#0E66AF"/>
<path d="M46.5707 94.4414H43.3623V97.5496H46.5707V94.4414Z" fill="#0E66AF"/>
<path d="M53.0878 94.4414H49.8794V97.5496H53.0878V94.4414Z" fill="#0E66AF"/>
<path d="M59.6049 94.4414H56.3965V97.5496H59.6049V94.4414Z" fill="#0E66AF"/>
<path d="M66.122 94.4414H62.9136V97.5496H66.122V94.4414Z" fill="#0E66AF"/>
<path d="M72.6391 94.4414H69.4307V97.5496H72.6391V94.4414Z" fill="#0E66AF"/>
<path d="M79.1562 94.4414H75.9478V97.5496H79.1562V94.4414Z" fill="#0E66AF"/>
<path d="M85.6733 94.4414H82.4648V97.5496H85.6733V94.4414Z" fill="#0E66AF"/>
<path d="M57.3993 114.694C57.3993 114.694 56.898 114.995 56.0959 114.694C55.394 114.393 38.0484 114.493 38.0484 114.493L36.2437 114.694C36.2437 114.694 36.2437 113.491 36.5444 112.889C36.8452 112.288 36.745 103.364 36.745 103.364L36.3439 101.86C36.3439 101.86 37.0458 101.559 37.8479 101.86C38.4495 102.061 53.9904 102.161 55.5946 101.961C57.1988 101.76 57.4996 101.86 57.4996 101.86C57.4996 101.86 58.0009 102.662 57.3993 103.866C56.898 104.768 57.4996 110.082 57.7001 112.789C57.5999 113.591 57.3993 114.694 57.3993 114.694Z" fill="#94B9FF"/>
<path d="M80.3598 114.694C80.3598 114.694 79.8585 114.995 79.0563 114.694C78.3545 114.393 61.0089 114.493 61.0089 114.493L59.2041 114.694C59.2041 114.694 59.2041 113.491 59.5049 112.889C59.8057 112.288 59.7054 103.364 59.7054 103.364L59.3044 101.86C59.3044 101.86 60.0062 101.559 60.8083 101.86C61.4099 102.061 76.9508 102.161 78.555 101.961C80.1592 101.76 80.46 101.86 80.46 101.86C80.46 101.86 80.9614 102.662 80.3598 103.866C79.8585 104.768 80.46 110.082 80.6606 112.789C80.5603 113.591 80.3598 114.694 80.3598 114.694Z" fill="#94B9FF"/>
<path d="M87.1779 91.2344H29.3257V95.7462H87.1779V91.2344Z" fill="#1C85E8"/>
<path d="M41.1566 101.961H46.5708C46.5708 101.961 45.5682 106.774 46.5708 108.378C47.5735 109.982 46.8716 114.293 46.8716 114.293L41.9587 113.09C41.9587 113.09 43.5629 105.671 41.9587 104.468C40.3545 103.264 41.1566 101.961 41.1566 101.961Z" fill="#6998E2"/>
<path d="M71.0352 101.961H76.8505C76.8505 101.961 74.5444 101.861 74.8452 104.969C75.146 108.077 73.4415 107.275 73.241 109.281C73.0405 111.286 74.9455 112.389 73.241 112.489C71.5365 112.589 69.832 112.489 69.832 112.489L71.0352 101.961Z" fill="#6998E2"/>
<path d="M48.9769 71.3816C48.7764 72.5847 46.37 85.9198 44.6656 87.5241C42.9611 89.1283 70.2328 87.8248 70.2328 87.8248C70.2328 87.8248 66.7236 78.6006 66.8239 76.8961C67.0244 75.1916 66.7236 71.0808 66.7236 70.8803C66.7236 70.6797 49.1774 69.4766 49.1774 69.4766C49.1774 69.4766 49.1774 70.1784 48.9769 71.3816Z" fill="#0158D9"/>
<path d="M68.0271 85.4175C64.6182 83.713 64.6182 83.6127 53.5891 83.9135C45.167 84.0138 42.9612 91.8344 42.4598 93.3383C41.9585 94.8423 40.9559 100.056 42.4598 102.262C43.9638 104.367 45.8688 103.866 45.8688 103.866L71.1353 105.069C74.444 104.267 74.5443 102.162 74.7448 100.958C74.9453 99.6549 74.9453 96.7473 74.2435 94.5415C73.6419 92.2354 71.4361 87.122 68.0271 85.4175Z" fill="#94B9FF"/>
<path d="M64.2172 76.3966L62.5127 79.6051L63.4151 84.7185C63.4151 84.7185 61.5101 86.3228 59.204 86.3228C56.898 86.3228 56.0959 86.423 53.7898 84.9191C54.0906 82.613 54.2911 80.2067 54.2911 80.2067C54.2911 80.2067 53.489 79.5048 52.8874 78.4019C52.2858 77.3993 51.8848 76.1961 51.8848 76.1961C51.8848 76.1961 50.2806 76.6974 49.5787 75.1935C48.8769 73.6895 48.4758 73.7898 49.4784 72.6869C50.6816 71.3834 49.5787 73.3887 51.2832 72.5866C53.0879 71.7845 55.1935 65.8689 57.299 65.8689C59.204 65.8689 58.1011 65.2673 59.7054 65.8689C61.2093 66.4705 60.8083 67.7739 62.0114 68.7766C63.4151 69.9798 67.0246 72.0853 66.9244 73.89C66.8241 75.7951 64.2172 76.3966 64.2172 76.3966Z" fill="white"/>
<path d="M58.6024 66.3676C58.6024 66.3676 54.5919 73.2858 51.2832 74.489C51.2832 74.489 47.7739 70.679 49.1776 67.27C50.5813 63.861 58.4019 58.7476 60.4072 64.1618C60.4072 64.1618 67.0246 62.9587 66.7238 72.584C66.7238 72.584 61.4098 73.2858 58.6024 66.3676Z" fill="#0158D9"/>
<path d="M54.7922 76.1916C56.1766 76.1916 57.2988 74.9796 57.2988 73.4845C57.2988 71.9894 56.1766 70.7773 54.7922 70.7773C53.4079 70.7773 52.2856 71.9894 52.2856 73.4845C52.2856 74.9796 53.4079 76.1916 54.7922 76.1916Z" stroke="#383C42" stroke-width="0.5" stroke-miterlimit="10"/>
<path d="M61.2092 76.1916C62.5936 76.1916 63.7158 74.9796 63.7158 73.4845C63.7158 71.9894 62.5936 70.7773 61.2092 70.7773C59.8249 70.7773 58.7026 71.9894 58.7026 73.4845C58.7026 74.9796 59.8249 76.1916 61.2092 76.1916Z" stroke="#383C42" stroke-width="0.5" stroke-miterlimit="10"/>
<path d="M60.7079 74.7904C60.9847 74.7904 61.2092 74.4762 61.2092 74.0886C61.2092 73.701 60.9847 73.3867 60.7079 73.3867C60.431 73.3867 60.2065 73.701 60.2065 74.0886C60.2065 74.4762 60.431 74.7904 60.7079 74.7904Z" fill="#383C42"/>
<path d="M55.3939 74.7904C55.6708 74.7904 55.8952 74.4762 55.8952 74.0886C55.8952 73.701 55.6708 73.3867 55.3939 73.3867C55.117 73.3867 54.8926 73.701 54.8926 74.0886C54.8926 74.4762 55.117 74.7904 55.3939 74.7904Z" fill="#383C42"/>
<path d="M57.9004 74.7891V76.8946H58.7025" stroke="#383C42" stroke-width="0.5" stroke-linecap="round"/>
<path d="M59.7051 78.8972C59.7051 78.8972 60.6075 78.7969 61.0085 78.2956C61.4096 77.7943 61.4096 77.293 61.4096 77.293" stroke="#383C42" stroke-width="0.5" stroke-linecap="round"/>
<path d="M64.7184 117.304H52.5865C48.977 117.304 46.0693 114.396 46.0693 110.787V102.766H71.1353V110.787C71.2356 114.396 68.3279 117.304 64.7184 117.304Z" fill="#71A2EA"/>
<path d="M46.6709 86.7219L47.9743 85.1177C47.9743 85.1177 56.9981 84.9171 58.8028 85.5187C58.8028 85.5187 61.6102 84.115 70.2329 85.0174L71.5363 86.6216L58.7026 86.9224L46.6709 86.7219Z" fill="white"/>
<path d="M59.5045 103.864C59.5045 103.864 59.4042 104.165 58.6021 104.165C57.9002 104.165 57.6997 103.864 57.6997 103.864V87.0195L58.6021 87.1198L59.5045 87.0195V103.864Z" fill="#0087FA"/>
<path d="M51.7842 86.3203C48.9769 86.3203 45.2671 86.9219 45.2671 86.9219L45.9689 103.766C45.9689 103.766 48.7763 102.864 51.9848 102.864C54.1906 102.864 56.0956 103.064 57.0982 103.365V86.7214C55.8951 86.6211 53.7895 86.3203 51.7842 86.3203Z" fill="#0087FA"/>
<path d="M56.998 86.8203V103.464C57.3991 103.564 57.5996 103.665 57.6999 103.765V87.0208C57.5996 86.9206 57.3991 86.9206 56.998 86.8203Z" fill="#0E66AF"/>
<path d="M65.4201 86.3203C63.3146 86.3203 61.0085 86.6211 60.0059 86.8216V103.465C60.9082 103.165 62.9135 102.964 65.3198 102.964C68.5283 102.864 71.3357 103.866 71.3357 103.866L72.0375 87.0222C72.0375 86.9219 68.3278 86.3203 65.4201 86.3203Z" fill="#0087FA"/>
<path d="M59.5049 86.9206C59.5049 86.9206 59.5049 104.266 59.5049 103.765C59.5049 103.665 59.7054 103.564 60.0062 103.464V86.8203C59.7054 86.9206 59.5049 86.9206 59.5049 86.9206Z" fill="#0E66AF"/>
<path d="M55.9954 125.623H47.5732V102.262C47.5732 99.9558 49.4783 98.0508 51.7843 98.0508C54.0904 98.0508 55.9954 99.9558 55.9954 102.262V125.623Z" fill="#94B9FF"/>
<path d="M68.9295 125.623H60.5073V102.262C60.5073 99.9558 62.4123 98.0508 64.7184 98.0508C67.0245 98.0508 68.9295 99.9558 68.9295 102.262V125.623Z" fill="#94B9FF"/>
<path d="M54.7925 125.625H48.877V128.633H54.7925V125.625Z" fill="white"/>
<path d="M55.494 129.635H54.5917C54.2909 129.635 54.0903 129.435 54.0903 129.134V128.533C54.0903 128.232 54.2909 128.031 54.5917 128.031H55.494C55.7948 128.031 55.9953 128.232 55.9953 128.533V129.134C55.9953 129.335 55.7948 129.635 55.494 129.635Z" fill="white"/>
<path d="M53.3889 129.637H52.7873C52.5868 129.637 52.3862 129.436 52.3862 129.236V128.835C52.3862 128.634 52.5868 128.434 52.7873 128.434H53.3889C53.5894 128.434 53.7899 128.634 53.7899 128.835V129.236C53.6897 129.436 53.5894 129.637 53.3889 129.637Z" fill="white"/>
<path d="M51.9855 129.637H51.384C51.1834 129.637 50.9829 129.436 50.9829 129.236V128.835C50.9829 128.634 51.1834 128.434 51.384 128.434H51.9855C52.1861 128.434 52.3866 128.634 52.3866 128.835V129.236C52.3866 129.436 52.1861 129.637 51.9855 129.637Z" fill="white"/>
<path d="M50.6818 129.637H50.0803C49.8797 129.637 49.6792 129.436 49.6792 129.236V128.835C49.6792 128.634 49.8797 128.434 50.0803 128.434H50.6818C50.8824 128.434 51.0829 128.634 51.0829 128.835V129.236C50.9826 129.436 50.8824 129.637 50.6818 129.637Z" fill="white"/>
<path d="M49.278 129.637H48.6764C48.4759 129.637 48.2754 129.436 48.2754 129.236V128.835C48.2754 128.634 48.4759 128.434 48.6764 128.434H49.278C49.4786 128.434 49.6791 128.634 49.6791 128.835V129.236C49.6791 129.436 49.4786 129.637 49.278 129.637Z" fill="white"/>
<path d="M67.9273 125.625H62.0117V128.633H67.9273V125.625Z" fill="white"/>
<path d="M61.4101 129.635H62.3125C62.6133 129.635 62.8138 129.435 62.8138 129.134V128.533C62.8138 128.232 62.6133 128.031 62.3125 128.031H61.4101C61.1094 128.031 60.9088 128.232 60.9088 128.533V129.134C60.8086 129.335 61.1094 129.635 61.4101 129.635Z" fill="white"/>
<path d="M63.5158 129.637H64.1174C64.3179 129.637 64.5184 129.436 64.5184 129.236V128.835C64.5184 128.634 64.3179 128.434 64.1174 128.434H63.5158C63.3153 128.434 63.1147 128.634 63.1147 128.835V129.236C63.1147 129.436 63.3153 129.637 63.5158 129.637Z" fill="white"/>
<path d="M64.819 129.637H65.4206C65.6211 129.637 65.8217 129.436 65.8217 129.236V128.835C65.8217 128.634 65.6211 128.434 65.4206 128.434H64.819C64.6185 128.434 64.418 128.634 64.418 128.835V129.236C64.5182 129.436 64.6185 129.637 64.819 129.637Z" fill="white"/>
<path d="M66.2228 129.637H66.8244C67.0249 129.637 67.2255 129.436 67.2255 129.236V128.835C67.2255 128.634 67.0249 128.434 66.8244 128.434H66.2228C66.0223 128.434 65.8218 128.634 65.8218 128.835V129.236C65.8218 129.436 66.0223 129.637 66.2228 129.637Z" fill="white"/>
<path d="M67.6266 129.637H68.2282C68.4288 129.637 68.6293 129.436 68.6293 129.236V128.835C68.6293 128.634 68.4288 128.434 68.2282 128.434H67.6266C67.4261 128.434 67.2256 128.634 67.2256 128.835V129.236C67.2256 129.436 67.4261 129.637 67.6266 129.637Z" fill="white"/>
<path d="M51.484 93.4403C52.2861 95.0446 51.2835 97.0499 49.2782 98.0525C47.2729 99.0551 45.0671 98.5538 44.3653 96.9496C43.6634 95.6462 43.9642 92.4377 45.3679 91.4351C45.5684 91.2345 45.7689 92.538 45.9695 92.4377C48.075 91.4351 50.7821 91.9364 51.484 93.4403Z" fill="white"/>
<path d="M50.7823 92.6406C50.7823 92.6406 50.1807 93.8438 48.0752 93.9441L50.7823 92.6406Z" fill="white"/>
<path d="M51.484 93.8438C51.484 93.8438 50.8824 95.0469 48.7769 95.1472L51.484 93.8438Z" fill="white"/>
<path d="M51.6847 95.1484C51.6847 95.1484 51.0831 96.3516 48.9775 96.4519L51.6847 95.1484Z" fill="white"/>
<path d="M65.8213 93.9403C65.0192 95.5446 66.0219 97.5499 68.0271 98.5525C70.0324 99.5551 72.2382 99.0538 72.9401 97.4496C73.6419 96.1462 73.3411 92.9377 71.9374 91.9351C71.7369 91.7345 71.5364 93.038 71.3358 92.9377C69.3306 91.9351 66.6234 92.4364 65.8213 93.9403Z" fill="white"/>
<path d="M66.6235 93.1367C66.6235 93.1367 67.2251 94.3399 69.3307 94.4401L66.6235 93.1367Z" fill="white"/>
<path d="M65.8213 94.3398C65.8213 94.3398 66.4229 95.543 68.5284 95.6433L65.8213 94.3398Z" fill="white"/>
<path d="M65.7212 95.6445C65.7212 95.6445 66.3228 96.8477 68.4283 96.948L65.7212 95.6445Z" fill="white"/>
<path d="M54.1909 81.7071C54.1909 81.7071 56.1962 82.7097 59.1038 82.6095C62.0115 82.5092 62.7133 80.905 62.7133 80.905L62.5128 79.6016C62.5128 79.6016 61.5102 81.4063 59.0036 81.5066C56.497 81.6068 54.3914 80.3034 54.3914 80.3034L54.1909 81.7071Z" fill="#C0E5FF"/>
<path d="M58.7027 73.8893C58.7027 73.8893 58.6024 73.4883 57.9006 73.4883C57.1987 73.4883 57.1987 74.0899 57.1987 74.0899" stroke="#383C42" stroke-width="0.5" stroke-miterlimit="10"/>
<path d="M29.0247 112.59C29.0247 112.59 42.2595 112.089 58.7028 112.189C75.146 112.289 87.1777 112.39 90.1856 113.593C93.1935 114.796 93.6948 124.12 93.6948 124.12C93.6948 124.12 95.5999 129.936 94.5972 131.74C93.6949 133.545 90.0854 133.044 87.5788 133.244C75.3466 133.746 44.2648 133.545 30.4284 133.244C26.8189 133.144 26.7186 133.946 24.9138 132.543C23.1091 131.139 24.6131 131.239 24.7133 129.635C24.9138 125.925 25.4152 120.812 26.5181 117.102C27.0194 115.598 28.5233 112.891 29.0247 112.59Z" fill="#C1D5FE"/>
<path d="M182.228 145.883H9.27246V150.194H182.228V145.883Z" fill="#0E66AF"/>
<path d="M135.104 105.176L131.294 112.896L131.193 122.321L132.196 132.648H136.207L137.51 120.115V105.176H135.104Z" fill="#C1D5FE"/>
<path d="M131.896 94.5483L136.107 106.58L139.616 92.4427L134.302 91.3398L131.896 94.5483Z" fill="#C1D5FE"/>
<path d="M125.579 131.242L126.682 146.382H140.919L142.222 131.242H125.579Z" fill="#383C42"/>
<path d="M131.795 93.9439C131.795 93.9439 129.79 91.1365 132.296 88.9307C134.703 86.7249 136.808 87.4268 137.911 88.9307C139.014 90.4347 139.215 92.44 139.215 92.44" fill="#C1D5FE"/>
<path d="M128.085 131.241C128.085 131.241 124.776 125.325 126.28 120.913C127.083 118.607 127.484 117.605 126.782 115.9C126.08 114.196 123.874 113.494 127.383 109.283C130.893 105.072 129.89 103.768 128.787 102.665C127.684 101.562 124.877 100.56 126.681 97.5519C128.486 94.544 132.096 92.5387 133.7 94.0427C135.404 95.5466 133.499 98.8554 135.304 103.066C137.109 107.278 131.494 109.483 132.697 112.792C133.9 116.201 134.201 118.307 131.795 122.016C129.389 125.726 130.291 131.241 130.291 131.241H128.085Z" fill="#94B9FF"/>
<path d="M140.919 131.243C140.919 131.243 143.125 125.327 141.621 120.915C140.819 118.609 141.42 116.303 142.022 114.498C142.623 112.694 142.022 111.19 140.919 108.282C139.816 105.374 140.217 103.77 141.42 102.667C142.523 101.564 143.726 100.662 143.526 97.5539C143.325 94.4457 140.819 90.5354 139.114 92.0394C137.41 93.5434 138.813 96.7518 137.009 100.963C135.204 105.174 137.911 108.483 136.708 111.892C135.505 115.301 134.101 118.309 136.507 122.018C138.914 125.728 138.112 131.243 138.112 131.243H140.919Z" fill="#AAD5FE"/>
</svg>
