<svg width="191" height="306" viewBox="0 0 191 306" fill="none" xmlns="http://www.w3.org/2000/svg">
<g clip-path="url(#clip0_956_175317)">
<path d="M186.54 5.51562H4.06006V305.405H186.54V5.51562Z" fill="#BFD5FE"/>
<path d="M181.728 10.2266H8.77246V150.696H181.728V10.2266Z" fill="white"/>
<path d="M15.6907 10.2266H8.77246V150.696H15.6907V10.2266Z" fill="#E0F1FC"/>
<path d="M29.427 10.2266H22.5088V150.696H29.427V10.2266Z" fill="#E0F1FC"/>
<path d="M43.1628 10.2266H36.2446V150.696H43.1628V10.2266Z" fill="#E0F1FC"/>
<path d="M56.7991 10.2266H49.8809V150.696H56.7991V10.2266Z" fill="#E0F1FC"/>
<path d="M70.5349 10.2266H63.6167V150.696H70.5349V10.2266Z" fill="#E0F1FC"/>
<path d="M84.2712 10.2266H77.353V150.696H84.2712V10.2266Z" fill="#E0F1FC"/>
<path d="M98.0071 10.2266H91.0889V150.696H98.0071V10.2266Z" fill="#E0F1FC"/>
<path d="M111.643 10.2266H104.725V150.696H111.643V10.2266Z" fill="#E0F1FC"/>
<path d="M125.379 10.2266H118.461V150.696H125.379V10.2266Z" fill="#E0F1FC"/>
<path d="M139.115 10.2266H132.197V150.696H139.115V10.2266Z" fill="#E0F1FC"/>
<path d="M152.852 10.2266H145.934V150.696H152.852V10.2266Z" fill="#E0F1FC"/>
<path d="M166.588 10.2266H159.669V150.696H166.588V10.2266Z" fill="#E0F1FC"/>
<path d="M180.224 10.2266H173.306V150.696H180.224V10.2266Z" fill="#E0F1FC"/>
<path d="M26.8202 79.6055H25.1157V124.022H26.8202V79.6055Z" fill="#C1D5FE"/>
<path d="M26.8202 79.6055H25.1157V80.7084H26.8202V79.6055Z" fill="#96BAFD"/>
<path d="M34.6405 79.6073H17.2949C16.2923 79.6073 15.5904 78.6046 15.6907 77.5017L16.9941 67.1745C17.0944 66.2722 17.7962 65.5703 18.5983 65.5703H33.3371C34.1392 65.5703 34.7408 66.2722 34.8411 67.0743L36.2448 77.4014C36.345 78.6046 35.5429 79.6073 34.6405 79.6073Z" fill="#C1D5FE"/>
<path d="M21.3057 79.6055V90.0329" stroke="#C1D5FE" stroke-width="0.75" stroke-miterlimit="10"/>
<path d="M21.3057 79.6055V80.8086" stroke="#94B9FF" stroke-width="0.75" stroke-miterlimit="10"/>
<path d="M21.3052 93.8452C20.6034 93.8452 20.1021 93.2436 20.1021 92.642V91.2383C20.1021 90.5365 20.7036 90.0352 21.3052 90.0352C22.0071 90.0352 22.5084 90.6367 22.5084 91.2383V92.642C22.5084 93.2436 22.0071 93.8452 21.3052 93.8452Z" fill="#94B9FF"/>
<path d="M30.9307 68.9805L31.7328 76.4" stroke="#94B9FF" stroke-width="0.75" stroke-miterlimit="10" stroke-linecap="round"/>
<path d="M20.6035 68.9805L19.7012 76.4" stroke="#94B9FF" stroke-width="0.75" stroke-miterlimit="10" stroke-linecap="round"/>
<path d="M25.6167 69.2812V76.7008" stroke="#94B9FF" stroke-width="0.75" stroke-miterlimit="10" stroke-linecap="round"/>
<path d="M135.405 49.1289H97.0044V111.393H135.405V49.1289Z" fill="#1C85E8"/>
<path d="M115.152 51.5352H99.21V69.1816H115.152V51.5352Z" fill="#0E66AF"/>
<path d="M115.152 71.4883H99.21V108.987H115.152V71.4883Z" fill="#0E66AF"/>
<path d="M133.099 51.5352H117.458V69.1816H133.099V51.5352Z" fill="#0E66AF"/>
<path d="M133.099 71.4883H117.458V108.987H133.099V71.4883Z" fill="#0E66AF"/>
<path d="M115.453 52.2383H99.812V69.6842H115.453V52.2383Z" fill="#C0E5FF"/>
<path d="M115.453 71.9922H99.812V108.99H115.453V71.9922Z" fill="#C0E5FF"/>
<path d="M133.2 52.2383H117.859V69.6842H133.2V52.2383Z" fill="#C0E5FF"/>
<path d="M133.2 71.9922H117.859V108.99H133.2V71.9922Z" fill="#C0E5FF"/>
<path d="M95.5007 100.764H90.3872V46.6211H107.933V88.3309C107.933 95.1488 102.419 100.764 95.5007 100.764Z" fill="#C1D5FE"/>
<path d="M99.2104 100.16H90.3872V104.471H99.2104V100.16Z" fill="#96BAFD"/>
<path d="M99.2104 104.473H90.3872V115H99.2104V104.473Z" fill="#C1D5FE"/>
<path d="M101.216 90.9369C103.522 87.528 101.717 67.2747 101.717 67.2747C101.717 67.2747 101.115 59.9554 100.113 72.9897C99.0099 86.1243 96.7038 97.6546 101.216 90.9369Z" fill="#96BAFD"/>
<path d="M170.598 53.0391H148.44V146.986H170.598V53.0391Z" fill="#E0E1E4"/>
<path d="M168.092 128.738H150.846V140.77H168.092V128.738Z" fill="#B0B6BF"/>
<path d="M168.092 114.402H150.846V126.434H168.092V114.402Z" fill="#B0B6BF"/>
<path d="M168.092 99.9609H150.846V111.993H168.092V99.9609Z" fill="#B0B6BF"/>
<path d="M161.975 128.738H159.469V140.77H161.975V128.738Z" fill="#0158D9"/>
<path d="M159.068 128.738H156.562V140.77H159.068V128.738Z" fill="#0158D9"/>
<path d="M156.261 128.738H153.754V140.77H156.261V128.738Z" fill="#0158D9"/>
<path d="M153.353 128.738H150.846V140.77H153.353V128.738Z" fill="#0158D9"/>
<path d="M159.469 116.004H156.962V126.431H159.469V116.004Z" fill="#0087FA"/>
<path d="M162.377 116.004H159.87V126.431H162.377V116.004Z" fill="#0087FA"/>
<path d="M165.184 116.004H162.677V126.431H165.184V116.004Z" fill="#0087FA"/>
<path d="M168.092 116.004H165.585V126.431H168.092V116.004Z" fill="#0087FA"/>
<path d="M154.228 115.82L152.514 126.105L154.987 126.518L156.701 116.232L154.228 115.82Z" fill="#0087FA"/>
<path d="M165.76 103.297L164.359 111.703L166.041 111.983L167.442 103.577L165.76 103.297Z" fill="#C1D5FE"/>
<path d="M162.477 102.77H160.772V111.994H162.477V102.77Z" fill="#C1D5FE"/>
<path d="M160.572 102.77H158.867V111.994H160.572V102.77Z" fill="#C1D5FE"/>
<path d="M158.567 102.77H156.862V111.994H158.567V102.77Z" fill="#C1D5FE"/>
<path d="M156.662 102.77H154.957V111.994H156.662V102.77Z" fill="#C1D5FE"/>
<path d="M154.656 102.77H152.952V111.994H154.656V102.77Z" fill="#C1D5FE"/>
<path d="M152.651 102.77H150.947V111.994H152.651V102.77Z" fill="#C1D5FE"/>
<path d="M168.092 85.4258H150.846V97.4574H168.092V85.4258Z" fill="#B0B6BF"/>
<path d="M168.092 70.7852H150.846V82.8168H168.092V70.7852Z" fill="#B0B6BF"/>
<path d="M168.092 56.0469H150.846V68.0785H168.092V56.0469Z" fill="#B0B6BF"/>
<path d="M164.58 129.894L162.183 130.629L165.297 140.79L167.694 140.056L164.58 129.894Z" fill="#0158D9"/>
<path d="M162.477 97.357H158.968V90.8399C158.968 90.2383 159.469 89.6367 160.171 89.6367H161.374C161.976 89.6367 162.577 90.138 162.577 90.8399L162.477 97.357Z" fill="#C1D5FE"/>
<path d="M161.575 87.832H159.87V89.6368H161.575V87.832Z" fill="#C1D5FE"/>
<path d="M162.477 91.5391H158.968V96.1512H162.477V91.5391Z" fill="#0087FA"/>
<path d="M165.384 67.9806H153.152C152.951 67.9806 152.751 67.7801 152.751 67.5795V64.4714C152.751 64.2708 152.951 64.0703 153.152 64.0703H165.384C165.585 64.0703 165.785 64.2708 165.785 64.4714V67.5795C165.785 67.7801 165.585 67.9806 165.384 67.9806Z" fill="#0158D9"/>
<path d="M152.25 61.9622C152.25 61.9622 152.15 63.2656 153.754 63.2656C153.754 63.2656 153.954 61.8619 152.25 61.9622Z" fill="#C0E5FF"/>
<path d="M160.471 63.3672C160.471 63.3672 159.168 63.3672 159.268 64.8711C159.168 64.8711 160.572 64.9714 160.471 63.3672Z" fill="#C0E5FF"/>
<path d="M165.384 61.6641C165.384 61.6641 164.081 61.6641 164.181 63.168C164.181 63.2683 165.585 63.3685 165.384 61.6641Z" fill="#C0E5FF"/>
<path d="M161.976 63.4688C161.976 63.4688 161.173 64.4714 162.477 65.3738C162.377 65.3738 163.379 64.2709 161.976 63.4688Z" fill="#C0E5FF"/>
<path d="M160.973 60.6602C160.973 60.6602 160.171 61.6628 161.474 62.5652C161.374 62.5652 162.376 61.4623 160.973 60.6602Z" fill="#C0E5FF"/>
<path d="M157.865 61.4609C157.865 61.4609 157.063 62.4636 158.366 63.366C158.366 63.366 159.268 62.263 157.865 61.4609Z" fill="#C0E5FF"/>
<path d="M154.756 62.7656C154.756 62.7656 153.553 63.2669 154.255 64.6706C154.255 64.6706 155.558 64.1693 154.756 62.7656Z" fill="#C0E5FF"/>
<path d="M156.06 62.4648C156.06 62.4648 155.859 63.7683 157.363 63.8685C157.363 63.9688 157.664 62.5651 156.06 62.4648Z" fill="#C0E5FF"/>
<path d="M163.479 82.7189H156.762V80.4128C156.762 79.5104 157.464 78.8086 158.366 78.8086H161.775C162.677 78.8086 163.379 79.5104 163.379 80.4128L163.479 82.7189Z" fill="#C1D5FE"/>
<path d="M161.775 77.3047H158.667V78.8086H161.775V77.3047Z" fill="#C1D5FE"/>
<path d="M157.464 88.4336H151.949V97.4573H157.464V88.4336Z" fill="#0158D9"/>
<path d="M156.261 89.7344H153.152V96.1513H156.261V89.7344Z" fill="#C1D5FE"/>
<path d="M28.8257 140.367C28.8257 140.367 28.9259 145.882 29.2267 146.283C29.5275 146.684 31.232 147.386 32.6357 146.584L33.5381 140.768L28.8257 140.367Z" fill="#1C85E8"/>
<path d="M88.3823 140.367C88.3823 140.367 88.2821 145.882 87.9813 146.283C87.6805 146.684 85.976 147.386 84.5723 146.584L83.6699 140.768L88.3823 140.367Z" fill="#1C85E8"/>
<path d="M88.7831 140.27C85.3741 141.373 29.5271 141.574 27.2211 140.27C24.915 138.967 31.4321 117.31 32.7356 115.004C34.039 112.698 81.8649 113.7 83.4691 115.004C85.1736 116.307 92.192 139.167 88.7831 140.27Z" fill="#94B9FF"/>
<path d="M33.1367 95.0508H29.9282V117.009H33.1367V95.0508Z" fill="#1C85E8"/>
<path d="M39.6538 95.0508H36.4453V117.009H39.6538V95.0508Z" fill="#1C85E8"/>
<path d="M46.1708 95.0508H42.9624V117.009H46.1708V95.0508Z" fill="#1C85E8"/>
<path d="M52.6879 95.0508H49.4795V117.009H52.6879V95.0508Z" fill="#1C85E8"/>
<path d="M59.1049 95.0508H55.8965V117.009H59.1049V95.0508Z" fill="#1C85E8"/>
<path d="M65.622 95.0508H62.4136V117.009H65.622V95.0508Z" fill="#1C85E8"/>
<path d="M72.1391 95.0508H68.9307V117.009H72.1391V95.0508Z" fill="#1C85E8"/>
<path d="M78.6567 95.0508H75.4482V117.009H78.6567V95.0508Z" fill="#1C85E8"/>
<path d="M85.1738 95.0508H81.9653V117.009H85.1738V95.0508Z" fill="#1C85E8"/>
<path d="M33.1367 95.0508H29.9282V98.159H33.1367V95.0508Z" fill="#0E66AF"/>
<path d="M39.6538 95.0508H36.4453V98.159H39.6538V95.0508Z" fill="#0E66AF"/>
<path d="M46.1708 95.0508H42.9624V98.159H46.1708V95.0508Z" fill="#0E66AF"/>
<path d="M52.6879 95.0508H49.4795V98.159H52.6879V95.0508Z" fill="#0E66AF"/>
<path d="M59.1049 95.0508H55.8965V98.159H59.1049V95.0508Z" fill="#0E66AF"/>
<path d="M65.622 95.0508H62.4136V98.159H65.622V95.0508Z" fill="#0E66AF"/>
<path d="M72.1391 95.0508H68.9307V98.159H72.1391V95.0508Z" fill="#0E66AF"/>
<path d="M78.6567 95.0508H75.4482V98.159H78.6567V95.0508Z" fill="#0E66AF"/>
<path d="M85.1738 95.0508H81.9653V98.159H85.1738V95.0508Z" fill="#0E66AF"/>
<path d="M56.8993 115.303C56.8993 115.303 56.398 115.604 55.5959 115.303C54.7938 115.003 37.5484 115.103 37.5484 115.103L35.7437 115.303C35.7437 115.303 35.7437 114.1 36.0444 113.499C36.3452 112.897 36.245 103.974 36.245 103.974L35.8439 102.47C35.8439 102.47 36.5458 102.169 37.3479 102.47C37.9495 102.67 53.4904 102.77 55.0946 102.57C56.6988 102.369 56.9996 102.47 56.9996 102.47C56.9996 102.47 57.5009 103.272 56.8993 104.475C56.398 105.377 56.9996 110.691 57.2001 113.398C57.0999 114.1 56.8993 115.303 56.8993 115.303Z" fill="#94B9FF"/>
<path d="M79.8598 115.303C79.8598 115.303 79.3585 115.604 78.5563 115.303C77.7542 115.003 60.5089 115.103 60.5089 115.103L58.7041 115.303C58.7041 115.303 58.7041 114.1 59.0049 113.499C59.3057 112.897 59.2054 103.974 59.2054 103.974L58.8044 102.47C58.8044 102.47 59.5062 102.169 60.3083 102.47C60.9099 102.67 76.4508 102.77 78.055 102.57C79.6592 102.369 79.96 102.47 79.96 102.47C79.96 102.47 80.4614 103.272 79.8598 104.475C79.3585 105.377 79.96 110.691 80.1606 113.398C80.0603 114.1 79.8598 115.303 79.8598 115.303Z" fill="#94B9FF"/>
<path d="M86.6779 91.7422H28.8257V96.2541H86.6779V91.7422Z" fill="#1C85E8"/>
<path d="M40.6566 102.469H46.0708C46.0708 102.469 45.0682 107.281 46.0708 108.886C47.0735 110.49 46.3716 114.801 46.3716 114.801L41.4587 113.598C41.4587 113.598 43.0629 106.179 41.4587 104.975C39.8545 103.772 40.6566 102.469 40.6566 102.469Z" fill="#6998E2"/>
<path d="M70.5352 102.469H76.3505C76.3505 102.469 74.0444 102.369 74.3452 105.477C74.646 108.585 72.9415 107.783 72.741 109.788C72.5405 111.794 74.4455 112.897 72.741 112.997C71.0365 113.097 69.332 112.997 69.332 112.997L70.5352 102.469Z" fill="#6998E2"/>
<path d="M48.4769 71.8894C48.2764 73.0925 45.87 86.4276 44.1656 88.0319C42.4611 89.6361 69.7328 88.3327 69.7328 88.3327C69.7328 88.3327 66.2236 79.1084 66.3239 77.4039C66.5244 75.6994 66.2236 71.5886 66.2236 71.3881C66.2236 71.1875 48.6774 69.9844 48.6774 69.9844C48.6774 69.9844 48.6774 70.7865 48.4769 71.8894Z" fill="#0158D9"/>
<path d="M67.5271 85.9253C64.1182 84.2208 64.1182 84.1205 53.0891 84.4213C44.667 84.5216 42.4612 92.3422 41.9598 93.8461C41.4585 95.3501 40.4559 100.564 41.9598 102.77C43.4638 104.875 45.3688 104.374 45.3688 104.374L70.6353 105.577C73.944 104.775 74.0443 102.669 74.2448 101.466C74.4453 100.163 74.4453 97.2551 73.7435 95.0493C73.1419 92.7432 71.0364 87.6298 67.5271 85.9253Z" fill="#94B9FF"/>
<path d="M63.7172 77.0021L62.0127 80.2105L62.9151 85.324C62.9151 85.324 61.0101 86.9282 58.704 86.9282C56.398 86.9282 55.5959 87.0285 53.2898 85.5245C53.5906 83.2185 53.7911 80.8121 53.7911 80.8121C53.7911 80.8121 52.989 80.1103 52.3874 79.0074C51.7858 78.0047 51.3848 76.8016 51.3848 76.8016C51.3848 76.8016 49.7806 77.3029 49.0787 75.7989C48.3769 74.295 47.9758 74.3952 48.9784 73.2923C50.1816 71.9889 49.0787 73.9942 50.7832 73.1921C52.5879 72.39 54.6935 66.4744 56.799 66.4744C58.704 66.4744 57.6011 65.8728 59.2054 66.4744C60.7093 67.076 60.3083 68.3794 61.5114 69.382C62.9151 70.5852 66.5246 72.6908 66.4244 74.4955C66.3241 76.4005 63.7172 77.0021 63.7172 77.0021Z" fill="white"/>
<path d="M58.1024 66.8754C58.1024 66.8754 54.0919 73.7937 50.7832 74.9968C50.7832 74.9968 47.2739 71.1868 48.6776 67.7778C50.0813 64.3689 57.9019 59.2554 59.9072 64.6696C59.9072 64.6696 66.5246 63.4665 66.2238 73.0918C66.2238 73.1921 61.0101 73.7937 58.1024 66.8754Z" fill="#0158D9"/>
<path d="M54.2922 76.801C55.6766 76.801 56.7988 75.589 56.7988 74.0938C56.7988 72.5987 55.6766 71.3867 54.2922 71.3867C52.9079 71.3867 51.7856 72.5987 51.7856 74.0938C51.7856 75.589 52.9079 76.801 54.2922 76.801Z" stroke="#383C42" stroke-width="0.5" stroke-miterlimit="10"/>
<path d="M60.7092 76.801C62.0936 76.801 63.2158 75.589 63.2158 74.0938C63.2158 72.5987 62.0936 71.3867 60.7092 71.3867C59.3249 71.3867 58.2026 72.5987 58.2026 74.0938C58.2026 75.589 59.3249 76.801 60.7092 76.801Z" stroke="#383C42" stroke-width="0.5" stroke-miterlimit="10"/>
<path d="M60.2079 75.3998C60.4847 75.3998 60.7092 75.0856 60.7092 74.6979C60.7092 74.3103 60.4847 73.9961 60.2079 73.9961C59.931 73.9961 59.7065 74.3103 59.7065 74.6979C59.7065 75.0856 59.931 75.3998 60.2079 75.3998Z" fill="#383C42"/>
<path d="M54.994 75.3998C55.2709 75.3998 55.4953 75.0856 55.4953 74.6979C55.4953 74.3103 55.2709 73.9961 54.994 73.9961C54.7171 73.9961 54.4927 74.3103 54.4927 74.6979C54.4927 75.0856 54.7171 75.3998 54.994 75.3998Z" fill="#383C42"/>
<path d="M57.501 75.2969V77.5027H58.3031" stroke="#383C42" stroke-width="0.5" stroke-linecap="round"/>
<path d="M59.2051 79.4089C59.2051 79.4089 60.1075 79.3086 60.5085 78.8073C60.9096 78.306 60.9096 77.8047 60.9096 77.8047" stroke="#383C42" stroke-width="0.5" stroke-linecap="round"/>
<path d="M64.2184 117.909H52.0865C48.477 117.909 45.5693 115.002 45.5693 111.392V103.371H70.6353V111.392C70.7356 115.002 67.8279 117.909 64.2184 117.909Z" fill="#71A2EA"/>
<path d="M46.1709 87.3273L47.4743 85.7231C47.4743 85.7231 56.4981 85.5226 58.3028 86.1242C58.3028 86.1242 61.1102 84.7205 69.7329 85.6229L71.0363 87.2271L58.2026 87.5279L46.1709 87.3273Z" fill="white"/>
<path d="M59.0045 104.372C59.0045 104.372 58.9042 104.672 58.1021 104.672C57.3 104.672 57.1997 104.372 57.1997 104.372V87.5273L58.1021 87.6276L59.0045 87.5273V104.372Z" fill="#0087FA"/>
<path d="M57.1997 104.271C57.1997 104.271 57.3 104.372 57.1997 104.271C57.1997 104.873 57.1997 87.5273 57.1997 87.5273V104.271Z" fill="#0087FA"/>
<path d="M51.2842 86.9258C48.4769 86.9258 44.7671 87.5274 44.7671 87.5274L45.4689 104.372C45.4689 104.372 48.2763 103.469 51.4848 103.469C53.6906 103.469 55.5956 103.67 56.5982 103.971V87.3268C55.3951 87.2266 53.2895 86.9258 51.2842 86.9258Z" fill="#0087FA"/>
<path d="M56.498 87.4258V104.07C56.8991 104.17 57.0996 104.27 57.1999 104.37V87.6263C57.0996 87.526 56.8991 87.4258 56.498 87.4258Z" fill="#0E66AF"/>
<path d="M65.0202 86.9258C62.9147 86.9258 60.6086 87.2266 59.606 87.4271V104.071C60.5083 103.77 62.5136 103.57 64.9199 103.57C68.1284 103.469 70.9358 104.472 70.9358 104.472L71.6376 87.6276C71.5374 87.5274 67.8276 86.9258 65.0202 86.9258Z" fill="#0087FA"/>
<path d="M59.0044 87.5261C59.0044 87.5261 59.0044 104.872 59.0044 104.37C59.0044 104.27 59.2049 104.17 59.5057 104.07V87.4258C59.2049 87.4258 59.0044 87.5261 59.0044 87.5261Z" fill="#0E66AF"/>
<path d="M55.5955 126.233H47.1733V102.871C47.1733 100.565 49.0784 98.6602 51.3844 98.6602C53.6905 98.6602 55.5955 100.565 55.5955 102.871V126.233Z" fill="#94B9FF"/>
<path d="M68.4295 126.233H60.0073V102.871C60.0073 100.565 61.9123 98.6602 64.2184 98.6602C66.5245 98.6602 68.4295 100.565 68.4295 102.871V126.233Z" fill="#94B9FF"/>
<path d="M54.3926 126.23H48.4771V129.238H54.3926V126.23Z" fill="white"/>
<path d="M54.9945 130.139H54.0921C53.7913 130.139 53.5908 129.939 53.5908 129.638V129.036C53.5908 128.736 53.7913 128.535 54.0921 128.535H54.9945C55.2953 128.535 55.4958 128.736 55.4958 129.036V129.638C55.5961 129.939 55.2953 130.139 54.9945 130.139Z" fill="white"/>
<path d="M52.8889 130.141H52.2873C52.0868 130.141 51.8862 129.94 51.8862 129.74V129.339C51.8862 129.138 52.0868 128.938 52.2873 128.938H52.8889C53.0894 128.938 53.2899 129.138 53.2899 129.339V129.74C53.2899 129.94 53.0894 130.141 52.8889 130.141Z" fill="white"/>
<path d="M51.4851 130.141H50.8835C50.683 130.141 50.4824 129.94 50.4824 129.74V129.339C50.4824 129.138 50.683 128.938 50.8835 128.938H51.4851C51.6856 128.938 51.8861 129.138 51.8861 129.339V129.74C51.8861 129.94 51.6856 130.141 51.4851 130.141Z" fill="white"/>
<path d="M50.1818 130.141H49.5803C49.3797 130.141 49.1792 129.94 49.1792 129.74V129.339C49.1792 129.138 49.3797 128.938 49.5803 128.938H50.1818C50.3824 128.938 50.5829 129.138 50.5829 129.339V129.74C50.4826 129.94 50.3824 130.141 50.1818 130.141Z" fill="white"/>
<path d="M48.778 130.141H48.1764C47.9759 130.141 47.7754 129.94 47.7754 129.74V129.339C47.7754 129.138 47.9759 128.938 48.1764 128.938H48.778C48.9786 128.938 49.1791 129.138 49.1791 129.339V129.74C49.1791 129.94 48.9786 130.141 48.778 130.141Z" fill="white"/>
<path d="M67.4268 126.133H61.5112V129.141H67.4268V126.133Z" fill="white"/>
<path d="M60.9097 130.143H61.812C62.1128 130.143 62.3134 129.943 62.3134 129.642V129.04C62.3134 128.74 62.1128 128.539 61.812 128.539H60.9097C60.6089 128.539 60.4083 128.74 60.4083 129.04V129.642C60.3081 129.943 60.6089 130.143 60.9097 130.143Z" fill="white"/>
<path d="M63.0153 130.145H63.6169C63.8174 130.145 64.0179 129.944 64.0179 129.744V129.342C64.0179 129.142 63.8174 128.941 63.6169 128.941H63.0153C62.8148 128.941 62.6143 129.142 62.6143 129.342V129.744C62.6143 129.944 62.8148 130.145 63.0153 130.145Z" fill="white"/>
<path d="M64.4191 130.145H65.0207C65.2212 130.145 65.4218 129.944 65.4218 129.744V129.342C65.4218 129.142 65.2212 128.941 65.0207 128.941H64.4191C64.2186 128.941 64.0181 129.142 64.0181 129.342V129.744C64.0181 129.944 64.2186 130.145 64.4191 130.145Z" fill="white"/>
<path d="M65.7223 130.145H66.3239C66.5245 130.145 66.725 129.944 66.725 129.744V129.342C66.725 129.142 66.5245 128.941 66.3239 128.941H65.7223C65.5218 128.941 65.3213 129.142 65.3213 129.342V129.744C65.4216 129.944 65.5218 130.145 65.7223 130.145Z" fill="white"/>
<path d="M67.1261 130.145H67.7277C67.9283 130.145 68.1288 129.944 68.1288 129.744V129.342C68.1288 129.142 67.9283 128.941 67.7277 128.941H67.1261C66.9256 128.941 66.7251 129.142 66.7251 129.342V129.744C66.7251 129.944 66.9256 130.145 67.1261 130.145Z" fill="white"/>
<path d="M50.9835 94.0458C51.7856 95.65 50.783 97.6553 48.7777 98.658C46.7724 99.6606 44.5666 99.1593 43.8648 97.5551C43.1629 96.2516 43.4637 93.0432 44.8674 92.0405C45.0679 91.84 45.2685 93.1434 45.469 93.0432C47.5745 92.0405 50.2817 92.4416 50.9835 94.0458Z" fill="white"/>
<path d="M50.2818 93.1445C50.2818 93.1445 49.6802 94.3477 47.5747 94.448L50.2818 93.1445Z" fill="white"/>
<path d="M50.9835 94.4453C50.9835 94.4453 50.3819 95.6485 48.2764 95.7487L50.9835 94.4453Z" fill="white"/>
<path d="M51.1842 95.6484C51.1842 95.6484 50.5826 96.8516 48.4771 96.9519L51.1842 95.6484Z" fill="white"/>
<path d="M65.3213 94.5497C64.5192 96.1539 65.5219 98.1592 67.5271 99.1619C69.5324 100.164 71.7382 99.6632 72.4401 98.059C73.1419 96.7555 72.8411 93.5471 71.4374 92.5444C71.2369 92.3439 71.0364 93.6474 70.8358 93.5471C68.8306 92.4442 66.1234 92.9455 65.3213 94.5497Z" fill="white"/>
<path d="M66.1235 93.6445C66.1235 93.6445 66.7251 94.8477 68.8307 94.948L66.1235 93.6445Z" fill="white"/>
<path d="M65.4214 94.8477C65.4214 94.8477 66.023 96.0508 68.1285 96.1511L65.4214 94.8477Z" fill="white"/>
<path d="M65.2212 96.1523C65.2212 96.1523 65.8228 97.3555 67.9283 97.4558L65.2212 96.1523Z" fill="white"/>
<path d="M53.6909 82.2149C53.6909 82.2149 55.6962 83.2176 58.6038 83.1173C61.5115 83.017 62.2133 81.4128 62.2133 81.4128L62.0128 80.1094C62.0128 80.1094 61.0102 81.9141 58.5036 82.0144C55.997 82.1147 53.8914 80.8112 53.8914 80.8112L53.6909 82.2149Z" fill="#C0E5FF"/>
<path d="M58.2027 74.4948C58.2027 74.4948 58.1024 74.0938 57.4006 74.0938C56.6987 74.0938 56.6987 74.6953 56.6987 74.6953" stroke="#383C42" stroke-width="0.5" stroke-miterlimit="10"/>
<path d="M28.5247 113.098C28.5247 113.098 41.7595 112.597 58.2028 112.697C74.646 112.797 86.6777 112.897 89.6856 114.101C92.6935 115.304 93.1948 124.628 93.1948 124.628C93.1948 124.628 95.0999 130.444 94.0972 132.248C93.1949 134.053 89.5854 133.552 87.0788 133.752C74.8466 134.254 43.7648 134.053 29.9284 133.752C26.3189 133.652 26.2186 134.454 24.4138 133.05C22.6091 131.647 24.1131 131.747 24.2133 130.143C24.4138 126.433 24.9152 121.32 26.0181 117.61C26.6197 116.106 28.0233 113.499 28.5247 113.098Z" fill="#C1D5FE"/>
<path d="M181.728 146.387H8.77246V150.698H181.728V146.387Z" fill="#0E66AF"/>
<path d="M134.604 105.676L130.794 113.496L130.693 122.921L131.696 133.248H135.707L137.01 120.615V105.676H134.604Z" fill="#C1D5FE"/>
<path d="M131.395 95.0483L135.606 107.18L139.115 92.9427L133.902 91.8398L131.395 95.0483Z" fill="#C1D5FE"/>
<path d="M125.179 131.848L126.181 146.887H140.419L141.722 131.848H125.179Z" fill="#383C42"/>
<path d="M131.295 94.4478C131.295 94.4478 129.289 91.6404 131.796 89.4346C134.202 87.2288 136.308 87.9307 137.411 89.4346C138.514 90.9386 138.714 92.9439 138.714 92.9439" fill="#C1D5FE"/>
<path d="M127.685 131.846C127.685 131.846 124.377 125.93 125.881 121.519C126.683 119.213 127.084 118.21 126.382 116.506C125.68 114.801 123.474 114.099 126.983 109.888C130.493 105.677 129.49 104.374 128.387 103.271C127.284 102.168 124.477 101.165 126.282 98.1574C128.086 95.1495 131.696 93.1442 133.3 94.6482C135.005 96.1521 133.1 99.4608 134.904 103.672C136.709 107.883 131.094 110.089 132.297 113.397C133.501 116.806 133.801 118.912 131.395 122.622C128.989 126.332 129.891 131.846 129.891 131.846H127.685Z" fill="#94B9FF"/>
<path d="M140.419 131.848C140.419 131.848 142.625 125.932 141.121 121.521C140.319 119.215 140.92 116.909 141.522 115.104C142.224 113.299 141.522 111.795 140.419 108.888C139.316 105.98 139.717 104.376 140.92 103.273C142.023 102.17 143.226 101.268 143.026 98.1594C142.825 95.0512 140.319 91.1409 138.614 92.6449C136.91 94.1488 138.313 97.3573 136.509 101.568C134.704 105.779 137.411 109.088 136.208 112.497C135.005 115.906 133.601 118.914 136.007 122.624C138.414 126.334 137.612 131.848 137.612 131.848H140.419Z" fill="#AAD5FE"/>
<path d="M190.25 0H0.25V5.51451H190.25V0Z" fill="#0158D9"/>
<path d="M181.728 155.41H8.77246V295.88H181.728V155.41Z" fill="white"/>
<path d="M15.6907 155.41H8.77246V295.88H15.6907V155.41Z" fill="#E0F1FC"/>
<path d="M29.427 155.41H22.5088V295.88H29.427V155.41Z" fill="#E0F1FC"/>
<path d="M43.1628 155.41H36.2446V295.88H43.1628V155.41Z" fill="#E0F1FC"/>
<path d="M56.7991 155.41H49.8809V295.88H56.7991V155.41Z" fill="#E0F1FC"/>
<path d="M70.5349 155.41H63.6167V295.88H70.5349V155.41Z" fill="#E0F1FC"/>
<path d="M84.2712 155.41H77.353V295.88H84.2712V155.41Z" fill="#E0F1FC"/>
<path d="M98.0071 155.41H91.0889V295.88H98.0071V155.41Z" fill="#E0F1FC"/>
<path d="M111.643 155.41H104.725V295.88H111.643V155.41Z" fill="#E0F1FC"/>
<path d="M125.379 155.41H118.461V295.88H125.379V155.41Z" fill="#E0F1FC"/>
<path d="M139.115 155.41H132.197V295.88H139.115V155.41Z" fill="#E0F1FC"/>
<path d="M152.852 155.41H145.934V295.88H152.852V155.41Z" fill="#E0F1FC"/>
<path d="M166.588 155.41H159.669V295.88H166.588V155.41Z" fill="#E0F1FC"/>
<path d="M180.224 155.41H173.306V295.88H180.224V155.41Z" fill="#E0F1FC"/>
<path d="M167.59 187.594H129.189V249.858H167.59V187.594Z" fill="#1C85E8"/>
<path d="M147.237 190.102H131.295V207.748H147.237V190.102Z" fill="#0E66AF"/>
<path d="M147.237 210.055H131.295V247.553H147.237V210.055Z" fill="#0E66AF"/>
<path d="M165.284 190.102H149.643V207.748H165.284V190.102Z" fill="#0E66AF"/>
<path d="M165.284 210.055H149.643V247.553H165.284V210.055Z" fill="#0E66AF"/>
<path d="M147.738 190.703H132.097V208.149H147.738V190.703Z" fill="#C0E5FF"/>
<path d="M147.738 210.457H132.097V247.555H147.738V210.457Z" fill="#C0E5FF"/>
<path d="M165.385 190.703H150.044V208.149H165.385V190.703Z" fill="#C0E5FF"/>
<path d="M165.385 210.457H150.044V247.555H165.385V210.457Z" fill="#C0E5FF"/>
<path d="M181.728 291.668H8.77246V295.979H181.728V291.668Z" fill="#0E66AF"/>
<path d="M178.82 268.508L178.018 290.967C178.018 290.967 178.018 291.669 176.614 291.669C175.21 291.669 174.91 290.967 174.91 290.967V268.508H178.82Z" fill="#1C85E8"/>
<path d="M146.435 268.508L147.237 290.967C147.237 290.967 147.237 291.669 148.64 291.669C150.044 291.669 150.345 290.967 150.345 290.967V268.508H146.435Z" fill="#1C85E8"/>
<path d="M150.345 277.534H146.736L146.635 274.125H150.345V277.534Z" fill="#1073C4"/>
<path d="M174.81 277.534H178.419L178.519 274.125H174.81V277.534Z" fill="#1073C4"/>
<path d="M178.92 257.18H146.334V274.926H178.92V257.18Z" fill="#1C85E8"/>
<path d="M176.815 259.086H148.841V272.622H176.815V259.086Z" fill="#1073C4"/>
<path d="M176.915 259.688H149.543V272.622H176.915V259.688Z" fill="#C1D5FE"/>
<path d="M163.48 268.91C164.809 268.91 165.886 267.833 165.886 266.504C165.886 265.175 164.809 264.098 163.48 264.098C162.151 264.098 161.073 265.175 161.073 266.504C161.073 267.833 162.151 268.91 163.48 268.91Z" fill="#1073C4"/>
<path d="M162.978 268.309C164.307 268.309 165.384 267.231 165.384 265.902C165.384 264.573 164.307 263.496 162.978 263.496C161.649 263.496 160.572 264.573 160.572 265.902C160.572 267.231 161.649 268.309 162.978 268.309Z" fill="#1C85E8"/>
<path d="M171.2 186.09H126.983V215.567H171.2V186.09Z" fill="#C1D5FE"/>
<path d="M44.6671 291.669H20.1025C18.2977 291.669 16.894 290.265 16.894 288.46V198.423C16.894 196.619 18.2977 195.215 20.1025 195.215H44.6671C46.4719 195.215 47.8756 196.619 47.8756 198.423V288.46C47.8756 290.165 46.3716 291.669 44.6671 291.669Z" fill="#BFD5FE"/>
<path d="M22.8094 210.556C22.8094 204.942 27.3213 200.43 32.9361 200.43C36.3451 200.43 39.353 202.134 41.258 204.741C39.4532 201.633 36.1445 199.527 32.3345 199.527C26.6195 199.527 22.0073 204.139 22.0073 209.855C22.0073 213.464 23.9123 216.672 26.7197 218.577C24.3134 216.672 22.8094 213.765 22.8094 210.556Z" fill="#5686D1"/>
<path d="M42.6618 209.854C42.6618 207.949 42.1605 206.245 41.2581 204.741C39.4534 202.134 36.3452 200.43 32.9362 200.43C27.3214 200.43 22.8096 204.942 22.8096 210.556C22.8096 213.765 24.3135 216.672 26.7199 218.577C28.3241 219.58 30.2291 220.282 32.3346 220.282C37.9494 220.182 42.6618 215.57 42.6618 209.854Z" fill="#91B2E2"/>
<path d="M32.7357 205.244C34.0391 205.244 35.2423 205.745 36.1447 206.547C35.2423 205.444 33.8386 204.742 32.3346 204.742C29.5273 204.742 27.2212 207.048 27.2212 209.856C27.2212 211.36 27.923 212.663 28.9257 213.565C28.1236 212.663 27.6222 211.56 27.6222 210.257C27.6222 207.449 29.9283 205.244 32.7357 205.244Z" fill="#BFD5FE"/>
<path d="M36.1443 206.547C36.9464 207.449 37.4477 208.552 37.4477 209.856C37.4477 212.663 35.1417 214.969 32.3343 214.969C31.0308 214.969 29.8277 214.468 28.9253 213.666C29.8277 214.769 31.2314 215.47 32.7353 215.47C35.5427 215.47 37.8488 213.164 37.8488 210.357C37.7485 208.853 37.1469 207.449 36.1443 206.547Z" fill="#96BAFD"/>
<path d="M37.3478 209.854C37.3478 208.551 36.8465 207.448 36.0444 206.546C35.142 205.744 33.9389 205.242 32.6354 205.242C29.828 205.242 27.522 207.548 27.522 210.356C27.522 211.659 28.0233 212.762 28.8254 213.664C29.7278 214.466 30.9309 214.968 32.2344 214.968C35.142 214.968 37.3478 212.662 37.3478 209.854Z" fill="#BFD5FE"/>
<path d="M22.8094 236.724C22.8094 231.11 27.3213 226.598 32.9361 226.598C36.3451 226.598 39.353 228.302 41.258 230.909C39.4532 227.801 36.1445 225.695 32.3345 225.695C26.6195 225.695 22.0073 230.307 22.0073 236.022C22.0073 239.632 23.9123 242.84 26.7197 244.745C24.3134 242.84 22.8094 239.933 22.8094 236.724Z" fill="#5686D1"/>
<path d="M42.6618 236.022C42.6618 234.117 42.1605 232.413 41.2581 230.909C39.4534 228.302 36.3452 226.598 32.9362 226.598C27.3214 226.598 22.8096 231.11 22.8096 236.724C22.8096 239.933 24.3135 242.84 26.7199 244.745C28.3241 245.748 30.2291 246.45 32.3346 246.45C37.9494 246.35 42.6618 241.737 42.6618 236.022Z" fill="#91B2E2"/>
<path d="M32.7357 231.411C34.0391 231.411 35.2423 231.913 36.1447 232.715C35.2423 231.612 33.8386 230.91 32.3346 230.91C29.5273 230.91 27.2212 233.216 27.2212 236.024C27.2212 237.528 27.923 238.831 28.9257 239.733C28.1236 238.831 27.6222 237.728 27.6222 236.425C27.6222 233.617 29.9283 231.411 32.7357 231.411Z" fill="#BFD5FE"/>
<path d="M36.1443 232.715C36.9464 233.617 37.4477 234.72 37.4477 236.024C37.4477 238.831 35.1417 241.137 32.3343 241.137C31.0308 241.137 29.8277 240.636 28.9253 239.834C29.8277 240.936 31.2314 241.638 32.7353 241.638C35.5427 241.638 37.8488 239.332 37.8488 236.525C37.7485 235.021 37.1469 233.617 36.1443 232.715Z" fill="#96BAFD"/>
<path d="M37.3478 236.022C37.3478 234.719 36.8465 233.616 36.0444 232.714C35.142 231.911 33.9389 231.41 32.6354 231.41C29.828 231.41 27.522 233.716 27.522 236.524C27.522 237.827 28.0233 238.93 28.8254 239.832C29.7278 240.634 30.9309 241.136 32.2344 241.136C35.142 241.136 37.3478 238.83 37.3478 236.022Z" fill="#BFD5FE"/>
<path d="M137.912 206.646C137.912 206.646 159.469 207.247 162.978 206.145L137.912 206.646Z" fill="#C1D5FE"/>
<path d="M72.1392 285.148C72.1392 285.148 72.2394 290.663 72.5402 291.064C72.841 291.465 74.5455 292.167 75.9492 291.365L76.8516 285.549L72.1392 285.148Z" fill="#1C85E8"/>
<path d="M131.796 285.148C131.796 285.148 131.696 290.663 131.395 291.064C131.095 291.465 129.39 292.167 127.986 291.365L127.084 285.549L131.796 285.148Z" fill="#1C85E8"/>
<path d="M131.595 287.556H70.0335C65.5216 287.556 61.9121 283.947 61.9121 279.435V252.664C61.9121 248.152 65.5216 244.543 70.0335 244.543C70.0335 244.543 89.3844 246.849 99.2103 246.849C108.936 246.849 127.785 244.543 131.696 244.543C135.606 244.543 139.817 248.152 139.817 252.664V279.435C139.717 283.947 136.107 287.556 131.595 287.556Z" fill="#BFD5FE"/>
<path d="M137.21 287.556H64.4187C63.015 287.556 61.9121 286.453 61.9121 285.05C61.9121 283.646 63.015 282.543 64.4187 282.543H137.21C138.614 282.543 139.717 283.646 139.717 285.05C139.717 286.453 138.614 287.556 137.21 287.556Z" fill="#BFD5FE"/>
<path d="M100.715 278.733H69.6328V266.602H95.5009C98.3083 266.602 100.715 268.908 100.715 271.815V278.733Z" fill="#1C85E8"/>
<path d="M131.796 278.733H100.714V271.916C100.714 269.008 103.121 266.602 106.028 266.602H131.796V278.733Z" fill="#1C85E8"/>
<path d="M100.715 282.644H69.6328V270.512H95.5009C98.3083 270.512 100.715 272.818 100.715 275.725V282.644Z" fill="#BFD5FE"/>
<path d="M131.796 282.644H100.714V275.826C100.714 272.918 103.121 270.512 106.028 270.512H131.796V282.644Z" fill="#BFD5FE"/>
<path d="M68.7301 286.151H65.0203C64.0176 286.151 63.3158 284.948 63.3158 283.444L61.9121 259.18C61.9121 257.676 62.7142 256.473 63.8171 256.473H68.7301C69.7327 256.473 70.6351 257.676 70.6351 259.18V283.444C70.6351 284.948 69.7327 286.151 68.7301 286.151Z" fill="#1C85E8"/>
<path d="M66.9255 287.557H61.411C59.907 287.557 58.9044 286.354 58.9044 284.75L56.7988 259.784C56.7988 258.28 58.002 256.977 59.6062 256.977H66.9255C68.4294 256.977 69.7329 258.18 69.7329 259.784V284.75C69.7329 286.354 68.4294 287.557 66.9255 287.557Z" fill="#BFD5FE"/>
<path d="M133.2 286.252H136.91C137.912 286.252 138.614 285.049 138.614 283.545L140.018 259.281C140.018 257.777 139.216 256.574 138.113 256.574H133.2C132.197 256.574 131.295 257.777 131.295 259.281V283.545C131.295 285.049 132.197 286.252 133.2 286.252Z" fill="#1C85E8"/>
<path d="M140.118 287.557H134.604C133.1 287.557 131.796 286.354 131.796 284.75V259.784C131.796 258.28 133 256.977 134.604 256.977H141.923C143.427 256.977 144.73 258.18 144.73 259.784L143.026 284.75C142.926 286.354 141.622 287.557 140.118 287.557Z" fill="#BFD5FE"/>
<path d="M83.4688 261.688C84.4656 261.688 85.2736 260.88 85.2736 259.883C85.2736 258.886 84.4656 258.078 83.4688 258.078C82.4721 258.078 81.6641 258.886 81.6641 259.883C81.6641 260.88 82.4721 261.688 83.4688 261.688Z" fill="#BFD5FE"/>
<path d="M117.158 261.688C118.155 261.688 118.963 260.88 118.963 259.883C118.963 258.886 118.155 258.078 117.158 258.078C116.161 258.078 115.353 258.886 115.353 259.883C115.353 260.88 116.161 261.688 117.158 261.688Z" fill="#BFD5FE"/>
<path d="M131.596 270.41C131.596 270.41 131.095 270.811 130.393 270.41C129.691 270.009 113.749 270.109 113.749 270.109L112.044 270.41C112.044 270.41 112.044 268.906 112.345 268.204C112.646 267.503 112.445 256.574 112.445 256.574L112.044 254.669C112.044 254.669 112.746 254.368 113.448 254.669C114.05 254.97 128.287 255.07 129.791 254.769C131.295 254.569 131.596 254.669 131.596 254.669C131.596 254.669 132.097 255.671 131.496 257.075C131.095 258.178 131.596 264.595 131.796 268.004C131.796 269.007 131.596 270.41 131.596 270.41Z" fill="white"/>
<path d="M88.8834 270.714C88.8834 270.714 88.3821 271.115 87.7805 270.714C87.0787 270.313 71.8386 270.413 71.8386 270.413L70.2344 270.714C70.2344 270.714 70.2344 269.109 70.5352 268.408C70.7357 267.706 70.6354 256.476 70.6354 256.476L70.2344 254.571C70.2344 254.571 70.836 254.27 71.5378 254.571C72.1394 254.872 85.7753 254.972 87.2792 254.671C88.6829 254.471 88.9837 254.571 88.9837 254.571C88.9837 254.571 89.3848 255.574 88.8834 257.078C88.4824 258.181 88.9837 264.798 89.1842 268.207C89.1842 269.41 88.8834 270.714 88.8834 270.714Z" fill="white"/>
<path d="M98.7091 155.41H96.6035V182.582H98.7091V155.41Z" fill="#0E66AF"/>
<path d="M97.606 200.428C106.244 200.428 113.247 196.073 113.247 190.702C113.247 185.331 106.244 180.977 97.606 180.977C88.9676 180.977 81.9648 185.331 81.9648 190.702C81.9648 196.073 88.9676 200.428 97.606 200.428Z" fill="#C0E5FF"/>
<path d="M111.543 193.007C111.543 195.414 105.527 199.725 97.8066 199.725C90.0863 199.725 83.6694 195.414 83.6694 193.007C83.6694 190.601 89.8858 193.709 97.6061 193.709C105.326 193.709 111.543 190.601 111.543 193.007Z" fill="#88D2FF"/>
<path d="M123.575 216.57H62.0127V233.114H123.575V216.57Z" fill="#E0E1E4"/>
<path d="M81.4636 218.875H64.2183V230.907H81.4636V218.875Z" fill="#B0B6BF"/>
<path d="M72.9417 221.383H70.4351V230.908H72.9417V221.383Z" fill="#0087FA"/>
<path d="M75.7488 221.383H73.2422V230.908H75.7488V221.383Z" fill="#0087FA"/>
<path d="M78.5564 221.383H76.0498V230.908H78.5564V221.383Z" fill="#0087FA"/>
<path d="M81.4641 221.383H78.9575V230.908H81.4641V221.383Z" fill="#0087FA"/>
<path d="M67.8458 220.902L66.2305 230.594L68.703 231.006L70.3183 221.314L67.8458 220.902Z" fill="#0087FA"/>
<path d="M101.015 218.875H83.77V230.907H101.015V218.875Z" fill="#B0B6BF"/>
<path d="M98.3081 230.906H86.0759C85.8753 230.906 85.6748 230.706 85.6748 230.505V227.397C85.6748 227.197 85.8753 226.996 86.0759 226.996H98.3081C98.5086 226.996 98.7091 227.197 98.7091 227.397V230.505C98.7091 230.706 98.5086 230.906 98.3081 230.906Z" fill="#0158D9"/>
<path d="M85.2737 224.892C85.2737 224.892 85.1734 226.195 86.7777 226.195C86.6774 226.195 86.8779 224.792 85.2737 224.892Z" fill="#C0E5FF"/>
<path d="M93.3952 226.195C93.3952 226.195 92.0918 226.195 92.192 227.699C92.192 227.699 93.4955 227.8 93.3952 226.195Z" fill="#C0E5FF"/>
<path d="M96.1022 228.703C96.1022 228.703 94.7988 228.703 94.8991 230.207C94.7988 230.207 96.2025 230.307 96.1022 228.703Z" fill="#C0E5FF"/>
<path d="M89.1838 227.5C89.1838 227.5 87.8803 227.5 87.9806 229.004C87.9806 229.004 89.3843 229.104 89.1838 227.5Z" fill="#C0E5FF"/>
<path d="M98.4084 224.59C98.4084 224.59 97.1049 224.59 97.2052 226.094C97.1049 226.094 98.5086 226.194 98.4084 224.59Z" fill="#C0E5FF"/>
<path d="M94.8989 226.297C94.8989 226.297 94.0968 227.3 95.4003 228.202C95.4003 228.202 96.3026 227.199 94.8989 226.297Z" fill="#C0E5FF"/>
<path d="M93.8965 223.488C93.8965 223.488 93.0944 224.491 94.3978 225.393C94.3978 225.393 95.3002 224.391 93.8965 223.488Z" fill="#C0E5FF"/>
<path d="M96.9043 227.5C96.9043 227.5 96.1022 228.503 97.4056 229.405C97.3054 229.405 98.308 228.402 96.9043 227.5Z" fill="#C0E5FF"/>
<path d="M90.7881 224.289C90.7881 224.289 89.986 225.292 91.2894 226.194C91.2894 226.194 92.1918 225.191 90.7881 224.289Z" fill="#C0E5FF"/>
<path d="M87.6801 225.594C87.6801 225.594 86.477 226.095 87.1788 227.499C87.1788 227.499 88.4822 226.997 87.6801 225.594Z" fill="#C0E5FF"/>
<path d="M88.9835 225.395C88.9835 225.395 88.783 226.698 90.2869 226.798C90.3872 226.798 90.5877 225.495 88.9835 225.395Z" fill="#C0E5FF"/>
<path d="M121.269 218.977H104.023V231.008H121.269V218.977Z" fill="#B0B6BF"/>
<path d="M107.432 218.977H105.728V231.008H107.432V218.977Z" fill="#C1D5FE"/>
<path d="M105.728 218.977H104.023V231.008H105.728V218.977Z" fill="#0158D9"/>
<path d="M109.137 218.977H107.432V231.008H109.137V218.977Z" fill="#0158D9"/>
<path d="M110.941 218.977H109.237V231.008H110.941V218.977Z" fill="#C1D5FE"/>
<path d="M120.065 230.906H113.348V228.6C113.348 227.698 114.05 226.996 114.952 226.996H118.361C119.263 226.996 119.965 227.698 119.965 228.6L120.065 230.906Z" fill="#C1D5FE"/>
<path d="M118.361 225.395H115.253V226.898H118.361V225.395Z" fill="#C1D5FE"/>
<path d="M102.92 241.339C106.329 239.635 106.329 239.535 117.358 239.835C125.78 239.936 127.986 247.756 128.487 249.26C128.989 250.764 129.991 255.978 128.487 258.184C126.983 260.289 125.078 259.788 125.078 259.788L99.8118 260.991C96.5031 260.189 96.4028 258.083 96.2023 256.88C96.0018 255.677 96.0018 252.669 96.7036 250.463C97.3052 248.157 99.511 243.044 102.92 241.339Z" fill="#0E66AF"/>
<path d="M106.73 232.213C107.131 233.316 107.633 234.419 108.435 235.421L107.532 240.535C107.532 240.535 109.437 242.139 111.743 242.139C114.049 242.139 114.852 242.239 117.158 240.735C116.857 238.429 116.656 236.023 116.656 236.023C116.656 236.023 117.458 235.221 118.06 234.218C118.662 233.316 119.063 232.013 119.063 232.013C119.063 232.013 120.667 232.514 121.369 231.01C122.071 229.506 122.472 229.606 121.469 228.503C120.266 227.2 121.369 229.205 119.664 228.403C117.859 227.601 115.754 221.685 113.648 221.685C111.743 221.685 112.846 221.084 111.242 221.685C109.738 222.287 110.139 223.59 108.936 224.593C107.532 225.796 103.923 227.902 104.023 229.706C104.224 231.611 106.73 232.213 106.73 232.213Z" fill="white"/>
<path d="M110.239 230.708C110.516 230.708 110.74 230.394 110.74 230.007C110.74 229.619 110.516 229.305 110.239 229.305C109.962 229.305 109.738 229.619 109.738 230.007C109.738 230.394 109.962 230.708 110.239 230.708Z" fill="#383C42"/>
<path d="M115.553 230.708C115.83 230.708 116.054 230.394 116.054 230.007C116.054 229.619 115.83 229.305 115.553 229.305C115.276 229.305 115.052 229.619 115.052 230.007C115.052 230.394 115.276 230.708 115.553 230.708Z" fill="#383C42"/>
<path d="M113.147 230.609V232.815H112.345" stroke="#383C42" stroke-width="0.5" stroke-miterlimit="10" stroke-linecap="round"/>
<path d="M111.442 234.823C111.442 234.823 110.54 234.723 110.139 234.221C109.738 233.72 109.738 233.219 109.738 233.219" stroke="#383C42" stroke-width="0.5" stroke-miterlimit="10" stroke-linecap="round"/>
<path d="M112.044 222.088C114.702 222.088 116.857 220.157 116.857 217.776C116.857 215.395 114.702 213.465 112.044 213.465C109.386 213.465 107.231 215.395 107.231 217.776C107.231 220.157 109.386 222.088 112.044 222.088Z" fill="#0158D9"/>
<path d="M120.366 220.284C118.661 218.68 112.044 215.17 109.938 220.685C109.938 220.685 104.424 218.98 104.725 228.506C104.725 228.506 106.229 230.411 106.63 228.806C107.432 225.999 110.139 227.804 110.841 225.899C111.142 225.097 112.144 222.089 112.345 223.192C112.746 227.202 115.553 225.798 116.656 226.701C117.759 227.503 116.255 228.806 117.559 229.508C121.068 231.513 119.664 229.709 121.268 228.405C122.973 227.002 122.07 221.988 120.366 220.284Z" fill="#0158D9"/>
<path d="M112.545 237.126C110.239 237.026 108.435 235.422 108.435 235.422L108.134 237.327C108.134 237.327 110.139 238.43 112.545 238.53C115.052 238.63 116.656 237.026 116.656 237.026L116.556 236.224C116.656 236.124 114.851 237.126 112.545 237.126Z" fill="#C0E5FF"/>
<path d="M120.867 255.475C120.867 255.475 117.158 249.359 119.865 246.452C122.672 243.544 121.369 246.151 121.97 247.655C122.572 249.159 123.374 248.958 123.976 248.056C124.577 247.153 128.086 248.156 125.58 250.262C122.973 252.467 120.867 255.475 120.867 255.475Z" fill="#0E527F"/>
<path d="M103.622 256.58C103.622 256.58 105.427 249.762 104.625 247.556C103.822 245.35 102.419 248.058 102.519 248.759C102.92 251.467 100.614 248.96 101.817 251.667C103.02 254.274 103.622 256.58 103.622 256.58Z" fill="#0E527F"/>
<path d="M97.1045 265.401L103.221 267.306C103.622 267.406 104.023 267.206 104.123 266.805L105.326 262.995C105.426 262.594 105.226 262.192 104.825 262.092L97.1045 259.686C96.3024 259.385 95.4 259.886 95.0992 260.689L94.8987 261.29C94.4976 263.095 95.4 264.9 97.1045 265.401Z" fill="white"/>
<path d="M105.828 266.102H101.416C101.316 264.096 101.416 262.191 102.018 260.688H105.728V266.102H105.828Z" fill="#C0E5FF"/>
<path d="M121.669 262.793H103.02C102.218 262.793 101.516 262.092 101.516 261.289V251.664C101.516 250.862 102.218 250.16 103.02 250.16H121.669C122.471 250.16 123.173 250.862 123.173 251.664V261.289C123.173 262.192 122.471 262.793 121.669 262.793Z" fill="#E0E1E4"/>
<path d="M121.268 262.491C121.268 262.491 105.126 262.491 104.023 262.491C102.92 262.491 101.015 261.288 102.719 261.188C104.424 261.088 110.54 261.288 115.553 258.08C120.667 254.871 120.967 252.365 121.268 251.362C121.469 250.56 122.672 251.663 122.572 252.665V261.188C122.672 261.89 122.07 262.491 121.268 262.491Z" fill="#B8BAC1"/>
<path d="M104.323 271.216L129.79 265.902C131.896 265.501 133.3 263.395 132.798 261.289C132.397 259.184 130.292 257.78 128.186 258.282L102.719 263.596L104.323 271.216Z" fill="#383C42"/>
<path d="M104.324 271.215L129.791 265.901C131.896 265.5 133.3 263.395 132.799 261.289C132.197 261.991 129.991 262.392 126.281 262.592C122.572 262.793 102.619 263.495 102.619 263.495L104.324 271.215Z" fill="#1F2D49"/>
<path d="M127.384 270.512H120.967C120.566 270.512 120.266 270.211 120.266 269.81V265.8C120.266 265.398 120.566 265.098 120.967 265.098H129.089C129.991 265.098 130.693 265.8 130.693 266.702V267.303C130.593 269.108 129.189 270.512 127.384 270.512Z" fill="white"/>
<path d="M122.171 265.098H118.762V270.512H122.171V265.098Z" fill="#C0E5FF"/>
<path d="M120.767 271.414H94.6984C92.4926 271.414 90.7881 269.61 90.7881 267.504C90.7881 265.298 92.5928 263.594 94.6984 263.594H120.767V271.414Z" fill="#383C42"/>
</g>
<defs>
<clipPath id="clip0_956_175317">
<rect width="190" height="305.404" fill="white" transform="translate(0.25)"/>
</clipPath>
</defs>
</svg>
