<svg width="486" height="328" viewBox="0 0 486 328" fill="none" xmlns="http://www.w3.org/2000/svg">
<g clip-path="url(#clip0_778_32443)">
<path d="M137.788 0H79.2927C74.8179 0 71.2196 3.59831 71.2196 8.07314V88.7584C71.2196 93.2332 74.8179 96.8315 79.2927 96.8315H137.788C142.263 96.8315 145.862 93.2332 145.862 88.7584V8.07314C145.862 3.59831 142.263 0 137.788 0Z" fill="#1C85E8"/>
<path d="M104.758 59.6038L101.713 66.8004H100.698L103.789 59.6961H99.5448V58.8196H104.758V59.6038ZM107.295 62.6485C106.88 62.464 106.557 62.2334 106.326 61.9566C106.096 61.6336 106.003 61.2646 106.003 60.8494C106.003 60.4342 106.096 60.1113 106.28 59.7884C106.465 59.4654 106.788 59.1886 107.157 59.0502C107.572 58.8657 108.033 58.7734 108.587 58.7734C109.14 58.7734 109.602 58.8657 110.017 59.0502C110.432 59.2348 110.709 59.4654 110.893 59.7884C111.078 60.1113 111.216 60.4803 111.216 60.8494C111.216 61.2646 111.124 61.6336 110.893 61.9566C110.663 62.2795 110.34 62.5101 109.971 62.6485C110.432 62.7869 110.801 63.0176 111.032 63.3867C111.308 63.7096 111.447 64.1709 111.447 64.6322C111.447 65.0936 111.308 65.5087 111.078 65.8778C110.847 66.2469 110.524 66.5237 110.063 66.7082C109.648 66.8927 109.14 66.985 108.587 66.985C108.033 66.985 107.526 66.8927 107.11 66.7082C106.695 66.5237 106.372 66.2469 106.142 65.8778C105.911 65.5087 105.773 65.0936 105.773 64.6322C105.773 64.1248 105.911 63.7096 106.188 63.3867C106.511 63.0176 106.834 62.7869 107.295 62.6485ZM110.294 60.9417C110.294 60.4803 110.155 60.1574 109.832 59.9267C109.509 59.6961 109.14 59.5577 108.633 59.5577C108.125 59.5577 107.71 59.6961 107.433 59.9267C107.157 60.1574 106.972 60.5265 106.972 60.9878C106.972 61.403 107.11 61.7259 107.433 62.0027C107.756 62.2334 108.125 62.3718 108.633 62.3718C109.14 62.3718 109.509 62.2334 109.832 62.0027C110.155 61.6798 110.294 61.3568 110.294 60.9417ZM108.633 63.0637C108.079 63.0637 107.664 63.2021 107.295 63.4328C106.972 63.6635 106.788 64.0786 106.788 64.5861C106.788 65.0474 106.972 65.4165 107.295 65.7394C107.618 66.0162 108.079 66.1546 108.633 66.1546C109.186 66.1546 109.648 66.0162 109.971 65.7394C110.294 65.4626 110.478 65.0936 110.478 64.5861C110.478 64.0786 110.294 63.7096 109.971 63.4789C109.648 63.2021 109.186 63.0637 108.633 63.0637ZM112.6 60.6187C112.6 60.1113 112.739 59.7422 113.062 59.4193C113.384 59.0964 113.753 58.958 114.215 58.958C114.676 58.958 115.091 59.0964 115.368 59.4193C115.691 59.6961 115.829 60.1113 115.829 60.6187C115.829 61.1262 115.691 61.5414 115.368 61.8182C115.045 62.095 114.676 62.2795 114.215 62.2795C113.753 62.2795 113.338 62.1411 113.062 61.8182C112.739 61.5414 112.6 61.1262 112.6 60.6187ZM119.013 59.0964L114.538 66.8004H113.569L118.044 59.0964H119.013ZM114.215 59.6038C113.984 59.6038 113.753 59.6961 113.615 59.8806C113.477 60.0651 113.384 60.2958 113.384 60.6187C113.384 60.9417 113.477 61.2185 113.615 61.403C113.753 61.5875 113.938 61.6798 114.215 61.6798C114.445 61.6798 114.676 61.5875 114.815 61.403C114.953 61.2185 115.045 60.9417 115.045 60.6187C115.045 60.2958 114.953 60.019 114.815 59.8806C114.63 59.6961 114.445 59.6038 114.215 59.6038ZM116.798 65.2781C116.798 64.7706 116.937 64.3554 117.26 64.0786C117.582 63.7557 117.952 63.6173 118.413 63.6173C118.874 63.6173 119.243 63.7557 119.566 64.0786C119.889 64.3554 120.027 64.7706 120.027 65.2781C120.027 65.7855 119.889 66.2007 119.566 66.4775C119.289 66.8004 118.874 66.9388 118.413 66.9388C117.952 66.9388 117.536 66.8004 117.26 66.4775C116.937 66.2007 116.798 65.7855 116.798 65.2781ZM118.413 64.2632C118.182 64.2632 117.952 64.3554 117.813 64.54C117.675 64.7245 117.582 64.9552 117.582 65.2781C117.582 65.601 117.675 65.8778 117.813 66.0162C117.952 66.2007 118.136 66.2469 118.413 66.2469C118.644 66.2469 118.874 66.1546 119.013 66.0162C119.151 65.8317 119.243 65.601 119.243 65.2781C119.243 64.9552 119.151 64.6784 119.013 64.54C118.874 64.3093 118.644 64.2632 118.413 64.2632Z" fill="white"/>
<path d="M108.541 83.773C121.089 83.773 131.238 73.6239 131.238 61.076C131.238 48.528 121.089 38.3789 108.541 38.3789C95.9926 38.3789 85.8435 48.528 85.8435 61.076C85.8435 73.6239 95.9926 83.773 108.541 83.773Z" stroke="white" stroke-width="9" stroke-miterlimit="10" stroke-linecap="round"/>
<path d="M131.238 61.0781C131.238 67.0753 128.839 72.8418 124.595 77.086C120.35 81.3302 114.584 83.729 108.587 83.729C102.59 83.729 96.823 81.3302 92.5788 77.086C88.3347 72.8418 85.9358 67.0753 85.9358 61.0781" stroke="#96BAFD" stroke-width="9" stroke-linecap="round" stroke-linejoin="round"/>
<path d="M108.541 38.4258C111.539 38.4258 114.492 39.0255 117.213 40.1327C119.981 41.286 122.472 42.9467 124.595 45.0688C126.717 47.1909 128.377 49.682 129.531 52.45C130.684 55.2179 131.238 58.1704 131.238 61.1228" stroke="#95B5FC" stroke-width="9" stroke-linecap="round" stroke-linejoin="round"/>
<path d="M82.0145 14.9453H97.0998" stroke="white" stroke-width="5.43" stroke-miterlimit="10" stroke-linecap="round"/>
<path opacity="0.4" d="M82.0145 22.0039H113.154" stroke="white" stroke-width="5.43" stroke-miterlimit="10" stroke-linecap="round"/>
<path d="M320.149 0.046875H160.716C156.057 0.046875 152.274 3.82971 152.274 8.48906V111.226C152.274 115.885 156.057 119.668 160.716 119.668H320.149C324.808 119.668 328.591 115.885 328.591 111.226V8.48906C328.591 3.82971 324.808 0.046875 320.149 0.046875Z" fill="url(#paint0_linear_778_32443)"/>
<path d="M210.954 12.7344H164.499C162.746 12.7344 161.362 14.1645 161.362 15.8714V103.523C161.362 105.276 162.792 106.66 164.499 106.66H210.908C212.661 106.66 214.045 105.229 214.045 103.523V15.8714C214.091 14.1645 212.661 12.7344 210.954 12.7344Z" fill="#1C85E8"/>
<path d="M225.716 24.0352H258.886" stroke="white" stroke-width="9.35" stroke-miterlimit="10" stroke-linecap="round"/>
<path opacity="0.4" d="M225.716 39.4883H294.269" stroke="white" stroke-width="9.35" stroke-miterlimit="10" stroke-linecap="round"/>
<path d="M226.132 60.0195H259.301" stroke="white" stroke-width="9.35" stroke-miterlimit="10" stroke-linecap="round"/>
<path opacity="0.4" d="M226.132 75.4727H294.684" stroke="white" stroke-width="9.35" stroke-miterlimit="10" stroke-linecap="round"/>
<path opacity="0.4" d="M226.132 90.9727H276.739" stroke="white" stroke-width="9.35" stroke-miterlimit="10" stroke-linecap="round"/>
<path d="M54 0H69" stroke="white" stroke-width="7.4328" stroke-miterlimit="10" stroke-linecap="round"/>
<path d="M389.225 0H341.774C338.561 0 336 2.56804 336 5.68639V56.3136C336 59.4778 338.608 62 341.774 62H389.225C392.438 62 394.999 59.4319 394.999 56.3136V5.68639C395.046 2.56804 392.438 0 389.225 0Z" fill="#1C85E8"/>
<path d="M343 47H358" stroke="white" stroke-width="4.43" stroke-miterlimit="10" stroke-linecap="round"/>
<path opacity="0.4" d="M343 54H374" stroke="white" stroke-width="4.43" stroke-miterlimit="10" stroke-linecap="round"/>
<path d="M344 18H351.768C352.32 18 352.917 18.1371 353.377 18.4114C353.883 18.6857 354.296 19.0971 354.572 19.6L362.11 32.4C362.386 32.9029 362.846 33.3143 363.351 33.5886C363.857 33.8629 364.455 34 365.006 34C365.604 34 366.155 33.8171 366.661 33.4971C367.167 33.1771 367.58 32.7657 367.81 32.2171L372.453 23.2571C372.728 22.7086 373.142 22.2971 373.648 21.9771C374.153 21.6571 374.751 21.52 375.348 21.4743L389 21.3371" stroke="white" stroke-width="3" stroke-miterlimit="10" stroke-linecap="round"/>
<path opacity="0.4" d="M344 32H347.734C348.589 32 349.399 31.6698 349.984 31.0094L367.26 12.9906C367.845 12.3774 368.654 12 369.509 12H374.548C375.268 12 375.988 12.2358 376.528 12.7075C377.112 13.1792 377.472 13.8396 377.652 14.5943L380.307 26.5755C380.487 27.3302 380.847 27.9906 381.431 28.4623C382.016 28.934 382.691 29.1698 383.411 29.1698H388" stroke="white" stroke-width="3" stroke-miterlimit="10" stroke-linecap="round"/>
<path d="M456 310.713C456 310.713 454.283 328 424.217 328H389L435.724 292L456 310.713Z" fill="#383C42"/>
<path d="M386.414 110L468.289 128.222C469.024 128.361 469.713 128.684 470.356 129.099C472.606 130.621 476.647 135.004 475.912 146.998C474.856 163.006 455.615 311 455.615 311L377 242.631L386.414 110Z" fill="#383C42"/>
<path d="M377.468 109L460.013 127.361C460.013 127.361 467.091 129.944 466.999 145.998C466.907 162.053 446.685 310 446.685 310L368 241.585L377.468 109Z" fill="#0087FA"/>
<path d="M379 117.834C379 117.834 380.467 139.101 381.062 142.444C382.162 148.342 407.781 135.944 405.902 130.696C404.939 127.957 400.494 102 400.494 102L379 117.834Z" fill="white"/>
<path d="M381.205 141L379 120H392L381.205 141Z" fill="#0158D9"/>
<path d="M411.94 97.4066C412.951 86.8067 400.906 89.101 398.838 89.6058C396.769 90.0646 393.551 74.4171 393.551 74.4171C393.551 74.4171 369.139 69.5072 364.036 73.6829C364.036 73.6829 361.554 94.1486 361.048 106.813C360.542 119.478 364.082 125.122 368.726 125.581C375.07 126.728 382.563 125.444 387.344 122.644C395.849 117.643 399.527 108.557 399.527 108.557C399.665 108.465 399.757 108.465 399.757 108.465C399.757 108.465 411.02 107.364 411.94 97.4066Z" fill="white" stroke="#0087FA" stroke-miterlimit="10"/>
<path d="M362.888 109.047C365.022 107.771 370.501 107.862 372.732 108.272C376.951 109.047 378.261 109.548 378.697 110.505C379.182 111.416 379.279 112.464 377.485 111.78C375.739 111.142 372.053 109.958 368.756 110.003C367.252 110.14 365.7 110.413 364.246 110.778C362.548 111.279 360.948 110.231 362.888 109.047Z" fill="#434349"/>
<path d="M362.566 93.568C362.566 93.568 363.889 81.503 364.071 78.1828C364.299 73.3662 367.719 74.9094 370.182 78.2764C373.693 83.28 380.443 82.9527 386.097 81.4095C391.068 80.1469 391.159 80.4742 391.57 85.852C392.026 91.2298 393.713 101.237 395.309 98.8054C397.27 95.6723 398.638 92.7262 402.104 90.8557C406.847 88.2837 411.681 93.0536 410.541 96.7478C409.401 100.442 406.756 104.698 400.782 108.158L403.7 122C418.476 101.003 424.039 72.1504 404.019 65.51C396.54 63.0316 388.788 46.8515 374.286 50.5458C364.025 53.1645 364.025 61.5819 363.296 68.9237C349.569 69.4381 362.566 93.568 362.566 93.568Z" fill="#434349"/>
<path d="M379.924 97.3753C380.22 95.724 379.628 94.2728 378.543 94.0226C377.507 93.8224 376.372 94.9734 376.076 96.6247C375.78 98.276 376.372 99.7272 377.457 99.9774C378.493 100.178 379.628 99.0266 379.924 97.3753Z" fill="#080B09"/>
<path d="M365.943 94.3753C366.165 92.724 365.721 91.2728 364.907 91.0226C364.13 90.8224 363.279 91.9734 363.057 93.6247C362.835 95.276 363.279 96.7272 364.093 96.9774C364.907 97.1776 365.721 96.0266 365.943 94.3753Z" fill="#080B09"/>
<path d="M369.346 98C369.346 98 371.202 101.354 368.662 101.5C366.219 101.549 364.803 103.007 367.343 105" stroke="#0087FA" stroke-width="1.5154" stroke-linecap="round"/>
<path d="M368.519 111C369.667 111.045 372 111.178 373.519 111.312C373.593 111.312 373.704 111.356 373.778 111.401C373.852 111.446 373.926 111.535 373.963 111.668C374 111.758 374 111.891 374 111.98C374 112.069 373.963 112.203 373.889 112.292C372.556 114.164 369.444 117.55 368.037 111.802C368 111.713 368 111.624 368 111.535C368 111.446 368.037 111.356 368.074 111.267C368.111 111.178 368.185 111.134 368.259 111.089C368.37 111 368.444 111 368.519 111Z" fill="#0158D9"/>
<path d="M384.903 92.5677L384.758 92.849C384.612 93.271 384.273 93.5993 383.837 93.8337C383.401 94.0213 382.916 94.0682 382.48 93.8806L375.066 91.1141C374.678 90.9735 374.388 90.739 374.194 90.4108C374 90.0826 373.952 89.7075 374.048 89.3323C374.097 89.0979 374.194 88.9103 374.339 88.7228C374.485 88.5352 374.63 88.3945 374.872 88.2539C375.066 88.1601 375.308 88.0663 375.551 88.0194C375.793 87.9725 376.035 88.0194 376.229 88.0663L383.837 90.5514C384.031 90.5983 384.225 90.6921 384.419 90.8328C384.564 90.9735 384.709 91.1141 384.806 91.3017C384.903 91.4892 384.952 91.6768 385 91.9113C385 92.1457 384.952 92.3801 384.903 92.5677Z" fill="#080B09"/>
<path d="M360.504 86.7096L368.261 86C368.496 86 368.731 86 368.919 86.0887C369.154 86.1774 369.342 86.2661 369.483 86.4435C369.671 86.5766 369.765 86.754 369.859 86.9757C369.953 87.1975 370 87.3749 370 87.5966C370 87.9514 369.859 88.3062 369.624 88.5724C369.389 88.8385 369.013 89.0159 368.637 89.0159L360.927 89.9916C360.457 90.0359 360.034 89.9029 359.658 89.6368C359.282 89.3707 359.094 88.9715 359.047 88.5724L359 88.3062C359 88.1288 359 87.9071 359.094 87.7297C359.141 87.5523 359.282 87.3749 359.423 87.1975C359.564 87.0644 359.752 86.9314 359.94 86.8427C360.081 86.7983 360.316 86.754 360.504 86.7096Z" fill="#080B09"/>
<path d="M32 310.713C32 310.713 33.7168 328 63.7832 328H99L52.2763 292L32 310.713Z" fill="#383C42"/>
<path d="M101.628 110L19.7144 128.222C18.9793 128.361 18.2902 128.684 17.647 129.099C15.3959 130.621 11.353 135.004 12.0881 146.998C13.1447 163.006 32.3482 311 32.3482 311L111 242.631L101.628 110Z" fill="#383C42"/>
<path d="M110.574 109L27.9901 127.361C27.9901 127.361 20.9089 129.944 21.0009 145.998C21.0929 162.053 41.2789 310 41.2789 310L120 241.631L110.574 109Z" fill="#0087FA"/>
<path d="M146.195 185L154.272 196.323C155.432 197.947 156.917 199.293 158.635 200.314C160.352 201.335 162.255 201.938 164.251 202.171L217.211 207.739L218 221.012L153.39 224.956C149.769 225.188 146.102 224.492 142.807 223.007C139.511 221.476 136.587 219.202 134.359 216.278L117 193.632L146.195 185Z" fill="white"/>
<path d="M151 192.507C151 192.507 134.809 197 130.073 211L122 198.514L149.241 190L151 192.507Z" fill="#7DC1FF"/>
<path d="M111.107 143C111.107 143 126.9 147.741 131.289 153.179C134.728 157.409 140.521 175.071 145.091 183.577C146.177 185.622 147.761 185.808 146.584 187.853C141.788 196.219 137.67 208.397 129.706 211C103.188 206.91 111.107 143 111.107 143Z" fill="#0158D9"/>
<path d="M128.645 167C128.645 167 139.387 186.717 141 197.323C141 197.323 137.174 207.135 134.5 209.144C130.305 212.274 128 210.498 128 210.498L128.645 167Z" fill="#0139D9"/>
<path d="M72 103C86.9125 103 99 91.1364 99 76.5C99 61.8636 86.9125 50 72 50C57.0875 50 45 61.8636 45 76.5C45 91.1364 57.0875 103 72 103Z" fill="#080B09"/>
<path d="M94.9661 62.3175C94.9661 62.3175 60.9774 56.091 57 98.7866C57 98.7866 60.3898 102.579 65.3164 103C65.3164 103 69.2938 61.5684 97 64.7519L94.9661 62.3175Z" fill="#95B5FC"/>
<path d="M87.9026 64C87.9026 64 84.2829 61.9911 87.0289 59.6696C88.7348 58.1518 90.1078 56.1875 91.0231 54C91.8969 54.4911 92.521 55.3393 92.8122 56.3661C93.1035 57.3482 93.0619 58.4643 92.6458 59.4018C91.2728 63.0625 90.399 63.2857 90.399 63.2857L87.9026 64Z" fill="#95B5FC"/>
<path d="M87 61.6108C87 61.6108 85.9743 65.4867 83.1966 63.3652C81.359 62.0596 79.2222 61.162 77 60.754C77.2564 59.8156 77.8974 59.0404 78.7521 58.5508C79.6068 58.0612 80.6325 57.898 81.6154 58.0612C85.3761 58.6324 85.7607 59.4076 85.7607 59.4076L87 61.6108Z" fill="#95B5FC"/>
<path d="M95.1516 124.14L99.4785 139.876C99.4785 139.876 132.542 176.486 105.122 189.791C100.278 192.131 77.2324 174.147 72.9055 170.155C68.5785 166.164 70.3658 142.628 70.3658 142.628L80.2895 109L95.1516 124.14Z" fill="white" stroke="#0087FA" stroke-width="2" stroke-miterlimit="10"/>
<path d="M86 174C86 174 101.93 184.258 118 174.76C118 174.76 115.538 188.865 105.832 193.424C96.0784 197.983 86 174 86 174Z" fill="#1C85E8"/>
<path d="M95.8095 126.787L87 121L100 143L95.8095 126.787Z" fill="#7DC1FF"/>
<path d="M104.481 129.908C100.098 129.908 94.6087 127.325 87.2737 121.697C74.449 111.963 71.7272 106.104 71.5888 105.873L71.5426 105.735L74.7258 80.6853L74.9564 80.593C75.0948 80.5469 89.3958 73.9961 101.436 73.9961C110.709 73.9961 116.291 77.7328 118.044 85.0678C118.09 85.3446 122.473 109.103 114.446 122.942C111.724 127.694 108.541 129.908 104.481 129.908Z" fill="white"/>
<path d="M101.436 74.5047C108.956 74.5047 115.645 77.042 117.629 85.2074C117.629 85.2074 122.15 108.919 114.077 122.713C111.539 127.095 108.495 129.402 104.481 129.402C100.191 129.402 94.7932 126.819 87.5505 121.329C74.6335 111.549 72.0039 105.69 72.0039 105.69L75.1409 81.0555C75.1409 81.0555 89.3496 74.5047 101.436 74.5047ZM101.436 73.582C89.3035 73.582 75.3716 79.9483 74.7719 80.2251L74.3106 80.4557L74.2644 80.9632L71.1274 105.598L71.0813 105.875L71.1736 106.105C71.2658 106.336 74.0338 112.287 86.9969 122.113C94.4242 127.741 100.006 130.417 104.481 130.417C108.725 130.417 112.047 128.156 114.861 123.266C122.98 109.288 118.69 86.0839 118.505 85.1151C117.536 81.0554 115.368 78.0107 112.047 76.1193C109.279 74.3663 105.727 73.582 101.436 73.582Z" fill="#0087FA"/>
<path d="M99.5892 139.555C99.5892 139.555 115.403 143.484 117.917 145.334C120.43 147.183 123.767 163.04 128.337 170.391C132.908 177.742 139.169 189.392 131.125 202.845C123.081 216.299 123.813 229.197 123.813 229.197L129.891 262.992H62.0659C59.2323 263.27 57.724 255.965 57.8154 253.099C58.0897 243.621 59.0038 240.755 58.3639 225.73C57.5412 205.342 50 147.414 50 147.414L72.3494 139C71.6639 170.853 89.9456 163.919 105.348 192.859C118.008 168.403 99.5892 139.555 99.5892 139.555Z" fill="#0158D9"/>
<path d="M103 116L111 117.319C110.957 117.404 110.914 117.446 110.87 117.531C110.741 117.829 110.524 118.212 110.178 118.552C109.573 119.318 108.622 120.041 107.195 119.998C105.032 119.743 103.951 118.68 103.432 117.701C103.173 117.191 103.043 116.723 103 116.34C103 116.213 103 116.085 103 116Z" fill="#4261E2" stroke="#4261E2"/>
<path d="M116.133 104.999C117.252 104.953 118.051 103.772 117.997 102.409C117.944 101.001 116.932 99.956 115.867 100.001C114.748 100.047 113.949 101.228 114.003 102.591C114.056 103.954 115.015 105.044 116.133 104.999Z" fill="#080B09"/>
<path d="M101.6 106.998C102.439 106.944 103.038 105.526 102.998 103.891C102.918 102.201 102.199 100.947 101.4 101.002C100.561 101.056 99.9619 102.474 100.002 104.109C100.042 105.745 100.761 107.053 101.6 106.998Z" fill="#080B09"/>
<path d="M119.509 96.5393L111.56 97C111.408 97 111.306 96.9539 111.204 96.8618C111.102 96.7697 111.051 96.6775 111 96.5393C111 96.309 111.102 96.1247 111.204 95.8944C111.306 95.7101 111.459 95.5258 111.662 95.3876C111.866 95.2494 112.07 95.1573 112.325 95.0652C112.58 95.0191 112.783 94.973 113.038 95.0191L119.611 95.664C120.121 95.7101 120.172 96.4933 119.509 96.5393Z" fill="#080B09"/>
<path d="M94.3017 97.8551L104 98C103.953 97.7102 103.906 97.4205 103.766 97.1307C103.625 96.841 103.438 96.6478 103.204 96.4546C102.969 96.2615 102.688 96.1166 102.407 96.0683C102.126 96.02 101.798 95.9717 101.517 96.02L94.1612 97.2756C93.9269 97.2756 93.9269 97.9034 94.3017 97.8551Z" fill="#080B09"/>
<path d="M110 102L113 109L110.94 111" stroke="#4261E2" stroke-width="1.6669" stroke-linecap="round"/>
<path d="M109.024 88.7241C103.945 88.7705 101.569 87.6097 96.2571 90.0707C94.5797 90.86 92.9955 91.6494 92.017 93.5532C90.9919 97.4071 91.6442 102.793 84.7949 102.654C84.7949 102.654 87.0314 95.3176 82.3254 94.3425C74.3112 92.7638 75.6158 105.626 80.5548 108.783C83.9096 110.919 78.1319 126.335 73.8452 132C59.1214 97.7322 64.2468 94.2961 68.0675 85.3345C74.5441 70.1507 80.2752 65.5074 95.6513 63C95.6513 63 116.06 63.5572 121.418 81.4341C126.031 96.7106 119.088 102.561 119.088 102.561C119.088 102.561 119.321 91.1851 118.156 90.0242C116.712 88.5384 115.5 88.6777 109.024 88.7241Z" fill="#080B09"/>
<path d="M353.85 272L297 282.267L308.205 328H344.62C344.62 328 361.933 290.153 353.85 272Z" fill="white"/>
<path d="M317 276.497C317 276.497 325.937 279.224 329.634 293.603C333.331 307.981 329.306 328 329.306 328H335.062C335.062 328 355.51 304.236 340.49 274L317 276.497Z" fill="#7DC1FF"/>
<path d="M436.562 257.685C436.562 257.685 440.952 290.862 434.391 306.705C428.801 320.172 420.161 327.814 409.627 328H329.097C329.097 328 328.958 284.618 295 277.209C295 277.209 406.808 245.803 436.562 257.685Z" fill="#1F2D49"/>
<path d="M438 268.507L365 271L365.784 265.726L379.997 264H437.862L438 268.507Z" fill="#0D1B33"/>
<path d="M381.233 139.398C380.581 142.083 380.441 132.64 379.137 133.011C373.269 134.816 356.596 140 353.057 141.481C348.726 143.287 348.446 150.461 348.167 155.553C347.981 159.117 353.29 209.201 353.569 243.13C353.616 250.397 346.257 258.868 345.373 262.895C345.14 263.96 345 265.071 345 266.182C345 266.969 345.279 267.709 345.838 268.265C346.397 268.82 347.142 269.144 347.934 269.144L435.909 269.977C435.909 269.977 439.821 270.533 438.843 266.135C437.912 261.275 437.399 256.369 437.306 251.462C436.421 216.237 436.282 157.173 435.862 154.396C435.304 150.184 439.821 146.573 434.884 144.49L407.64 133.659C407.64 133.659 402.656 137.269 401.911 137.639C388.266 144.583 381.233 139.398 381.233 139.398Z" fill="#126DE5"/>
<path d="M387 143C387 143 383.981 154.343 385.378 165.316C386.775 176.289 381.278 191.291 380.152 203.328C379.025 215.366 384.567 231.155 383.711 241.248C382.855 251.341 386.009 270 386.009 270" stroke="#7DC1FF" stroke-width="3" stroke-miterlimit="10"/>
<path d="M143.15 264L200 274.267L188.795 320H152.38C152.38 320 135.067 282.2 143.15 264Z" fill="white"/>
<path d="M180 268.541C180 268.541 171.063 271.266 167.366 285.632C163.669 299.998 167.694 320 167.694 320H161.938C161.938 320 141.49 296.257 156.51 266L180 268.541Z" fill="#7DC1FF"/>
<path d="M58.999 252.51C58.999 252.51 48.8999 271.428 50.0989 296.362C51.2518 320.056 64.256 328 84.8231 328L167.968 319.643C167.968 319.643 168.106 276.893 202 269.592C202 269.592 164.232 242.224 126.096 249.112C107.281 252.51 95.5217 256.642 58.999 252.51Z" fill="#1F2D49"/>
<path d="M57.0066 246.335C57.0066 246.335 110.358 252.029 130 237L129.132 249.508C129.132 249.508 95.8786 268.364 57.8288 257.769C57.7831 257.769 52.0734 253.709 57.0066 246.335Z" fill="#1C85E8"/>
<path d="M221.349 227.157C221.349 227.157 237.488 223.878 244.14 225.405C250.93 226.753 265.256 230.212 262.698 240.363C260.93 247.595 253.07 244.72 253.07 244.72C253.07 244.72 255.116 247.595 252.093 248.943C250.233 249.661 238.326 243.373 238.326 243.373C230.372 245.843 220 240.633 220 240.633L221.349 227.157Z" fill="white"/>
<path d="M244 241L253 245" stroke="#7DC1FF" stroke-width="2.8932" stroke-linecap="round" stroke-linejoin="round"/>
<path d="M246 234C248.186 234.413 258 239 258 239" stroke="#7DC1FF" stroke-width="2.8932" stroke-linecap="round" stroke-linejoin="round"/>
<path d="M247 229C251.594 230.036 255.992 231.748 260 234" stroke="#7DC1FF" stroke-width="2.8932" stroke-linecap="round" stroke-linejoin="round"/>
<path d="M150.752 175H324.211L412 320H79L150.752 175Z" fill="url(#paint1_linear_778_32443)"/>
<path d="M292 237L297.796 272.233L330.042 294L384 288.143L370.752 272.233L292 237Z" fill="#96BAFD"/>
<path d="M260 202L284.503 246.741L321 281L291.457 237.044L260 202Z" fill="white"/>
<path d="M260.088 202L285 246.22L282.58 248L258 203.187L260.088 202Z" fill="#5CA4E6"/>
<path d="M284.388 247L321 280.813V283L282 248.777L284.388 247Z" fill="#5CA4E6"/>
<path d="M321 283L371 273.818V272L321 280.763V283Z" fill="#5CA4E6"/>
<path d="M371 272.188L338.56 230L292 236.375L321.21 281L371 272.188Z" fill="#E7EFFF"/>
<path d="M74 167.284L66.4004 210.423C66.2139 211.482 65.6078 212.449 64.7219 213.14C63.8361 213.784 62.7171 214.107 61.6448 213.968C61.6448 213.968 40.2446 212.587 33.1112 211.989C31.4328 211.851 26.8637 207.753 28.2624 201.031C29.5212 191.823 35.5356 170.368 39.3122 158.444C41.0838 152.505 59.9197 156.05 59.9197 156.05L74 167.284Z" fill="#0158D9"/>
<path d="M56.0233 182C65.9689 182 74 173.912 74 164C74 154.042 65.9222 146 56.0233 146C46.0778 146 38 154.088 38 164C38.0467 173.912 46.0778 182 56.0233 182Z" fill="#0158D9"/>
<path d="M33.6417 214.396L33.9153 211L60 213.943L59.5896 216.841L57.3551 235L32 232.283L33.6417 214.396Z" fill="white"/>
<path d="M64.0007 164C64.0007 164 67.3916 171.015 64.6974 178.217C61.6781 186.3 58.4264 205.999 73.0123 207.207C90.8964 208.74 83.4176 211.992 75.2885 214.455C67.2058 216.963 70.5504 216.731 71.0614 225.28C71.433 231.366 55.1283 243.678 56.6148 238.939C64.6974 213.758 37.2907 182.584 64.0007 164Z" fill="#0139D9"/>
<path d="M34.4049 211L60 214.046L59.5952 217C53.7924 216.354 40.7474 215.2 34 214.508L34.4049 211Z" fill="#7DC1FF"/>
<path d="M45 246C52.1964 246 58 240.196 58 233C58 225.804 52.1964 220 45 220C37.8036 220 32 225.804 32 233C32 240.196 37.8036 246 45 246Z" fill="white"/>
<path d="M51.0466 244L124.15 210.131C124.15 210.131 128.549 194.727 123.78 197.287C118.873 199.892 41 220.689 41 220.689L51.0466 244Z" fill="white"/>
<path d="M166.173 212.504L135.028 217.94C133.035 218.312 131.691 216.918 132.062 214.827L141.609 159.863C141.98 157.773 143.88 155.821 145.873 155.496L176.972 150.06C178.965 149.688 180.309 151.082 179.938 153.173L170.391 208.183C170.066 210.181 168.166 212.132 166.173 212.504Z" fill="#1C85E8"/>
<path d="M167.127 211.508L136.028 216.94C134.035 217.311 132.691 215.919 133.062 213.829L142.609 158.857C142.98 156.767 144.88 154.817 146.873 154.492L177.972 149.06C179.965 148.689 181.309 150.081 180.938 152.171L171.391 207.143C171.02 209.186 169.12 211.136 167.127 211.508Z" fill="#B2CDFF"/>
<path d="M121 198.31L124.516 210C124.516 210 139.074 206.456 142.184 204.891C148.269 201.716 154.805 197.389 155.571 195.779C157.915 191.637 158.185 186.528 157.915 182.938C157.87 182.386 157.735 181.88 157.464 181.419C157.194 180.959 156.788 180.591 156.337 180.315C155.887 180.039 155.391 179.901 154.85 179.901C154.309 179.901 153.813 179.993 153.363 180.223L140.607 186.712C140.607 186.712 138.939 183.859 140.607 181.557C141.689 180.039 140.021 177.185 139.3 176.311C139.029 175.896 137.452 175.896 137.091 176.311C136.505 177.093 137.317 179.762 136.055 181.465C133.936 184.181 135.829 185.377 130.33 190.026C126.003 193.708 120.955 198.172 121 198.31Z" fill="white"/>
<path d="M144 189C147.934 187.902 156 184 156 184" stroke="#7DC1FF" stroke-width="1.1" stroke-linecap="round" stroke-linejoin="round"/>
<path d="M144 194C147.03 192.966 155 189 155 189" stroke="#7DC1FF" stroke-width="1.1" stroke-linecap="round" stroke-linejoin="round"/>
<path d="M146 199C148.024 198.2 154 195 154 195" stroke="#7DC1FF" stroke-width="1.1" stroke-linecap="round" stroke-linejoin="round"/>
<path d="M33.4491 209C32.8009 211.647 32.8472 214.389 33.6344 216.989C33.6344 216.989 46.3672 223.275 59.8409 220.108C60.7669 219.305 61.4152 218.265 61.7393 217.13C62.0634 215.949 62.1097 214.72 61.7393 213.538L33.4491 209Z" fill="#0158D9"/>
<path d="M411.475 163C411.475 163 407.537 184.588 409.992 205.663C411.521 218.876 419.906 232.415 419.813 238.696C419.628 248.885 408.046 253.212 408 259.12C407.954 262.61 417.358 260.423 421.527 259.074C430.885 256.003 437 260.19 437 260.19L434.498 170.723L411.475 163Z" fill="#124DE5"/>
<path d="M435.687 157.798C427.183 147.042 423.388 152.212 420.37 152.443C420.37 152.443 410.265 154.336 411.043 162.968C411.866 172.109 426.771 233 426.771 233L458 230.646L456.537 222.244L453.473 204.932L450.227 186.42L449.953 184.204L446.295 159.875C446.295 159.922 440.077 163.522 435.687 157.798Z" fill="#126DE5"/>
<path d="M438.421 177.325C446.91 172.105 449.521 161.057 444.344 152.574C439.121 144.09 428.067 141.48 419.579 146.654C411.09 151.828 408.479 162.922 413.656 171.405C418.833 179.889 429.933 182.546 438.421 177.325Z" fill="#126DE5"/>
<path d="M362.88 236L342.761 237.465L338 248.451L339.634 262C339.634 262 343.088 260.627 343.461 255.82C343.835 251.014 359.846 254.447 364 249.137" fill="white"/>
<path d="M438.387 218L361.501 232.629C361.041 232.722 360.627 233 360.35 233.418C360.074 233.79 359.936 234.3 360.028 234.765L361.869 249.533C361.961 250.229 362.329 250.88 362.881 251.344C363.433 251.808 364.123 252.041 364.814 251.994L444 248.883L438.387 218Z" fill="#126DE5"/>
<path d="M443 249C451.842 249 459 242.066 459 233.5C459 224.934 451.842 218 443 218C434.158 218 427 224.934 427 233.5C427 242.066 434.205 249 443 249Z" fill="#126DE5"/>
<path d="M363.08 161.407C365.631 148.634 359.664 148.959 357.66 146.915C357.66 146.915 350.189 140.644 344.495 146.497C338.483 152.675 304 200.749 304 200.749L325.591 221L329.646 216.076L340.168 203.303L351.419 189.647L352.831 188.115L368 170.604C367.954 170.511 361.668 168.142 363.08 161.407Z" fill="#126DE5"/>
<path d="M372.14 163.387C375.037 154.479 370.375 144.871 361.729 141.886C353.082 138.901 343.757 143.705 340.86 152.613C337.963 161.521 342.625 171.129 351.271 174.114C359.918 177.099 369.288 172.295 372.14 163.387Z" fill="#126DE5"/>
<path d="M352 189.674C351.358 182.595 349.021 172 349.021 172C349.021 172 347.004 171.815 340.817 185.788C336.233 196.29 330.917 206.932 330 216L340.587 203.277L352 189.674Z" fill="#124DE5"/>
<path d="M308.61 138.527C307.47 127.8 310.389 127.294 310.435 121.493C310.435 115.831 318.964 105.288 314.905 105.518C310.845 105.749 308.017 109.662 308.017 109.662C307.424 104.552 308.428 96.081 303.274 92.9044C298.12 89.6819 296.888 91.2471 292.692 92.5361C281.472 96.0349 287.721 111.043 287.857 115.785C287.949 118.777 293.194 129.964 293.422 132.036L295.064 140L308.61 138.527Z" fill="white" stroke="#0087FA" stroke-miterlimit="10"/>
<path d="M303 108L301 92L303 108Z" fill="#3F3F91"/>
<path d="M303 108L301 92" stroke="#3F3F91" stroke-width="1.5154" stroke-linecap="round"/>
<path d="M297 108L294 93L297 108Z" fill="#3F3F91"/>
<path d="M297 108L294 93" stroke="#3F3F91" stroke-width="1.5154" stroke-linecap="round"/>
<path d="M291 108L289 99L291 108Z" fill="#3F3F91"/>
<path d="M291 108L289 99" stroke="#3F3F91" stroke-width="1.5154" stroke-linecap="round"/>
<path d="M299 120C300.931 115.427 306 111 306 111L299 120Z" fill="#3F3F91"/>
<path d="M299 120C300.931 115.427 306 111 306 111" stroke="#3F3F91" stroke-width="1.5154" stroke-linecap="round"/>
<path d="M329 204.869L311.951 140.277C311.812 139.863 311.535 139.495 311.165 139.265C310.795 139.035 310.333 138.943 309.871 139.035L296.149 141.658C295.502 141.796 294.901 142.164 294.532 142.716C294.116 143.268 293.931 143.912 294.023 144.556L300.446 212L329 204.869Z" fill="#126DE5"/>
<path d="M294.753 144C294.753 144 293.059 137.575 294.753 136.841C296.446 136.153 306.927 134.134 308.346 135.419C309.764 136.749 311 142.21 311 142.21L294.753 144Z" fill="#126DE5"/>
<path d="M315 225C323.266 225 330 218.313 330 210C330 201.734 323.313 195 315 195C306.734 195 300 201.687 300 210C300 218.313 306.734 225 315 225Z" fill="#126DE5"/>
<path d="M72 138C72 138 82.7465 158.649 93.7217 162C93.7217 162 99.8952 158.74 98.8892 140.038" stroke="#C1D5FE" stroke-width="2" stroke-miterlimit="10" stroke-linecap="round"/>
<path d="M94 168C96.1951 168 98 166.195 98 164C98 161.805 96.1951 160 94 160C91.8049 160 90 161.805 90 164C90 166.195 91.8049 168 94 168Z" fill="#5661AE"/>
<path d="M88.5 161C89.3571 161 90 160.304 90 159.5C90 158.643 89.3036 158 88.5 158C87.6428 158 87 158.696 87 159.5C87 160.304 87.6428 161 88.5 161Z" fill="#5661AE"/>
<path d="M97.5 160C98.3572 160 99 159.304 99 158.5C99 157.696 98.3036 157 97.5 157C96.6429 157 96 157.696 96 158.5C96 159.304 96.6429 160 97.5 160Z" fill="#5661AE"/>
<path d="M202.321 225L160 225.23V266L223 262.323L202.321 225Z" fill="white"/>
<path d="M198 228L205 243" stroke="#1C85E8" stroke-width="2.82" stroke-miterlimit="10" stroke-linecap="round"/>
<path opacity="0.4" d="M192 228L194 234" stroke="#1C85E8" stroke-width="2.82" stroke-miterlimit="10" stroke-linecap="round"/>
<path opacity="0.4" d="M163 228.516L183.477 228L185 233.25L163.448 234L163 228.516Z" fill="#1C85E8"/>
<path opacity="0.4" d="M163 237.28L176.311 237L178 241.48L163.497 242L163 237.28Z" fill="#1C85E8"/>
<path opacity="0.4" d="M163 245.602L184.407 245L186 251.125L163.468 252L163 245.602Z" fill="#1C85E8"/>
<path opacity="0.4" d="M164 254.336L176.424 254L178 259.376L164.464 260L164 254.336Z" fill="#1C85E8"/>
<path d="M128 293.552L174.805 264L208 273.51L168 309L128 293.552Z" fill="#1C85E8"/>
<path d="M387 140.874C387 140.874 402.838 135.766 405.81 129C405.81 129 413.055 129.986 415.888 132.629C418.722 135.273 425.595 136.035 419.65 138.947C413.706 141.859 390.39 144.324 388.951 143.965C387.557 143.517 387 140.874 387 140.874Z" fill="#E0E1E4"/>
<path d="M380.542 132V135.3C380.542 135.3 381.94 140.075 386.902 141.031C386.902 141.031 387.669 143.679 384.917 143.983C382.166 144.287 374.182 140.423 373.009 140.032C371.837 139.641 371.295 138.078 373.596 136.819C373.641 136.819 374.453 132.478 380.542 132Z" fill="#E0E1E4"/>
<path d="M394.443 182H394.396C394.303 182 394.256 181.954 394.21 181.861C394.163 181.814 394.163 181.721 394.163 181.628C395.049 177.862 392.624 173.212 390.246 168.655C388.52 165.307 386.702 161.82 386.235 158.705C385.163 151.451 388.101 143.314 388.147 143.221C388.194 143.128 388.241 143.081 388.287 143.035C388.38 142.988 388.427 142.988 388.52 143.035C388.567 143.035 388.567 143.081 388.614 143.081C388.66 143.128 388.66 143.128 388.707 143.174C388.707 143.221 388.754 143.267 388.754 143.267C388.754 143.314 388.754 143.36 388.754 143.407C388.707 143.5 385.816 151.497 386.888 158.612C387.355 161.634 389.127 165.028 390.852 168.376C393.23 172.979 395.702 177.769 394.816 181.768C394.816 181.814 394.769 181.907 394.722 181.953C394.583 181.953 394.489 182 394.443 182Z" fill="white"/>
<path d="M384.126 178C384.029 178 383.98 178 383.931 177.954C383.882 177.908 383.833 177.862 383.833 177.771C381.83 169.881 383.98 156.349 384.664 152.404C385.25 149.422 385.445 146.349 385.299 143.321C385.299 143.229 385.299 143.183 385.396 143.092C385.445 143.046 385.543 143 385.592 143C385.69 143 385.738 143 385.836 143.046C385.885 143.092 385.934 143.183 385.934 143.229C386.129 146.303 385.885 149.422 385.299 152.45C384.615 156.394 382.465 169.789 384.419 177.587C384.419 177.633 384.419 177.679 384.419 177.725C384.419 177.771 384.371 177.817 384.371 177.862C384.322 177.908 384.322 177.908 384.273 177.954C384.224 178 384.175 178 384.126 178Z" fill="white"/>
<g opacity="0.6">
<path opacity="0.6" d="M394.56 183.56C395.621 183.56 396.452 182.73 396.452 181.669C396.452 180.608 395.621 179.777 394.56 179.777C393.499 179.777 392.669 180.608 392.669 181.669C392.623 182.684 393.499 183.56 394.56 183.56Z" fill="white"/>
</g>
<g opacity="0.6">
<path opacity="0.6" d="M384.042 179.545C385.103 179.545 385.934 178.714 385.934 177.653C385.934 176.592 385.103 175.762 384.042 175.762C382.981 175.762 382.151 176.592 382.151 177.653C382.151 178.714 382.981 179.545 384.042 179.545Z" fill="white"/>
</g>
<path d="M270 15H272" stroke="#5CA4E6" stroke-miterlimit="10"/>
<path d="M412 320H79V328H412V320Z" fill="#1C85E8"/>
<path d="M81 108C81.5523 108 82 107.328 82 106.5C82 105.672 81.5523 105 81 105C80.4477 105 80 105.672 80 106.5C80 107.328 80.4477 108 81 108Z" fill="#5661AE"/>
</g>
<defs>
<linearGradient id="paint0_linear_778_32443" x1="231.225" y1="-39.0375" x2="258.556" y2="254.673" gradientUnits="userSpaceOnUse">
<stop stop-color="white"/>
<stop offset="1" stop-color="#94B9FF"/>
</linearGradient>
<linearGradient id="paint1_linear_778_32443" x1="222.714" y1="-6.97154" x2="257.275" y2="485.118" gradientUnits="userSpaceOnUse">
<stop stop-color="white"/>
<stop offset="1" stop-color="#94B9FF"/>
</linearGradient>
<clipPath id="clip0_778_32443">
<rect width="486" height="328" fill="white"/>
</clipPath>
</defs>
</svg>
