<svg width="486" height="328" viewBox="0 0 486 328" fill="none" xmlns="http://www.w3.org/2000/svg">
<rect width="486" height="328" fill="white"/>
<path d="M248.175 292.567C325.813 292.567 388.755 229.625 388.755 151.986C388.755 74.3479 325.813 11.4062 248.175 11.4062C170.536 11.4062 107.634 74.3871 107.634 152.026C107.634 229.625 170.536 292.567 248.175 292.567Z" stroke="#D1E8F7" stroke-width="1.9165" stroke-miterlimit="10"/>
<path d="M133.814 74.4271C136.557 74.4271 138.752 72.1931 138.752 69.4889C138.752 66.7455 136.518 64.5508 133.814 64.5508C131.07 64.5508 128.875 66.7847 128.875 69.4889C128.875 72.1931 131.109 74.4271 133.814 74.4271Z" fill="#95BFFC"/>
<path d="M388.755 162.333C391.498 162.333 393.693 160.099 393.693 157.395C393.693 154.652 391.459 152.457 388.755 152.457C386.011 152.457 383.817 154.691 383.817 157.395C383.817 160.099 386.011 162.333 388.755 162.333Z" fill="#5661AE"/>
<path d="M253.936 297.544C256.679 297.544 258.874 295.31 258.874 292.606C258.874 289.863 256.64 287.668 253.936 287.668C251.192 287.668 248.998 289.902 248.998 292.606C248.998 295.31 251.231 297.544 253.936 297.544Z" fill="#1C85E8"/>
<path d="M251.427 257.804C309.353 257.804 356.265 210.852 356.265 152.966C356.265 95.0413 309.313 48.0898 251.427 48.0898C193.502 48.0898 146.551 95.0413 146.551 152.966C146.59 210.852 193.542 257.804 251.427 257.804Z" stroke="#D1E8F7" stroke-width="1.4297" stroke-miterlimit="10"/>
<path d="M354.501 177.735C356.539 177.735 358.185 176.089 358.185 174.051C358.185 172.013 356.539 170.367 354.501 170.367C352.463 170.367 350.817 172.013 350.817 174.051C350.817 176.089 352.463 177.735 354.501 177.735Z" fill="#95BFFC"/>
<path d="M154.193 196.032C156.231 196.032 157.877 194.386 157.877 192.348C157.877 190.31 156.231 188.664 154.193 188.664C152.155 188.664 150.509 190.31 150.509 192.348C150.509 194.386 152.155 196.032 154.193 196.032Z" fill="#5661AE"/>
<path d="M204.476 62.786C206.514 62.786 208.16 61.1399 208.16 59.102C208.16 57.064 206.514 55.418 204.476 55.418C202.438 55.418 200.792 57.064 200.792 59.102C200.792 61.1399 202.438 62.786 204.476 62.786Z" fill="#1C85E8"/>
<path d="M306.021 269.052H184.919C179.668 269.052 175.827 264.78 176.336 259.529L196.99 44.4845C197.5 39.2328 202.164 34.9609 207.415 34.9609H328.517C333.769 34.9609 337.61 39.2328 337.1 44.4845L316.446 259.529C315.937 264.78 311.273 269.052 306.021 269.052Z" fill="#1C85E8"/>
<path d="M297.478 269.052H176.376C171.124 269.052 167.283 264.78 167.793 259.529L188.447 44.4845C188.956 39.2328 193.62 34.9609 198.872 34.9609H319.973C325.225 34.9609 329.066 39.2328 328.556 44.4845L307.902 259.529C307.393 264.78 302.729 269.052 297.478 269.052Z" fill="url(#paint0_linear_778_32432)"/>
<path d="M292.892 261.915H182.333C177.473 261.915 173.907 257.957 174.377 253.097L193.816 50.947C194.286 46.0873 198.597 42.1289 203.496 42.1289H314.056C318.915 42.1289 322.482 46.0873 322.012 50.947L302.572 253.097C302.102 257.957 297.752 261.915 292.892 261.915Z" fill="white"/>
<path d="M301.75 134.075L183.156 133.997C182.686 133.997 182.176 133.918 181.745 133.722C181.314 133.527 180.883 133.252 180.569 132.899C180.256 132.547 179.981 132.116 179.825 131.645C179.668 131.175 179.629 130.705 179.668 130.234L186.056 59.2585C186.174 58.2395 186.644 57.2989 187.428 56.5935C188.212 55.888 189.191 55.5353 190.21 55.4961L308.804 55.6137C309.274 55.6137 309.784 55.6921 310.215 55.888C310.646 56.084 311.077 56.3583 311.391 56.711C311.704 57.0638 311.979 57.4949 312.135 57.9652C312.292 58.4355 312.331 58.9058 312.292 59.3761L305.904 130.352C305.786 131.371 305.316 132.312 304.532 133.017C303.787 133.683 302.768 134.075 301.75 134.075Z" fill="url(#paint1_linear_778_32432)"/>
<path d="M298.026 210.575H247.9C247.547 210.575 247.156 210.497 246.842 210.379C246.489 210.222 246.215 210.026 245.941 209.752C245.705 209.478 245.509 209.164 245.392 208.811C245.274 208.459 245.235 208.106 245.274 207.714L251.349 144.42C251.427 143.636 251.819 142.891 252.407 142.382C252.995 141.872 253.74 141.559 254.524 141.52H304.65C305.002 141.52 305.394 141.598 305.708 141.715C306.06 141.872 306.335 142.068 306.609 142.343C306.844 142.617 307.04 142.93 307.158 143.283C307.275 143.636 307.315 144.028 307.275 144.381L301.201 207.675C301.122 208.459 300.73 209.203 300.143 209.713C299.555 210.262 298.81 210.575 298.026 210.575Z" fill="url(#paint2_linear_778_32432)"/>
<path d="M286.073 175.656C291.716 170.287 292.343 161.743 287.444 156.609C282.546 151.475 274.002 151.671 268.358 157.079C262.715 162.449 262.088 170.992 266.986 176.126C271.885 181.26 280.429 181.025 286.073 175.656Z" stroke="#0158D9" stroke-width="11.6898" stroke-miterlimit="10"/>
<path d="M270.867 178.792C266.164 176.755 263.224 171.973 263.734 166.33C264.439 158.883 271.062 152.848 278.509 152.848" stroke="white" stroke-width="11.6898" stroke-miterlimit="10" stroke-linecap="round"/>
<path d="M269.73 190.391H280.037" stroke="white" stroke-width="5.9837" stroke-miterlimit="10" stroke-linecap="round"/>
<path d="M268.633 202.074H278.94" stroke="white" stroke-width="5.9837" stroke-miterlimit="10" stroke-linecap="round"/>
<path opacity="0.4" d="M263.694 196.156H285.015" stroke="white" stroke-width="5.9837" stroke-miterlimit="10" stroke-linecap="round"/>
<path d="M236.731 210.575H186.605C186.252 210.575 185.86 210.497 185.546 210.379C185.194 210.222 184.919 210.026 184.645 209.752C184.41 209.478 184.214 209.164 184.096 208.811C183.979 208.459 183.94 208.106 183.979 207.714L190.053 144.42C190.132 143.636 190.524 142.891 191.112 142.382C191.699 141.872 192.444 141.559 193.228 141.52H243.354C243.707 141.52 244.099 141.598 244.412 141.715C244.765 141.872 245.039 142.068 245.314 142.343C245.588 142.617 245.745 142.93 245.862 143.283C245.98 143.636 246.019 144.028 245.98 144.381L239.905 207.675C239.827 208.459 239.435 209.203 238.847 209.713C238.259 210.262 237.514 210.575 236.731 210.575Z" fill="#95BFFC"/>
<path d="M224.777 175.656C230.421 170.287 231.048 161.743 226.149 156.609C221.25 151.475 212.706 151.671 207.063 157.079C201.419 162.449 200.792 170.992 205.691 176.126C210.59 181.26 219.134 181.025 224.777 175.656Z" stroke="#0158D9" stroke-width="7.69" stroke-miterlimit="10"/>
<path d="M229.402 166.369C228.696 173.815 222.073 179.851 214.627 179.851C207.18 179.851 201.733 173.815 202.438 166.369C203.143 158.922 209.767 152.887 217.213 152.887" stroke="white" stroke-width="7.69" stroke-miterlimit="10" stroke-linecap="round"/>
<path d="M208.434 190.391H218.742" stroke="white" stroke-width="2.98" stroke-miterlimit="10" stroke-linecap="round"/>
<path d="M207.337 202.074H217.644" stroke="white" stroke-width="2.98" stroke-miterlimit="10" stroke-linecap="round"/>
<path opacity="0.4" d="M202.399 196.156H223.719" stroke="white" stroke-width="2.98" stroke-miterlimit="10" stroke-linecap="round"/>
<path d="M293.833 255.843H182.098C181.745 255.843 181.392 255.765 181.079 255.647C180.765 255.49 180.452 255.294 180.216 255.059C179.981 254.785 179.825 254.511 179.707 254.158C179.589 253.805 179.55 253.452 179.629 253.139L182.96 218.454C183.038 217.71 183.391 217.004 183.94 216.534C184.488 216.024 185.194 215.75 185.978 215.711H297.674C298.026 215.711 298.379 215.789 298.693 215.907C299.006 216.064 299.32 216.26 299.555 216.495C299.79 216.769 299.947 217.043 300.064 217.396C300.182 217.749 300.221 218.102 300.143 218.415L296.811 253.1C296.733 253.844 296.38 254.55 295.832 255.02C295.283 255.569 294.577 255.843 293.833 255.843Z" fill="url(#paint3_linear_778_32432)"/>
<path d="M189.897 247.808L191.464 231.426" stroke="white" stroke-width="11.6898" stroke-miterlimit="10" stroke-linecap="round"/>
<path d="M201.458 236.32L200.361 247.803" stroke="white" stroke-width="11.6898" stroke-miterlimit="10" stroke-linecap="round"/>
<path d="M211.53 240.242L210.786 247.806" stroke="white" stroke-width="11.6898" stroke-miterlimit="10" stroke-linecap="round"/>
<path d="M223.249 227.156L221.25 247.81" stroke="white" stroke-width="11.6898" stroke-miterlimit="10" stroke-linecap="round"/>
<path d="M232.459 240.242L231.714 247.806" stroke="white" stroke-width="11.6898" stroke-miterlimit="10" stroke-linecap="round"/>
<path d="M244.099 228.098L242.217 247.85" stroke="white" stroke-width="11.6898" stroke-miterlimit="10" stroke-linecap="round"/>
<path d="M253.426 239.613L252.642 247.804" stroke="white" stroke-width="11.6898" stroke-miterlimit="10" stroke-linecap="round"/>
<path d="M263.538 243.457L263.107 247.807" stroke="white" stroke-width="11.6898" stroke-miterlimit="10" stroke-linecap="round"/>
<path d="M275.138 231.426L273.571 247.808" stroke="white" stroke-width="11.6898" stroke-miterlimit="10" stroke-linecap="round"/>
<path d="M286.19 225.191L283.996 247.844" stroke="white" stroke-width="11.6898" stroke-miterlimit="10" stroke-linecap="round"/>
<path d="M192.797 123.219L199.068 133.056C199.342 133.487 199.459 134.036 199.342 134.545C199.224 135.055 198.911 135.525 198.48 135.799L197.461 136.465C195.775 137.563 193.738 138.033 191.7 137.72C189.701 137.445 187.859 136.426 186.526 134.898L178.178 125.178L192.797 123.219Z" fill="white"/>
<path d="M187.976 126.977C187.976 126.977 190.289 134.972 194.952 137.519C196.167 137.049 197.343 136.461 198.44 135.756L193.189 126.938" fill="#A0CDF9"/>
<path d="M200.4 123.219L206.671 133.056C206.945 133.487 207.063 134.036 206.945 134.545C206.827 135.055 206.514 135.525 206.083 135.799L205.064 136.465C203.379 137.563 201.341 138.033 199.303 137.72C197.304 137.445 195.462 136.426 194.129 134.898L185.782 125.178L200.4 123.219Z" fill="white"/>
<path d="M293.206 127.095L174.612 126.977C174.142 126.977 173.632 126.899 173.201 126.703C172.77 126.507 172.339 126.233 172.025 125.88C171.712 125.527 171.437 125.096 171.281 124.626C171.124 124.155 171.085 123.685 171.124 123.215L177.512 52.2389C177.63 51.22 178.1 50.2794 178.884 49.5739C179.668 48.8685 180.647 48.5158 181.666 48.4766L300.26 48.5941C300.73 48.5941 301.24 48.6725 301.671 48.8685C302.102 49.0644 302.533 49.3388 302.847 49.6915C303.16 50.0442 303.435 50.4753 303.591 50.9456C303.748 51.4159 303.787 51.8862 303.748 52.3565L297.36 123.332C297.242 124.351 296.772 125.292 295.988 125.997C295.244 126.664 294.225 127.056 293.206 127.095Z" fill="#1C85E8"/>
<path d="M193.777 109.228C190.72 105.348 182.176 106.602 178.061 109.385L171.908 113.618L173.711 88.5352L140.907 103.31C138.36 104.408 136.204 106.25 134.715 108.562L110.886 146.029C109.515 148.185 107.555 149.948 105.204 151.046L80.5522 162.882L100.853 199.918L136.4 178.166C158.661 169.623 167.714 146.108 167.714 146.108L175.2 136.858L189.583 124.317C193.385 120.986 196.912 113.187 193.777 109.228Z" fill="white" stroke="#7DB2FF" stroke-width="3" stroke-linecap="round"/>
<path d="M107.398 149.75C107.398 149.75 119.078 178.869 136.4 178.164L125.348 184.944C125.348 184.944 87.7635 177.968 101.833 152.65L107.398 149.75Z" fill="#A0CDF9"/>
<path d="M171.598 101C171.598 101 156.392 108.368 157.019 125.416L170.618 116.441L171.598 101Z" fill="#A0CDF9"/>
<path d="M182.49 90.6107C182.49 90.6107 193.15 88.4551 196.011 93.4716C198.872 98.449 201.341 107.855 208.983 106.64C216.547 105.386 222.387 80.8911 229.872 81.0871C237.358 81.3223 234.732 97.3908 242.884 97.5868C251.036 97.8219 249.585 88.6119 255.033 88.8862C261.617 89.1998 259.187 108.247 267.77 108.482C276.353 108.717 277.764 83.321 290.776 83.7521" stroke="white" stroke-width="4.57" stroke-miterlimit="10" stroke-linecap="round"/>
<path d="M188.525 60.3945H209.375" stroke="white" stroke-width="11.9991" stroke-miterlimit="10" stroke-linecap="round"/>
<path opacity="0.4" d="M187.663 69.957L230.774 69.9962" stroke="white" stroke-width="11.9991" stroke-miterlimit="10" stroke-linecap="round"/>
<path d="M178.218 113.456C178.218 113.456 180.256 121.373 185.586 122.744L191.229 117.963C191.817 117.532 192.287 116.983 192.64 116.395C192.993 115.768 193.228 115.102 193.306 114.397C193.385 113.691 193.346 112.986 193.11 112.28C192.914 111.614 192.562 110.948 192.131 110.399C191.347 109.459 190.21 108.792 188.995 108.596C187.78 108.4 186.487 108.596 185.429 109.223L178.218 113.456Z" stroke="#7DB2FF" stroke-width="3" stroke-linecap="round"/>
<path d="M203.379 127.882C203.379 127.882 193.385 128.078 189.897 129.92L187.388 126.98H202.791L203.379 127.882Z" fill="#A0CDF9"/>
<path d="M387.501 127.098H316.407C311.038 127.098 307.079 122.748 307.55 117.418L317.073 9.68032C317.544 4.31107 322.286 0 327.616 0H398.709C404.079 0 408.037 4.35027 407.567 9.68032L398.043 117.418C397.573 122.748 392.831 127.098 387.501 127.098Z" fill="#95BFFC"/>
<path d="M106.183 150.105C106.183 150.105 103.244 171.191 128.875 183.262C128.875 183.262 110.455 200.153 103.323 203.014C96.2288 205.875 69.5394 176.795 79.0237 160.334C81.6888 155.671 106.183 150.105 106.183 150.105Z" fill="#1C85E8"/>
<path d="M377.311 60.7843C388.559 50.0066 389.695 32.9191 379.858 22.6117C369.982 12.3043 352.894 12.6962 341.607 23.4739C330.359 34.2516 329.223 51.3391 339.06 61.6465C348.936 71.9539 366.063 71.562 377.311 60.7843Z" fill="white"/>
<path d="M360.968 42.9531L378.8 59.2176C378.8 59.2176 382.876 54.8674 384.052 51.732L360.968 42.9531Z" fill="url(#paint4_linear_778_32432)"/>
<path d="M362.144 11.7148L359.596 40.3639C359.557 40.8734 359.635 41.4221 359.871 41.8924C360.106 42.3627 360.498 42.7546 360.929 42.9897L385.149 56.4716C385.188 56.4324 399.572 16.3394 362.144 11.7148Z" fill="#1C85E8"/>
<path d="M324.245 88.9648H353.717" stroke="white" stroke-width="8" stroke-miterlimit="10" stroke-linecap="round"/>
<path d="M322.09 113.301H351.562" stroke="white" stroke-width="8" stroke-miterlimit="10" stroke-linecap="round"/>
<path opacity="0.4" d="M323.187 100.996H384.052" stroke="white" stroke-width="8" stroke-miterlimit="10" stroke-linecap="round"/>
<path d="M345.213 277.399C344.312 274.813 344.116 272.03 344.664 269.326C346.859 258.587 348.701 228.567 346.506 223.393C345.762 221.59 344.586 219.984 343.057 218.769C341.529 217.554 339.687 216.77 337.727 216.535C335.376 213.243 327.342 212.772 327.342 212.772C323.658 207.717 314.565 209.363 314.565 209.363C311.391 205.953 306.492 205.679 303.278 205.953L285.877 165.978C285.407 164.841 284.505 163.979 283.408 163.43C282.31 162.921 281.056 162.803 279.881 163.156C278.47 163.587 277.137 164.292 275.961 165.233C274.825 166.174 273.845 167.349 273.179 168.682C272.473 170.014 272.081 171.425 271.964 172.915C271.846 174.404 272.003 175.893 272.473 177.304L286.034 218.494C287.053 221.63 287.797 225.118 288.346 228.723C288.072 229.703 286.974 232.878 283.643 232.878C281.056 232.878 269.926 229.507 262.479 227.156C260.442 226.529 258.286 226.529 256.248 227.156C254.21 227.783 252.446 229.037 251.153 230.722L250.683 231.31C250.448 231.584 250.291 231.937 250.213 232.29C250.134 232.643 250.095 233.034 250.173 233.387C250.213 233.74 250.369 234.093 250.565 234.406C250.761 234.72 250.996 234.994 251.31 235.19C257.62 239.579 274.629 251.533 276.824 253.728C279.489 256.393 294.421 271.442 294.421 271.442C298.183 277.674 303.121 285.63 303.121 285.63L312.253 309.497L350.778 293.389L345.213 277.399Z" fill="white" stroke="#7DB2FF" stroke-width="3" stroke-linecap="round"/>
<path d="M308.098 298.601L307.001 295.701C307.001 295.701 326.989 294.408 345.252 277.398L347.016 282.415C347.016 282.415 344.743 292.762 334.514 297.66C324.167 302.52 308.098 298.601 308.098 298.601Z" fill="#A0CDF9"/>
<path d="M308.098 298.6C308.098 298.6 332.28 300.795 346.977 282.414C346.977 282.414 352.385 285.236 360.733 306.047C363.28 312.435 320.601 335.205 313.703 325.721C313.664 325.721 307.707 313.14 308.098 298.6Z" fill="#1C85E8"/>
<path d="M287.562 224.023C287.562 224.023 295.636 234.958 294.421 237.309C293.245 239.7 280.704 232.41 280.704 232.41C280.704 232.41 290.815 234.997 287.562 224.023Z" fill="#A0CDF9"/>
<path d="M280.194 200.617C280.586 201.244 281.095 201.793 281.683 202.224C282.271 202.655 282.977 202.929 283.682 203.086" stroke="#7DB2FF" stroke-width="3" stroke-linecap="round"/>
<path d="M285.093 179.537C286.739 178.793 288.581 177.774 289.365 176.598L284.309 164.605C284.192 164.331 284.035 164.096 283.839 163.939C283.643 163.743 283.408 163.586 283.133 163.508C282.859 163.429 282.585 163.39 282.31 163.429C282.036 163.469 281.762 163.547 281.527 163.665C279.724 164.684 277.372 166.565 277.255 169.269L280.664 177.774C280.821 178.205 281.096 178.557 281.409 178.871C281.723 179.184 282.115 179.42 282.506 179.616C282.938 179.772 283.369 179.851 283.8 179.851C284.231 179.812 284.662 179.733 285.093 179.537Z" stroke="#7DB2FF" stroke-width="3" stroke-linecap="round"/>
<path d="M303.435 206.188L308.098 216.495" stroke="#7DB2FF" stroke-width="3" stroke-linecap="round"/>
<path d="M314.8 209.559C317.191 212.968 318.445 217.005 318.445 221.159" stroke="#7DB2FF" stroke-width="3" stroke-linecap="round"/>
<path d="M327.577 212.969C327.577 212.969 329.928 218.377 330.124 222.649" stroke="#7DB2FF" stroke-width="3" stroke-linecap="round"/>
<path d="M338.08 216.809C339.021 219.082 339.373 221.551 339.138 224.02" stroke="#7DB2FF" stroke-width="3" stroke-linecap="round"/>
<path d="M261.265 240.247C261.265 240.247 264.047 236.72 263.107 234.917C262.166 233.114 257.894 230.645 255.425 230.919C254.249 231.115 253.113 231.468 252.094 232.056C251.898 232.174 251.741 232.291 251.623 232.487C251.506 232.683 251.427 232.879 251.427 233.075C251.427 233.271 251.467 233.506 251.545 233.702C251.623 233.898 251.78 234.055 251.976 234.172L261.265 240.247Z" stroke="#7DB2FF" stroke-width="3" stroke-linecap="round"/>
<path d="M213.333 283.394H128.444C128.092 283.394 127.739 283.316 127.425 283.198C127.112 283.041 126.798 282.845 126.563 282.61C126.328 282.336 126.171 282.061 126.054 281.709C125.936 281.356 125.897 281.003 125.975 280.69L129.307 246.005C129.385 245.26 129.738 244.555 130.286 244.085C130.835 243.575 131.54 243.301 132.324 243.262H217.213C217.566 243.262 217.919 243.34 218.232 243.458C218.546 243.614 218.859 243.81 219.094 244.046C219.33 244.32 219.486 244.594 219.604 244.947C219.721 245.3 219.761 245.652 219.682 245.966L216.351 280.65C216.273 281.395 215.92 282.101 215.371 282.571C214.823 283.12 214.117 283.394 213.333 283.394Z" fill="#95BFFC"/>
<path d="M136.439 252.273H188.839" stroke="#0158D9" stroke-width="6.69" stroke-miterlimit="10" stroke-linecap="round"/>
<path d="M136.439 252.273H172.848" stroke="white" stroke-width="6.69" stroke-miterlimit="10" stroke-linecap="round"/>
<path d="M135.656 263.328H188.055" stroke="#0158D9" stroke-width="6.69" stroke-miterlimit="10" stroke-linecap="round"/>
<path d="M135.656 263.328H157.407" stroke="white" stroke-width="6.69" stroke-miterlimit="10" stroke-linecap="round"/>
<path d="M133.931 274.383H186.33" stroke="#0158D9" stroke-width="6.69" stroke-miterlimit="10" stroke-linecap="round"/>
<path d="M133.931 274.383H147.256" stroke="white" stroke-width="6.69" stroke-miterlimit="10" stroke-linecap="round"/>
<path d="M207.376 255.411C209.101 255.411 210.511 254 210.511 252.276C210.511 250.552 209.101 249.141 207.376 249.141C205.652 249.141 204.241 250.552 204.241 252.276C204.241 254 205.652 255.411 207.376 255.411Z" fill="white"/>
<path d="M206.357 265.954C208.082 265.954 209.493 264.543 209.493 262.819C209.493 261.094 208.082 259.684 206.357 259.684C204.633 259.684 203.222 261.094 203.222 262.819C203.222 264.583 204.633 265.954 206.357 265.954Z" fill="white"/>
<path d="M205.221 277.474C206.945 277.474 208.356 276.063 208.356 274.338C208.356 272.614 206.945 271.203 205.221 271.203C203.496 271.203 202.085 272.614 202.085 274.338C202.085 276.102 203.496 277.474 205.221 277.474Z" fill="white"/>
<defs>
<linearGradient id="paint0_linear_778_32432" x1="210.719" y1="-35.7291" x2="321.959" y2="521.725" gradientUnits="userSpaceOnUse">
<stop stop-color="white"/>
<stop offset="1" stop-color="#94B9FF"/>
</linearGradient>
<linearGradient id="paint1_linear_778_32432" x1="243.46" y1="55.2593" x2="254.246" y2="223.162" gradientUnits="userSpaceOnUse">
<stop stop-color="white"/>
<stop offset="1" stop-color="#94B9FF"/>
</linearGradient>
<linearGradient id="paint2_linear_778_32432" x1="272.13" y1="141.633" x2="289.772" y2="287.722" gradientUnits="userSpaceOnUse">
<stop stop-color="white"/>
<stop offset="1" stop-color="#94B9FF"/>
</linearGradient>
<linearGradient id="paint3_linear_778_32432" x1="239.162" y1="215.519" x2="242.269" y2="301.565" gradientUnits="userSpaceOnUse">
<stop stop-color="white"/>
<stop offset="1" stop-color="#94B9FF"/>
</linearGradient>
<linearGradient id="paint4_linear_778_32432" x1="372.184" y1="42.9135" x2="374.835" y2="77.6279" gradientUnits="userSpaceOnUse">
<stop stop-color="white"/>
<stop offset="1" stop-color="#94B9FF"/>
</linearGradient>
</defs>
</svg>
