<svg width="486" height="328" viewBox="0 0 486 328" fill="none" xmlns="http://www.w3.org/2000/svg">
<path d="M130.145 0H358.639C362.088 0 365.423 1.36437 367.848 3.82781C370.274 6.25335 371.676 9.58847 371.676 13.0373V27.401H117.146V13.0373C117.146 9.58847 118.51 6.25335 120.974 3.82781C123.399 1.36437 126.696 0 130.145 0Z" fill="#1C85E8"/>
<path d="M117.146 27.4023H371.676V258.132C371.676 261.278 371.07 264.347 369.857 267.228C368.644 270.108 366.901 272.723 364.703 274.959C362.504 277.157 359.852 278.939 356.971 280.113C354.091 281.326 350.983 281.933 347.875 281.933H140.946C137.801 281.933 134.731 281.326 131.851 280.113C128.97 278.901 126.317 277.157 124.119 274.959C121.921 272.761 120.14 270.108 118.965 267.228C117.752 264.347 117.146 261.24 117.146 258.132V27.4023Z" fill="url(#paint0_linear_778_32421)"/>
<path d="M283.447 191.086H213.637V225.006H283.447V191.086Z" fill="white"/>
<path d="M213.22 211.972C205.034 220.045 201.812 259.687 202.229 281.934H299.706C299.706 281.934 299.516 233.461 292.126 217.089C285.342 202.081 274.048 224.252 213.22 211.972Z" fill="#1F2D49"/>
<path d="M271.698 36.761C271.698 36.761 279.771 27.5516 295.499 26.1872C311.189 24.8607 315.889 38.5802 315.206 47.0317C314.524 55.4832 302.245 72.9168 304.708 80.3071C307.172 87.6974 295.613 84.097 294.324 69.3542C293.073 54.5736 288.374 34.0323 275.602 41.3847L271.698 36.761Z" fill="#383C42"/>
<path d="M274.162 32.4413C274.162 32.4413 276.095 31.3043 277.497 33.9193C278.899 36.5344 281.514 41.8402 278.217 43.2425C274.882 44.6827 274.162 32.4413 274.162 32.4413Z" fill="#1C85E8"/>
<path d="M229.327 117.449C229.327 117.449 241.872 131.51 237.703 136.02C229.441 145.305 207.459 162.739 200.259 168.499C199.955 168.727 199.576 168.916 199.197 169.03C198.818 169.144 198.439 169.144 198.022 169.106C197.643 169.068 197.265 168.916 196.923 168.727C196.582 168.537 196.279 168.272 196.052 167.969L179.035 145.608C178.353 144.737 178.05 143.676 178.163 142.577C178.277 141.477 178.808 140.492 179.604 139.772L212.576 111.348L229.327 117.449Z" fill="#1C85E8"/>
<path d="M209.506 135.375C209.506 135.375 193.891 144.66 192.451 163.345L195.559 167.324C195.559 167.324 197.53 170.735 200.221 168.575C202.911 166.414 215.456 156.371 215.456 156.371L209.506 135.375Z" fill="#0E66AF"/>
<path d="M224.135 142.427C233.875 142.427 241.796 134.507 241.796 124.766C241.796 115.026 233.875 107.105 224.135 107.105C214.395 107.105 206.474 115.026 206.474 124.766C206.474 134.544 214.395 142.427 224.135 142.427Z" fill="#1C85E8"/>
<path d="M178.163 180.093L162.738 159.665L177.33 148.334L179.604 146.477L195.597 167.397L192.792 169.406L178.163 180.093Z" fill="white"/>
<path d="M192.868 169.448C188.737 163.915 180.968 153.114 177.367 148.377L179.641 146.52L195.597 167.326L192.868 169.448Z" fill="#0158D9"/>
<path d="M170.242 182.94C177.33 182.94 183.052 177.217 183.052 170.13C183.052 163.043 177.33 157.32 170.242 157.32C163.155 157.32 157.433 163.043 157.433 170.13C157.395 177.217 163.155 182.94 170.242 182.94Z" fill="white"/>
<path d="M181.082 163.232C181.082 163.232 139.734 102.517 137.839 97.363C135.982 92.3224 126.204 104.45 126.204 104.45L158.191 174.222L181.082 163.232Z" fill="white"/>
<path d="M237.968 78.6038L233.003 113.244C233.003 113.244 231.715 117.829 237.475 118.549C243.274 119.232 255.591 117.678 260.025 112.978C264.422 108.279 262.906 105.967 262.906 105.967L253.545 68.3711L237.968 78.6038Z" fill="white"/>
<path d="M237.286 83.0756L249.452 78.793L234.406 101.116L237.286 83.0756Z" fill="#0158D9"/>
<path d="M224.211 35.8162C224.211 35.8162 213.788 60.299 219.208 77.1262C222.771 88.079 230.464 90.0498 248.163 81.8257C264.384 74.2838 268.59 68.5989 268.59 68.5989L270.978 41.2737C270.978 41.2737 234.822 13.9863 224.211 35.8162Z" fill="white"/>
<path d="M232.928 103.275C232.928 103.275 219.587 106.989 216.858 109.149C214.13 111.309 212.159 128.932 208.179 137.649C202.229 150.535 198.401 157.395 208.369 171.569C214.395 180.096 212.348 201.85 212.348 201.85H285.531C283.333 159.138 293.111 108.808 293.111 108.808L260.063 101.152C252.635 102.441 232.928 103.275 232.928 103.275Z" fill="#1C85E8"/>
<path d="M230.578 103.957C230.578 103.957 231.563 97.2484 234.709 96.7557C237.854 96.3009 257.145 93.3827 260.139 94.6334C263.133 95.884 266.771 103.919 266.771 103.919C266.771 103.919 260.632 118.927 251.763 119.723C242.933 120.518 227.697 117.79 229.327 112.219C230.957 106.685 230.578 103.957 230.578 103.957Z" fill="#1C85E8"/>
<path d="M224.59 106.003C224.59 106.003 226.712 118.965 238.309 118.738C249.906 118.548 266.733 101.152 266.733 101.152" stroke="white" stroke-width="1.3571" stroke-miterlimit="10"/>
<path d="M277.08 124.801C277.08 124.801 265.559 132.419 268.97 140.112C272.797 148.753 272.759 171 261.807 172.402C242.289 174.903 250.778 178.314 259.798 180.475C268.818 182.673 265.142 182.673 265.142 192.034C265.142 198.704 286.062 204.465 285.531 199.083C281.855 163.041 296.977 140.226 277.08 124.801Z" fill="#0E66AF"/>
<path d="M223.301 71.8594L233.003 72.3521C232.965 72.4658 232.928 72.6174 232.852 72.8448C232.7 73.2616 232.397 73.7922 231.98 74.3607C231.108 75.4219 229.63 76.4073 227.015 76.142C225.386 75.8388 224.438 74.7397 223.908 73.6785C223.642 73.1479 223.491 72.6553 223.377 72.2763C223.339 72.0868 223.301 71.9352 223.301 71.8594Z" fill="#383C42"/>
<path d="M223.945 55.7489C224.362 54.2329 223.87 52.7928 222.846 52.5275C221.823 52.2622 220.686 53.2476 220.269 54.7635C219.852 56.2795 220.345 57.7197 221.368 57.9849C222.392 58.2502 223.529 57.227 223.945 55.7489Z" fill="#383C42"/>
<path d="M238.953 60.0302C239.37 58.5142 238.878 57.074 237.854 56.8087C236.831 56.5434 235.694 57.5288 235.277 59.0448C234.86 60.5607 235.353 62.0009 236.376 62.2662C237.4 62.5315 238.537 61.5082 238.953 60.0302Z" fill="#383C42"/>
<path d="M220.155 47.9812L227.773 50.1794C227.887 50.2173 228.038 50.1794 228.152 50.1036C228.266 50.0278 228.342 49.9141 228.417 49.8004C228.455 49.573 228.455 49.3077 228.38 49.0803C228.304 48.8529 228.19 48.6255 228.038 48.436C227.887 48.2465 227.697 48.0949 227.47 47.9812C227.243 47.8675 227.015 47.7917 226.788 47.7538L220.231 47.0717C219.739 46.9201 219.511 47.8296 220.155 47.9812Z" fill="#383C42"/>
<path d="M246.23 54.4981L235.884 52.3758C235.959 52.0726 236.149 51.7694 236.338 51.542C236.566 51.3146 236.793 51.0872 237.096 50.9735C237.4 50.8219 237.703 50.7461 238.044 50.7461C238.385 50.7461 238.688 50.784 238.991 50.9356L246.533 53.9296C246.761 53.9675 246.609 54.6118 246.23 54.4981Z" fill="#383C42"/>
<path d="M228.531 56.168L223.642 62.7624L225.499 65.3774" stroke="#383C42" stroke-width="2.2388" stroke-linecap="round"/>
<path d="M237.665 128.248C238.612 128.248 239.37 126.126 239.37 123.511C239.37 120.896 238.612 118.773 237.665 118.773C236.717 118.773 235.959 120.896 235.959 123.511C235.959 126.126 236.717 128.248 237.665 128.248Z" fill="white"/>
<path d="M316.95 193.664L291.444 195.749L287.085 177.254L281.855 163.042L308.688 159.82L312.061 175.738L316.95 193.664Z" fill="white"/>
<path d="M309.597 164.102L310.545 168.574L284.091 169.142L282.348 164.443L309.597 164.102Z" fill="#0158D9"/>
<path d="M288.715 143.525C298.455 143.525 306.376 135.604 306.376 125.864C306.376 116.124 298.455 108.203 288.715 108.203C278.975 108.203 271.054 116.124 271.054 125.864C271.054 135.604 278.937 143.525 288.715 143.525Z" fill="#1C85E8"/>
<path d="M285.304 117.561C285.304 117.561 303.913 114.491 305.466 120.442C308.877 132.38 313.084 151.557 314.107 160.728C314.145 161.107 314.107 161.524 313.994 161.865C313.88 162.244 313.691 162.585 313.425 162.889C313.16 163.192 312.857 163.419 312.516 163.609C312.175 163.798 311.796 163.912 311.379 163.912L283.371 166.299C282.272 166.413 281.211 166.072 280.339 165.428C279.468 164.746 278.899 163.798 278.748 162.699L271.168 128.362L285.304 117.561Z" fill="#1C85E8"/>
<path d="M230.729 33.463C230.729 33.463 231.374 45.3633 241.455 51.124C241.455 51.124 244.411 60.2576 255.402 62.38C255.402 62.38 254.757 54.0043 259.987 54.0801C268.894 54.2317 264.497 67.7238 258.509 69.9598C254.416 71.4758 251.953 76.8195 258.017 88.9851C271.964 84.0204 281.779 63.9338 277.914 41.6492C274.844 23.7987 252.711 17.9623 248.163 18.5687C248.163 18.5687 229.289 12.05 219.36 29.9384C210.87 45.2117 218.791 54.3454 218.791 54.3454L223.339 40.7396C223.339 40.7396 225.234 42.0661 230.729 33.463Z" fill="#383C42"/>
<path d="M317.063 237.737H249.489C248.201 237.737 246.912 237.244 245.927 236.41C244.942 235.539 244.335 234.364 244.146 233.037L237.892 183.276C237.816 182.518 237.854 181.76 238.082 181.04C238.309 180.32 238.688 179.638 239.181 179.069C239.674 178.501 240.318 178.046 241 177.743C241.682 177.439 242.44 177.25 243.198 177.25H323.241C323.999 177.25 324.757 177.402 325.439 177.743C326.121 178.046 326.766 178.501 327.258 179.069C327.751 179.638 328.13 180.32 328.357 181.04C328.585 181.76 328.661 182.518 328.547 183.276L322.294 233.037C322.142 234.326 321.498 235.539 320.512 236.41C319.641 237.282 318.352 237.737 317.063 237.737Z" fill="url(#paint1_linear_778_32421)"/>
<path d="M283.447 211.326C286.062 211.326 288.184 209.204 288.184 206.589C288.184 203.974 286.062 201.852 283.447 201.852C280.832 201.852 278.71 203.974 278.71 206.589C278.71 209.204 280.832 211.326 283.447 211.326Z" fill="white"/>
<path d="M127.985 108.467L123.93 100.659C123.93 100.659 109.528 92.4353 107.861 89.4413C106.193 86.4473 105.549 77.9579 108.505 75.7976C108.505 75.7976 97.0214 67.1566 98.9922 65.4133C100.925 63.5562 123.513 80.3076 123.513 80.3076C123.513 80.3076 120.784 67.9525 124.953 67.384C126.09 72.1593 128.023 76.7451 130.676 80.8761C135.072 87.66 135.603 93.7618 135.603 93.7618L140.795 103.691L127.985 108.467Z" fill="white"/>
<path d="M109.225 75.9883L116.198 80.3846" stroke="#0087FA" stroke-width="2.8719" stroke-linecap="round" stroke-linejoin="round"/>
<path d="M108.202 80.9883L114.114 84.6645" stroke="#0087FA" stroke-width="2.8719" stroke-linecap="round" stroke-linejoin="round"/>
<path d="M109.339 86.4453L113.28 88.9467" stroke="#0087FA" stroke-width="2.8719" stroke-linecap="round" stroke-linejoin="round"/>
<path opacity="0.7" d="M62.8365 13.3033C76.1769 24.673 111.309 50.596 155.954 51.8088C156.864 51.8467 157.736 52.2257 158.38 52.8699C159.024 53.5142 159.365 54.3859 159.365 55.3334V126.053C159.365 126.963 159.024 127.834 158.38 128.479C157.774 129.123 156.902 129.54 155.992 129.578C142.576 130.26 91.6777 130.184 57.9475 94.0663C57.3411 93.422 57 92.5503 57 91.6786V15.9941C57 15.312 57.1895 14.6677 57.5685 14.0992C57.9475 13.5307 58.4402 13.0759 59.0466 12.8106C59.6529 12.5453 60.3351 12.4316 60.9794 12.5074C61.6995 12.5832 62.3059 12.8485 62.8365 13.3033Z" fill="#C1D5FE"/>
<path d="M136.436 17.0163C138.256 17.0163 139.734 15.5382 139.734 13.7191C139.734 11.8999 138.256 10.4219 136.436 10.4219C134.617 10.4219 133.139 11.8999 133.139 13.7191C133.139 15.5382 134.617 17.0163 136.436 17.0163Z" fill="white"/>
<path d="M149.853 17.0163C151.672 17.0163 153.15 15.5382 153.15 13.7191C153.15 11.8999 151.672 10.4219 149.853 10.4219C148.034 10.4219 146.556 11.8999 146.556 13.7191C146.518 15.5382 147.996 17.0163 149.853 17.0163Z" fill="white"/>
<path d="M162.397 17.0163C164.217 17.0163 165.695 15.5382 165.695 13.7191C165.695 11.8999 164.217 10.4219 162.397 10.4219C160.578 10.4219 159.1 11.8999 159.1 13.7191C159.1 15.5382 160.578 17.0163 162.397 17.0163Z" fill="white"/>
<path d="M67.877 34.1484C67.877 34.1484 78.413 44.3812 92.7767 50.7103" stroke="white" stroke-width="5.43" stroke-miterlimit="10" stroke-linecap="round"/>
<path opacity="0.4" d="M67.877 46.543C67.877 46.543 82.5061 60.1866 101.569 65.2651" stroke="white" stroke-width="5.43" stroke-miterlimit="10" stroke-linecap="round"/>
<path d="M65.7168 91.8308V62.2695L76.0632 69.6977V99.9412L65.7168 91.8308Z" fill="white"/>
<path d="M83.1883 103.768V82.7344L93.5347 88.9119V109.719L83.1883 103.768Z" fill="white"/>
<path d="M127.492 120.253V99.2187L117.146 97.8164V118.623L127.492 120.253Z" fill="white"/>
<path d="M144.509 121.166V84.3281H134.163V120.901L144.509 121.166Z" fill="white"/>
<path d="M100.167 113.013V103.387L110.514 106.305V116.727L100.167 113.013Z" fill="white"/>
<g opacity="0.7">
<path d="M88.7594 159.859C102.1 169.637 137.232 195.181 181.877 191.126C182.294 191.088 182.749 191.126 183.166 191.24C183.583 191.353 183.962 191.581 184.303 191.884C184.644 192.187 184.871 192.528 185.061 192.945C185.25 193.362 185.326 193.779 185.288 194.234V264.953C185.251 265.901 184.909 266.773 184.303 267.493C183.697 268.213 182.863 268.668 181.953 268.857C168.537 271.131 112.712 269.994 83.9084 241.191C83.6052 240.888 83.3778 240.546 83.2262 240.13C83.0746 239.751 82.9988 239.334 82.9988 238.917V163.232C82.9988 160.238 86.4855 158.192 88.7594 159.859Z" fill="#96BAFD"/>
</g>
<path d="M303.306 235.73C303.306 235.73 306.869 236.034 306.338 237.815C305.807 239.634 302.624 238.8 299.706 240.582C296.787 242.401 285.304 243.651 279.543 242.704C273.783 241.756 272.191 235.73 272.191 235.73C272.191 235.73 271.243 230.008 281.4 229.401C291.557 228.795 296.295 232.054 298.038 235.617L303.306 235.73Z" fill="white"/>
<path d="M276.511 230.273L278.71 236.186" stroke="#0158D9" stroke-width="2.2388" stroke-linecap="round"/>
<path d="M282.196 229.324L284.394 235.236" stroke="#0158D9" stroke-width="2.2388" stroke-linecap="round"/>
<path d="M288.184 229.82L290.383 235.733" stroke="#0158D9" stroke-width="2.2388" stroke-linecap="round"/>
<path opacity="0.7" d="M411.356 165.62C392.786 181.462 343.744 217.617 281.476 219.361C280.188 219.399 279.013 219.929 278.103 220.839C277.232 221.748 276.739 222.961 276.739 224.25V322.901C276.739 324.152 277.232 325.365 278.103 326.274C278.975 327.184 280.15 327.714 281.4 327.79C300.123 328.738 371.108 328.624 418.178 278.256C419.012 277.346 419.467 276.172 419.467 274.921V169.372C419.467 168.424 419.201 167.515 418.709 166.719C418.216 165.923 417.496 165.317 416.624 164.9C415.753 164.483 414.843 164.369 413.896 164.483C412.948 164.635 412.076 165.014 411.356 165.62Z" fill="#1C85E8"/>
<path d="M404.307 194.688C404.307 194.688 389.64 208.938 369.592 217.806" stroke="white" stroke-width="7.37" stroke-miterlimit="10" stroke-linecap="round"/>
<path opacity="0.4" d="M404.307 211.969C404.307 211.969 383.88 230.994 357.312 238.081" stroke="white" stroke-width="7.37" stroke-miterlimit="10" stroke-linecap="round"/>
<path d="M289.549 285C289.549 285 303.192 282.158 309.446 275.525C317.708 266.771 319.603 256.235 328.661 255.174C342.873 253.468 351.097 303.647 368.379 296.863C385.661 290.079 381.568 252.597 391.838 246.267C398.925 241.909 402.602 254.908 412.493 251.497" stroke="white" stroke-width="6.37" stroke-miterlimit="10" stroke-linecap="round"/>
<path opacity="0.7" d="M155.272 243.806C165.467 246.724 189.344 251.916 220.61 248.316C221.103 248.24 221.634 248.278 222.126 248.43C222.619 248.581 223.074 248.809 223.453 249.15C223.832 249.491 224.135 249.908 224.324 250.362C224.514 250.817 224.628 251.348 224.628 251.841V300.086C224.59 301.147 224.211 302.171 223.491 302.966C222.771 303.762 221.823 304.293 220.762 304.444C209.62 305.96 176.572 309.22 151.937 298.57C151.293 298.305 150.762 297.85 150.421 297.244C150.042 296.675 149.853 295.993 149.891 295.311V248.089C149.853 245.284 152.657 243.086 155.272 243.806Z" fill="url(#paint2_linear_778_32421)"/>
<path d="M110.476 231.412C103.047 228.797 97.0214 220.648 97.0214 213.182C97.0214 205.754 103.047 201.85 110.476 204.465V195.824C98.4616 191.58 88.7215 197.909 88.7215 209.923C88.7215 221.937 98.4616 235.126 110.476 239.333C121.997 243.388 131.396 237.779 132.192 226.75L123.892 223.832C123.286 230.54 117.525 233.913 110.476 231.412Z" fill="white"/>
<path d="M113.242 194.078V202.719C120.67 205.334 126.696 213.482 126.696 220.949C126.696 221.328 126.659 221.707 126.659 222.086L134.958 225.004C134.996 224.511 135.034 224.018 135.034 223.526C134.996 211.474 125.256 198.285 113.242 194.078Z" fill="#1C85E8"/>
<path d="M110.476 231.41V239.331" stroke="white" stroke-width="2.4282" stroke-miterlimit="10"/>
<path d="M96.9835 213.219L88.6836 210.301" stroke="white" stroke-width="2.4282" stroke-miterlimit="10"/>
<path d="M145.343 214.434L160.73 217.352" stroke="white" stroke-width="10.368" stroke-miterlimit="10" stroke-linecap="round"/>
<path opacity="0.4" d="M145.343 238.535L160.73 241.453" stroke="white" stroke-width="10.368" stroke-miterlimit="10" stroke-linecap="round"/>
<path d="M145.343 226.75L167.438 230.957" stroke="white" stroke-width="10.368" stroke-miterlimit="10" stroke-linecap="round"/>
<g opacity="0.7">
<path d="M422.764 7.69523C409.424 17.4732 385.054 42.1455 331.844 50.3696C327.789 51.0139 326.235 53.8942 326.235 57.1156V124.576C326.273 125.523 326.614 126.395 327.22 127.115C327.827 127.835 328.661 128.29 329.57 128.48C342.986 130.754 394.681 117.565 425.606 90.9974C428.563 88.4582 428.563 84.2135 428.563 83.3418V11.0682C428.563 8.07422 425.038 6.02767 422.764 7.69523Z" fill="url(#paint3_linear_778_32421)"/>
</g>
<path d="M333.284 62.3833V104.11C333.284 104.489 333.36 104.83 333.512 105.171C333.663 105.512 333.891 105.778 334.194 106.005C334.459 106.233 334.8 106.384 335.179 106.46C335.52 106.536 335.899 106.536 336.24 106.46C343.858 104.754 364.399 99.8276 377.399 93.7258C377.816 93.5363 378.157 93.2331 378.422 92.8162C378.65 92.4372 378.801 91.9825 378.801 91.5277V50.8999C378.801 50.483 378.687 50.104 378.498 49.725C378.308 49.3839 378.043 49.0807 377.664 48.8533C377.323 48.6259 376.944 48.5122 376.527 48.4743C376.11 48.4364 375.731 48.5122 375.352 48.7017C368.114 52.0368 350.718 59.3135 335.596 59.9577C334.99 59.9956 334.383 60.2609 333.966 60.7157C333.512 61.1705 333.284 61.7769 333.284 62.3833Z" fill="white"/>
<path d="M335.141 97.3972V101.793C335.141 102.135 335.217 102.438 335.369 102.741C335.52 103.044 335.748 103.309 336.013 103.499C336.278 103.688 336.581 103.84 336.923 103.916C337.264 103.992 337.567 103.954 337.908 103.878L360.647 97.6625C361.026 97.5488 361.33 97.3593 361.595 97.1319C361.86 96.8666 362.05 96.5634 362.163 96.1844C362.277 95.8433 362.277 95.4643 362.201 95.0853C362.125 94.7063 361.936 94.4031 361.671 94.0999L349.467 80.9869C349.24 80.7595 348.974 80.57 348.671 80.4563C348.368 80.3426 348.065 80.3047 347.724 80.3047C347.383 80.3047 347.08 80.4184 346.814 80.57C346.549 80.7216 346.284 80.949 346.094 81.2143L335.558 96.1465C335.293 96.5255 335.141 96.9424 335.141 97.3972Z" fill="#1C85E8"/>
<path opacity="0.6" d="M358.336 87.0902L365.157 94.329C365.385 94.5564 365.65 94.708 365.953 94.7838C366.256 94.8596 366.598 94.8217 366.901 94.708C368.909 93.9121 373.457 92.1308 375.731 91.1454C376.034 91.0317 376.262 90.8044 376.451 90.5391C376.641 90.2738 376.717 89.9706 376.717 89.6674V82.8835C376.717 82.5424 376.603 82.2013 376.413 81.936L366.825 69.0882C366.635 68.8608 366.408 68.6713 366.143 68.5576C365.878 68.4439 365.574 68.406 365.309 68.4439C365.006 68.4818 364.741 68.5955 364.513 68.785C364.286 68.9745 364.134 69.2019 364.02 69.4672L357.994 85.3848C357.881 85.6501 357.843 85.9533 357.919 86.2565C357.994 86.5976 358.146 86.9007 358.336 87.0902Z" fill="#1C85E8"/>
<path d="M352.348 75.8016C354.356 75.8016 356.024 74.172 356.024 72.1254C356.024 70.0789 354.394 68.4492 352.348 68.4492C350.339 68.4492 348.671 70.0789 348.671 72.1254C348.671 74.172 350.339 75.8016 352.348 75.8016Z" fill="#C0E5FF"/>
<path d="M389.299 47.3329C398.698 42.5576 407.756 37.1381 416.359 31.0742" stroke="white" stroke-width="7.37" stroke-miterlimit="10" stroke-linecap="round"/>
<path d="M389.299 63.1796C389.299 63.1796 395.477 60.1855 403.928 55.0312" stroke="white" stroke-width="7.37" stroke-miterlimit="10" stroke-linecap="round"/>
<path d="M389.299 78.6415C398.698 73.8662 407.756 68.4467 416.359 62.3828" stroke="white" stroke-width="7.37" stroke-miterlimit="10" stroke-linecap="round"/>
<path d="M389.299 96.036C398.698 91.2608 407.756 85.8412 416.359 79.7773" stroke="white" stroke-width="7.37" stroke-miterlimit="10" stroke-linecap="round"/>
<path d="M338.476 118.51C340.334 118.51 341.812 116.994 341.812 115.175C341.812 113.318 340.296 111.84 338.476 111.84C336.657 111.84 335.141 113.356 335.141 115.175C335.141 117.032 336.657 118.51 338.476 118.51Z" fill="white"/>
<path d="M357.919 113.092C359.776 113.092 361.254 111.576 361.254 109.757C361.254 107.938 359.738 106.422 357.919 106.422C356.062 106.422 354.584 107.938 354.584 109.757C354.584 111.576 356.062 113.092 357.919 113.092Z" fill="white"/>
<path d="M375.39 107.143C377.247 107.143 378.725 105.627 378.725 103.808C378.725 101.951 377.209 100.473 375.39 100.473C373.533 100.473 372.055 101.989 372.055 103.808C372.055 105.627 373.571 107.143 375.39 107.143Z" fill="white"/>
<defs>
<linearGradient id="paint0_linear_778_32421" x1="175.46" y1="-283.708" x2="311.905" y2="562.33" gradientUnits="userSpaceOnUse">
<stop stop-color="white"/>
<stop offset="1" stop-color="#94B9FF"/>
</linearGradient>
<linearGradient id="paint1_linear_778_32421" x1="282.868" y1="176.971" x2="292.197" y2="306.065" gradientUnits="userSpaceOnUse">
<stop stop-color="white"/>
<stop offset="1" stop-color="#94B9FF"/>
</linearGradient>
<linearGradient id="paint2_linear_778_32421" x1="184.481" y1="243.602" x2="196.548" y2="376.65" gradientUnits="userSpaceOnUse">
<stop stop-color="white"/>
<stop offset="1" stop-color="#94B9FF"/>
</linearGradient>
<linearGradient id="paint3_linear_778_32421" x1="337.697" y1="-139.253" x2="414.394" y2="260.801" gradientUnits="userSpaceOnUse">
<stop stop-color="white"/>
<stop offset="1" stop-color="#94B9FF"/>
</linearGradient>
</defs>
</svg>
