<svg width="486" height="328" viewBox="0 0 486 328" fill="none" xmlns="http://www.w3.org/2000/svg">
<g clip-path="url(#clip0_778_32410)">
<path d="M379.649 36.7539H105.919C95.9032 36.7539 87.7734 44.8837 87.7734 54.8992V228.18C87.7734 238.196 95.9032 246.326 105.919 246.326H379.649C389.664 246.326 397.794 238.196 397.794 228.18V54.8573C397.794 44.8418 389.664 36.7539 379.649 36.7539Z" fill="url(#paint0_linear_778_32410)"/>
<path d="M108.559 36.7539H377.511C382.959 36.7539 388.197 38.933 392.011 42.7465C395.866 46.6018 398.045 51.7982 398.045 57.2459H88.0249C88.0249 51.7982 90.204 46.6018 94.0174 42.7465C97.8728 38.8911 103.111 36.7539 108.559 36.7539Z" fill="#0158D9"/>
<path d="M343.819 147.637H217.221C212.695 147.637 209.049 151.911 209.049 157.191V230.233C209.049 235.514 212.737 239.788 217.221 239.788H343.819C348.345 239.788 351.991 235.514 351.991 230.233V157.191C352.033 151.911 348.345 147.637 343.819 147.637Z" fill="white"/>
<path d="M193.67 147.637H105.206C101.393 147.637 98.2918 151.241 98.2918 155.725V231.7C98.2918 236.184 101.393 239.788 105.206 239.788H193.67C197.483 239.788 200.584 236.184 200.584 231.7V155.725C200.626 151.283 197.525 147.637 193.67 147.637Z" fill="white"/>
<path d="M220.699 218.247C220.699 218.247 230.17 217.241 235.911 221.516C243.58 227.257 249.74 231.657 257.87 217.576C266.796 202.155 268.179 196.749 274.674 196.707C283.013 196.623 286.282 218.876 301.662 220.426C317.041 222.018 327.517 219.462 327.517 219.462" stroke="#5661AE" stroke-width="6" stroke-miterlimit="10" stroke-linecap="round"/>
<path d="M220.699 173.867H242.826" stroke="#5661AE" stroke-width="7" stroke-miterlimit="10" stroke-linecap="round"/>
<path d="M220.699 184.18H266.377" stroke="#D4DCF4" stroke-width="7" stroke-miterlimit="10" stroke-linecap="round"/>
<path d="M220.699 162.387H253.512" stroke="#D4DCF4" stroke-width="7" stroke-miterlimit="10" stroke-linecap="round"/>
<path d="M106.757 51.6261C108.684 51.6261 110.277 50.0756 110.277 48.106C110.277 46.1784 108.726 44.5859 106.757 44.5859C104.829 44.5859 103.237 46.1365 103.237 48.106C103.279 50.0756 104.829 51.6261 106.757 51.6261Z" fill="white"/>
<path d="M118.658 51.6261C120.586 51.6261 122.178 50.0756 122.178 48.106C122.178 46.1784 120.628 44.5859 118.658 44.5859C116.73 44.5859 115.138 46.1365 115.138 48.106C115.138 50.0756 116.73 51.6261 118.658 51.6261Z" fill="white"/>
<path d="M130.182 51.6261C132.11 51.6261 133.702 50.0756 133.702 48.106C133.702 46.1784 132.152 44.5859 130.182 44.5859C128.213 44.5859 126.662 46.1365 126.662 48.106C126.704 50.0756 128.255 51.6261 130.182 51.6261Z" fill="white"/>
<path d="M240.982 328C364.143 328 463.963 325.444 463.963 322.301C463.963 319.158 364.143 316.602 240.982 316.602C117.82 316.602 18 319.158 18 322.301C18 325.444 117.82 328 240.982 328Z" fill="#F5F8FF"/>
<path d="M436.557 210.41H280.541V320.623H436.557V210.41Z" fill="#5CA4E6"/>
<path d="M342.855 210.41H280.541V320.623H342.855V210.41Z" fill="url(#paint1_linear_778_32410)"/>
<path d="M436.557 57.2461L403.828 82.683H467.148L436.557 57.2461Z" fill="#95B5FC"/>
<path d="M332.923 187.987C332.923 187.987 320.938 177.51 311.174 186.394C301.41 195.278 261.097 256.419 261.097 256.419L273.291 264.842L319.011 213.424L326.973 226.247L332.923 187.987Z" fill="#E0E1E4"/>
<path fill-rule="evenodd" clip-rule="evenodd" d="M324.752 304.948C329.78 301.26 334.977 297.489 340.425 296.274C340.55 296.232 340.676 296.232 340.802 296.274C340.927 296.316 341.053 296.357 341.137 296.441C341.221 296.525 341.305 296.609 341.388 296.735C341.472 296.86 341.472 296.986 341.472 297.112L342.059 307.253C342.059 307.463 342.017 307.672 341.891 307.84C341.766 308.007 341.598 308.133 341.388 308.175L304.008 315.55C301.242 316.095 299.482 314.88 298.644 312.785C298.602 312.701 298.602 312.617 298.644 312.575C298.644 312.491 298.686 312.407 298.77 312.366C298.812 312.324 298.896 312.282 298.98 312.24C299.063 312.24 299.147 312.24 299.189 312.24C304.092 314.042 309.54 313.874 314.275 311.695C317.711 310.103 321.19 307.546 324.752 304.948Z" fill="#5661AE"/>
<path fill-rule="evenodd" clip-rule="evenodd" d="M336.234 271.804C336.234 271.804 336.946 287.77 337.323 289.404C337.575 290.284 337.91 291.164 338.287 292.002C338.916 293.511 339.628 295.229 339.712 296.486C334.516 297.869 329.571 301.473 324.794 304.993C321.232 307.591 317.753 310.148 314.317 311.656C309.791 313.71 304.637 313.961 299.901 312.411C299.231 309.645 301.159 306.586 305.894 305.203C314.443 302.73 319.094 301.18 322.07 294.014C324.165 288.943 320.645 271.301 320.645 271.301L336.234 271.804Z" fill="#B0B6BF"/>
<path fill-rule="evenodd" clip-rule="evenodd" d="M322.405 291.329C324.081 291.245 330.744 290.784 337.114 289.946C338.371 289.778 339.461 292.125 338.916 293.592C338.581 294.681 338.329 295.771 338.162 296.902C336.066 297.657 334.097 298.621 332.211 299.794C332.588 297.154 330.996 295.98 328.607 296.106C326.721 296.19 322.447 297.405 320.268 298.034C320.142 298.076 320.016 298.076 319.891 298.034C319.765 297.992 319.681 297.95 319.597 297.824C319.513 297.741 319.472 297.615 319.43 297.489C319.43 297.363 319.43 297.238 319.472 297.112L321.86 291.664C321.902 291.538 321.986 291.455 322.07 291.371C322.154 291.413 322.279 291.371 322.405 291.329Z" fill="#383C42"/>
<path fill-rule="evenodd" clip-rule="evenodd" d="M304.721 313.373C309.079 313.708 311.677 312.577 311.677 312.577L309.917 303.734L303.128 305.411L304.721 313.373Z" fill="#383C42"/>
<path fill-rule="evenodd" clip-rule="evenodd" d="M250.285 273.058C256.487 273.519 262.899 273.98 267.843 276.62C267.969 276.662 268.053 276.746 268.137 276.871C268.221 276.955 268.262 277.081 268.304 277.207C268.346 277.332 268.346 277.458 268.304 277.584C268.262 277.709 268.221 277.835 268.137 277.919L262.018 286.007C261.893 286.174 261.725 286.3 261.516 286.342C261.306 286.384 261.097 286.342 260.929 286.258L227.697 267.652C225.225 266.269 224.68 264.216 225.393 262.037C225.435 261.953 225.476 261.911 225.518 261.869C225.56 261.827 225.644 261.785 225.728 261.785C225.812 261.785 225.896 261.785 225.937 261.827C226.021 261.869 226.063 261.911 226.105 261.995C228.661 266.562 232.936 269.915 237.964 271.382C241.568 272.387 245.885 272.723 250.285 273.058Z" fill="#5661AE"/>
<path fill-rule="evenodd" clip-rule="evenodd" d="M280.541 255.253L269.939 269.375C269.562 270.213 269.226 271.093 268.975 271.973C268.472 273.566 267.927 275.326 267.173 276.29C262.312 273.985 256.235 273.524 250.285 273.063C245.885 272.728 241.568 272.434 237.964 271.345C233.187 269.962 229.08 266.819 226.482 262.586C227.781 260.072 231.218 258.94 235.702 260.994C243.789 264.64 248.357 266.484 255.23 262.963C256.319 262.293 257.325 261.497 258.163 260.491L268.849 244.734L280.541 255.253Z" fill="#B0B6BF"/>
<path fill-rule="evenodd" clip-rule="evenodd" d="M257.325 261.156C258.666 262.162 264.03 266.143 269.436 269.663C270.483 270.333 269.813 272.848 268.472 273.602C267.508 274.189 266.586 274.859 265.748 275.613C263.653 274.859 261.516 274.272 259.336 273.979C261.348 272.219 260.887 270.291 258.959 268.825C257.451 267.651 253.428 265.807 251.332 264.886C251.207 264.844 251.123 264.76 251.039 264.634C250.955 264.508 250.913 264.425 250.913 264.299C250.913 264.173 250.955 264.047 250.997 263.922C251.081 263.796 251.165 263.712 251.29 263.67L256.654 261.072C256.78 261.03 256.906 260.988 256.99 260.988C257.074 261.03 257.199 261.072 257.325 261.156Z" fill="#383C42"/>
<path fill-rule="evenodd" clip-rule="evenodd" d="M229.583 266.437C232.684 269.496 235.408 270.334 235.408 270.334L239.808 262.455L233.564 259.312L229.583 266.437Z" fill="#383C42"/>
<path d="M349.392 180.359L317.753 185.975L323.997 211.035H344.28C344.238 211.035 353.876 190.333 349.392 180.359Z" fill="white"/>
<path d="M321.776 210.787C328.817 210.787 334.516 205.088 334.516 198.048C334.516 191.008 328.817 185.309 321.776 185.309C314.736 185.309 309.037 191.008 309.037 198.048C309.037 205.088 314.736 210.787 321.776 210.787Z" fill="white"/>
<path d="M309.205 200.059L321.944 279.848L336.653 280.476L334.935 201.609L309.205 200.059Z" fill="white"/>
<path d="M376.673 125.175H107.637C102.482 125.175 98.2918 120.984 98.2918 115.83V83.3528C98.2918 78.1984 102.482 74.0078 107.637 74.0078H376.673C381.828 74.0078 386.018 78.1984 386.018 83.3528V115.83C386.018 120.984 381.828 125.175 376.673 125.175Z" fill="white"/>
<path d="M378.391 127.269H109.355C104.201 127.269 100.01 123.078 100.01 117.924V85.4466C100.01 80.2922 104.201 76.1016 109.355 76.1016H378.391C383.546 76.1016 387.736 80.2922 387.736 85.4466V117.924C387.736 123.078 383.546 127.269 378.391 127.269Z" stroke="#E0E1E4" stroke-width="10" stroke-miterlimit="10"/>
<path d="M376.045 125.175H335.815V74.0078H376.967C382.498 74.0078 386.982 78.4917 386.982 84.0233V114.238C386.982 120.272 382.079 125.175 376.045 125.175Z" fill="#0087FA"/>
<path d="M356.894 105.9C362.194 105.9 366.49 101.603 366.49 96.3035C366.49 91.0035 362.194 86.707 356.894 86.707C351.594 86.707 347.297 91.0035 347.297 96.3035C347.297 101.603 351.594 105.9 356.894 105.9Z" fill="#0087FA" stroke="white" stroke-width="8" stroke-miterlimit="10"/>
<path d="M369.842 108.243L364.185 102.586" stroke="white" stroke-width="8" stroke-miterlimit="10" stroke-linecap="round"/>
<path d="M376.673 125.171H107.637C102.482 125.171 98.2918 120.98 98.2918 115.826V83.3489C98.2918 78.1945 102.482 74.0039 107.637 74.0039H376.673C381.828 74.0039 386.018 78.1945 386.018 83.3489V115.826C386.018 120.98 381.828 125.171 376.673 125.171Z" stroke="#0087FA" stroke-width="10" stroke-miterlimit="10"/>
<path d="M329.194 182.582C329.194 182.582 334.055 184.091 336.066 192.053C338.078 200.015 335.899 211.078 335.899 211.078H339.042C339.042 211.078 350.231 197.962 342.017 181.199L329.194 182.582Z" fill="#7DA8FF"/>
<path d="M359.953 114.32L355.972 116.248C354.463 116.96 353.08 118.05 352.032 119.349C350.943 120.648 350.189 122.199 349.77 123.833L340.76 160.082L320.477 169.804L325.087 177.137L363.473 175.796L359.953 114.32Z" fill="#0158D9"/>
<path d="M354.212 127.395C354.212 127.395 347.213 137.201 350.608 146.587C354.002 155.932 352.619 157.693 351.781 165.948C350.943 174.245 353.709 172.318 353.709 172.318L363.515 167.708C363.473 167.666 367.58 128.484 354.212 127.395Z" fill="#012AD9"/>
<path d="M395.321 172.485C395.321 172.485 399.177 191.468 394.106 199.388C387.695 209.404 379.816 210.954 373.991 211.08H335.857C335.857 211.08 335.773 187.278 316.999 183.213C316.999 183.171 378.852 165.947 395.321 172.485Z" fill="#1F2D49"/>
<path d="M396.201 178.018L355.762 179.359L356.181 176.551L364.059 175.629H396.118L396.201 178.018Z" fill="#0D1B33"/>
<path d="M343.903 169.137C343.903 169.137 338.958 170.562 336.737 171.232C334.516 171.903 330.116 173.453 330.116 173.453L333.342 178.021L347.926 177.141L343.903 169.137Z" fill="white"/>
<path d="M367.873 110.968C367.873 110.968 359.576 114.237 358.318 115.285C357.061 116.29 355.846 124.588 353.709 128.485C351.571 132.424 348.387 139.674 352.996 146.337C357.606 153 357.103 158.28 357.103 158.28L356.139 175.001L394.525 176.174C394.86 176.174 395.238 176.132 395.531 176.006C395.866 175.881 396.159 175.671 396.369 175.42C396.62 175.168 396.788 174.875 396.914 174.54C397.039 174.204 397.081 173.869 397.039 173.492C396.578 168.631 395.866 161.339 395.698 153.587C395.489 143.068 395.321 107.951 395.321 107.951L378.056 107.406C374.578 107.951 367.873 110.968 367.873 110.968Z" fill="#0158D9"/>
<path d="M395.321 126.553C400.476 126.553 404.624 122.363 404.624 117.208C404.624 112.054 400.434 107.863 395.321 107.863C390.167 107.863 386.018 112.054 386.018 117.208C386.018 122.363 390.167 126.553 395.321 126.553Z" fill="#0158D9"/>
<path d="M396.579 169.595C396.579 169.595 395.782 172.528 387.275 175.922C387.275 175.922 367.286 175.503 357.355 175.713C347.423 175.922 358.402 173.282 363.976 170.517C369.507 167.751 395.992 160.082 395.992 160.082L396.579 169.595Z" fill="#012AD9"/>
<path d="M388.533 122.281C388.533 122.281 382.75 127.561 382.414 131.459C382.079 135.356 381.283 146.293 373.866 147.383C364.772 148.724 362.383 150.023 366.574 151.029C370.806 152.034 380.361 150.4 380.361 154.758C380.361 157.859 384.091 160.206 385.934 158.488C387.862 156.77 402.739 130.956 388.533 122.281Z" fill="#012AD9"/>
<path d="M404.541 118.593C403.744 122.323 396.285 161.756 396.285 161.756C396.285 161.756 395.321 167.665 389.538 169.132L349.351 179.357L342.268 168.755L378.727 156.309L385.976 117.294C386.018 117.21 405.588 113.606 404.541 118.593Z" fill="#0158D9"/>
<path d="M366.951 103.714L367.328 116.663C367.328 116.663 367.244 118.884 369.926 118.591C372.65 118.298 378.098 116.244 379.607 113.646C381.115 111.048 380.151 110.126 380.151 110.126L371.896 93.9922L366.951 103.714Z" fill="white"/>
<path d="M366.951 105.183L370.345 101.16L367.244 113.522L366.951 105.183Z" fill="#7DA8FF"/>
<path d="M369.926 71.828C369.801 69.3555 370.304 66.8831 371.477 64.704C373.405 61.2258 377.386 56.4066 383.462 58.5019C389.538 60.5553 393.98 65.2488 391.676 71.828C389.371 78.4072 383.001 80.5444 379.732 79.832C376.464 79.1196 369.926 71.828 369.926 71.828Z" fill="#080B09"/>
<path d="M367.999 72.7063C368.334 72.1196 368.879 71.6586 369.507 71.3653C370.136 71.0719 370.848 70.9881 371.519 71.1557C373.907 71.6167 376.464 73.5025 378.601 75.7654C380.738 78.0283 380.696 79.7046 379.69 80.7103C378.685 81.7161 367.999 72.7063 367.999 72.7063Z" fill="#95B5FC"/>
<path d="M314.694 138.75L330.116 181.452H361.084C361.084 180.153 360.581 178.896 359.659 177.974C358.737 177.052 357.48 176.549 356.181 176.549H333.761L320.435 138.75H314.694Z" fill="white"/>
<path d="M314.694 138.75H273.124L289.215 181.452H330.116L314.694 138.75Z" fill="#D4DCF4"/>
<path d="M301.62 165.108C303.673 165.108 305.349 163.431 305.349 161.378C305.349 159.325 303.673 157.648 301.62 157.648C299.566 157.648 297.89 159.325 297.89 161.378C297.89 163.431 299.566 165.108 301.62 165.108Z" fill="white"/>
<path d="M350.105 87.7904C350.105 87.7904 351.404 100.153 357.396 105.81C361.336 109.498 364.939 108.534 370.303 101.2C375.248 94.4534 375.667 91.1848 375.667 91.1848L370.471 79.4511C370.471 79.4511 349.476 76.4758 350.105 87.7904Z" fill="white"/>
<path d="M352.242 85.362C352.242 85.362 355.217 90.0973 360.623 90.1392C361.755 91.0612 363.138 91.6898 364.562 91.9412C366.029 92.1926 367.496 92.0669 368.879 91.606C368.879 91.606 366.7 88.3373 368.879 87.1639C372.566 85.1943 373.824 91.7317 371.854 93.9946C370.513 95.5451 371.938 97.3471 372.944 98.9395C373.949 100.532 377.134 104.513 377.134 104.513C377.134 104.513 376.841 102.208 378.266 100.532C379.732 98.8557 384.426 81.6323 375.667 75.3045C366.909 68.9767 357.69 74.0474 355.972 75.3045C355.972 75.3045 346.752 76.897 346.752 86.4934C346.752 94.6651 352.577 96.6347 352.577 96.6347L350.859 90.0135C350.859 90.0135 351.949 90.1393 352.242 85.362Z" fill="#080B09"/>
<path d="M362.006 100.617C362.006 100.617 362.677 102.754 360.372 103.718C358.821 104.221 357.732 102.712 357.732 102.712L362.006 100.617Z" fill="#4280E2"/>
<path d="M353.96 97.5144C354.421 97.3887 354.673 96.7182 354.505 96.0058C354.337 95.2934 353.793 94.8324 353.332 94.9581C352.871 95.0839 352.619 95.7544 352.787 96.4668C352.954 97.1373 353.457 97.6401 353.96 97.5144Z" fill="#080B09"/>
<path d="M361.042 95.8386C361.503 95.7129 361.755 95.0424 361.587 94.33C361.419 93.6176 360.875 93.1566 360.414 93.2824C359.953 93.4081 359.701 94.0786 359.869 94.791C360.037 95.5034 360.581 95.9643 361.042 95.8386Z" fill="#080B09"/>
<path d="M351.194 93.7025L354.798 92.8644C354.84 92.8644 354.924 92.8225 354.924 92.7387C354.966 92.6968 354.966 92.613 354.966 92.5711C354.924 92.4453 354.882 92.3615 354.798 92.2777C354.714 92.1939 354.631 92.1101 354.505 92.0682C354.421 92.0263 354.295 91.9844 354.17 91.9844C354.044 91.9844 353.96 92.0263 353.834 92.0682L350.985 93.2835C350.775 93.3673 350.901 93.7863 351.194 93.7025Z" fill="#080B09"/>
<path d="M363.347 90.4756L358.654 91.9423C358.612 91.7747 358.612 91.6489 358.654 91.4813C358.696 91.3137 358.737 91.188 358.821 91.0623C358.905 90.9365 359.031 90.8527 359.156 90.7689C359.282 90.6851 359.45 90.6432 359.576 90.6432L363.347 90.1403C363.431 90.0984 363.515 90.4337 363.347 90.4756Z" fill="#080B09"/>
<path d="M356.475 95.1289L355.972 98.9424L357.313 99.6129" stroke="#4280E2" stroke-width="0.9467" stroke-linecap="round"/>
<path d="M436.557 57.2436V0" stroke="#5661AE" stroke-miterlimit="10"/>
<path d="M120.125 85.2773H114.593V116.372H120.125V85.2773Z" fill="#383C42"/>
<path d="M103.947 162.647L99.5318 167.062L108.688 176.219L113.103 171.804L103.947 162.647Z" fill="#0158D9"/>
<path d="M106.002 164.733C105.081 166.451 103.572 167.918 101.602 169.133L92.4669 159.998L96.867 155.598L106.002 164.733Z" fill="#012481"/>
<path d="M83.4571 174.329C98.8479 174.329 111.325 161.852 111.325 146.461C111.325 131.07 98.8479 118.594 83.4571 118.594C68.0663 118.594 55.5896 131.07 55.5896 146.461C55.5896 161.852 68.0663 174.329 83.4571 174.329Z" fill="#0158D9"/>
<path d="M83.4571 167.83C95.2605 167.83 104.829 158.261 104.829 146.458C104.829 134.655 95.2605 125.086 83.4571 125.086C71.6536 125.086 62.085 134.655 62.085 146.458C62.085 158.261 71.6536 167.83 83.4571 167.83Z" fill="white"/>
<path d="M73.232 148.933C74.5975 148.933 75.7045 147.826 75.7045 146.461C75.7045 145.095 74.5975 143.988 73.232 143.988C71.8665 143.988 70.7596 145.095 70.7596 146.461C70.7596 147.826 71.8665 148.933 73.232 148.933Z" fill="#0158D9"/>
<path d="M83.4571 148.933C84.8226 148.933 85.9295 147.826 85.9295 146.461C85.9295 145.095 84.8226 143.988 83.4571 143.988C82.0916 143.988 80.9846 145.095 80.9846 146.461C80.9846 147.826 82.0916 148.933 83.4571 148.933Z" fill="#0158D9"/>
<path d="M93.724 148.933C95.0895 148.933 96.1965 147.826 96.1965 146.461C96.1965 145.095 95.0895 143.988 93.724 143.988C92.3586 143.988 91.2516 145.095 91.2516 146.461C91.2516 147.826 92.3586 148.933 93.724 148.933Z" fill="#0158D9"/>
<path d="M128.338 190.254C129.973 190.841 131.942 190.589 133.619 190.254C133.744 188.368 133.074 186.44 131.649 185.016L115.012 168.379L105.374 178.017L107.26 179.903L110.612 176.551C110.612 176.592 122.849 188.326 128.338 190.254Z" fill="#0158D9"/>
<path d="M131.649 194.651C132.864 193.436 133.493 191.886 133.619 190.251C131.984 190.545 129.973 190.838 128.338 190.251C122.849 188.324 110.612 176.59 110.612 176.59L107.26 179.942L122.011 194.693C124.693 197.291 129.009 197.291 131.649 194.651Z" fill="#013ABD"/>
<path d="M122.651 176.006L113.02 185.637L113.583 186.2L123.214 176.569L122.651 176.006Z" fill="#383C42"/>
<path d="M126.562 179.932L116.932 189.562L117.495 190.126L127.125 180.495L126.562 179.932Z" fill="#383C42"/>
</g>
<defs>
<linearGradient id="paint0_linear_778_32410" x1="235.067" y1="36.2402" x2="267.843" y2="483.401" gradientUnits="userSpaceOnUse">
<stop stop-color="white"/>
<stop offset="1" stop-color="#94B9FF"/>
</linearGradient>
<linearGradient id="paint1_linear_778_32410" x1="301.405" y1="211.832" x2="345.128" y2="439.881" gradientUnits="userSpaceOnUse">
<stop stop-color="white"/>
<stop offset="1" stop-color="#94B9FF"/>
</linearGradient>
<clipPath id="clip0_778_32410">
<rect width="486" height="328" fill="white" transform="translate(0 -0.332031)"/>
</clipPath>
</defs>
</svg>
