<svg width="1200" height="496" viewBox="0 0 1200 496" fill="none" xmlns="http://www.w3.org/2000/svg">
<g clip-path="url(#clip0_720_38029)">
<path d="M996.37 446.942C1108.83 446.942 1200 432.768 1200 415.284C1200 397.799 1108.83 383.625 996.37 383.625C883.908 383.625 792.739 397.799 792.739 415.284C792.739 432.768 883.908 446.942 996.37 446.942Z" fill="#C0E5FF"/>
<path d="M1064.06 369.06C1111.47 369.06 1149.9 363.072 1149.9 355.684C1149.9 348.297 1111.47 342.309 1064.06 342.309C1016.65 342.309 978.218 348.297 978.218 355.684C978.218 363.072 1016.65 369.06 1064.06 369.06Z" fill="#C0E5FF"/>
<path d="M676.062 448.999C808.092 448.999 915.123 425.115 915.123 395.654C915.123 366.192 808.092 342.309 676.062 342.309C544.032 342.309 437 366.192 437 395.654C437 425.115 544.032 448.999 676.062 448.999Z" fill="#C0E5FF"/>
<path d="M971.877 281.762H945.799V356.239H971.877V281.762Z" fill="#5CA4E6"/>
<path d="M758.893 44.6381V389.481V417.341H787.032V257.622H988.285V417.341H1016.34V4.58984H758.893V44.6381ZM787.032 122.756V59.5969V57.3808H988.285V59.5969V122.756V217.099H787.032V122.756Z" fill="#0087FA"/>
<path d="M758.814 44.6406H580.786V389.483H697.622V265.065H751.125V389.483H758.893L758.814 44.6406ZM603.376 222.958V89.042H680.738V222.958H603.376ZM700.792 222.958V89.042H751.125V222.958H700.792Z" fill="#0074E6"/>
<path d="M1017.61 0H757.625V4.59052H758.893V3.87819H1016.34V4.59052H1017.61V0Z" fill="#0158D9"/>
<path d="M1016.34 3.87891H758.893V4.59123H1016.34V3.87891Z" fill="#0158D9"/>
<path d="M758.814 40.0469H578.408V44.6374H580.786H758.814V40.0469Z" fill="#0158D9"/>
<path d="M988.285 122.758V59.5989V57.3828H787.032V59.5989V122.758V217.101H988.285V122.758ZM911.16 201.668V211.244H896.972H833.005H792.739V199.531V178.873V177.923V176.974V122.837V120.7V63.1605H911.081V120.7V122.837V201.668H911.16ZM917.264 136.213H933.513H947.86H956.262H964.584H973.541H981.626V211.323H970.054H951.902H933.513H917.264V136.213ZM973.541 130.831H964.584H956.262H947.86H933.513H917.264V122.758V120.621V63.0814H981.626V66.2473V122.758V130.831H973.541Z" fill="#383C42"/>
<path d="M933.513 136.211H917.264V211.321H933.513V136.211Z" fill="#D4DCF4"/>
<path d="M951.902 211.321L950.555 192.722H953.725C953.725 192.722 949.524 185.282 951.427 179.663C952.457 176.734 953.012 175.547 952.14 173.252C951.268 171.036 948.415 170.165 952.933 164.862C957.451 159.559 956.182 157.818 954.756 156.473C954.122 155.918 953.17 155.285 952.378 154.573L947.86 157.818V136.211H933.513V211.321H951.902Z" fill="#5CA4E6"/>
<path d="M963.554 158.77C963.554 159.086 963.554 159.403 963.554 159.64H963.951L963.554 158.77Z" fill="#5CA4E6"/>
<path d="M958.243 144.996C958.164 144.838 955.865 141.435 958.878 138.664C961.176 136.607 963.158 136.528 964.585 137.398V136.211H956.262V145.788C956.975 145.392 957.609 145.155 958.243 144.996Z" fill="#5CA4E6"/>
<path d="M966.249 192.642C966.249 192.642 966.962 187.498 965.298 183.145C965.298 183.224 965.219 183.224 965.219 183.303L964.188 192.721H969.975V192.642H966.249Z" fill="#5CA4E6"/>
<path d="M969.657 142.938C971.401 143.967 973.066 147.212 973.224 150.062C973.462 154.098 971.956 155.206 970.529 156.552C969.102 157.897 968.548 159.955 969.974 163.596C971.401 167.316 972.273 169.215 971.401 171.51C970.529 173.806 969.816 176.734 970.846 179.663C972.749 185.282 969.974 192.722 969.974 192.722H971.718L970.133 211.321H981.706V136.211H973.621V140.089L969.657 142.938Z" fill="#5CA4E6"/>
<path d="M957.768 182.512C955.786 187.023 956.737 192.563 956.737 192.563H953.805V192.722H958.878L957.768 182.512Z" fill="#5CA4E6"/>
<path d="M965.298 183.147C965.298 183.067 965.298 183.067 965.219 182.988V183.305C965.219 183.226 965.219 183.147 965.298 183.147Z" fill="#5CA4E6"/>
<path d="M958.719 144.919C958.878 144.919 959.116 144.919 959.275 144.919L959.354 144.84L958.719 144.919Z" fill="#5CA4E6"/>
<path d="M964.109 159.64C964.109 159.482 964.109 159.244 964.03 159.086L963.871 159.64H964.109Z" fill="#5CA4E6"/>
<path d="M952.378 154.573C951.347 153.544 950.792 152.199 952.061 149.982C953.091 148.162 954.676 146.658 956.262 145.788V136.211H947.86V157.818L952.378 154.573Z" fill="#0158D9"/>
<path d="M965.932 138.664C967.2 140.327 967.517 142.543 967.596 143.018C968.231 142.464 968.944 142.543 969.657 142.938L973.621 140.089V136.211H964.664V137.398C965.139 137.715 965.615 138.19 965.932 138.664Z" fill="#0158D9"/>
<path d="M963.95 192.723H964.109L965.139 183.305C964.664 184.808 963.95 192.723 963.95 192.723Z" fill="#C1D5FE"/>
<path d="M957.768 182.435C957.768 182.435 959.274 191.774 958.877 192.724H963.95C963.95 192.724 964.664 184.809 965.139 183.306V182.989C964.901 182.277 964.505 181.643 964.109 181.01C961.018 176.341 962.841 172.462 964.347 168.188C965.298 165.418 964.267 162.648 963.95 159.641H963.792H963.395C962.92 163.281 958.481 165.814 959.67 169.297C961.097 173.57 961.572 176.261 958.481 180.931C958.243 181.406 958.005 181.96 957.768 182.435L958.798 192.724H958.877C959.274 191.774 957.768 182.435 957.768 182.435Z" fill="#C1D5FE"/>
<path d="M964.03 159.085C963.95 157.581 964.109 155.998 964.822 154.336C966.487 150.616 966.011 147.53 966.487 145.313L964.584 146.659V143.73L959.353 144.759L959.274 144.839C959.908 144.839 960.542 145.076 961.018 145.472C963.158 147.45 960.78 151.566 963.078 156.869C963.316 157.502 963.475 158.056 963.554 158.689L963.871 159.56L964.03 159.085Z" fill="#C1D5FE"/>
<path d="M964.584 143.729V146.657L966.487 145.312C966.645 144.52 966.883 143.808 967.438 143.254L964.584 143.729Z" fill="#C1D5FE"/>
<path d="M969.895 192.723H964.188L963.95 194.464H958.957L958.798 192.723H953.725H950.555L951.902 211.322H970.054L971.639 192.723H969.895Z" fill="#383C42"/>
<path d="M958.878 192.723H958.798L958.957 194.464H963.95L964.188 192.723H963.95H958.878Z" fill="#383C42"/>
<path d="M959.353 144.76L961.652 142.069L964.584 142.623V137.4C963.158 136.529 961.176 136.608 958.877 138.666C955.865 141.357 958.164 144.839 958.243 144.998C958.402 144.998 958.56 144.919 958.719 144.919L959.353 144.76Z" fill="#C1D5FE"/>
<path d="M967.438 143.176C967.517 143.176 967.517 143.097 967.438 143.176C967.517 143.097 967.517 143.097 967.597 143.018C967.517 142.464 967.2 140.248 965.932 138.665C965.536 138.19 965.139 137.715 964.584 137.398V142.622L967.438 143.176Z" fill="#C1D5FE"/>
<path d="M964.584 142.624L961.652 142.07L959.353 144.761L964.584 143.732V142.624Z" fill="#C1D5FE"/>
<path d="M967.438 143.175L964.584 142.621V143.729L967.438 143.175Z" fill="#C1D5FE"/>
<path d="M956.658 192.564C956.658 192.564 955.707 187.024 957.689 182.513L957.609 181.405L957.768 169.453L962.603 159.639H963.475C963.475 159.323 963.554 159.085 963.475 158.769L958.481 145.709L959.195 144.918C959.036 144.918 958.798 144.918 958.64 144.918L958.164 144.997C957.53 145.155 956.896 145.393 956.182 145.789V145.868V151.725L952.298 154.574C953.091 155.365 954.042 155.919 954.676 156.473C956.103 157.819 957.371 159.56 952.853 164.863C948.335 170.166 951.189 171.036 952.061 173.253C952.933 175.548 952.378 176.735 951.347 179.663C949.445 185.283 953.646 192.723 953.646 192.723V192.564H956.658Z" fill="#C0E5FF"/>
<path d="M956.262 145.868V145.789C954.676 146.66 953.091 148.243 952.061 149.984C950.792 152.2 951.347 153.545 952.378 154.574L956.262 151.725V145.868Z" fill="#C0E5FF"/>
<path d="M959.749 169.297C958.56 165.814 963.078 163.281 963.475 159.641H962.603L957.768 169.455L957.609 181.406L957.688 182.514C957.926 181.96 958.164 181.485 958.56 180.931C961.652 176.261 961.176 173.57 959.749 169.297Z" fill="#C0E5FF"/>
<path d="M961.018 145.551C960.542 145.076 959.908 144.918 959.274 144.918L958.56 145.709L963.554 158.769C963.554 158.215 963.396 157.581 963.079 156.948C960.78 151.645 963.158 147.53 961.018 145.551Z" fill="#C0E5FF"/>
<path d="M958.72 144.918C958.561 144.918 958.402 144.997 958.243 144.997L958.72 144.918Z" fill="#C0E5FF"/>
<path d="M964.03 159.083C964.03 159.242 964.03 159.479 964.109 159.637H965.773V178.554L965.298 182.986C965.298 183.065 965.298 183.065 965.377 183.144C965.377 183.144 965.377 183.144 965.377 183.065C965.377 183.065 965.377 183.065 965.377 183.144C967.121 187.576 966.328 192.642 966.328 192.642H969.974V192.721C969.974 192.721 972.749 185.281 970.846 179.662C969.816 176.733 970.529 173.805 971.401 171.51C972.273 169.214 971.401 167.315 969.974 163.595C968.548 159.954 969.102 157.896 970.529 156.551C971.956 155.205 973.462 154.097 973.224 150.061C973.066 147.291 971.401 143.966 969.657 142.938L968.151 144.046L964.03 159.083Z" fill="#AAD5FE"/>
<path d="M967.517 143.175L968.31 143.333L968.072 144.046L969.578 142.938C968.865 142.542 968.151 142.463 967.517 143.017C967.597 143.096 967.597 143.175 967.517 143.175Z" fill="#AAD5FE"/>
<path d="M964.426 168.188C962.92 172.462 961.097 176.341 964.188 181.01C964.584 181.643 964.902 182.277 965.219 182.989L965.694 178.557V159.641H964.03C964.347 162.648 965.377 165.418 964.426 168.188Z" fill="#AAD5FE"/>
<path d="M964.822 154.336C964.109 155.998 963.95 157.581 964.03 159.085L968.151 144.047L966.487 145.234C966.09 147.529 966.487 150.616 964.822 154.336Z" fill="#AAD5FE"/>
<path d="M966.487 145.312L968.151 144.125L968.389 143.412L967.597 143.254H967.438C966.883 143.729 966.645 144.441 966.487 145.312Z" fill="#AAD5FE"/>
<path d="M967.438 143.178H967.597C967.597 143.178 967.597 143.099 967.597 143.02C967.597 143.099 967.517 143.099 967.438 143.178C967.517 143.178 967.517 143.099 967.438 143.178Z" fill="#AAD5FE"/>
<path d="M967.519 143.176C967.438 143.176 967.438 143.176 967.438 143.257L967.519 143.176Z" fill="#AAD5FE"/>
<path d="M988.285 257.621H787.032V417.339H988.285V257.621ZM792.818 411.562V395.337V394.149V345.078V343.812V339.38V332.811V263.399H793.69H829.756H832.054H847.828H849.968H885.241H911.16V339.38V343.258V343.337V356.001V388.213V411.641H792.818V411.562ZM917.264 411.562V384.414V359.721V343.337V339.38V263.399H925.586H981.626V339.38V408V411.562H917.264Z" fill="#383C42"/>
<path d="M680.738 89.0391H603.376V222.956H680.738V89.0391ZM676.062 92.3632V119.827V170.481V198.499V218.286H645.545H641.661H641.582H632.545H632.466H610.193H607.736V170.481V160.667V156.393V156.156V92.3632H611.778H676.062V92.3632Z" fill="#383C42"/>
<path d="M751.125 89.0391H700.792V222.956H751.125V89.0391ZM705.152 92.3632H747.003V119.827V137.16V150.061H721.084H705.152V119.827V92.3632ZM705.152 155.127H721.084H747.003V170.481V218.286H732.181H721.084H705.152V197.708V170.481V155.127Z" fill="#383C42"/>
<path d="M751.125 389.48H697.622V389.56H751.125V389.48Z" fill="#383C42"/>
<path d="M697.622 265.062V389.481H751.125V265.062H697.622ZM705.31 326.006C703.487 326.006 701.981 324.502 701.981 322.681C701.981 320.861 703.487 319.357 705.31 319.357C706.737 319.357 708.005 320.307 708.402 321.573L717.438 321.811V323.315L708.481 323.631C708.085 324.977 706.816 326.006 705.31 326.006Z" fill="#383C42"/>
<path d="M854.407 120.618H874.936H895.466H911.16V63.0781H792.818V120.618H833.877H854.407Z" fill="#1F2D49"/>
<path d="M895.466 192.249V122.758H874.936V191.853C885.479 192.09 894.198 192.249 896.893 192.328C903.789 192.565 909.496 199.451 911.16 201.667V122.758H895.466V192.249Z" fill="#D4DCF4"/>
<path d="M801.537 179.189C801.934 179.506 802.489 179.981 802.964 180.456C809.781 177.053 818.341 186.471 818.341 186.471C818.341 186.471 823.573 190.191 826.268 193.119L827.932 193.832C826.109 191.853 824.445 190.824 824.445 190.824C824.445 190.824 828.17 190.903 833.877 190.982V122.758H792.818V176.894C793.769 176.657 797.416 175.944 801.537 179.189Z" fill="#D4DCF4"/>
<path d="M854.407 191.296V122.755H833.877V190.98C844.182 191.217 861.065 191.534 874.936 191.771V122.676H854.407V191.296Z" fill="#D4DCF4"/>
<path d="M792.818 177.844V178.794L793.136 178.952C793.056 178.635 792.898 178.239 792.818 177.844Z" fill="#D4DCF4"/>
<path d="M874.936 120.621H854.407V122.758H874.936V120.621Z" fill="#D4DCF4"/>
<path d="M895.466 120.621H874.936V122.758H895.466V120.621Z" fill="#D4DCF4"/>
<path d="M911.16 120.621H895.466V122.758H911.16V120.621Z" fill="#D4DCF4"/>
<path d="M854.407 120.621H833.877V122.758H854.407V120.621Z" fill="#D4DCF4"/>
<path d="M833.877 120.621H792.818V122.758H833.877V120.621Z" fill="#D4DCF4"/>
<path d="M827.932 193.831L826.268 193.119C827.774 194.781 828.487 196.205 826.902 196.522C822.463 197.392 816.677 196.522 816.677 196.522C816.677 196.522 800.507 204.516 793.135 178.951L792.818 178.793V199.45H823.89H792.818V211.164H833.085C833.005 209.581 832.768 206.732 832.054 202.22C831.499 198.58 829.597 195.73 827.932 193.831Z" fill="white"/>
<path d="M806.61 184.73L802.964 180.456C802.489 179.981 801.934 179.506 801.537 179.19C797.416 175.945 793.769 176.657 792.818 176.894V177.844C792.898 178.24 793.056 178.557 793.135 178.952L806.61 184.73Z" fill="#95B5FC"/>
<path d="M793.135 178.949C800.586 204.514 816.677 196.52 816.677 196.52L806.61 184.727L793.135 178.949Z" fill="#95B5FC"/>
<path d="M818.342 186.471C818.342 186.471 809.781 177.053 802.964 180.456C804.232 181.643 805.738 183.305 807.244 184.968L826.268 193.12C823.573 190.191 818.342 186.471 818.342 186.471Z" fill="#7DA8FF"/>
<path d="M816.677 196.52C816.677 196.52 822.463 197.391 826.902 196.52C828.487 196.204 827.774 194.779 826.268 193.117L807.244 184.965C811.842 190.189 816.677 196.52 816.677 196.52Z" fill="#7DA8FF"/>
<path d="M802.964 180.453L806.61 184.727L807.244 184.964C805.738 183.302 804.232 181.64 802.964 180.453Z" fill="#7DA8FF"/>
<path d="M806.61 184.73L816.677 196.523C816.677 196.523 811.842 190.192 807.244 184.968L806.61 184.73Z" fill="#7DA8FF"/>
<path d="M896.893 192.328C894.198 192.249 885.479 192.091 874.936 191.853C861.065 191.537 844.182 191.22 833.877 191.062V191.141V190.983C828.17 190.903 824.445 190.824 824.445 190.824C824.445 190.824 826.109 191.853 827.933 193.832L830.152 194.782L896.972 211.244H911.16V201.667C909.496 199.451 903.789 192.565 896.893 192.328Z" fill="#4280E2"/>
<path d="M827.932 193.832C829.676 195.732 831.499 198.581 832.054 202.301C832.768 206.812 833.005 209.661 833.085 211.244H897.051L830.231 194.782L827.932 193.832Z" fill="#4280E2"/>
<path d="M981.626 66.244V63.0781H917.264V120.618H933.513L981.626 66.244Z" fill="#1F2D49"/>
<path d="M933.513 122.758H917.264V130.831H933.513V122.758Z" fill="#D4DCF4"/>
<path d="M933.513 120.621H917.264V122.758H933.513V120.621Z" fill="#D4DCF4"/>
<path d="M964.585 122.758H956.262V130.831H964.585V122.758Z" fill="#5CA4E6"/>
<path d="M981.626 122.758H973.541V130.831H981.626V122.758Z" fill="#5CA4E6"/>
<path d="M947.86 122.758H933.513V130.831H947.86V122.758Z" fill="#5CA4E6"/>
<path d="M933.513 122.757H947.86V121.253L956.262 113.338V122.757H964.584V107.402L973.541 98.8546V122.757H981.626V66.2461L933.513 120.62V122.757Z" fill="#5CA4E6"/>
<path d="M956.262 122.758H947.86V130.831H956.262V122.758Z" fill="#0158D9"/>
<path d="M947.86 121.255V122.758H956.262V113.34L947.86 121.255Z" fill="#0158D9"/>
<path d="M973.541 122.758H964.584V130.831H973.541V122.758Z" fill="#0158D9"/>
<path d="M964.584 107.403V122.758H973.541V98.8555L964.584 107.403Z" fill="#0158D9"/>
<path d="M704.676 321.496L708.402 321.575C707.926 320.309 706.737 319.359 705.31 319.359C703.487 319.359 701.981 320.863 701.981 322.684C701.981 324.504 703.487 326.008 705.31 326.008C706.816 326.008 708.085 324.979 708.481 323.633L704.676 323.792V321.496Z" fill="#E0E1E4"/>
<path d="M717.438 321.812L708.402 321.574C708.56 321.891 708.639 322.287 708.639 322.682C708.639 322.999 708.56 323.315 708.481 323.632L717.438 323.315V321.812Z" fill="#E0E1E4"/>
<path d="M708.481 321.575L704.755 321.496V323.791L708.56 323.633C708.639 323.316 708.719 323 708.719 322.683C708.639 322.288 708.56 321.971 708.481 321.575Z" fill="#E0E1E4"/>
<path d="M904.819 390.749L904.264 404.6C904.264 404.6 904.264 405.233 902.996 405.233C901.728 405.233 901.49 404.6 901.49 404.6V391.699C900.459 391.936 899.35 392.253 898.319 392.49C898.161 396.368 898.002 400.326 897.844 401.434C896.576 402.067 895.862 401.354 895.862 401.354L895.704 392.965C891.582 393.677 887.302 394.073 882.704 394.073C878.82 394.073 875.095 393.756 871.528 393.281L870.973 404.6C870.973 404.6 870.498 405.233 869.546 405.233C868.595 405.233 868.199 404.6 868.199 404.6L868.04 400.246C868.04 400.642 867.961 401.038 867.961 401.592C866.693 402.146 866.059 401.354 866.059 401.354L865.821 392.173C851.157 388.77 840.932 381.014 840.932 372.07C840.932 359.882 859.638 350.067 882.704 350.067C893.722 350.067 903.709 352.283 911.16 356.003V343.34H850.047H849.968V345.002H829.756V345.081H809.147C809.622 347.535 809.86 349.276 809.86 349.276C809.86 349.276 825.317 347.06 829.28 348.247C833.243 349.434 834.274 364.155 834.274 364.155C834.274 364.155 836.731 392.886 832.609 394.152C832.292 394.231 831.896 394.31 831.262 394.39C831.182 394.548 831.182 394.706 831.182 394.706L826.585 394.785C821.908 395.023 815.329 395.102 809.226 395.102L792.818 395.339V411.564H911.16V388.137C909.179 389.166 907.118 389.957 904.819 390.749Z" fill="#D4DCF4"/>
<path d="M840.932 372.069C840.932 381.092 851.157 388.769 865.821 392.173L865.425 375.631L865.345 375.314V370.328H898.399L905.057 379.43V384.02L904.819 390.748C907.118 390.036 909.258 389.165 911.16 388.215V356.002C903.709 352.362 893.722 350.066 882.704 350.066C859.638 350.066 840.932 359.881 840.932 372.069Z" fill="#94B9FF"/>
<path d="M898.557 384.02C898.557 384.02 898.478 388.214 898.319 392.488C899.429 392.251 900.459 392.013 901.49 391.697V384.02H898.557Z" fill="#94B9FF"/>
<path d="M898.557 384.02H872.004L871.528 393.28C875.095 393.834 878.82 394.071 882.704 394.071C887.222 394.071 891.582 393.675 895.704 392.963L895.466 384.099L898.557 384.02Z" fill="#94B9FF"/>
<path d="M885.241 263.402H849.968V339.383H885.241V263.402Z" fill="#1F2D49"/>
<path d="M885.241 339.383H849.968V343.34H850.047H911.16V343.261H885.241V339.383Z" fill="#1F2D49"/>
<path d="M793.69 263.402H792.818V332.814C793.135 331.469 793.452 330.202 793.69 329.253V263.402Z" fill="#383C42"/>
<path d="M808.83 343.34C808.988 343.973 809.068 344.527 809.226 345.081H829.835V345.002V343.34H808.83Z" fill="#383C42"/>
<path d="M794.483 326.482C801.617 325.216 805.659 332.656 807.72 339.383H829.756V263.402H793.69V329.253C794.166 327.511 794.483 326.482 794.483 326.482Z" fill="#383C42"/>
<path d="M829.756 339.383H807.72C808.116 340.728 808.513 342.074 808.75 343.34H829.676L829.756 339.383Z" fill="#383C42"/>
<path d="M865.821 392.172L866.059 401.353C866.059 401.353 866.693 402.144 867.961 401.59C868.04 401.036 868.04 400.561 868.04 400.245L867.803 392.647C867.168 392.488 866.534 392.33 865.821 392.172Z" fill="#0158D9"/>
<path d="M867.565 383.149L865.425 375.551L865.821 392.092C866.455 392.251 867.168 392.409 867.802 392.567L867.565 383.149Z" fill="#0158D9"/>
<path d="M849.968 343.34H829.756V345.002H849.968V343.34Z" fill="#E0E1E4"/>
<path d="M832.054 339.383V328.382H834.274H834.353H834.67H836.572H836.969H837.286H838.871H839.584H839.901H841.17H842.2H847.828V339.383H849.968V263.402H847.828V272.979H832.054V263.402H829.756V339.383H832.054ZM847.828 326.324H845.529H845.291H843.231H842.993H842.913H840.932H840.615H840.456H838.633H838.158H836.335H836.255V326.403L835.542 326.324H832.054V315.323H835.78V315.244L836.493 315.323H838.158H838.633H840.456H840.615H840.932H842.913H842.993H843.231H845.291H845.529H847.828V326.324ZM847.828 313.107H846.163H844.578H842.993H841.407H839.822H839.743H838.158H836.572H834.987H833.402H832.054V302.105H833.402H834.987H836.572H838.158H839.743H839.822H841.407H842.993H844.578H846.163H847.749H847.828V313.107ZM832.054 275.433H847.828V286.434H832.054V275.433ZM831.816 288.808H832.054H833.402H833.56H834.987H835.146H835.304H836.572H836.889H838.158H847.828V299.81H842.676H842.596H839.505H838.158H836.889H836.572H835.304H835.146H834.987H833.56H833.402H832.054H831.816V288.808V288.808Z" fill="#E0E1E4"/>
<path d="M847.828 339.383H842.2H841.17H839.901H839.584H838.871H837.286H836.969H836.572H834.67H834.353H834.274H832.054H829.756V343.34H849.968V339.383H847.828Z" fill="#E0E1E4"/>
<path d="M839.902 328.379H839.584V339.38H839.902V328.379Z" fill="#B0B6BF"/>
<path d="M837.286 328.379H836.969V339.38H837.286V328.379Z" fill="#B0B6BF"/>
<path d="M834.67 328.379H834.353V339.38H834.67V328.379Z" fill="#B0B6BF"/>
<path d="M844.34 328.775L847.194 338.035L845.054 338.747L842.2 329.566V339.38H847.828V328.379H842.2V329.408L844.34 328.775Z" fill="#B0B6BF"/>
<path d="M842.993 315.32H842.913V326.322H842.993V315.32Z" fill="#B0B6BF"/>
<path d="M833.957 326.084L835.78 315.32H832.054V326.322H835.542L833.957 326.084Z" fill="#B0B6BF"/>
<path d="M840.615 315.32H840.456V326.322H840.615V315.32Z" fill="#B0B6BF"/>
<path d="M836.493 315.32L838.078 315.558L836.255 326.322H836.335H838.158V315.32H836.493Z" fill="#B0B6BF"/>
<path d="M845.53 315.32H845.291V326.322H845.53V315.32Z" fill="#B0B6BF"/>
<path d="M846.163 302.102H844.578H842.993H841.407H839.822H839.743H838.158H836.572H834.987H833.402H832.054V313.103H833.402H834.987H836.572H838.158H839.743H839.822H841.407H842.993H844.578H846.163H847.749H847.828V302.102H847.749H846.163ZM835.225 313.103H833.64V303.843H835.225V313.103ZM836.969 313.103H835.383V303.843H836.969V313.103ZM838.792 313.103H837.206V303.843H838.792V313.103ZM840.536 313.103H838.95V303.843H840.536V313.103ZM842.359 313.103H840.773V303.843H842.359V313.103ZM844.182 313.103H842.596V303.843H844.182V313.103ZM845.926 313.103H844.34V303.843H845.926V313.103ZM847.749 313.103H846.163V303.843H847.749V313.103Z" fill="#B0B6BF"/>
<path d="M795.593 345.082C796.781 346.269 798.05 348.485 799.318 352.284C803.836 366.135 801.854 379.986 801.854 379.986C801.854 379.986 827.695 379.273 830.152 381.964C832.609 384.655 832.768 384.972 832.609 387.98C832.53 390.512 831.579 393.441 831.262 394.391C831.816 394.311 832.292 394.232 832.609 394.153C836.731 392.887 834.274 364.156 834.274 364.156C834.274 364.156 833.243 349.435 829.28 348.248C825.317 347.061 809.86 349.277 809.86 349.277C809.86 349.277 809.702 347.536 809.147 345.082H795.593Z" fill="white"/>
<path d="M826.585 394.785L809.226 395.102C815.329 395.102 821.908 395.023 826.585 394.785Z" fill="white"/>
<path d="M793.69 329.25C793.452 330.279 793.135 331.466 792.818 332.812V339.381H793.69V329.25Z" fill="white"/>
<path d="M795.593 345.081H809.147C809.068 344.527 808.909 343.973 808.75 343.34H793.611V339.383H792.739V343.815C793.69 343.815 794.562 344.132 795.593 345.081Z" fill="white"/>
<path d="M794.483 326.482C794.483 326.482 794.166 327.511 793.69 329.252V339.383H807.72C805.659 332.655 801.696 325.215 794.483 326.482Z" fill="white"/>
<path d="M793.69 339.383V343.34H808.83C808.513 342.074 808.196 340.728 807.799 339.383H793.69Z" fill="white"/>
<path d="M895.862 401.353C895.862 401.353 896.576 402.065 897.844 401.432C898.002 400.324 898.161 396.366 898.319 392.488C897.447 392.647 896.576 392.805 895.704 392.963L895.862 401.353Z" fill="#0158D9"/>
<path d="M898.557 384.02L895.466 384.099L895.704 392.963C896.576 392.805 897.447 392.647 898.319 392.488C898.478 388.214 898.557 384.02 898.557 384.02Z" fill="#0158D9"/>
<path d="M868.04 398.662C868.04 398.662 868.12 399.057 868.04 400.245L868.199 404.598C868.199 404.598 868.595 405.231 869.546 405.231C870.498 405.231 870.973 404.598 870.973 404.598L871.528 393.28C870.498 393.121 869.467 392.963 868.437 392.805L868.04 398.662Z" fill="#0158D9"/>
<path d="M869.071 384.021L868.437 392.727C869.467 392.885 870.498 393.122 871.528 393.202L872.004 383.941H869.071V384.021Z" fill="#0158D9"/>
<path d="M868.041 398.661L868.437 392.725C868.199 392.646 868.041 392.646 867.802 392.566L868.041 400.165C868.12 399.056 868.041 398.661 868.041 398.661Z" fill="#0158D9"/>
<path d="M867.565 383.148L867.882 392.567C868.12 392.646 868.278 392.646 868.516 392.725L869.15 384.019H867.882L867.565 383.148Z" fill="#0158D9"/>
<path d="M901.49 404.597C901.49 404.597 901.728 405.23 902.996 405.23C904.264 405.23 904.264 404.597 904.264 404.597L904.819 390.746C903.709 391.063 902.679 391.458 901.49 391.696V404.597Z" fill="#0158D9"/>
<path d="M901.49 384.02V391.697C902.6 391.38 903.709 391.064 904.819 390.747L905.057 384.02H901.49Z" fill="#0158D9"/>
<path d="M911.16 339.383V263.402H885.241V339.383H911.16ZM893.643 306.379L900.38 306.537V307.645L893.643 307.962C893.326 308.912 892.375 309.624 891.344 309.624C889.997 309.624 888.887 308.516 888.887 307.171C888.887 305.825 889.997 304.717 891.344 304.717C892.454 304.717 893.326 305.429 893.643 306.379Z" fill="white"/>
<path d="M911.16 339.383H885.241V343.261H911.16V339.383Z" fill="white"/>
<path d="M888.887 307.168C888.887 308.514 889.997 309.622 891.344 309.622C892.454 309.622 893.326 308.91 893.643 307.96L890.868 308.039V306.298L893.643 306.377C893.326 305.427 892.375 304.715 891.344 304.715C889.997 304.715 888.887 305.823 888.887 307.168Z" fill="#E0E1E4"/>
<path d="M893.801 307.17C893.801 307.408 893.722 307.724 893.643 307.962L900.38 307.645V306.537L893.643 306.379C893.722 306.616 893.801 306.854 893.801 307.17Z" fill="#E0E1E4"/>
<path d="M890.869 306.297V308.038L893.643 307.959C893.722 307.722 893.801 307.484 893.801 307.167C893.801 306.851 893.722 306.613 893.643 306.376L890.869 306.297Z" fill="#E0E1E4"/>
<path d="M834.353 339.38V328.379H834.274H832.054V339.38H834.274H834.353Z" fill="#94B9FF"/>
<path d="M836.572 339.38H836.969V328.379H836.572H834.67V339.38H836.572Z" fill="#94B9FF"/>
<path d="M838.871 339.38H839.584V328.379H838.871H837.286V339.38H838.871Z" fill="#94B9FF"/>
<path d="M841.17 339.38H842.2V329.566V329.408V328.379H841.17H839.901V339.38H841.17Z" fill="#94B9FF"/>
<path d="M836.494 315.321L835.78 315.242V315.321H836.335H836.494Z" fill="#0087FA"/>
<path d="M836.256 326.403V326.324H835.542L836.256 326.403Z" fill="#0087FA"/>
<path d="M838.078 315.558L836.493 315.32H836.335H835.78L833.957 326.084L835.542 326.322H836.255L838.078 315.558Z" fill="#0087FA"/>
<path d="M843.231 315.32H842.993V326.322H843.231H845.291V315.32H843.231Z" fill="#0087FA"/>
<path d="M840.932 315.32H840.615V326.322H840.932H842.913V315.32H840.932Z" fill="#0087FA"/>
<path d="M838.633 315.32H838.158V326.322H838.633H840.456V315.32H838.633Z" fill="#0087FA"/>
<path d="M845.529 315.32V326.322H847.828V315.32H845.529Z" fill="#0087FA"/>
<path d="M835.225 303.844H833.64V313.104H835.225V303.844Z" fill="#C1D5FE"/>
<path d="M836.969 303.844H835.383V313.104H836.969V303.844Z" fill="#7DA8FF"/>
<path d="M838.792 303.844H837.206V313.104H838.792V303.844Z" fill="#7DA8FF"/>
<path d="M840.536 303.844H838.95V313.104H840.536V303.844Z" fill="#C1D5FE"/>
<path d="M842.359 303.844H840.773V313.104H842.359V303.844Z" fill="#C1D5FE"/>
<path d="M844.182 303.844H842.596V313.104H844.182V303.844Z" fill="#C1D5FE"/>
<path d="M845.926 303.844H844.34V313.104H845.926V303.844Z" fill="#95B5FC"/>
<path d="M847.749 303.844H846.163V313.104H847.749V303.844Z" fill="#C1D5FE"/>
<path d="M838.158 299.81H839.505V298.623V294.428V293.874C839.505 293.32 839.981 292.845 840.536 292.845H841.566C842.121 292.845 842.596 293.32 842.596 293.874V294.428H842.676V298.623H842.596V299.81H842.676H847.828V288.809H838.158H836.889V299.81H838.158ZM840.298 291.104H841.804V292.766H840.298V291.104Z" fill="#B0B6BF"/>
<path d="M835.304 288.809H835.146V299.81H835.304V288.809Z" fill="#B0B6BF"/>
<path d="M833.56 288.809H833.402V299.81H833.56V288.809Z" fill="#B0B6BF"/>
<path d="M847.828 275.43H832.054V286.431H847.828V275.43ZM843.706 278.042L841.883 281.445V282.79H842.042C842.834 282.79 843.548 283.503 843.548 284.294V286.431H837.365V284.294C837.365 283.503 838.078 282.79 838.871 282.79H839.109V281.366L836.969 277.646C836.889 277.567 836.969 277.408 837.048 277.408C837.127 277.408 837.286 277.408 837.286 277.488L839.584 281.366H840.298L839.584 277.171C839.584 277.092 839.664 276.933 839.743 276.933C839.822 276.933 839.981 277.013 839.981 277.092L840.773 281.287H841.566L843.468 277.804C843.548 277.725 843.627 277.646 843.706 277.725C843.785 277.804 843.785 277.962 843.706 278.042Z" fill="#B0B6BF"/>
<path d="M847.828 272.979V263.402H832.054V272.979H847.828ZM845.371 267.201C845.529 268.626 844.182 268.547 844.261 268.626C844.182 267.201 845.371 267.201 845.371 267.201ZM841.249 266.172C842.517 266.964 841.645 267.914 841.645 267.914C840.536 267.122 841.249 266.172 841.249 266.172ZM838.475 266.885C839.743 267.676 838.871 268.626 838.871 268.626C837.761 267.835 838.475 266.885 838.475 266.885ZM836.731 267.914C838.237 267.993 837.999 269.18 837.999 269.18C836.572 269.101 836.731 267.914 836.731 267.914ZM835.542 268.072C835.859 268.626 835.859 269.022 835.7 269.259H839.743C840.06 268.626 840.694 268.626 840.694 268.626C840.694 268.863 840.694 269.101 840.615 269.259H841.883C841.962 268.943 842.042 268.784 842.042 268.784C842.279 268.943 842.438 269.101 842.596 269.259H845.133C845.371 269.259 845.529 269.418 845.529 269.655V272.504C845.529 272.742 845.371 272.9 845.133 272.9H833.957C833.719 272.9 833.56 272.742 833.56 272.504V269.655C833.56 269.418 833.719 269.259 833.957 269.259H834.749C834.829 268.389 835.542 268.072 835.542 268.072ZM834.67 268.547C833.243 268.547 833.322 267.36 833.322 267.36C834.829 267.281 834.67 268.547 834.67 268.547Z" fill="#B0B6BF"/>
<path d="M834.987 299.81H835.146V288.809H834.987H833.56V299.81H834.987Z" fill="#C1D5FE"/>
<path d="M836.572 299.81H836.889V288.809H836.572H835.304V299.81H836.572Z" fill="#C1D5FE"/>
<path d="M832.055 288.809H831.816V299.81H832.055V288.809Z" fill="#0158D9"/>
<path d="M833.402 288.809H832.054V299.81H833.402V288.809Z" fill="#0158D9"/>
<path d="M847.194 338.038L844.34 328.777L842.2 329.411V329.569L845.054 338.75L847.194 338.038Z" fill="#94B9FF"/>
<path d="M842.596 293.873C842.596 293.319 842.121 292.844 841.566 292.844H840.536C839.981 292.844 839.505 293.319 839.505 293.873V294.427H842.596V293.873Z" fill="#C1D5FE"/>
<path d="M842.596 298.621H839.505V299.808H842.596V298.621Z" fill="#C1D5FE"/>
<path d="M841.804 291.102H840.298V292.764H841.804V291.102Z" fill="#C1D5FE"/>
<path d="M842.676 294.426H842.596V298.621H842.676V294.426Z" fill="#0087FA"/>
<path d="M842.596 294.426H839.505V298.621H842.596V294.426Z" fill="#0087FA"/>
<path d="M835.066 269.812C834.987 269.574 834.908 269.416 834.908 269.258H834.115C833.877 269.258 833.719 269.416 833.719 269.654V272.503C833.719 272.74 833.877 272.899 834.115 272.899H845.291C845.529 272.899 845.688 272.74 845.688 272.503V269.654C845.688 269.416 845.529 269.258 845.291 269.258H842.755C843.231 269.891 842.596 270.524 842.596 270.524C841.962 270.049 841.962 269.574 842.042 269.258H840.773C840.536 270.128 839.743 270.049 839.743 270.049C839.743 269.733 839.743 269.416 839.901 269.258H835.859C835.542 269.654 835.146 269.812 835.066 269.812Z" fill="#0158D9"/>
<path d="M834.67 268.546C834.67 268.546 834.829 267.28 833.322 267.359C833.322 267.359 833.243 268.546 834.67 268.546Z" fill="#C0E5FF"/>
<path d="M840.773 268.625C840.773 268.625 840.06 268.625 839.822 269.258H840.773C840.773 269.1 840.853 268.862 840.773 268.625Z" fill="#C0E5FF"/>
<path d="M840.773 269.258H839.822C839.743 269.416 839.664 269.733 839.664 270.049C839.664 270.049 840.536 270.128 840.773 269.258Z" fill="#C0E5FF"/>
<path d="M845.371 267.199C845.371 267.199 844.182 267.199 844.261 268.624C844.182 268.545 845.529 268.624 845.371 267.199Z" fill="#C0E5FF"/>
<path d="M842.2 268.781C842.2 268.781 842.042 268.94 842.042 269.256H842.756C842.597 269.098 842.438 268.94 842.2 268.781Z" fill="#C0E5FF"/>
<path d="M842.596 270.524C842.596 270.524 843.151 269.891 842.755 269.258H842.042C841.962 269.574 841.962 270.049 842.596 270.524Z" fill="#C0E5FF"/>
<path d="M841.645 267.913C841.645 267.913 842.517 266.963 841.249 266.172C841.249 266.172 840.536 267.122 841.645 267.913Z" fill="#C0E5FF"/>
<path d="M838.871 268.624C838.871 268.624 839.743 267.674 838.475 266.883C838.475 266.883 837.761 267.833 838.871 268.624Z" fill="#C0E5FF"/>
<path d="M835.78 269.258C835.859 269.02 835.859 268.624 835.621 268.07C835.621 268.07 834.828 268.387 834.987 269.258H835.78Z" fill="#C0E5FF"/>
<path d="M835.066 269.812C835.146 269.812 835.542 269.654 835.7 269.258H834.829C834.908 269.416 834.987 269.574 835.066 269.812Z" fill="#C0E5FF"/>
<path d="M837.999 269.177C837.999 269.177 838.237 267.989 836.731 267.91C836.731 267.91 836.572 269.097 837.999 269.177Z" fill="#C0E5FF"/>
<path d="M837.286 277.487C837.206 277.408 837.127 277.329 837.048 277.408C836.969 277.487 836.889 277.566 836.969 277.645L839.109 281.365H839.584L837.286 277.487Z" fill="#0D1B33"/>
<path d="M839.981 277.174C839.981 277.095 839.822 277.016 839.743 277.016C839.664 277.016 839.584 277.174 839.584 277.253L840.298 281.448H840.694L839.981 277.174Z" fill="#0D1B33"/>
<path d="M843.389 277.885L841.487 281.368H841.883V281.447L843.706 278.044C843.785 277.965 843.706 277.806 843.627 277.806C843.548 277.727 843.468 277.806 843.389 277.885Z" fill="#0D1B33"/>
<path d="M868.12 379.272L865.345 370.328V375.314L865.425 375.631V375.314L868.12 379.272Z" fill="#0158D9"/>
<path d="M869.309 380.934L869.15 383.467L872.004 384.021H898.557H901.49H905.057V379.43H870.973H905.057L898.399 370.328H865.345L868.12 379.272L869.309 380.934Z" fill="#0158D9"/>
<path d="M869.309 380.936L868.12 379.273L868.199 379.432L867.882 383.231L869.15 383.468L869.309 380.936Z" fill="#0158D9"/>
<path d="M867.565 383.148L867.882 383.227L868.199 379.428L868.12 379.27L865.425 375.312V375.629L867.565 383.148Z" fill="#0158D9"/>
<path d="M869.15 383.465L869.071 384.019H872.003L869.15 383.465Z" fill="#0158D9"/>
<path d="M867.882 383.228L867.565 383.148L867.803 384.019L867.882 383.228Z" fill="#0158D9"/>
<path d="M867.882 383.23L867.802 384.022H869.071L869.15 383.468L867.882 383.23Z" fill="#0158D9"/>
<path d="M839.109 282.793H838.871C838.078 282.793 837.365 283.505 837.365 284.297V286.434H843.548V284.297C843.548 283.505 842.834 282.793 842.042 282.793H841.883H839.109Z" fill="#94B9FF"/>
<path d="M841.487 281.999C841.328 281.92 841.249 281.841 841.328 281.762L841.487 281.445H840.694V281.683C840.694 281.762 840.615 281.92 840.536 281.92C840.456 281.92 840.377 281.841 840.377 281.762L840.298 281.524H839.584L839.664 281.683C839.743 281.762 839.664 281.92 839.584 281.92H839.505C839.426 281.92 839.347 281.92 839.347 281.841L839.109 281.524V282.949H841.883V281.604L841.645 281.999C841.645 281.92 841.566 281.999 841.487 281.999Z" fill="#94B9FF"/>
<path d="M839.506 281.841C839.664 281.762 839.744 281.683 839.664 281.604L839.585 281.445H839.109L839.347 281.762C839.347 281.762 839.426 281.841 839.506 281.841Z" fill="#94B9FF"/>
<path d="M840.536 281.842C840.536 281.842 840.536 281.763 840.536 281.842C840.695 281.842 840.774 281.684 840.695 281.605V281.367H840.298L840.377 281.605C840.377 281.763 840.456 281.842 840.536 281.842Z" fill="#94B9FF"/>
<path d="M841.487 281.367L841.328 281.684C841.249 281.763 841.328 281.921 841.408 281.921H841.487C841.566 281.921 841.646 281.921 841.646 281.842L841.884 281.446V281.367H841.487Z" fill="#94B9FF"/>
<path d="M831.182 394.707C831.182 394.707 831.262 394.628 831.262 394.391C830.152 394.549 828.487 394.628 826.585 394.786L831.182 394.707Z" fill="#E0E1E4"/>
<path d="M792.818 394.152V395.34L809.226 395.102C801.141 395.023 793.849 394.706 792.818 394.152Z" fill="#E0E1E4"/>
<path d="M809.226 395.021L826.585 394.704C828.567 394.625 830.152 394.467 831.262 394.308C831.579 393.359 832.53 390.351 832.609 387.898C832.768 384.89 832.609 384.573 830.152 381.882C827.695 379.191 801.854 379.904 801.854 379.904C801.854 379.904 803.836 366.053 799.318 352.202C798.05 348.403 796.782 346.187 795.593 345H792.818V394.071C793.849 394.704 801.141 395.021 809.226 395.021Z" fill="#E0E1E4"/>
<path d="M792.818 343.812V345.079H795.593C794.562 344.129 793.69 343.812 792.818 343.812Z" fill="#E0E1E4"/>
<path d="M933.513 343.34H917.264V359.723C921.782 363.285 924.477 367.48 924.477 372.07C924.477 376.661 921.782 380.935 917.264 384.417V411.564H981.626V408.003L933.513 343.34Z" fill="#D4DCF4"/>
<path d="M924.477 372.07C924.477 367.479 921.782 363.205 917.264 359.723V384.416C921.861 380.934 924.477 376.66 924.477 372.07Z" fill="#94B9FF"/>
<path d="M917.264 263.402V339.383V343.341H933.513V339.383V263.402H917.264Z" fill="#1F2D49"/>
<path d="M953.25 339.383L949.841 336.455C949.445 336.138 949.207 335.584 949.207 335.03V291.499C949.207 290.312 950.238 289.442 951.189 289.837L968.706 296.723C969.34 296.961 969.737 297.594 969.737 298.385V339.383H981.626V263.402H933.513V339.383H953.25Z" fill="#5CA4E6"/>
<path d="M969.737 350.147C969.737 351.571 968.389 352.442 967.359 351.571L953.25 339.383H933.513V343.34L981.626 408.003V339.383H969.737V350.147V350.147Z" fill="#5CA4E6"/>
<path d="M965.377 339.381V298.858C965.377 298.225 965.853 297.75 966.487 297.75C967.121 297.75 967.597 298.225 967.597 298.858V339.381H967.755V298.383C967.755 297.591 967.279 296.958 966.566 296.721L946.195 289.835C945.085 289.439 943.896 290.31 943.896 291.497V335.028C943.896 335.582 944.134 336.136 944.61 336.452L948.573 339.381H965.377Z" fill="#383C42"/>
<path d="M964.981 351.571C966.17 352.442 967.755 351.571 967.755 350.147V339.383H967.597V350.226C967.597 350.859 967.042 351.334 966.487 351.334C965.853 351.334 965.377 350.859 965.377 350.226V339.383H948.573L964.981 351.571Z" fill="#383C42"/>
<path d="M966.487 297.75C965.853 297.75 965.377 298.225 965.377 298.858V339.381H967.597V298.858C967.597 298.225 967.121 297.75 966.487 297.75Z" fill="#080B09"/>
<path d="M965.377 350.226C965.377 350.859 965.853 351.334 966.487 351.334C967.042 351.334 967.597 350.859 967.597 350.226V339.383H965.377V350.226Z" fill="#080B09"/>
<path d="M721.084 198.261V170.48H705.152V197.707C707.847 197.549 715.139 197.232 721.084 198.261Z" fill="#D4DCF4"/>
<path d="M721.084 155.129H705.152V170.483H721.084V155.129Z" fill="#D4DCF4"/>
<path d="M721.084 198.261C724.572 198.815 727.663 199.844 729.01 201.664C732.34 205.463 732.181 212.507 732.181 212.507V218.285H747.003V170.48H721.084V198.261ZM729.01 183.698L735.669 183.935V184.964L729.01 185.202C728.693 186.152 727.742 186.943 726.712 186.943C725.364 186.943 724.255 185.835 724.255 184.489C724.255 183.144 725.364 182.036 726.712 182.036C727.821 182.036 728.693 182.748 729.01 183.698Z" fill="white"/>
<path d="M747.003 155.129H721.084V170.483H747.003V155.129Z" fill="white"/>
<path d="M724.255 184.493C724.255 185.838 725.364 186.946 726.712 186.946C727.821 186.946 728.693 186.234 729.01 185.205L726.157 185.363V183.622L729.01 183.701C728.693 182.751 727.742 182.039 726.712 182.039C725.364 182.039 724.255 183.147 724.255 184.493Z" fill="#5CA4E6"/>
<path d="M729.169 184.491C729.169 184.728 729.09 184.966 729.01 185.203L735.669 184.966V183.937L729.01 183.699C729.09 183.937 729.169 184.253 729.169 184.491Z" fill="#71B7EA"/>
<path d="M726.157 183.621V185.362L729.01 185.204C729.09 184.967 729.169 184.729 729.169 184.492C729.169 184.254 729.09 183.938 729.01 183.7L726.157 183.621Z" fill="#71B7EA"/>
<path d="M705.152 197.708V218.286H721.084V198.262C715.139 197.233 707.847 197.55 705.152 197.708Z" fill="#7DA8FF"/>
<path d="M729.01 201.665C727.663 199.924 724.572 198.816 721.084 198.262V218.286H732.181V212.508C732.181 212.508 732.34 205.464 729.01 201.665Z" fill="#7DA8FF"/>
<path d="M676.062 119.827V92.3633H611.778L645.545 119.827H676.062Z" fill="#1F2D49"/>
<path d="M645.545 174.359V191.454V191.534C650.063 192.088 651.252 194.699 651.252 194.699L654.264 198.261C654.264 198.261 654.819 198.498 655.453 198.894L656.087 198.815C656.087 198.815 660.526 196.916 664.568 199.29C664.568 199.29 665.916 199.132 669.562 198.103C672.416 197.311 675.031 198.103 676.062 198.498V170.48H645.545V174.359Z" fill="#D4DCF4"/>
<path d="M676.062 119.828H645.545V170.482H676.062V119.828Z" fill="#D4DCF4"/>
<path d="M645.545 170.48H637.539L645.545 174.359V170.48Z" fill="#5CA4E6"/>
<path d="M607.736 156.156L637.539 170.481H645.545V119.827L611.778 92.3633H607.736V156.156Z" fill="#5CA4E6"/>
<path d="M641.582 204.514V203.802C639.679 203.644 637.856 203.485 637.222 203.406L641.582 204.514Z" fill="#0087FA"/>
<path d="M623.351 202.139V199.052C623.351 198.024 624.143 197.074 625.174 196.836C624.54 195.095 624.223 193.275 623.985 191.613L622.558 189.238C622.479 189.08 622.479 188.843 622.717 188.684C622.875 188.605 623.113 188.605 623.272 188.843L623.826 189.792C623.747 188.13 623.747 187.022 623.747 187.022C623.747 187.022 623.985 184.727 627.393 188.368C627.393 188.368 629.216 189.159 631.594 189.871L631.911 189.317C631.991 189.159 632.228 189.08 632.466 189.159C632.625 189.238 632.704 189.476 632.625 189.713L632.387 190.109C633.576 190.425 634.844 190.742 636.112 190.9C636.588 190.98 637.143 191.138 637.618 191.454C637.618 191.454 637.618 191.454 637.698 191.454C637.935 191.454 638.887 191.534 643.405 191.454C644.197 191.454 644.832 191.454 645.466 191.534V191.454V174.359L634.765 170.48H607.656V218.285H610.114V202.139H623.351V202.139Z" fill="#0087FA"/>
<path d="M644.435 199.766L643.405 198.5C643.643 198.975 643.88 199.371 644.039 199.766H644.435Z" fill="#0087FA"/>
<path d="M632.466 202.617V218.288H632.546V202.617H632.466Z" fill="#0087FA"/>
<path d="M607.736 160.668V170.482H634.844L607.736 160.668Z" fill="#0087FA"/>
<path d="M645.545 174.359L637.539 170.48H637.381L645.545 174.359Z" fill="#0087FA"/>
<path d="M634.844 170.48L645.545 174.359L637.381 170.48H634.844Z" fill="#0087FA"/>
<path d="M637.381 170.483L607.736 156.395V160.668L634.844 170.483H637.381Z" fill="#0087FA"/>
<path d="M637.539 170.482L607.736 156.156V156.394L637.381 170.482H637.539Z" fill="#0087FA"/>
<path d="M655.453 198.896C654.898 198.579 654.264 198.263 654.264 198.263L651.252 194.701C651.252 194.701 650.063 192.089 645.545 191.535V199.687L655.453 198.896Z" fill="white"/>
<path d="M637.777 191.457C639.996 192.803 642.137 196.048 643.484 198.501L644.514 199.767L645.624 199.688V191.536C644.99 191.457 644.356 191.457 643.563 191.457C638.966 191.536 637.936 191.536 637.777 191.457Z" fill="white"/>
<path d="M669.562 198.104C665.916 199.133 664.568 199.291 664.568 199.291C660.526 196.917 656.087 198.817 656.087 198.817L655.453 198.896C656.483 199.529 657.593 200.4 655.77 200.716C652.916 201.191 647.764 203.328 646.655 202.536L645.545 201.191V201.745C646.417 202.22 647.685 203.17 646.575 203.645C646.337 203.724 646.02 203.803 645.545 203.882V218.287H676.062V198.5C675.031 198.104 672.416 197.313 669.562 198.104Z" fill="#94B9FF"/>
<path d="M644.118 199.766C644.594 200.715 644.832 201.349 644.832 201.349C644.832 201.349 645.149 201.507 645.545 201.744V201.19L644.435 199.766H644.118Z" fill="#94B9FF"/>
<path d="M641.582 203.805V204.517H641.661V218.289H645.545V203.884C644.514 203.963 643.008 203.884 641.582 203.805Z" fill="#94B9FF"/>
<path d="M645.545 201.19L646.655 202.535C647.764 203.327 652.916 201.19 655.77 200.715C657.593 200.398 656.483 199.528 655.453 198.895L645.545 199.686V201.19Z" fill="#94B9FF"/>
<path d="M644.435 199.767L645.545 201.191V199.688L644.435 199.767Z" fill="#94B9FF"/>
<path d="M626.838 194.861H627.631L626.363 188.45C626.284 188.213 626.442 188.054 626.68 187.975C626.918 187.896 627.076 188.054 627.156 188.292L628.424 194.782V194.861H629.137L631.753 189.954C629.375 189.241 627.552 188.45 627.552 188.45C624.143 184.809 623.906 187.104 623.906 187.104C623.906 187.104 623.826 188.213 623.985 189.875L626.918 194.703C626.838 194.703 626.838 194.782 626.838 194.861Z" fill="white"/>
<path d="M625.887 196.84V194.861H625.967L624.064 191.695C624.223 193.357 624.619 195.178 625.253 196.919C625.412 196.919 625.491 196.919 625.649 196.919H625.887V196.84Z" fill="white"/>
<path d="M644.118 199.765C643.96 199.37 643.722 198.974 643.484 198.499L637.777 191.455C637.301 191.138 636.747 190.98 636.271 190.901C635.003 190.743 633.734 190.426 632.546 190.109L630.088 194.858V196.837H630.247C631.436 196.837 632.466 197.787 632.466 199.053V202.14H632.546V202.615H632.625V202.14L637.301 203.327C637.935 203.406 639.759 203.643 641.661 203.723V199.924L644.118 199.765Z" fill="white"/>
<path d="M643.405 198.501C642.057 196.048 639.996 192.803 637.698 191.457L643.405 198.501Z" fill="white"/>
<path d="M646.575 203.646C647.685 203.171 646.417 202.221 645.545 201.746V203.883C646.02 203.804 646.337 203.725 646.575 203.646Z" fill="white"/>
<path d="M644.118 199.766L641.582 200.003V203.802C643.008 203.881 644.514 203.96 645.545 203.881V201.744C645.149 201.507 644.832 201.349 644.832 201.349C644.832 201.349 644.594 200.715 644.118 199.766Z" fill="white"/>
<path d="M629.296 202.141H623.351H610.193V218.287H632.466V202.616L629.296 202.141Z" fill="#0158D9"/>
<path d="M632.387 202.141H632.308H629.296L632.466 202.616V202.141H632.387Z" fill="#0158D9"/>
<path d="M637.222 203.33C637.064 203.33 636.984 203.33 636.984 203.33L632.545 202.617V218.288H641.582V204.517L637.222 203.33Z" fill="#0158D9"/>
<path d="M641.582 204.516V218.287H641.661V204.516H641.582Z" fill="#0158D9"/>
<path d="M632.545 202.616L636.984 203.328C636.984 203.328 637.064 203.328 637.222 203.328L632.545 202.141V202.616Z" fill="#0158D9"/>
<path d="M623.272 188.846C623.192 188.687 622.875 188.608 622.717 188.687C622.558 188.766 622.479 189.004 622.558 189.241L623.985 191.616C623.906 190.983 623.826 190.349 623.826 189.795L623.272 188.846Z" fill="#012481"/>
<path d="M626.838 194.858C626.838 194.779 626.838 194.7 626.759 194.621L623.826 189.793C623.826 190.347 623.906 190.98 623.985 191.613L625.887 194.779H626.838V194.858Z" fill="#012481"/>
<path d="M628.424 194.78L627.155 188.29C627.076 188.053 626.918 187.895 626.68 187.974C626.442 188.053 626.363 188.211 626.363 188.449L627.631 194.859L628.424 194.78C628.424 194.78 628.424 194.859 628.424 194.78Z" fill="#012481"/>
<path d="M632.704 189.714C632.783 189.556 632.704 189.318 632.546 189.16C632.387 189.081 632.149 189.16 631.991 189.318L631.674 189.872C631.911 189.951 632.149 190.031 632.466 190.11L632.704 189.714Z" fill="#012481"/>
<path d="M629.137 194.861H630.009L632.466 190.112C632.228 190.033 631.911 189.954 631.674 189.875L629.137 194.861Z" fill="#012481"/>
<path d="M625.253 196.84C624.143 196.998 623.43 197.948 623.43 199.056V202.143H629.375C627.314 201.193 626.046 199.135 625.253 196.84Z" fill="#C1D5FE"/>
<path d="M632.387 202.143V199.056C632.387 197.79 631.357 196.84 630.168 196.84H630.009V196.919H625.887V196.84H625.57C625.412 196.84 625.332 196.84 625.174 196.84C625.967 199.135 627.235 201.114 629.296 202.143H632.387Z" fill="#C1D5FE"/>
<path d="M629.375 195.573C629.296 195.573 629.216 195.573 629.216 195.494C629.058 195.414 628.979 195.177 629.058 194.94L629.137 194.781H628.424C628.424 194.94 628.265 195.098 628.107 195.177H628.027C627.869 195.177 627.71 195.019 627.631 194.86V194.781H626.838C626.838 194.94 626.759 195.019 626.68 195.098C626.601 195.098 626.521 195.177 626.442 195.177C626.284 195.177 626.204 195.098 626.125 195.019L625.967 194.781H625.887V196.76H630.009V194.781L629.771 195.256C629.692 195.494 629.533 195.573 629.375 195.573Z" fill="#C1D5FE"/>
<path d="M626.442 195.255C626.521 195.255 626.601 195.255 626.68 195.176C626.838 195.097 626.838 194.939 626.838 194.859H625.967L626.125 195.097C626.204 195.176 626.284 195.255 626.442 195.255Z" fill="#C1D5FE"/>
<path d="M628.027 195.255C628.027 195.255 628.107 195.255 628.027 195.255C628.265 195.176 628.424 195.018 628.424 194.859H627.631V194.939C627.71 195.097 627.869 195.255 628.027 195.255Z" fill="#C1D5FE"/>
<path d="M629.058 195.017C628.979 195.175 629.058 195.412 629.216 195.571C629.296 195.571 629.375 195.65 629.375 195.65C629.533 195.65 629.692 195.571 629.692 195.412L629.93 194.938L629.058 195.017Z" fill="#C1D5FE"/>
<path d="M630.009 196.84H625.887V196.919H630.009V196.84Z" fill="#C1D5FE"/>
<path d="M747.003 92.3633H705.152V119.827H747.003V92.3633Z" fill="#1F2D49"/>
<path d="M721.084 150.062V137.161H747.003V119.828H705.152V150.062H721.084Z" fill="#D4DCF4"/>
<path d="M747.003 137.16H721.084V150.061H747.003V137.16Z" fill="white"/>
<path d="M1082.77 400.877C1082.77 400.877 1078.49 385.839 1080.63 382.198C1082.69 378.557 1094.58 390.588 1094.58 390.588C1094.58 390.588 1086.73 360.433 1097.83 357.9C1108.93 355.367 1114.63 372.78 1114.16 386.076C1114.16 386.076 1123.59 370.247 1132.31 370.405C1141.03 370.643 1121.53 392.329 1121.53 392.329C1121.53 392.329 1139.76 383.306 1141.58 389.638C1143.41 395.97 1128.9 400.877 1122.4 400.877C1115.74 400.877 1082.77 400.877 1082.77 400.877Z" fill="#7DA8FF"/>
<path d="M1102.27 375.629L1106.23 400.877" stroke="#383C42" stroke-width="2" stroke-miterlimit="10"/>
<path d="M1107.89 378.32L1103.61 384.256" stroke="#383C42" stroke-width="2" stroke-miterlimit="10"/>
<path d="M1105.36 395.655L1098.78 391.539" stroke="#383C42" stroke-width="2" stroke-miterlimit="10"/>
<path d="M1083.88 423.199H1020.47V426.919C1020.47 427.552 1020.62 428.185 1020.86 428.739C1021.1 429.294 1021.42 429.848 1021.89 430.322C1022.37 430.797 1022.84 431.114 1023.48 431.351C1024.03 431.589 1024.67 431.747 1025.3 431.747H1079.12C1080.39 431.747 1081.58 431.272 1082.53 430.322C1083.4 429.452 1083.96 428.185 1083.96 426.919L1083.88 423.199Z" fill="#5661AE"/>
<path d="M1080.55 392.808L1079.91 408.716L1058.28 406.421L1058.75 388.93L1080.55 392.808Z" fill="white"/>
<path d="M1058.67 390.434C1058.75 390.434 1058.59 397.478 1058.59 397.478C1065.33 398.981 1072.54 399.694 1080.31 399.615L1080.55 394.391L1058.67 390.434Z" fill="#5CA4E6"/>
<path d="M1080.31 405.311C1080.31 405.311 1069.13 409.585 1057.96 404.52L1021.65 419.637C1020.07 421.22 1020.47 423.99 1021.02 425.573C1021.18 425.889 1021.34 426.206 1021.65 426.443C1021.97 426.681 1022.29 426.76 1022.69 426.76H1080.23C1081.18 426.76 1082.13 426.364 1082.77 425.731C1083.48 425.098 1083.88 424.148 1083.88 423.198C1083.96 419.399 1084.04 413.542 1083.8 411.168C1083.4 407.606 1082.45 405.548 1080.31 405.311Z" fill="#1C85E8"/>
<path d="M1050.27 407.527L1054.55 411.247C1054.71 411.406 1054.79 411.564 1054.87 411.722C1054.95 411.88 1054.95 412.118 1054.95 412.355C1054.95 412.593 1054.87 412.751 1054.71 412.909C1054.63 413.068 1054.39 413.226 1054.23 413.305C1053.99 413.384 1053.76 413.463 1053.52 413.463C1053.28 413.463 1053.04 413.305 1052.81 413.147L1047.65 408.556L1050.27 407.527Z" fill="white"/>
<path d="M1044.64 410.062L1048.92 413.782C1049.08 413.941 1049.24 414.099 1049.24 414.257C1049.32 414.416 1049.32 414.653 1049.32 414.89C1049.32 415.128 1049.24 415.286 1049.08 415.445C1049 415.603 1048.76 415.761 1048.6 415.84C1048.37 415.919 1048.13 415.999 1047.89 415.999C1047.65 415.999 1047.42 415.84 1047.18 415.682L1042.03 411.171L1044.64 410.062Z" fill="white"/>
<path d="M1038.38 412.672L1042.66 416.313C1042.82 416.471 1042.9 416.629 1042.98 416.787C1043.06 416.946 1043.06 417.183 1043.06 417.421C1043.06 417.658 1042.98 417.816 1042.82 417.975C1042.74 418.133 1042.5 418.291 1042.34 418.37C1042.11 418.45 1041.87 418.529 1041.63 418.529C1041.39 418.529 1041.15 418.37 1040.92 418.212L1035.84 413.701L1038.38 412.672Z" fill="white"/>
<path d="M1179.31 415.207L1119.47 436.181L1120.74 439.743C1120.97 440.297 1121.29 440.851 1121.69 441.325C1122.08 441.8 1122.64 442.196 1123.19 442.434C1123.75 442.671 1124.38 442.829 1125.02 442.908C1125.65 442.908 1126.28 442.829 1126.84 442.671L1177.65 424.863C1178.84 424.467 1179.79 423.597 1180.34 422.409C1180.9 421.301 1180.98 419.956 1180.58 418.769L1179.31 415.207Z" fill="#5661AE"/>
<path d="M1166 387.664L1170.67 402.86L1149.51 407.847L1144.12 391.226L1166 387.664Z" fill="white"/>
<path d="M1166 387.664L1167.5 392.492C1161.32 394.708 1153.95 396.054 1145.94 396.766L1144.12 391.226L1166 387.664Z" fill="#5CA4E6"/>
<path d="M1169.96 399.536C1169.96 399.536 1160.84 407.292 1148.56 406.263L1119.31 432.54C1118.36 434.519 1119.63 437.051 1120.66 438.397C1120.89 438.713 1121.21 438.872 1121.61 439.03C1122 439.109 1122.32 439.109 1122.72 439.03L1177.01 419.956C1177.89 419.639 1178.68 419.006 1179.07 418.135C1179.47 417.265 1179.55 416.315 1179.23 415.365C1178.04 411.724 1176.14 406.184 1175.19 404.047C1173.68 400.644 1172.1 399.061 1169.96 399.536Z" fill="#1C85E8"/>
<path d="M1142.37 411.484L1147.69 413.542C1147.84 413.621 1148.08 413.78 1148.16 413.859C1148.32 414.017 1148.4 414.175 1148.4 414.413C1148.48 414.65 1148.4 414.809 1148.4 415.046C1148.32 415.283 1148.24 415.442 1148.08 415.6C1147.92 415.758 1147.69 415.917 1147.45 415.996C1147.21 416.075 1146.97 415.996 1146.73 415.917L1140.31 413.305L1142.37 411.484Z" fill="white"/>
<path d="M1137.94 415.84L1143.17 417.898C1143.33 417.977 1143.56 418.056 1143.64 418.214C1143.8 418.373 1143.88 418.531 1143.88 418.768C1143.96 419.006 1143.88 419.164 1143.88 419.401C1143.8 419.639 1143.72 419.797 1143.56 419.955C1143.41 420.114 1143.17 420.272 1142.93 420.351C1142.69 420.43 1142.45 420.351 1142.22 420.272L1135.88 417.739L1137.94 415.84Z" fill="white"/>
<path d="M1132.86 420.352L1138.09 422.33C1138.25 422.409 1138.49 422.568 1138.57 422.647C1138.73 422.805 1138.81 422.963 1138.81 423.201C1138.89 423.438 1138.81 423.597 1138.81 423.834C1138.73 424.071 1138.65 424.23 1138.49 424.388C1138.33 424.546 1138.09 424.705 1137.86 424.784C1137.62 424.863 1137.38 424.784 1137.14 424.705L1130.88 422.172L1132.86 420.352Z" fill="white"/>
<path d="M1043.85 75.823L1041.95 77.406L1037.67 72.3406L1039.41 71.0742L1043.85 75.823Z" fill="#E0E1E4"/>
<path d="M1138.73 191.141C1138.73 191.141 1147.53 292.449 1154.74 311.444C1161.95 330.439 1173.84 389.72 1173.84 389.72C1173.84 389.72 1161.56 392.094 1154.98 392.965C1148.48 393.836 1139.84 393.915 1139.84 393.915C1139.84 393.915 1115.03 328.619 1110.27 312.948C1105.52 297.277 1098.54 249.314 1098.54 249.314C1098.54 249.314 1093.86 300.284 1092.6 318.725C1091.33 337.167 1089.11 390.749 1087.76 393.915C1086.41 397.081 1052.96 395.577 1052.25 393.915C1051.93 393.203 1053.44 333.051 1054.23 319.121C1055.03 305.191 1062.16 197.868 1062.16 197.868L1138.73 191.141Z" fill="#0087FA"/>
<path d="M1157.83 158.847C1157.12 148.954 1156.09 122.044 1139.05 110.568C1114.79 97.271 1088.71 101.782 1079.44 104.869C1067.47 108.826 1059.46 120.065 1059.46 120.065C1059.46 120.065 1067.79 129.563 1067.39 145.946L1061.05 199.687C1061.05 199.687 1068.34 204.594 1083.56 207.048C1098.78 209.501 1139.52 210.451 1139.52 199.924C1139.52 189.398 1131.28 159.401 1131.28 159.401C1131.28 159.401 1152.6 158.689 1157.83 158.847Z" fill="#0158D9"/>
<path d="M1068.82 131.78C1068.82 131.78 1053.12 111.518 1040.84 97.9841C1037.11 83.896 1031.4 71.3116 1018.48 77.8017C1012.06 81.0467 1011.98 85.2415 1011.75 87.141C1011.51 89.0405 1011.03 88.6448 1011.59 92.3647C1012.78 99.8045 1026.25 105.503 1026.25 105.503C1026.25 105.503 1055.1 161.697 1060.49 163.439C1063.59 164.863 1065.09 165.101 1065.09 165.101L1068.82 131.78Z" fill="white"/>
<path d="M1117.09 87.9336V107.879C1117.09 107.879 1116.85 111.915 1105.12 111.282C1093.39 110.57 1094.9 106.533 1094.9 106.533L1096.64 91.7326L1117.09 87.9336Z" fill="white"/>
<path d="M1127.87 69.0961C1127.87 55.7203 1120.66 55.6412 1117.09 55.3246C1113.52 55.0871 1115.03 64.8222 1117.88 67.6715C1120.81 70.5999 1117.09 91.1781 1117.09 91.1781C1117.09 91.1781 1127.87 82.4719 1127.87 69.0961Z" fill="#383C42"/>
<path d="M1120.42 84.8488C1120.42 84.8488 1125.57 84.4531 1125.97 80.3375C1126.36 76.2218 1124.86 75.2721 1122.8 74.9555C1121.85 74.7972 1120.26 75.7469 1120.26 75.7469L1120.5 74.2432C1120.5 74.2432 1122.32 65.6953 1117.49 62.4503C1112.65 59.1261 1091.09 52.6361 1089.51 68.7029C1087.92 84.6905 1088.16 94.663 1098.46 96.4043C1108.77 98.0664 1112.65 92.6052 1120.42 84.8488Z" fill="white"/>
<path d="M1122.16 65.9307C1121.61 58.8867 1116.3 57.2246 1112.65 56.908C1109.08 56.6706 1091.88 56.5123 1088.71 59.5198C1085.54 62.5274 1084.99 65.1393 1089.43 66.8805C1093.86 68.6217 1115.98 67.9094 1116.61 66.6431L1118.04 79.7023C1118.12 79.7023 1122.72 72.9748 1122.16 65.9307Z" fill="#383C42"/>
<path d="M1087.84 59.2831C1087.44 62.0532 1096.8 60.4703 1107.82 61.8949C1118.83 63.3196 1127.47 66.9603 1127.79 64.5068C1129.22 53.5054 1121.45 43.4537 1110.43 41.9499C1099.33 40.5253 1089.27 48.2817 1087.84 59.2831Z" fill="#E0E1E4"/>
<path d="M1111.86 60.9451C1111.86 60.9451 1112.17 56.4337 1114.32 52.239C1116.46 48.0442 1118.99 44.9574 1119.39 44.5617C1117.25 42.4247 1113.6 41.3167 1110.03 40.8418C1107.02 40.4461 1101.79 41.3958 1100.76 42.4247C1100.29 42.8996 1098.38 45.6698 1097.51 49.0731C1096.64 52.4764 1096.64 58.6498 1097.59 59.3622C1100.21 59.0456 1111.86 60.9451 1111.86 60.9451Z" fill="#E0E1E4"/>
<path d="M1117.33 62.6068C1117.33 62.6068 1091.25 59.5201 1088 59.995C1081.18 59.5992 1088 61.9737 1090.46 62.8443C1091.57 63.24 1107.5 64.4272 1113.6 64.5855C1119.71 64.7438 1123.11 63.9523 1117.33 62.6068Z" fill="#E0E1E4"/>
<path d="M1112.73 58.4923C1112.73 58.4923 1114.63 45.5914 1119.47 44.5625C1119.39 44.7208 1119.94 45.2748 1119.47 45.5914C1118.99 45.908 1115.5 49.8653 1112.73 58.4923Z" fill="#383C42"/>
<path d="M1097.43 58.1755C1097.75 50.4191 1099.25 44.6414 1100.44 43.2167C1100.52 42.7418 1100.21 43.4542 1100.13 43.5333C1099.41 44.1665 1096.96 48.5987 1097.43 58.1755Z" fill="#383C42"/>
<path d="M1016.11 90.3874L1018.56 92.366L1021.58 94.1073L1041.95 77.4073L1037.67 72.1836L1016.11 90.3874Z" fill="#0087FA"/>
<path d="M1114.24 92.1281C1114.24 92.1281 1111.7 97.5101 1106.71 99.5679C1101.63 101.626 1095.69 100.913 1095.69 100.913L1096.16 95.6897C1096.16 95.6897 1103.93 98.3015 1109.56 94.8191C1115.19 91.3366 1114.24 92.1281 1114.24 92.1281Z" fill="#0158D9"/>
<path d="M1008.58 101.626L1012.54 100.756C1013.81 98.6189 1010.4 95.7696 1008.66 96.561L1007.23 99.8852C1008.02 100.123 1008.58 101.231 1008.58 101.626Z" fill="#E0E1E4"/>
<path d="M1015.39 98.6963L1013.02 96.1637L1011.59 93.4727L1008.66 96.6385C1008.66 96.6385 1010.72 96.4802 1010.48 98.6963C1010.48 98.6963 1012.38 98.4589 1012.54 100.754L1015.39 98.6963Z" fill="#0087FA"/>
<path d="M1089.9 66.9609C1089.9 66.9609 1088.63 72.9761 1088.87 79.941C1089.11 86.9059 1089.51 95.5329 1100.6 96.641C1111.62 97.7491 1119.78 85.7979 1119.78 85.7979" stroke="#5CA4E6" stroke-miterlimit="10"/>
<path d="M1117.09 89.2773V107.798C1117.09 107.798 1116.53 112.072 1105.68 111.359C1094.82 110.647 1094.9 107.006 1094.9 107.006L1095.77 100.358L1096.32 96.3214" stroke="#5CA4E6" stroke-miterlimit="10"/>
<path d="M1120.58 84.2929C1124.54 83.7388 1125.81 82.3142 1125.97 79.2275C1126.2 76.1407 1124.38 75.191 1123.83 74.9535C1123.35 74.7161 1121.69 74.3204 1120.26 75.9825" stroke="#5CA4E6" stroke-miterlimit="10"/>
<path d="M1064.93 164.39C1064.93 164.39 1059.86 166.765 1052.81 154.972C1045.75 143.179 1026.17 105.505 1026.17 105.505C1026.17 105.505 1013.33 100.044 1011.51 92.3667C1011.51 92.3667 1011.11 89.0425 1013.73 89.5965C1016.26 90.0714 1019.28 93.1581 1020.78 93.8704C1022.29 94.5828 1024.59 94.7411 1026.17 93.9496C1027.68 93.1581 1029.98 91.8126 1028.87 88.1719" stroke="#5CA4E6" stroke-miterlimit="10"/>
<path d="M1057 126L1039.25 96.3686L1036 83" stroke="#5CA4E6" stroke-miterlimit="10"/>
<path d="M1012.14 86.4297C1012.14 86.4297 1009.37 90.9411 1011.19 92.7614" stroke="#5CA4E6" stroke-miterlimit="10"/>
<path d="M1023.64 83.7396C1023.64 83.7396 1019.99 83.8188 1018.72 85.0851C1018.72 85.0851 1018.8 87.143 1016.82 88.7259C1014.84 90.3088 1011.83 89.5174 1012.14 85.0851C1012.46 80.7321 1014.28 80.0989 1019.59 76.7747C1024.83 73.4505 1030.29 77.4079 1030.29 77.4079" stroke="#5CA4E6" stroke-miterlimit="10"/>
<path d="M1104.72 86.7461C1104.72 86.7461 1104.88 90.3077 1100.92 90.7826C1098.3 90.8617 1097.27 88.1707 1097.27 88.1707L1104.72 86.7461Z" fill="#4280E2"/>
<path d="M1093.71 78.6742C1094.5 78.6742 1095.13 77.7245 1095.21 76.6164C1095.29 75.4292 1094.66 74.5586 1093.86 74.5586C1093.07 74.5586 1092.44 75.5084 1092.36 76.6164C1092.36 77.6453 1092.91 78.5951 1093.71 78.6742Z" fill="#080B09"/>
<path d="M1105.28 79.0688C1106.07 79.0688 1106.71 78.119 1106.78 77.0109C1106.86 75.8237 1106.23 74.9531 1105.44 74.9531C1104.64 74.9531 1104.01 75.9029 1103.93 77.0109C1103.85 78.119 1104.49 79.0688 1105.28 79.0688Z" fill="#080B09"/>
<path d="M1111.07 71.8661L1103.3 72.1035C1103.3 71.866 1103.38 71.6286 1103.46 71.3912C1103.61 71.1537 1103.69 70.9954 1103.85 70.8371C1104.01 70.6788 1111.14 70.4414 1111.14 70.4414C1111.3 70.4414 1111.3 71.8661 1111.07 71.8661Z" fill="#080B09"/>
<path d="M1098.54 76.0625L1096.16 81.6819L1097.91 83.2649" stroke="#5CA4E6" stroke-width="0.9467" stroke-linecap="round"/>
<path d="M1089.98 71.4698L1097.19 72.1029C1097.19 71.8655 1097.11 71.6281 1097.04 71.3906C1096.96 71.1532 1096.8 70.9949 1096.64 70.8366C1096.48 70.6783 1090.22 70.1243 1090.22 70.1243C1090.06 70.0451 1089.74 71.4698 1089.98 71.4698Z" fill="#080B09"/>
<path d="M1008.58 101.627C1008.58 101.231 1008.02 100.123 1007.23 99.9648L1006.36 102.023L1008.58 101.627Z" fill="#383C43"/>
<path d="M1132.94 135.344C1132.94 135.344 1118.28 160.671 1119.39 167.477C1120.5 174.284 1123.59 172.543 1123.59 172.543L1132.39 169.06L1131.28 159.404L1132.94 135.344Z" fill="#1F2D49"/>
<path d="M1154.9 158.77L1154.66 155.684L1131.28 158.295L1131.67 160.907L1133.66 177.291L1156.33 174.837L1154.9 158.77Z" fill="white"/>
<path d="M1145.07 186.869C1138.73 186.869 1133.66 181.803 1133.66 175.471C1133.66 169.14 1138.73 164.074 1145.07 164.074C1151.41 164.074 1156.48 169.14 1156.48 175.471C1156.48 181.803 1151.41 186.869 1145.07 186.869Z" fill="white"/>
<path d="M1139.44 185.285L1074.92 155.051C1074.92 155.051 1071.04 141.279 1075.24 143.574C1079.6 145.87 1148.24 164.469 1148.24 164.469L1139.44 185.285Z" fill="white"/>
<path d="M1037.98 156.634L1065.41 161.383C1067.15 161.699 1068.34 160.512 1068.02 158.613L1059.62 110.333C1059.31 108.513 1057.64 106.772 1055.9 106.534L1028.47 101.785C1026.73 101.469 1025.54 102.656 1025.86 104.555L1034.26 152.835C1034.57 154.576 1036.24 156.238 1037.98 156.634Z" fill="#1C85E8"/>
<path d="M1036.79 156.396L1064.22 161.145C1065.96 161.461 1067.15 160.274 1066.84 158.374L1058.43 110.095C1058.12 108.275 1056.45 106.533 1054.71 106.296L1027.28 101.547C1025.54 101.23 1024.35 102.418 1024.67 104.317L1033.07 152.597C1033.39 154.338 1035.05 156.079 1036.79 156.396Z" fill="#B2CDFF"/>
<path d="M1079.12 144.997L1075.95 155.366C1075.95 155.366 1062.79 152.2 1059.94 150.854C1054.39 148.005 1048.53 144.206 1047.81 142.781C1045.67 139.141 1045.43 134.55 1045.67 131.384C1045.75 130.909 1045.83 130.434 1046.07 130.039C1046.31 129.643 1046.7 129.326 1047.1 129.089C1047.5 128.851 1047.97 128.693 1048.45 128.693C1048.92 128.693 1049.4 128.772 1049.79 129.01L1061.37 134.787C1061.37 134.787 1062.87 132.255 1061.37 130.197C1060.42 128.851 1061.92 126.319 1062.56 125.527C1062.79 125.132 1064.22 125.132 1064.54 125.527C1065.09 126.24 1064.3 128.614 1065.49 130.118C1067.39 132.492 1065.73 133.6 1070.64 137.716C1074.6 140.882 1079.2 144.839 1079.12 144.997Z" fill="white"/>
<path d="M1056.85 136.451C1053.6 135.343 1046.86 131.465 1046.86 131.465" stroke="#7DC1FF" stroke-linecap="round" stroke-linejoin="round"/>
<path d="M1057.24 140.803C1054.63 139.854 1047.57 136.055 1047.57 136.055" stroke="#7DC1FF" stroke-linecap="round" stroke-linejoin="round"/>
<path d="M1055.66 144.763C1053.92 144.129 1048.68 141.676 1048.68 141.676" stroke="#7DC1FF" stroke-linecap="round" stroke-linejoin="round"/>
<path d="M1039.16 70.9878L1037.63 72.25L1041.93 77.4308L1043.46 76.1686L1039.16 70.9878Z" fill="#E0E1E4"/>
<path d="M1043.45 76.1406L1039.09 70.9169L1040.44 69.8089C1041.07 69.2549 1042.11 69.334 1042.66 70.0463L1045.04 72.8956C1045.59 73.5288 1045.51 74.5577 1044.8 75.1117L1043.45 76.1406Z" fill="#C1D5FE"/>
<path d="M1059.86 59.5986C1066.91 59.5986 1072.62 53.8935 1072.62 46.8559C1072.62 39.8184 1066.91 34.1133 1059.86 34.1133C1052.81 34.1133 1047.1 39.8184 1047.1 46.8559C1047.1 53.8935 1052.81 59.5986 1059.86 59.5986Z" fill="#C0E5FF"/>
<path d="M1065.24 67.9535C1068.75 67.2094 1070.78 62.7586 1069.77 58.0124C1068.76 53.2662 1065.1 50.0218 1061.59 50.7659C1058.08 51.5101 1056.05 55.9608 1057.06 60.7071C1058.07 65.4533 1061.73 68.6976 1065.24 67.9535Z" fill="#C0E5FF"/>
<path d="M1060.1 56.1159L1056.29 49.5467C1056.06 49.1509 1056.37 48.6761 1056.85 48.6761C1058.35 48.7552 1061.13 48.5969 1062.87 47.3306C1063.27 47.014 1063.82 47.3306 1063.82 47.8054L1064.14 55.4827" stroke="#383C42" stroke-miterlimit="10" stroke-linecap="round"/>
<path d="M1060.1 59.5185L1069.21 57.065C1069.21 57.065 1072.7 65.3754 1067.07 67.0375C1061.45 68.6996 1058.12 67.1958 1057.4 62.8427C1056.69 58.4896 1054.31 58.3313 1052.89 57.4607C1051.46 56.5901 1047.89 53.82 1047.57 49.3086" stroke="#383C42" stroke-miterlimit="10" stroke-linecap="round"/>
<path d="M1048.05 42.8196C1048.05 42.8196 1051.7 33.2428 1060.65 34.43C1069.61 35.6172 1071.91 42.3447 1072.23 46.1438C1072.54 49.9428 1070.09 54.6125 1070.09 54.6125" stroke="#383C42" stroke-miterlimit="10" stroke-linecap="round"/>
<path d="M1078.8 53.9788C1078.8 53.9788 1077.06 53.8997 1077.38 52.5542C1077.69 51.2087 1084.19 52.1584 1083.08 52.9499C1081.9 53.7414 1080.87 53.8997 1080.87 53.8997" stroke="#383C42" stroke-miterlimit="10" stroke-linecap="round"/>
<path d="M1049.16 64.2684C1049.16 64.2684 1050.43 63.0812 1049.4 62.2105C1048.37 61.3399 1043.77 66.1679 1045.2 66.0887C1046.62 66.0096 1047.5 65.3764 1047.5 65.3764" stroke="#383C42" stroke-miterlimit="10" stroke-linecap="round"/>
<path d="M1040.2 41.3135C1040.2 41.3135 1041.87 41.551 1041.47 42.8965C1041.07 44.242 1034.58 42.659 1035.84 41.9467C1037.11 41.2344 1038.14 41.2344 1038.14 41.2344" stroke="#383C42" stroke-miterlimit="10" stroke-linecap="round"/>
<path d="M1074.37 35.5378C1074.37 35.5378 1072.94 36.5667 1072.3 35.3003C1071.67 34.1131 1077.3 30.6307 1076.9 31.9762C1076.51 33.3217 1075.79 34.1131 1075.79 34.1131" stroke="#383C42" stroke-miterlimit="10" stroke-linecap="round"/>
<path d="M1053.44 28.4935C1053.44 28.4935 1053.84 30.1556 1052.41 30.3139C1051.06 30.393 1050.11 23.8238 1051.22 24.7736C1052.33 25.6442 1052.73 26.6731 1052.73 26.6731" stroke="#383C42" stroke-miterlimit="10" stroke-linecap="round"/>
<path d="M1137.62 92.7615C1137.62 92.7615 1130.64 90.7037 1129.93 93.553C1129.22 96.4023 1131.91 96.798 1133.1 97.1937C1134.29 97.5895 1140.39 99.6473 1141.66 97.5103C1142.85 95.2942 1142.61 94.0279 1140.87 93.3947" stroke="#383C42" stroke-miterlimit="10" stroke-linecap="round"/>
<path d="M1157.99 74.8743L1155.93 73.608C1155.29 73.2122 1155.06 72.3416 1155.45 71.7084L1156.72 69.6506C1157.12 69.0175 1156.88 68.1468 1156.25 67.7511L1153.31 66.0099C1152.68 65.6141 1151.81 65.8516 1151.41 66.4848L1150.14 68.5426C1149.75 69.1757 1148.87 69.4132 1148.24 69.0175L1146.18 67.7511C1145.55 67.3554 1144.67 67.5928 1144.28 68.226L1142.53 71.1544C1142.14 71.7876 1142.37 72.6582 1143.01 73.0539L1145.07 74.3203C1145.7 74.716 1145.94 75.5866 1145.55 76.2198L1144.28 78.2776C1143.88 78.9108 1144.12 79.7814 1144.75 80.1772L1147.69 81.9184C1148.32 82.3141 1149.19 82.0767 1149.59 81.4435L1150.86 79.3857C1151.25 78.7525 1152.12 78.5151 1152.76 78.9108L1154.82 80.1772C1155.45 80.5729 1156.33 80.3354 1156.72 79.7023L1158.47 76.7738C1158.86 76.0615 1158.62 75.2701 1157.99 74.8743Z" fill="#C0E5FF" stroke="#383C42" stroke-miterlimit="10" stroke-linecap="round"/>
<path d="M581.261 400.877C581.261 400.877 585.542 385.839 583.402 382.198C581.261 378.557 569.451 390.588 569.451 390.588C569.451 390.588 577.298 360.433 566.201 357.9C555.104 355.367 549.397 372.78 549.873 386.076C549.873 386.076 540.44 370.247 531.721 370.405C523.002 370.643 542.501 392.329 542.501 392.329C542.501 392.329 524.27 383.306 522.447 389.638C520.624 395.97 535.129 400.877 541.629 400.877C548.129 400.877 581.261 400.877 581.261 400.877Z" fill="#0087FA"/>
<path d="M561.762 375.629L557.799 400.877" stroke="#383C42" stroke-width="2" stroke-miterlimit="10"/>
<path d="M556.135 378.32L560.415 384.256" stroke="#383C42" stroke-width="2" stroke-miterlimit="10"/>
<path d="M558.671 395.655L565.25 391.539" stroke="#383C42" stroke-width="2" stroke-miterlimit="10"/>
<path d="M689.854 400.88H580.627C580.627 400.88 569.768 385.842 577.457 377.452C585.225 369.142 597.748 371.674 605.041 386.237C605.041 386.237 592.517 349.83 607.736 344.21C622.954 338.591 646.258 380.855 646.258 380.855C646.258 380.855 650.697 340.965 665.916 343.736C681.135 346.506 675.111 384.892 673.763 386.712C673.763 386.712 688.11 372.545 691.677 374.761C695.323 377.056 689.854 400.88 689.854 400.88Z" fill="#7DA8FF"/>
<path d="M662.904 374.445L658.069 400.88" stroke="#383C42" stroke-width="2" stroke-miterlimit="10"/>
<path d="M653.471 380.461L659.654 392.016" stroke="#383C42" stroke-width="2" stroke-miterlimit="10"/>
<path d="M614.949 367.637L620.656 400.878" stroke="#383C42" stroke-width="2" stroke-miterlimit="10"/>
<path d="M621.211 371.438L616.93 378.956" stroke="#383C42" stroke-width="2" stroke-miterlimit="10"/>
<path d="M612.175 383.625L618.674 389.324" stroke="#383C42" stroke-width="2" stroke-miterlimit="10"/>
<path d="M1127.24 179.663C1144.51 187.736 1151.25 186.153 1154.98 182.512C1158.7 178.871 1155.93 164.546 1155.61 160.113" stroke="#7DC1FF" stroke-linecap="round" stroke-linejoin="round"/>
</g>
<defs>
<clipPath id="clip0_720_38029">
<rect width="763" height="449" fill="white" transform="translate(437)"/>
</clipPath>
</defs>
</svg>
