<svg width="1200" height="496" viewBox="0 0 1200 496" fill="none" xmlns="http://www.w3.org/2000/svg">
<g clip-path="url(#clip0_720_38029)">
<path d="M650.11 212.372H624.404C621.709 212.372 619.597 210.184 619.597 207.559C619.597 204.861 621.782 202.746 624.404 202.746H650.11C652.805 202.746 654.917 204.934 654.917 207.559C654.917 210.257 652.805 212.372 650.11 212.372Z" fill="#C0E5FF"/>
<path d="M1199.93 131.747C1199.93 119.787 1190.24 110.161 1178.37 110.161C1174.07 110.161 1170.14 111.401 1166.79 113.588C1162.5 101.775 1151.21 93.3156 1137.95 93.3156C1131.98 93.3156 1126.38 95.0658 1121.64 98.0557C1114.51 76.9807 1094.62 61.8125 1071.18 61.8125C1048.53 61.8125 1029.23 75.9597 1021.51 95.868C1013.86 96.5972 1007.09 100.462 1002.43 106.077C987.209 106.515 974.975 118.985 974.975 134.372C974.975 135.466 975.63 137.508 977.451 137.508H1195.19C1199.56 137.435 1199.93 133.715 1199.93 131.747Z" fill="#C0E5FF"/>
<path d="M1153.68 86.3267C1156.98 86.3267 1159.66 83.6495 1159.66 80.3469C1159.66 77.0444 1156.98 74.3672 1153.68 74.3672C1150.39 74.3672 1147.71 77.0444 1147.71 80.3469C1147.71 83.6495 1150.39 86.3267 1153.68 86.3267Z" fill="#C0E5FF"/>
<path d="M1191.55 86.3267H1175.24C1171.96 86.3267 1169.27 83.6285 1169.27 80.3469C1169.27 77.0654 1171.96 74.3672 1175.24 74.3672H1191.55C1194.83 74.3672 1197.52 77.0654 1197.52 80.3469C1197.52 83.6285 1194.83 86.3267 1191.55 86.3267Z" fill="#C0E5FF"/>
<path d="M994.565 94.5535H973.81C969.805 94.5535 966.528 91.272 966.528 87.2611C966.528 83.2503 969.805 79.9688 973.81 79.9688H994.565C998.57 79.9688 1001.85 83.2503 1001.85 87.2611C1001.85 91.272 998.57 94.5535 994.565 94.5535Z" fill="#C0E5FF"/>
<path d="M1012.92 466.105C1116.24 466.105 1200 453.045 1200 436.935C1200 420.825 1116.24 407.766 1012.92 407.766C909.593 407.766 825.832 420.825 825.832 436.935C825.832 453.045 909.593 466.105 1012.92 466.105Z" fill="#C0E5FF"/>
<path d="M650.329 190.717C649.236 180.653 640.789 172.777 630.448 172.777C621.855 172.777 614.572 178.174 611.732 185.758C608.965 183.57 605.542 182.33 601.828 182.33C595.201 182.33 589.594 186.341 587.118 192.029C586.171 193.779 583.331 193.998 583.331 192.029C582.748 183.278 575.466 176.351 566.582 176.351C559.445 176.351 553.328 180.799 550.924 187.07C549.395 186.487 547.72 186.195 545.972 186.195C538.399 186.195 532.282 192.102 531.845 199.54H577.942H582.093H585.807H593.235H657.465C657.028 195.384 654.188 191.883 650.329 190.717Z" fill="#C0E5FF"/>
<path d="M1075.11 394.348C1118.67 394.348 1153.98 388.83 1153.98 382.023C1153.98 375.217 1118.67 369.699 1075.11 369.699C1031.55 369.699 996.24 375.217 996.24 382.023C996.24 388.83 1031.55 394.348 1075.11 394.348Z" fill="#C0E5FF"/>
<path d="M718.636 468.001C839.938 468.001 938.272 445.995 938.272 418.85C938.272 391.705 839.938 369.699 718.636 369.699C597.334 369.699 499 391.705 499 418.85C499 445.995 597.334 468.001 718.636 468.001Z" fill="#C0E5FF"/>
<path d="M990.414 313.84H966.455V382.461H990.414V313.84Z" fill="#5CA4E6"/>
<path d="M794.737 95.3605V413.09V438.759H820.589V291.599H1005.49V438.759H1031.27V58.4609H794.737V95.3605ZM820.589 167.336V109.143V107.101H1005.49V109.143V167.336V254.262H820.589V167.336Z" fill="#0087FA"/>
<path d="M794.664 95.3594H631.102V413.089H738.444V298.453H787.6V413.089H794.737L794.664 95.3594ZM651.857 259.657V136.27H722.933V259.657H651.857ZM741.357 259.657V136.27H787.6V259.657H741.357Z" fill="#0074E6"/>
<path d="M1032.43 54.2305H793.571V58.4601H794.737V57.8037H1031.27V58.4601H1032.43V54.2305Z" fill="#0158D9"/>
<path d="M1031.27 57.8047H794.737V58.461H1031.27V57.8047Z" fill="#0158D9"/>
<path d="M794.664 91.1289H628.917V95.3585H631.102H794.664V91.1289Z" fill="#0158D9"/>
<path d="M1005.49 167.333V109.14V107.098H820.589V109.14V167.333V254.258H1005.49V167.333ZM934.631 240.038V248.862H921.595H862.827H825.832V238.069V219.036V218.161V217.286V167.406V165.437V112.421H934.558V165.437V167.406V240.038H934.631ZM940.238 179.73H955.167H968.348H976.067H983.714H991.943H999.371V248.935H988.739H972.062H955.167H940.238V179.73ZM991.943 174.771H983.714H976.067H968.348H955.167H940.238V167.333V165.364V112.348H999.371V115.265V167.333V174.771H991.943Z" fill="#383C42"/>
<path d="M955.167 179.73H940.238V248.935H955.167V179.73Z" fill="#D4DCF4"/>
<path d="M972.062 248.935L970.824 231.798H973.737C973.737 231.798 969.877 224.943 971.625 219.766C972.572 217.068 973.082 215.974 972.281 213.859C971.48 211.817 968.858 211.015 973.009 206.129C977.16 201.243 975.995 199.639 974.684 198.399C974.101 197.889 973.227 197.305 972.499 196.649L968.348 199.639V179.73H955.167V248.935H972.062Z" fill="#5CA4E6"/>
<path d="M982.767 200.516C982.767 200.807 982.767 201.099 982.767 201.318H983.131L982.767 200.516Z" fill="#5CA4E6"/>
<path d="M977.888 187.825C977.815 187.679 975.703 184.543 978.471 181.991C980.582 180.095 982.403 180.022 983.714 180.824V179.73H976.067V188.554C976.723 188.19 977.305 187.971 977.888 187.825Z" fill="#5CA4E6"/>
<path d="M985.243 231.727C985.243 231.727 985.899 226.987 984.369 222.977C984.369 223.049 984.296 223.049 984.296 223.122L983.35 231.8H988.666V231.727H985.243Z" fill="#5CA4E6"/>
<path d="M988.375 185.929C989.977 186.877 991.506 189.867 991.652 192.492C991.87 196.211 990.486 197.232 989.176 198.472C987.865 199.712 987.355 201.608 988.666 204.962C989.977 208.39 990.778 210.14 989.977 212.255C989.176 214.369 988.52 217.068 989.467 219.766C991.215 224.943 988.666 231.798 988.666 231.798H990.268L988.812 248.935H999.444V179.73H992.016V183.304L988.375 185.929Z" fill="#5CA4E6"/>
<path d="M977.451 222.391C975.631 226.547 976.504 231.652 976.504 231.652H973.81V231.798H978.471L977.451 222.391Z" fill="#5CA4E6"/>
<path d="M984.369 222.974C984.369 222.901 984.369 222.901 984.297 222.828V223.12C984.297 223.047 984.296 222.974 984.369 222.974Z" fill="#5CA4E6"/>
<path d="M978.325 187.752C978.47 187.752 978.689 187.752 978.834 187.752L978.907 187.68L978.325 187.752Z" fill="#5CA4E6"/>
<path d="M983.277 201.319C983.277 201.173 983.277 200.954 983.204 200.809L983.058 201.319H983.277Z" fill="#5CA4E6"/>
<path d="M972.499 196.649C971.552 195.701 971.043 194.461 972.208 192.419C973.154 190.742 974.611 189.356 976.067 188.554V179.73H968.348V199.639L972.499 196.649Z" fill="#0158D9"/>
<path d="M984.952 181.991C986.117 183.523 986.408 185.564 986.481 186.002C987.064 185.491 987.719 185.564 988.375 185.929L992.016 183.304V179.73H983.787V180.824C984.224 181.116 984.661 181.554 984.952 181.991Z" fill="#0158D9"/>
<path d="M983.131 231.799H983.277L984.224 223.121C983.787 224.507 983.131 231.799 983.131 231.799Z" fill="#C1D5FE"/>
<path d="M977.451 222.319C977.451 222.319 978.835 230.924 978.471 231.799H983.131C983.131 231.799 983.787 224.506 984.224 223.121V222.829C984.005 222.173 983.641 221.589 983.277 221.006C980.437 216.703 982.112 213.13 983.495 209.192C984.369 206.64 983.423 204.088 983.131 201.316H982.986H982.622C982.185 204.671 978.107 207.004 979.199 210.213C980.51 214.151 980.947 216.63 978.107 220.933C977.888 221.37 977.67 221.881 977.451 222.319L978.398 231.799H978.471C978.835 230.924 977.451 222.319 977.451 222.319Z" fill="#C1D5FE"/>
<path d="M983.204 200.807C983.131 199.422 983.277 197.963 983.932 196.432C985.462 193.005 985.025 190.161 985.462 188.119L983.714 189.358V186.66L978.908 187.608L978.835 187.681C979.417 187.681 980 187.9 980.437 188.264C982.403 190.088 980.218 193.88 982.33 198.766C982.549 199.349 982.694 199.859 982.767 200.443L983.058 201.245L983.204 200.807Z" fill="#C1D5FE"/>
<path d="M983.714 186.66V189.358L985.462 188.119C985.607 187.389 985.826 186.733 986.336 186.223L983.714 186.66Z" fill="#C1D5FE"/>
<path d="M988.593 231.801H983.35L983.131 233.405H978.543L978.398 231.801H973.737H970.824L972.062 248.938H988.739L990.195 231.801H988.593Z" fill="#383C42"/>
<path d="M978.471 231.801H978.398L978.543 233.405H983.131L983.35 231.801H983.131H978.471Z" fill="#383C42"/>
<path d="M978.908 187.609L981.019 185.13L983.714 185.64V180.827C982.403 180.025 980.582 180.098 978.471 181.994C975.703 184.473 977.815 187.682 977.888 187.828C978.034 187.828 978.179 187.755 978.325 187.755L978.908 187.609Z" fill="#C1D5FE"/>
<path d="M986.336 186.148C986.408 186.148 986.408 186.075 986.336 186.148C986.408 186.075 986.408 186.075 986.481 186.002C986.408 185.491 986.117 183.449 984.952 181.991C984.588 181.553 984.224 181.116 983.714 180.824V185.637L986.336 186.148Z" fill="#C1D5FE"/>
<path d="M983.714 185.639L981.019 185.129L978.908 187.608L983.714 186.66V185.639Z" fill="#C1D5FE"/>
<path d="M986.336 186.147L983.714 185.637V186.658L986.336 186.147Z" fill="#C1D5FE"/>
<path d="M976.432 231.654C976.432 231.654 975.558 226.549 977.378 222.393L977.305 221.372L977.451 210.36L981.893 201.318H982.694C982.694 201.026 982.767 200.807 982.694 200.516L978.106 188.483L978.762 187.754C978.616 187.754 978.398 187.754 978.252 187.754L977.815 187.827C977.233 187.973 976.65 188.191 975.995 188.556V188.629V194.025L972.426 196.651C973.154 197.38 974.028 197.89 974.611 198.401C975.922 199.641 977.087 201.245 972.936 206.131C968.785 211.017 971.407 211.819 972.208 213.861C973.009 215.975 972.499 217.069 971.552 219.768C969.805 224.945 973.664 231.8 973.664 231.8V231.654H976.432Z" fill="#C0E5FF"/>
<path d="M976.067 188.629C974.611 189.358 973.154 190.817 972.208 192.421C971.043 194.463 971.552 195.703 972.499 196.651L976.067 194.025V188.629Z" fill="#C0E5FF"/>
<path d="M979.272 210.213C978.179 207.004 982.33 204.671 982.694 201.316H981.893L977.451 210.359L977.305 221.37L977.378 222.391C977.597 221.881 977.815 221.443 978.179 220.933C981.019 216.63 980.582 214.151 979.272 210.213Z" fill="#C0E5FF"/>
<path d="M980.437 188.337C980 187.9 979.417 187.754 978.835 187.754L978.179 188.483L982.767 200.516C982.767 200.005 982.622 199.422 982.33 198.838C980.218 193.952 982.403 190.16 980.437 188.337Z" fill="#C0E5FF"/>
<path d="M978.324 187.754C978.179 187.754 978.034 187.827 977.888 187.827L978.324 187.754Z" fill="#C0E5FF"/>
<path d="M983.204 200.806C983.204 200.952 983.204 201.171 983.277 201.317H984.806V218.745L984.369 222.829C984.369 222.902 984.369 222.902 984.442 222.975C984.442 222.975 984.442 222.975 984.442 222.902C984.442 222.902 984.442 222.902 984.442 222.975C986.044 227.059 985.316 231.726 985.316 231.726H988.666V231.799C988.666 231.799 991.215 224.944 989.467 219.766C988.52 217.068 989.176 214.37 989.977 212.255C990.778 210.14 989.977 208.39 988.666 204.963C987.355 201.608 987.865 199.712 989.176 198.473C990.486 197.233 991.87 196.212 991.652 192.493C991.506 189.941 989.977 186.878 988.375 185.93L986.991 186.951L983.204 200.806Z" fill="#AAD5FE"/>
<path d="M986.408 186.147L987.137 186.293L986.918 186.949L988.302 185.928C987.646 185.564 986.991 185.491 986.408 186.001C986.481 186.074 986.481 186.147 986.408 186.147Z" fill="#AAD5FE"/>
<path d="M983.568 209.192C982.185 213.13 980.51 216.703 983.35 221.006C983.714 221.589 984.005 222.173 984.297 222.829L984.733 218.745V201.316H983.204C983.495 204.088 984.442 206.64 983.568 209.192Z" fill="#AAD5FE"/>
<path d="M983.932 196.429C983.277 197.961 983.131 199.419 983.204 200.805L986.991 186.949L985.462 188.043C985.098 190.158 985.462 193.002 983.932 196.429Z" fill="#AAD5FE"/>
<path d="M985.462 188.119L986.991 187.025L987.209 186.369L986.481 186.223H986.336C985.826 186.66 985.607 187.317 985.462 188.119Z" fill="#AAD5FE"/>
<path d="M986.336 186.15H986.482C986.482 186.15 986.482 186.077 986.482 186.004C986.482 186.077 986.409 186.077 986.336 186.15C986.409 186.077 986.409 186.15 986.336 186.15Z" fill="#AAD5FE"/>
<path d="M1005.49 291.598H820.589V438.758H1005.49V291.598ZM825.905 433.435V418.485V417.391V372.179V371.012V366.928V360.875V296.921H826.706H859.841H861.953H876.445H878.411H910.817H934.631V366.928V370.501V370.574V382.242V411.922V433.508H825.905V433.435ZM940.238 433.435V408.422V385.67V370.574V366.928V296.921H947.885H999.371V366.928V430.153V433.435H940.238Z" fill="#383C42"/>
<path d="M722.933 136.27H651.857V259.657H722.933V136.27ZM718.636 139.332V164.637V211.308V237.123V255.354H690.599H687.031H686.958H678.656H678.583H658.12H655.862V211.308V202.266V198.328V198.109V139.332H659.576H718.636Z" fill="#383C42"/>
<path d="M787.6 136.27H741.357V259.657H787.6V136.27ZM745.362 139.332H783.813V164.637V180.607V192.494H760H745.362V164.637V139.332ZM745.362 197.161H760H783.813V211.308V255.354H770.195H760H745.362V236.394V211.308V197.161Z" fill="#383C42"/>
<path d="M787.6 413.09H738.444V413.163H787.6V413.09Z" fill="#383C42"/>
<path d="M738.444 298.453V413.09H787.6V298.453H738.444ZM745.508 354.605C743.833 354.605 742.449 353.219 742.449 351.542C742.449 349.864 743.833 348.479 745.508 348.479C746.819 348.479 747.984 349.354 748.348 350.521L756.65 350.74V352.125L748.421 352.417C748.057 353.657 746.892 354.605 745.508 354.605Z" fill="#383C42"/>
<path d="M882.489 165.367H901.35H920.212H934.631V112.352H825.905V165.367H863.628H882.489Z" fill="#1F2D49"/>
<path d="M920.212 231.363V167.336H901.35V230.999C911.036 231.217 919.047 231.363 921.523 231.436C927.858 231.655 933.102 237.999 934.631 240.041V167.336H920.212V231.363Z" fill="#D4DCF4"/>
<path d="M833.916 219.331C834.28 219.622 834.79 220.06 835.227 220.497C841.489 217.362 849.354 226.04 849.354 226.04C849.354 226.04 854.161 229.467 856.637 232.165L858.166 232.822C856.491 230.999 854.962 230.051 854.962 230.051C854.962 230.051 858.385 230.123 863.628 230.196V167.336H825.905V217.216C826.779 216.997 830.129 216.341 833.916 219.331Z" fill="#D4DCF4"/>
<path d="M882.489 230.487V167.335H863.628V230.195C873.095 230.414 888.606 230.706 901.35 230.924V167.262H882.489V230.487Z" fill="#D4DCF4"/>
<path d="M825.905 218.09V218.965L826.196 219.111C826.124 218.819 825.978 218.454 825.905 218.09Z" fill="#D4DCF4"/>
<path d="M901.35 165.367H882.489V167.336H901.35V165.367Z" fill="#D4DCF4"/>
<path d="M920.212 165.367H901.35V167.336H920.212V165.367Z" fill="#D4DCF4"/>
<path d="M934.631 165.367H920.212V167.336H934.631V165.367Z" fill="#D4DCF4"/>
<path d="M882.489 165.367H863.628V167.336H882.489V165.367Z" fill="#D4DCF4"/>
<path d="M863.628 165.367H825.905V167.336H863.628V165.367Z" fill="#D4DCF4"/>
<path d="M858.166 232.82L856.637 232.164C858.02 233.695 858.676 235.008 857.219 235.3C853.141 236.102 847.825 235.3 847.825 235.3C847.825 235.3 832.969 242.665 826.196 219.111L825.905 218.965V237.998H854.452H825.905V248.791H862.9C862.827 247.332 862.608 244.707 861.953 240.55C861.443 237.196 859.695 234.571 858.166 232.82Z" fill="white"/>
<path d="M838.576 224.435L835.227 220.497C834.79 220.06 834.28 219.622 833.916 219.331C830.129 216.341 826.779 216.997 825.905 217.216V218.091C825.978 218.456 826.124 218.747 826.196 219.112L838.576 224.435Z" fill="#95B5FC"/>
<path d="M826.196 219.109C833.042 242.664 847.825 235.298 847.825 235.298L838.576 224.433L826.196 219.109Z" fill="#95B5FC"/>
<path d="M849.354 226.038C849.354 226.038 841.489 217.36 835.227 220.496C836.392 221.589 837.775 223.121 839.159 224.652L856.637 232.163C854.161 229.465 849.354 226.038 849.354 226.038Z" fill="#7DA8FF"/>
<path d="M847.825 235.299C847.825 235.299 853.141 236.101 857.219 235.299C858.676 235.008 858.02 233.695 856.637 232.164L839.159 224.652C843.383 229.465 847.825 235.299 847.825 235.299Z" fill="#7DA8FF"/>
<path d="M835.227 220.496L838.576 224.434L839.159 224.653C837.775 223.121 836.392 221.59 835.227 220.496Z" fill="#7DA8FF"/>
<path d="M838.576 224.434L847.825 235.299C847.825 235.299 843.383 229.465 839.159 224.652L838.576 224.434Z" fill="#7DA8FF"/>
<path d="M921.523 231.436C919.047 231.363 911.036 231.218 901.35 230.999C888.606 230.707 873.095 230.415 863.628 230.27V230.342V230.197C858.384 230.124 854.962 230.051 854.962 230.051C854.962 230.051 856.491 230.999 858.166 232.822L860.205 233.697L921.595 248.865H934.631V240.041C933.102 237.999 927.858 231.655 921.523 231.436Z" fill="#4280E2"/>
<path d="M858.166 232.82C859.768 234.57 861.443 237.196 861.953 240.623C862.608 244.78 862.827 247.405 862.9 248.864H921.668L860.278 233.695L858.166 232.82Z" fill="#4280E2"/>
<path d="M999.371 115.269V112.352H940.238V165.367H955.167L999.371 115.269Z" fill="#1F2D49"/>
<path d="M955.167 167.336H940.238V174.774H955.167V167.336Z" fill="#D4DCF4"/>
<path d="M955.167 165.367H940.238V167.336H955.167V165.367Z" fill="#D4DCF4"/>
<path d="M983.714 167.336H976.067V174.774H983.714V167.336Z" fill="#5CA4E6"/>
<path d="M999.371 167.336H991.943V174.774H999.371V167.336Z" fill="#5CA4E6"/>
<path d="M968.348 167.336H955.167V174.774H968.348V167.336Z" fill="#5CA4E6"/>
<path d="M955.167 167.333H968.348V165.948L976.067 158.655V167.333H983.714V153.186L991.943 145.31V167.333H999.371V115.266L955.167 165.364V167.333Z" fill="#5CA4E6"/>
<path d="M976.067 167.336H968.348V174.774H976.067V167.336Z" fill="#0158D9"/>
<path d="M968.348 165.949V167.334H976.067V158.656L968.348 165.949Z" fill="#0158D9"/>
<path d="M991.943 167.336H983.714V174.774H991.943V167.336Z" fill="#0158D9"/>
<path d="M983.714 153.188V167.336H991.943V145.312L983.714 153.188Z" fill="#0158D9"/>
<path d="M744.925 350.446L748.348 350.518C747.911 349.352 746.819 348.477 745.508 348.477C743.833 348.477 742.449 349.862 742.449 351.539C742.449 353.217 743.833 354.602 745.508 354.602C746.892 354.602 748.057 353.654 748.421 352.414L744.925 352.56V350.446Z" fill="#E0E1E4"/>
<path d="M756.65 350.738L748.348 350.52C748.494 350.811 748.567 351.176 748.567 351.54C748.567 351.832 748.494 352.124 748.421 352.416L756.65 352.124V350.738Z" fill="#E0E1E4"/>
<path d="M748.421 350.518L744.998 350.445V352.56L748.494 352.414C748.566 352.123 748.639 351.831 748.639 351.539C748.566 351.175 748.494 350.883 748.421 350.518Z" fill="#E0E1E4"/>
<path d="M928.805 414.256L928.295 427.017C928.295 427.017 928.295 427.601 927.13 427.601C925.965 427.601 925.746 427.017 925.746 427.017V415.131C924.8 415.35 923.78 415.641 922.833 415.86C922.688 419.433 922.542 423.079 922.396 424.1C921.231 424.684 920.576 424.027 920.576 424.027L920.43 416.298C916.643 416.954 912.711 417.318 908.487 417.318C904.919 417.318 901.496 417.027 898.219 416.589L897.709 427.017C897.709 427.017 897.272 427.601 896.398 427.601C895.525 427.601 895.16 427.017 895.16 427.017L895.015 423.007C895.015 423.371 894.942 423.736 894.942 424.246C893.777 424.757 893.194 424.027 893.194 424.027L892.976 415.568C879.503 412.433 870.109 405.286 870.109 397.046C870.109 385.815 887.295 376.773 908.487 376.773C918.61 376.773 927.785 378.815 934.631 382.242V370.574H878.484H878.411V372.106H859.841V372.179H840.907C841.344 374.439 841.562 376.044 841.562 376.044C841.562 376.044 855.763 374.002 859.404 375.095C863.045 376.189 863.992 389.753 863.992 389.753C863.992 389.753 866.249 416.225 862.463 417.391C862.171 417.464 861.807 417.537 861.225 417.61C861.152 417.756 861.152 417.902 861.152 417.902L856.928 417.975C852.631 418.194 846.587 418.266 840.98 418.266L825.905 418.485V433.435H934.631V411.849C932.81 412.797 930.917 413.526 928.805 414.256Z" fill="#D4DCF4"/>
<path d="M870.109 397.046C870.109 405.36 879.503 412.433 892.976 415.569L892.612 400.328L892.539 400.036V395.442H922.906L929.023 403.828V408.058L928.805 414.256C930.917 413.6 932.883 412.798 934.631 411.923V382.243C927.785 378.888 918.61 376.773 908.487 376.773C887.295 376.773 870.109 385.816 870.109 397.046Z" fill="#94B9FF"/>
<path d="M923.052 408.055C923.052 408.055 922.979 411.92 922.833 415.858C923.853 415.639 924.8 415.42 925.746 415.128V408.055H923.052Z" fill="#94B9FF"/>
<path d="M923.052 408.055H898.656L898.219 416.587C901.496 417.097 904.919 417.316 908.487 417.316C912.638 417.316 916.643 416.951 920.43 416.295L920.212 408.128L923.052 408.055Z" fill="#94B9FF"/>
<path d="M910.818 296.922H878.411V366.929H910.818V296.922Z" fill="#1F2D49"/>
<path d="M910.818 366.926H878.411V370.572H878.484H934.631V370.499H910.818V366.926Z" fill="#1F2D49"/>
<path d="M826.706 296.922H825.905V360.876C826.196 359.636 826.488 358.47 826.706 357.595V296.922Z" fill="#383C42"/>
<path d="M840.616 370.574C840.761 371.158 840.834 371.668 840.98 372.179H859.914V372.106V370.574H840.616Z" fill="#1F2D49"/>
<path d="M827.434 355.042C833.989 353.875 837.703 360.73 839.596 366.929H859.841V296.922H826.706V357.595C827.143 355.99 827.434 355.042 827.434 355.042Z" fill="#1F2D49"/>
<path d="M859.841 366.926H839.596C839.96 368.165 840.324 369.405 840.543 370.572H859.768L859.841 366.926Z" fill="#1F2D49"/>
<path d="M892.976 415.566L893.194 424.026C893.194 424.026 893.777 424.755 894.942 424.244C895.015 423.734 895.015 423.296 895.015 423.005L894.796 416.004C894.214 415.858 893.631 415.712 892.976 415.566Z" fill="#0158D9"/>
<path d="M894.578 407.255L892.612 400.254L892.976 415.495C893.558 415.641 894.214 415.787 894.796 415.933L894.578 407.255Z" fill="#0158D9"/>
<path d="M878.411 370.574H859.841V372.106H878.411V370.574Z" fill="#E0E1E4"/>
<path d="M861.953 366.929V356.792H863.992H864.065H864.356H866.104H866.468H866.759H868.216H868.871H869.162H870.328H871.274H876.445V366.929H878.411V296.922H876.445V305.746H861.953V296.922H859.841V366.929H861.953ZM876.445 354.896H874.333H874.114H872.221H872.002H871.93H870.109H869.818H869.672H867.997H867.56H865.885H865.812V354.969L865.157 354.896H861.953V344.76H865.376V344.687L866.031 344.76H867.56H867.997H869.672H869.818H870.109H871.93H872.002H872.221H874.114H874.333H876.445V354.896ZM876.445 342.718H874.915H873.459H872.002H870.546H869.09H869.017H867.56H866.104H864.647H863.191H861.953V332.582H863.191H864.647H866.104H867.56H869.017H869.09H870.546H872.002H873.459H874.915H876.372H876.445V342.718ZM861.953 308.006H876.445V318.143H861.953V308.006ZM861.734 320.33H861.953H863.191H863.336H864.647H864.793H864.939H866.104H866.395H867.56H876.445V330.467H871.711H871.638H868.798H867.56H866.395H866.104H864.939H864.793H864.647H863.336H863.191H861.953H861.734V320.33Z" fill="#E0E1E4"/>
<path d="M876.445 366.926H871.274H870.328H869.162H868.871H868.216H866.759H866.468H866.104H864.356H864.065H863.992H861.953H859.841V370.572H878.411V366.926H876.445Z" fill="#E0E1E4"/>
<path d="M869.162 356.789H868.871V366.925H869.162V356.789Z" fill="#B0B6BF"/>
<path d="M866.759 356.789H866.468V366.925H866.759V356.789Z" fill="#B0B6BF"/>
<path d="M864.356 356.789H864.065V366.925H864.356V356.789Z" fill="#B0B6BF"/>
<path d="M873.241 357.154L875.862 365.686L873.896 366.342L871.274 357.883V366.925H876.445V356.789H871.274V357.737L873.241 357.154Z" fill="#B0B6BF"/>
<path d="M872.003 344.758H871.93V354.894H872.003V344.758Z" fill="#B0B6BF"/>
<path d="M863.701 354.675L865.376 344.758H861.953V354.894H865.157L863.701 354.675Z" fill="#B0B6BF"/>
<path d="M869.818 344.758H869.672V354.894H869.818V344.758Z" fill="#B0B6BF"/>
<path d="M866.031 344.758L867.487 344.977L865.812 354.894H865.885H867.56V344.758H866.031Z" fill="#B0B6BF"/>
<path d="M874.333 344.758H874.114V354.894H874.333V344.758Z" fill="#B0B6BF"/>
<path d="M874.915 332.582H873.459H872.003H870.546H869.09H869.017H867.56H866.104H864.647H863.191H861.953V342.718H863.191H864.647H866.104H867.56H869.017H869.09H870.546H872.003H873.459H874.915H876.372H876.445V332.582H876.372H874.915ZM864.866 342.718H863.409V334.186H864.866V342.718ZM866.468 342.718H865.011V334.186H866.468V342.718ZM868.143 342.718H866.686V334.186H868.143V342.718ZM869.745 342.718H868.289V334.186H869.745V342.718ZM871.42 342.718H869.963V334.186H871.42V342.718ZM873.095 342.718H871.638V334.186H873.095V342.718ZM874.697 342.718H873.241V334.186H874.697V342.718ZM876.372 342.718H874.915V334.186H876.372V342.718Z" fill="#B0B6BF"/>
<path d="M828.454 372.18C829.546 373.274 830.712 375.315 831.877 378.816C836.028 391.577 834.207 404.339 834.207 404.339C834.207 404.339 857.948 403.683 860.205 406.162C862.463 408.642 862.608 408.933 862.463 411.704C862.39 414.038 861.516 416.736 861.225 417.611C861.734 417.538 862.171 417.465 862.463 417.393C866.249 416.226 863.992 389.754 863.992 389.754C863.992 389.754 863.045 376.191 859.404 375.097C855.763 374.003 841.562 376.045 841.562 376.045C841.562 376.045 841.417 374.44 840.907 372.18H828.454Z" fill="white"/>
<path d="M856.928 417.973L840.98 418.264C846.587 418.264 852.631 418.191 856.928 417.973Z" fill="white"/>
<path d="M826.706 357.594C826.488 358.542 826.196 359.636 825.905 360.875V366.928H826.706V357.594Z" fill="white"/>
<path d="M828.454 372.176H840.907C840.834 371.666 840.688 371.155 840.543 370.572H826.633V366.926H825.832V371.01C826.706 371.01 827.507 371.301 828.454 372.176Z" fill="white"/>
<path d="M827.434 355.041C827.434 355.041 827.143 355.989 826.706 357.593V366.928H839.596C837.703 360.729 834.061 353.874 827.434 355.041Z" fill="white"/>
<path d="M826.706 366.926V370.572H840.616C840.324 369.405 840.033 368.165 839.669 366.926H826.706Z" fill="white"/>
<path d="M920.576 424.027C920.576 424.027 921.231 424.683 922.396 424.1C922.542 423.079 922.688 419.433 922.833 415.859C922.032 416.005 921.231 416.151 920.43 416.297L920.576 424.027Z" fill="#0158D9"/>
<path d="M923.052 408.055L920.212 408.128L920.43 416.295C921.231 416.149 922.032 416.003 922.833 415.858C922.979 411.92 923.052 408.055 923.052 408.055Z" fill="#0158D9"/>
<path d="M895.015 421.549C895.015 421.549 895.088 421.913 895.015 423.007L895.16 427.018C895.16 427.018 895.525 427.601 896.398 427.601C897.272 427.601 897.709 427.018 897.709 427.018L898.219 416.59C897.272 416.444 896.326 416.298 895.379 416.152L895.015 421.549Z" fill="#0158D9"/>
<path d="M895.961 408.057L895.379 416.079C896.326 416.225 897.272 416.444 898.219 416.516L898.656 407.984H895.961V408.057Z" fill="#0158D9"/>
<path d="M895.015 421.549L895.379 416.079C895.16 416.007 895.015 416.007 894.796 415.934L895.015 422.934C895.088 421.913 895.015 421.549 895.015 421.549Z" fill="#0158D9"/>
<path d="M894.578 407.254L894.869 415.932C895.088 416.005 895.233 416.005 895.452 416.078L896.034 408.056H894.869L894.578 407.254Z" fill="#0158D9"/>
<path d="M925.746 427.016C925.746 427.016 925.965 427.599 927.13 427.599C928.295 427.599 928.295 427.016 928.295 427.016L928.805 414.254C927.785 414.546 926.839 414.91 925.746 415.129V427.016Z" fill="#0158D9"/>
<path d="M925.746 408.055V415.128C926.766 414.837 927.785 414.545 928.805 414.253L929.023 408.055H925.746Z" fill="#0158D9"/>
<path d="M934.631 366.929V296.922H910.818V366.929H934.631ZM918.537 336.52L924.727 336.665V337.686L918.537 337.978C918.245 338.853 917.372 339.509 916.425 339.509C915.187 339.509 914.167 338.489 914.167 337.249C914.167 336.009 915.187 334.988 916.425 334.988C917.444 334.988 918.245 335.644 918.537 336.52Z" fill="white"/>
<path d="M934.631 366.926H910.818V370.499H934.631V366.926Z" fill="white"/>
<path d="M914.167 337.249C914.167 338.489 915.187 339.51 916.425 339.51C917.444 339.51 918.245 338.853 918.537 337.978L915.988 338.051V336.447L918.537 336.52C918.245 335.645 917.372 334.988 916.425 334.988C915.187 334.988 914.167 336.009 914.167 337.249Z" fill="#E0E1E4"/>
<path d="M918.682 337.249C918.682 337.468 918.61 337.759 918.537 337.978L924.727 337.686V336.665L918.537 336.52C918.61 336.738 918.682 336.957 918.682 337.249Z" fill="#E0E1E4"/>
<path d="M915.988 336.445V338.05L918.537 337.977C918.61 337.758 918.682 337.539 918.682 337.247C918.682 336.956 918.61 336.737 918.537 336.518L915.988 336.445Z" fill="#E0E1E4"/>
<path d="M864.065 366.925V356.789H863.992H861.953V366.925H863.992H864.065Z" fill="#94B9FF"/>
<path d="M866.104 366.925H866.468V356.789H866.104H864.356V366.925H866.104Z" fill="#94B9FF"/>
<path d="M868.216 366.925H868.871V356.789H868.216H866.759V366.925H868.216Z" fill="#94B9FF"/>
<path d="M870.328 366.925H871.274V357.883V357.737V356.789H870.328H869.162V366.925H870.328Z" fill="#94B9FF"/>
<path d="M866.03 344.76L865.376 344.688V344.76H865.885H866.03Z" fill="#0087FA"/>
<path d="M865.812 354.967V354.895H865.157L865.812 354.967Z" fill="#0087FA"/>
<path d="M867.487 344.977L866.031 344.758H865.885H865.376L863.701 354.675L865.157 354.894H865.813L867.487 344.977Z" fill="#0087FA"/>
<path d="M872.221 344.758H872.002V354.894H872.221H874.114V344.758H872.221Z" fill="#0087FA"/>
<path d="M870.109 344.758H869.818V354.894H870.109H871.93V344.758H870.109Z" fill="#0087FA"/>
<path d="M867.997 344.758H867.56V354.894H867.997H869.672V344.758H867.997Z" fill="#0087FA"/>
<path d="M874.333 344.758V354.894H876.445V344.758H874.333Z" fill="#0087FA"/>
<path d="M864.866 334.184H863.409V342.716H864.866V334.184Z" fill="#C1D5FE"/>
<path d="M866.468 334.184H865.011V342.716H866.468V334.184Z" fill="#7DA8FF"/>
<path d="M868.143 334.184H866.686V342.716H868.143V334.184Z" fill="#7DA8FF"/>
<path d="M869.745 334.184H868.288V342.716H869.745V334.184Z" fill="#C1D5FE"/>
<path d="M871.42 334.184H869.964V342.716H871.42V334.184Z" fill="#C1D5FE"/>
<path d="M873.095 334.184H871.638V342.716H873.095V334.184Z" fill="#C1D5FE"/>
<path d="M874.697 334.184H873.241V342.716H874.697V334.184Z" fill="#95B5FC"/>
<path d="M876.372 334.184H874.915V342.716H876.372V334.184Z" fill="#C1D5FE"/>
<path d="M867.56 330.465H868.798V329.371V325.506V324.995C868.798 324.485 869.235 324.047 869.745 324.047H870.692C871.201 324.047 871.638 324.485 871.638 324.995V325.506H871.711V329.371H871.638V330.465H871.711H876.445V320.328H867.56H866.395V330.465H867.56ZM869.526 322.443H870.91V323.974H869.526V322.443Z" fill="#B0B6BF"/>
<path d="M864.939 320.328H864.793V330.465H864.939V320.328Z" fill="#B0B6BF"/>
<path d="M863.336 320.328H863.191V330.465H863.336V320.328Z" fill="#B0B6BF"/>
<path d="M876.445 308.004H861.953V318.14H876.445V308.004ZM872.658 310.41L870.983 313.546V314.786H871.129C871.857 314.786 872.512 315.442 872.512 316.171V318.14H866.832V316.171C866.832 315.442 867.487 314.786 868.216 314.786H868.434V313.473L866.468 310.046C866.395 309.973 866.468 309.827 866.541 309.827C866.614 309.827 866.759 309.827 866.759 309.9L868.871 313.473H869.527L868.871 309.608C868.871 309.535 868.944 309.389 869.017 309.389C869.09 309.389 869.235 309.462 869.235 309.535L869.963 313.4H870.692L872.439 310.192C872.512 310.119 872.585 310.046 872.658 310.119C872.731 310.192 872.731 310.337 872.658 310.41Z" fill="#B0B6BF"/>
<path d="M876.445 305.746V296.922H861.953V305.746H876.445ZM874.187 300.422C874.333 301.735 873.095 301.662 873.168 301.735C873.095 300.422 874.187 300.422 874.187 300.422ZM870.4 299.474C871.566 300.203 870.765 301.079 870.765 301.079C869.745 300.349 870.4 299.474 870.4 299.474ZM867.852 300.131C869.017 300.86 868.216 301.735 868.216 301.735C867.196 301.006 867.852 300.131 867.852 300.131ZM866.249 301.079C867.633 301.151 867.415 302.245 867.415 302.245C866.104 302.172 866.249 301.079 866.249 301.079ZM865.157 301.224C865.448 301.735 865.448 302.099 865.303 302.318H869.017C869.308 301.735 869.891 301.735 869.891 301.735C869.891 301.954 869.891 302.172 869.818 302.318H870.983C871.056 302.027 871.129 301.881 871.129 301.881C871.347 302.027 871.493 302.172 871.638 302.318H873.969C874.187 302.318 874.333 302.464 874.333 302.683V305.308C874.333 305.527 874.187 305.673 873.969 305.673H863.701C863.482 305.673 863.337 305.527 863.337 305.308V302.683C863.337 302.464 863.482 302.318 863.701 302.318H864.429C864.502 301.516 865.157 301.224 865.157 301.224ZM864.356 301.662C863.045 301.662 863.118 300.568 863.118 300.568C864.502 300.495 864.356 301.662 864.356 301.662Z" fill="#B0B6BF"/>
<path d="M864.647 330.465H864.793V320.328H864.647H863.336V330.465H864.647Z" fill="#C1D5FE"/>
<path d="M866.104 330.465H866.395V320.328H866.104H864.939V330.465H866.104Z" fill="#C1D5FE"/>
<path d="M861.953 320.328H861.734V330.465H861.953V320.328Z" fill="#0158D9"/>
<path d="M863.191 320.328H861.953V330.465H863.191V320.328Z" fill="#0158D9"/>
<path d="M875.862 365.688L873.241 357.156L871.274 357.74V357.885L873.896 366.345L875.862 365.688Z" fill="#94B9FF"/>
<path d="M871.638 324.995C871.638 324.484 871.201 324.047 870.692 324.047H869.745C869.235 324.047 868.798 324.484 868.798 324.995V325.505H871.638V324.995Z" fill="#C1D5FE"/>
<path d="M871.638 329.371H868.798V330.465H871.638V329.371Z" fill="#C1D5FE"/>
<path d="M870.91 322.445H869.526V323.977H870.91V322.445Z" fill="#C1D5FE"/>
<path d="M871.711 325.508H871.638V329.373H871.711V325.508Z" fill="#0087FA"/>
<path d="M871.638 325.508H868.798V329.373H871.638V325.508Z" fill="#0087FA"/>
<path d="M864.72 302.827C864.647 302.608 864.575 302.462 864.575 302.316H863.846C863.628 302.316 863.482 302.462 863.482 302.681V305.306C863.482 305.525 863.628 305.671 863.846 305.671H874.114C874.333 305.671 874.479 305.525 874.479 305.306V302.681C874.479 302.462 874.333 302.316 874.114 302.316H871.784C872.221 302.9 871.638 303.483 871.638 303.483C871.056 303.046 871.056 302.608 871.129 302.316H869.963C869.745 303.119 869.017 303.046 869.017 303.046C869.017 302.754 869.017 302.462 869.162 302.316H865.448C865.157 302.681 864.793 302.827 864.72 302.827Z" fill="#0158D9"/>
<path d="M864.356 301.66C864.356 301.66 864.502 300.493 863.118 300.566C863.118 300.566 863.045 301.66 864.356 301.66Z" fill="#C0E5FF"/>
<path d="M869.963 301.734C869.963 301.734 869.308 301.734 869.09 302.318H869.963C869.963 302.172 870.036 301.953 869.963 301.734Z" fill="#C0E5FF"/>
<path d="M869.963 302.316H869.09C869.017 302.462 868.944 302.754 868.944 303.046C868.944 303.046 869.745 303.119 869.963 302.316Z" fill="#C0E5FF"/>
<path d="M874.187 300.422C874.187 300.422 873.095 300.422 873.168 301.735C873.095 301.662 874.333 301.735 874.187 300.422Z" fill="#C0E5FF"/>
<path d="M871.274 301.879C871.274 301.879 871.129 302.025 871.129 302.316H871.784C871.638 302.171 871.493 302.025 871.274 301.879Z" fill="#C0E5FF"/>
<path d="M871.638 303.483C871.638 303.483 872.148 302.9 871.784 302.316H871.129C871.056 302.608 871.056 303.046 871.638 303.483Z" fill="#C0E5FF"/>
<path d="M870.764 301.077C870.764 301.077 871.566 300.202 870.4 299.473C870.4 299.473 869.745 300.348 870.764 301.077Z" fill="#C0E5FF"/>
<path d="M868.216 301.733C868.216 301.733 869.017 300.858 867.852 300.129C867.852 300.129 867.196 301.004 868.216 301.733Z" fill="#C0E5FF"/>
<path d="M865.376 302.317C865.448 302.098 865.448 301.733 865.23 301.223C865.23 301.223 864.502 301.514 864.647 302.317H865.376Z" fill="#C0E5FF"/>
<path d="M864.72 302.827C864.793 302.827 865.157 302.681 865.303 302.316H864.502C864.575 302.462 864.647 302.608 864.72 302.827Z" fill="#C0E5FF"/>
<path d="M867.415 302.245C867.415 302.245 867.633 301.151 866.249 301.078C866.249 301.078 866.104 302.172 867.415 302.245Z" fill="#C0E5FF"/>
<path d="M866.759 309.9C866.686 309.827 866.614 309.754 866.541 309.827C866.468 309.9 866.395 309.973 866.468 310.046L868.434 313.473H868.871L866.759 309.9Z" fill="#0D1B33"/>
<path d="M869.235 309.611C869.235 309.538 869.09 309.465 869.017 309.465C868.944 309.465 868.871 309.611 868.871 309.684L869.527 313.549H869.891L869.235 309.611Z" fill="#0D1B33"/>
<path d="M872.367 310.267L870.619 313.476H870.983V313.549L872.658 310.413C872.731 310.34 872.658 310.194 872.585 310.194C872.512 310.121 872.44 310.194 872.367 310.267Z" fill="#0D1B33"/>
<path d="M895.088 403.682L892.539 395.441V400.036L892.612 400.327V400.036L895.088 403.682Z" fill="#0158D9"/>
<path d="M896.18 405.213L896.034 407.547L898.656 408.057H923.052H925.746H929.023V403.828H897.709H929.023L922.906 395.441H892.539L895.088 403.682L896.18 405.213Z" fill="#0158D9"/>
<path d="M896.18 405.211L895.088 403.68L895.16 403.826L894.869 407.326L896.034 407.545L896.18 405.211Z" fill="#0158D9"/>
<path d="M894.578 407.255L894.869 407.328L895.16 403.827L895.088 403.681L892.612 400.035V400.327L894.578 407.255Z" fill="#0158D9"/>
<path d="M896.034 407.547L895.961 408.057H898.656L896.034 407.547Z" fill="#0158D9"/>
<path d="M894.869 407.327L894.578 407.254L894.796 408.056L894.869 407.327Z" fill="#0158D9"/>
<path d="M894.869 407.328L894.796 408.057H895.961L896.034 407.547L894.869 407.328Z" fill="#0158D9"/>
<path d="M868.434 314.785H868.216C867.487 314.785 866.832 315.441 866.832 316.171V318.14H872.512V316.171C872.512 315.441 871.857 314.785 871.129 314.785H870.983H868.434Z" fill="#94B9FF"/>
<path d="M870.619 314.057C870.473 313.984 870.4 313.911 870.473 313.839L870.619 313.547H869.891V313.766C869.891 313.839 869.818 313.984 869.745 313.984C869.672 313.984 869.599 313.911 869.599 313.839L869.527 313.62H868.871L868.944 313.766C869.017 313.839 868.944 313.984 868.871 313.984H868.798C868.725 313.984 868.653 313.984 868.653 313.911L868.434 313.62V314.932H870.983V313.693L870.765 314.057C870.765 313.984 870.692 314.057 870.619 314.057Z" fill="#94B9FF"/>
<path d="M868.798 313.911C868.944 313.839 869.017 313.766 868.944 313.693L868.871 313.547H868.434L868.653 313.839C868.653 313.839 868.725 313.911 868.798 313.911Z" fill="#94B9FF"/>
<path d="M869.745 313.91C869.745 313.91 869.745 313.837 869.745 313.91C869.891 313.91 869.963 313.764 869.891 313.691V313.473H869.526L869.599 313.691C869.599 313.837 869.672 313.91 869.745 313.91Z" fill="#94B9FF"/>
<path d="M870.619 313.473L870.473 313.764C870.4 313.837 870.473 313.983 870.546 313.983H870.619C870.692 313.983 870.764 313.983 870.764 313.91L870.983 313.546V313.473H870.619Z" fill="#94B9FF"/>
<path d="M861.152 417.901C861.152 417.901 861.225 417.828 861.225 417.609C860.205 417.755 858.676 417.828 856.928 417.974L861.152 417.901Z" fill="#E0E1E4"/>
<path d="M825.905 417.391V418.484L840.98 418.266C833.552 418.193 826.852 417.901 825.905 417.391Z" fill="#E0E1E4"/>
<path d="M840.98 418.193L856.928 417.902C858.749 417.829 860.205 417.683 861.225 417.537C861.516 416.662 862.39 413.891 862.463 411.63C862.608 408.859 862.463 408.567 860.205 406.088C857.948 403.609 834.207 404.265 834.207 404.265C834.207 404.265 836.028 391.503 831.877 378.742C830.712 375.241 829.546 373.199 828.454 372.105H825.905V417.318C826.852 417.902 833.552 418.193 840.98 418.193Z" fill="#E0E1E4"/>
<path d="M825.905 371.012V372.178H828.454C827.507 371.303 826.706 371.012 825.905 371.012Z" fill="#E0E1E4"/>
<path d="M955.167 370.574H940.238V385.669C944.389 388.951 946.865 392.816 946.865 397.046C946.865 401.275 944.389 405.213 940.238 408.422V433.435H999.371V430.153L955.167 370.574Z" fill="#D4DCF4"/>
<path d="M946.865 397.044C946.865 392.815 944.389 388.877 940.238 385.668V408.42C944.462 405.212 946.865 401.274 946.865 397.044Z" fill="#94B9FF"/>
<path d="M940.238 296.922V366.929V370.575H955.167V366.929V296.922H940.238Z" fill="#1F2D49"/>
<path d="M973.3 366.929L970.169 364.231C969.805 363.939 969.586 363.429 969.586 362.918V322.81C969.586 321.716 970.533 320.914 971.407 321.278L987.501 327.623C988.083 327.842 988.447 328.425 988.447 329.154V366.929H999.371V296.922H955.167V366.929H973.3Z" fill="#5CA4E6"/>
<path d="M988.447 376.843C988.447 378.156 987.209 378.958 986.263 378.156L973.3 366.926H955.167V370.572L999.371 430.151V366.926H988.447V376.843Z" fill="#5CA4E6"/>
<path d="M984.442 366.927V329.59C984.442 329.007 984.879 328.569 985.462 328.569C986.044 328.569 986.481 329.007 986.481 329.59V366.927H986.627V329.152C986.627 328.423 986.19 327.84 985.534 327.621L966.819 321.277C965.799 320.912 964.707 321.714 964.707 322.808V362.916C964.707 363.427 964.925 363.937 965.362 364.229L969.004 366.927H984.442Z" fill="#383C42"/>
<path d="M984.078 378.156C985.17 378.958 986.627 378.156 986.627 376.843V366.926H986.481V376.916C986.481 377.5 985.971 377.937 985.462 377.937C984.879 377.937 984.442 377.5 984.442 376.916V366.926H969.004L984.078 378.156Z" fill="#383C42"/>
<path d="M985.462 328.57C984.879 328.57 984.442 329.008 984.442 329.591V366.928H986.481V329.591C986.481 329.008 986.044 328.57 985.462 328.57Z" fill="#080B09"/>
<path d="M984.442 376.916C984.442 377.5 984.879 377.937 985.462 377.937C985.971 377.937 986.481 377.5 986.481 376.916V366.926H984.442V376.916Z" fill="#080B09"/>
<path d="M760 236.905V211.309H745.362V236.394C747.838 236.249 754.538 235.957 760 236.905Z" fill="#D4DCF4"/>
<path d="M760 197.16H745.362V211.307H760V197.16Z" fill="#D4DCF4"/>
<path d="M760 236.905C763.204 237.415 766.044 238.363 767.282 240.041C770.341 243.541 770.195 250.031 770.195 250.031V255.355H783.813V211.309H760V236.905ZM767.282 223.487L773.399 223.706V224.654L767.282 224.872C766.991 225.748 766.117 226.477 765.17 226.477C763.932 226.477 762.913 225.456 762.913 224.216C762.913 222.976 763.932 221.955 765.17 221.955C766.19 221.955 766.991 222.612 767.282 223.487Z" fill="white"/>
<path d="M783.813 197.16H760V211.307H783.813V197.16Z" fill="white"/>
<path d="M762.913 224.214C762.913 225.453 763.932 226.474 765.17 226.474C766.19 226.474 766.991 225.818 767.282 224.87L764.66 225.016V223.412L767.282 223.485C766.991 222.609 766.117 221.953 765.17 221.953C763.932 221.953 762.913 222.974 762.913 224.214Z" fill="#5CA4E6"/>
<path d="M767.428 224.214C767.428 224.432 767.355 224.651 767.282 224.87L773.399 224.651V223.703L767.282 223.484C767.355 223.703 767.428 223.995 767.428 224.214Z" fill="#71B7EA"/>
<path d="M764.66 223.414V225.018L767.282 224.873C767.355 224.654 767.428 224.435 767.428 224.216C767.428 223.997 767.355 223.706 767.282 223.487L764.66 223.414Z" fill="#71B7EA"/>
<path d="M745.362 236.394V255.354H760V236.904C754.538 235.956 747.838 236.248 745.362 236.394Z" fill="#7DA8FF"/>
<path d="M767.282 240.038C766.044 238.434 763.204 237.413 760 236.902V255.352H770.195V250.029C770.195 250.029 770.341 243.538 767.282 240.038Z" fill="#7DA8FF"/>
<path d="M718.636 164.637V139.332H659.576L690.599 164.637H718.636Z" fill="#1F2D49"/>
<path d="M690.599 214.882V230.633V230.706C694.75 231.217 695.842 233.623 695.842 233.623L698.61 236.905C698.61 236.905 699.119 237.124 699.702 237.488L700.284 237.415C700.284 237.415 704.363 235.665 708.077 237.853C708.077 237.853 709.315 237.707 712.664 236.759C715.286 236.03 717.689 236.759 718.636 237.124V211.309H690.599V214.882Z" fill="#D4DCF4"/>
<path d="M718.636 164.637H690.599V211.308H718.636V164.637Z" fill="#D4DCF4"/>
<path d="M690.599 211.309H683.244L690.599 214.882V211.309Z" fill="#5CA4E6"/>
<path d="M655.862 198.109L683.244 211.308H690.599V164.637L659.576 139.332H655.862V198.109Z" fill="#5CA4E6"/>
<path d="M686.958 242.665V242.009C685.21 241.863 683.535 241.717 682.952 241.645L686.958 242.665Z" fill="#0087FA"/>
<path d="M670.208 240.478V237.634C670.208 236.686 670.937 235.811 671.883 235.592C671.301 233.988 671.009 232.311 670.791 230.779L669.48 228.592C669.407 228.446 669.407 228.227 669.626 228.081C669.771 228.008 669.99 228.008 670.135 228.227L670.645 229.102C670.572 227.571 670.572 226.55 670.572 226.55C670.572 226.55 670.791 224.435 673.922 227.789C673.922 227.789 675.597 228.519 677.782 229.175L678.073 228.664C678.146 228.519 678.365 228.446 678.583 228.519C678.729 228.592 678.802 228.81 678.729 229.029L678.51 229.394C679.603 229.685 680.768 229.977 681.933 230.123C682.37 230.196 682.88 230.342 683.317 230.633C683.317 230.633 683.317 230.633 683.389 230.633C683.608 230.633 684.482 230.706 688.633 230.633C689.361 230.633 689.944 230.633 690.526 230.706V230.633V214.882L680.695 211.309H655.789V255.355H658.047V240.478H670.208Z" fill="#0087FA"/>
<path d="M689.579 238.288L688.633 237.121C688.851 237.559 689.07 237.923 689.215 238.288H689.579Z" fill="#0087FA"/>
<path d="M678.583 240.914V255.353H678.656V240.914H678.583Z" fill="#0087FA"/>
<path d="M655.862 202.266V211.308H680.768L655.862 202.266Z" fill="#0087FA"/>
<path d="M690.599 214.882L683.244 211.309H683.098L690.599 214.882Z" fill="#0087FA"/>
<path d="M680.768 211.309L690.599 214.882L683.098 211.309H680.768Z" fill="#0087FA"/>
<path d="M683.098 211.309L655.862 198.328V202.266L680.768 211.309H683.098Z" fill="#0087FA"/>
<path d="M683.244 211.309L655.862 198.109V198.328L683.098 211.309H683.244Z" fill="#0087FA"/>
<path d="M699.702 237.489C699.192 237.197 698.61 236.906 698.61 236.906L695.842 233.624C695.842 233.624 694.75 231.217 690.599 230.707V238.218L699.702 237.489Z" fill="white"/>
<path d="M683.462 230.633C685.501 231.873 687.467 234.862 688.705 237.123L689.652 238.29L690.672 238.217V230.706C690.089 230.633 689.507 230.633 688.778 230.633C684.555 230.706 683.608 230.706 683.462 230.633Z" fill="white"/>
<path d="M712.664 236.757C709.315 237.705 708.077 237.851 708.077 237.851C704.363 235.663 700.284 237.414 700.284 237.414L699.702 237.487C700.649 238.07 701.668 238.872 699.993 239.164C697.371 239.601 692.638 241.57 691.618 240.841L690.599 239.601V240.112C691.4 240.549 692.565 241.424 691.546 241.862C691.327 241.935 691.036 242.008 690.599 242.081V255.353H718.636V237.122C717.689 236.757 715.286 236.028 712.664 236.757Z" fill="#94B9FF"/>
<path d="M689.288 238.289C689.725 239.164 689.944 239.748 689.944 239.748C689.944 239.748 690.235 239.893 690.599 240.112V239.602L689.579 238.289H689.288Z" fill="#94B9FF"/>
<path d="M686.958 242.008V242.664H687.031V255.353H690.599V242.081C689.652 242.154 688.269 242.081 686.958 242.008Z" fill="#94B9FF"/>
<path d="M690.599 239.603L691.618 240.843C692.638 241.572 697.371 239.603 699.993 239.166C701.668 238.874 700.649 238.072 699.702 237.488L690.599 238.218V239.603Z" fill="#94B9FF"/>
<path d="M689.579 238.288L690.599 239.6V238.215L689.579 238.288Z" fill="#94B9FF"/>
<path d="M673.413 233.769H674.141L672.976 227.862C672.903 227.644 673.048 227.498 673.267 227.425C673.485 227.352 673.631 227.498 673.704 227.716L674.869 233.696V233.769H675.524L677.928 229.248C675.743 228.592 674.068 227.862 674.068 227.862C670.937 224.508 670.718 226.623 670.718 226.623C670.718 226.623 670.645 227.644 670.791 229.175L673.485 233.623C673.413 233.623 673.413 233.696 673.413 233.769Z" fill="white"/>
<path d="M672.539 235.592V233.769H672.611L670.864 230.852C671.009 232.383 671.373 234.06 671.956 235.665C672.102 235.665 672.175 235.665 672.32 235.665L672.539 235.592Z" fill="white"/>
<path d="M689.288 238.291C689.142 237.927 688.924 237.562 688.706 237.124L683.462 230.634C683.025 230.343 682.515 230.197 682.079 230.124C680.913 229.978 679.748 229.686 678.656 229.395L676.398 233.77V235.593H676.544C677.636 235.593 678.583 236.468 678.583 237.635V240.479H678.656V240.917H678.729V240.479L683.025 241.573C683.608 241.646 685.283 241.865 687.031 241.937V238.437L689.288 238.291Z" fill="white"/>
<path d="M688.633 237.123C687.395 234.862 685.501 231.873 683.389 230.633L688.633 237.123Z" fill="white"/>
<path d="M691.546 241.863C692.565 241.426 691.4 240.551 690.599 240.113V242.082C691.036 242.009 691.327 241.936 691.546 241.863Z" fill="white"/>
<path d="M689.288 238.289L686.958 238.508V242.008C688.269 242.081 689.652 242.154 690.599 242.081V240.112C690.235 239.893 689.944 239.748 689.944 239.748C689.944 239.748 689.725 239.164 689.288 238.289Z" fill="white"/>
<path d="M675.67 240.477H670.208H658.12V255.353H678.583V240.914L675.67 240.477Z" fill="#0158D9"/>
<path d="M678.51 240.477H678.437H675.67L678.583 240.914V240.477H678.51Z" fill="#0158D9"/>
<path d="M682.952 241.57C682.807 241.57 682.734 241.57 682.734 241.57L678.656 240.914V255.353H686.958V242.664L682.952 241.57Z" fill="#0158D9"/>
<path d="M686.958 242.664V255.353H687.031V242.664H686.958Z" fill="#0158D9"/>
<path d="M678.656 240.914L682.734 241.57C682.734 241.57 682.807 241.57 682.952 241.57L678.656 240.477V240.914Z" fill="#0158D9"/>
<path d="M670.135 228.225C670.063 228.079 669.771 228.006 669.626 228.079C669.48 228.152 669.407 228.371 669.48 228.59L670.791 230.778C670.718 230.194 670.645 229.611 670.645 229.1L670.135 228.225Z" fill="#012481"/>
<path d="M673.413 233.769C673.413 233.696 673.413 233.623 673.34 233.55L670.645 229.102C670.645 229.612 670.718 230.195 670.791 230.779L672.539 233.696L673.413 233.769Z" fill="#012481"/>
<path d="M674.869 233.697L673.704 227.717C673.631 227.498 673.485 227.352 673.267 227.425C673.048 227.498 672.976 227.644 672.976 227.863L674.141 233.77L674.869 233.697C674.869 233.77 674.869 233.697 674.869 233.697Z" fill="#012481"/>
<path d="M678.801 229.027C678.874 228.882 678.801 228.663 678.656 228.517C678.51 228.444 678.292 228.517 678.146 228.663L677.855 229.173C678.073 229.246 678.292 229.319 678.583 229.392L678.801 229.027Z" fill="#012481"/>
<path d="M675.524 233.77H676.325L678.583 229.395C678.365 229.322 678.073 229.249 677.855 229.176L675.524 233.77Z" fill="#012481"/>
<path d="M671.956 235.59C670.937 235.736 670.281 236.611 670.281 237.632V240.476H675.743C673.849 239.601 672.684 237.705 671.956 235.59Z" fill="#C1D5FE"/>
<path d="M678.51 240.476V237.632C678.51 236.465 677.563 235.59 676.471 235.59H676.325V235.663H672.539V235.59H672.247C672.102 235.59 672.029 235.59 671.883 235.59C672.611 237.705 673.777 239.528 675.67 240.476H678.51Z" fill="#C1D5FE"/>
<path d="M675.743 234.425C675.67 234.425 675.597 234.425 675.597 234.352C675.452 234.279 675.379 234.06 675.452 233.841L675.524 233.695H674.869C674.869 233.841 674.723 233.987 674.578 234.06H674.505C674.359 234.06 674.214 233.914 674.141 233.768V233.695H673.413C673.413 233.841 673.34 233.914 673.267 233.987C673.194 233.987 673.121 234.06 673.048 234.06C672.903 234.06 672.83 233.987 672.757 233.914L672.611 233.695H672.539V235.518H676.325V233.695L676.107 234.133C676.034 234.352 675.889 234.425 675.743 234.425Z" fill="#C1D5FE"/>
<path d="M673.048 234.134C673.121 234.134 673.194 234.134 673.267 234.061C673.413 233.988 673.413 233.842 673.413 233.77H672.611L672.757 233.988C672.83 234.061 672.903 234.134 673.048 234.134Z" fill="#C1D5FE"/>
<path d="M674.505 234.134C674.505 234.134 674.578 234.134 674.505 234.134C674.723 234.061 674.869 233.915 674.869 233.77H674.141V233.842C674.214 233.988 674.359 234.134 674.505 234.134Z" fill="#C1D5FE"/>
<path d="M675.452 233.913C675.379 234.059 675.452 234.277 675.597 234.423C675.67 234.423 675.743 234.496 675.743 234.496C675.889 234.496 676.034 234.423 676.034 234.277L676.253 233.84L675.452 233.913Z" fill="#C1D5FE"/>
<path d="M676.325 235.59H672.539V235.663H676.325V235.59Z" fill="#C1D5FE"/>
<path d="M783.813 139.332H745.362V164.637H783.813V139.332Z" fill="#1F2D49"/>
<path d="M760 192.494V180.607H783.813V164.637H745.362V192.494H760Z" fill="#D4DCF4"/>
<path d="M783.813 180.605H760V192.492H783.813V180.605Z" fill="white"/>
<path d="M1063.97 423.662C1063.97 423.662 1060.03 409.806 1062 406.452C1063.89 403.097 1074.82 414.182 1074.82 414.182C1074.82 414.182 1067.61 386.398 1077.8 384.064C1088 381.731 1093.24 397.774 1092.8 410.025C1092.8 410.025 1101.47 395.44 1109.48 395.586C1117.49 395.805 1099.58 415.786 1099.58 415.786C1099.58 415.786 1116.33 407.473 1118 413.307C1119.68 419.141 1106.35 423.662 1100.38 423.662C1094.26 423.662 1063.97 423.662 1063.97 423.662Z" fill="#7DA8FF"/>
<path d="M1081.88 400.398L1085.52 423.661" stroke="#383C42" stroke-width="2" stroke-miterlimit="10"/>
<path d="M1087.05 402.879L1083.12 408.348" stroke="#383C42" stroke-width="2" stroke-miterlimit="10"/>
<path d="M1084.72 418.851L1078.68 415.059" stroke="#383C42" stroke-width="2" stroke-miterlimit="10"/>
<path d="M1179.68 423.664C1179.68 423.664 1184.63 406.308 1182.16 402.151C1179.76 397.922 1166.14 411.85 1166.14 411.85C1166.14 411.85 1175.17 377.066 1162.42 374.149C1149.68 371.232 1143.12 391.286 1143.63 406.6C1143.63 406.6 1132.78 388.369 1122.73 388.515C1112.68 388.806 1135.11 413.819 1135.11 413.819C1135.11 413.819 1114.14 403.391 1112.03 410.684C1109.92 417.976 1126.59 423.664 1134.09 423.664C1141.74 423.664 1179.68 423.664 1179.68 423.664Z" fill="#C2D7FF"/>
<path d="M1157.25 394.566L1152.66 423.663" stroke="#383C42" stroke-width="2" stroke-miterlimit="10"/>
<path d="M1150.77 397.703L1155.72 404.485" stroke="#383C42" stroke-width="2" stroke-miterlimit="10"/>
<path d="M1153.68 417.684L1161.26 412.871" stroke="#383C42" stroke-width="2" stroke-miterlimit="10"/>
<path d="M631.539 423.662C631.539 423.662 635.471 409.806 633.505 406.452C631.539 403.097 620.688 414.182 620.688 414.182C620.688 414.182 627.898 386.398 617.702 384.064C607.507 381.731 602.264 397.774 602.701 410.025C602.701 410.025 594.035 395.44 586.024 395.586C578.014 395.805 595.928 415.786 595.928 415.786C595.928 415.786 579.179 407.473 577.504 413.307C575.829 419.141 589.156 423.662 595.127 423.662C601.099 423.662 631.539 423.662 631.539 423.662Z" fill="#0087FA"/>
<path d="M613.624 400.398L609.983 423.661" stroke="#383C42" stroke-width="2" stroke-miterlimit="10"/>
<path d="M608.454 402.879L612.386 408.348" stroke="#383C42" stroke-width="2" stroke-miterlimit="10"/>
<path d="M610.784 418.851L616.829 415.059" stroke="#383C42" stroke-width="2" stroke-miterlimit="10"/>
<path d="M731.307 423.661H630.956C630.956 423.661 620.98 409.805 628.043 402.075C635.18 394.418 646.686 396.752 653.386 410.17C653.386 410.17 641.88 376.625 655.862 371.447C669.844 366.27 691.254 405.211 691.254 405.211C691.254 405.211 695.332 368.458 709.315 371.01C723.297 373.562 717.762 408.93 716.524 410.608C716.524 410.608 729.705 397.554 732.982 399.596C736.332 401.711 731.307 423.661 731.307 423.661Z" fill="#7DA8FF"/>
<path d="M706.547 399.305L702.105 423.661" stroke="#383C42" stroke-width="2" stroke-miterlimit="10"/>
<path d="M697.881 404.848L703.562 415.495" stroke="#383C42" stroke-width="2" stroke-miterlimit="10"/>
<path d="M662.489 393.031L667.732 423.659" stroke="#383C42" stroke-width="2" stroke-miterlimit="10"/>
<path d="M668.242 396.535L664.31 403.463" stroke="#383C42" stroke-width="2" stroke-miterlimit="10"/>
<path d="M659.94 407.762L665.912 413.012" stroke="#383C42" stroke-width="2" stroke-miterlimit="10"/>
<path d="M1182.38 409.878L1155.43 445.757C1154.78 446.632 1153.83 447.142 1152.81 447.288C1151.79 447.434 1150.7 447.142 1149.82 446.559L1147.35 444.663L1179.1 402.367L1181.58 404.263C1182.45 404.92 1182.96 405.868 1183.1 406.888C1183.32 407.909 1183.03 409.003 1182.38 409.878Z" fill="#5661AE"/>
<path d="M1156.96 388.805L1166.65 396.68L1156.74 411.922L1145.75 403.535L1156.96 388.805Z" fill="white"/>
<path d="M1161.26 392.668L1149.17 405.867L1146.26 403.534L1157.62 389.605L1161.26 392.668Z" fill="#7DC1FF" stroke="#7DC1FF" stroke-linecap="round" stroke-linejoin="round"/>
<path d="M1165.34 395.73C1165.34 395.73 1162.64 405.356 1153.61 410.242L1145.46 442.037C1145.75 443.86 1147.79 445.026 1149.1 445.464C1149.39 445.537 1149.68 445.537 1150.04 445.464C1150.33 445.391 1150.63 445.172 1150.77 444.954L1179.61 406.596C1180.12 405.939 1180.26 405.137 1180.19 404.335C1180.12 403.533 1179.68 402.804 1179.03 402.293C1176.48 400.324 1172.62 397.334 1170.94 396.313C1168.47 394.782 1166.65 394.417 1165.34 395.73Z" fill="#1C85E8"/>
<path d="M1151.79 416.88L1156.38 415.859C1156.52 415.859 1156.74 415.859 1156.89 415.859C1157.03 415.932 1157.18 416.005 1157.33 416.078C1157.47 416.224 1157.54 416.37 1157.62 416.516C1157.69 416.662 1157.69 416.88 1157.62 417.026C1157.54 417.245 1157.47 417.464 1157.33 417.61C1157.18 417.755 1156.96 417.828 1156.82 417.901L1151.14 419.068L1151.79 416.88Z" fill="white"/>
<path d="M1150.7 421.912L1155.29 420.891C1155.43 420.891 1155.65 420.891 1155.8 420.891C1155.94 420.964 1156.09 421.036 1156.23 421.109C1156.38 421.255 1156.45 421.401 1156.52 421.547C1156.6 421.693 1156.6 421.912 1156.6 422.057C1156.52 422.276 1156.45 422.495 1156.31 422.641C1156.16 422.787 1155.94 422.86 1155.8 422.932L1150.19 424.099L1150.7 421.912Z" fill="white"/>
<path d="M1149.24 427.455L1153.76 426.434C1153.9 426.434 1154.12 426.434 1154.27 426.434C1154.41 426.507 1154.56 426.579 1154.7 426.652C1154.85 426.798 1154.92 426.944 1154.99 427.09C1155.07 427.236 1155.07 427.455 1154.99 427.6C1154.92 427.819 1154.85 428.038 1154.7 428.184C1154.56 428.33 1154.34 428.403 1154.19 428.475L1148.66 429.569L1149.24 427.455Z" fill="white"/>
<path d="M1064.55 347.018L1141.52 409.076L1159.07 388.584L1091.78 325.359L1064.55 347.018Z" fill="#1F2D49"/>
<path d="M1105.84 338.559V380.271L1141.52 409.076L1146.62 376.917L1105.84 338.559Z" fill="#0D1B33"/>
<path d="M1071.39 232.891L1058.72 333.89H1094.11L1124.85 233.401L1071.39 232.891Z" fill="#1F2D49"/>
<path d="M1101.76 308.88L1107.73 258.781H1122.37L1101.76 308.88Z" fill="#0D1B33"/>
<path d="M1133.51 448.018H1088.65C1087.56 448.018 1086.61 447.58 1085.81 446.851C1085.08 446.122 1084.65 445.101 1084.65 444.007V440.871H1137.44V444.007C1137.44 445.101 1137.01 446.049 1136.28 446.851C1135.55 447.653 1134.53 448.018 1133.51 448.018Z" fill="#5661AE"/>
<path d="M1134.97 415.055L1134.53 427.598L1116.4 428.837L1116.47 415.055H1134.97Z" fill="white"/>
<path d="M1134.53 420.816L1116.69 419.065L1116.76 415.273L1134.68 415.93L1134.53 420.816Z" fill="#7DC1FF" stroke="#7DC1FF" stroke-linecap="round" stroke-linejoin="round"/>
<path d="M1134.53 425.922C1134.53 425.922 1125.21 429.495 1115.89 425.266L1085.59 437.954C1084.28 439.267 1084.57 441.601 1085.08 442.913C1085.16 443.205 1085.38 443.497 1085.67 443.642C1085.96 443.788 1086.25 443.934 1086.54 443.934H1134.46C1135.26 443.934 1136.06 443.642 1136.57 443.059C1137.15 442.476 1137.44 441.746 1137.52 440.944C1137.59 437.736 1137.66 432.85 1137.44 430.881C1137.15 427.818 1136.28 426.141 1134.53 425.922Z" fill="#1C85E8"/>
<path d="M1109.48 427.746L1113.05 430.882C1113.19 431.028 1113.27 431.174 1113.34 431.319C1113.41 431.465 1113.41 431.684 1113.41 431.83C1113.41 431.976 1113.34 432.194 1113.19 432.34C1113.12 432.486 1112.98 432.632 1112.83 432.705C1112.61 432.778 1112.39 432.851 1112.25 432.778C1112.03 432.778 1111.81 432.632 1111.66 432.486L1107.37 428.621L1109.48 427.746Z" fill="white"/>
<path d="M1104.82 429.934L1108.39 432.996C1108.53 433.142 1108.61 433.288 1108.68 433.434C1108.75 433.58 1108.75 433.799 1108.75 433.944C1108.75 434.09 1108.68 434.309 1108.53 434.455C1108.46 434.601 1108.32 434.747 1108.17 434.82C1107.95 434.892 1107.73 434.965 1107.59 434.892C1107.37 434.892 1107.15 434.747 1107 434.601L1102.71 430.809L1104.82 429.934Z" fill="white"/>
<path d="M1099.58 432.121L1103.14 435.184C1103.29 435.33 1103.36 435.476 1103.44 435.621C1103.51 435.767 1103.51 435.986 1103.51 436.132C1103.51 436.278 1103.44 436.497 1103.29 436.642C1103.22 436.788 1103.07 436.934 1102.93 437.007C1102.71 437.08 1102.49 437.153 1102.34 437.08C1102.13 437.08 1101.91 436.934 1101.76 436.788L1097.54 433.069L1099.58 432.121Z" fill="white"/>
<path d="M1146.26 233.402C1145.96 238.507 1145.96 243.685 1146.26 248.789C1147.42 265.343 1143.71 313.692 1143.71 320.036C1143.71 326.38 1139.56 416.004 1139.56 416.004H1114.14C1114.14 416.004 1107.66 338.996 1107.51 330.172C1107.37 321.349 1105.84 233.767 1105.84 233.767L1146.26 233.402Z" fill="#1F2D49"/>
<path d="M1070.59 239.017L1146.26 248.789V233.402L1070.96 235.882L1070.59 239.017Z" fill="#0D1B33"/>
<path d="M1076.42 351.613C1086.18 351.613 1094.11 343.664 1094.11 333.892C1094.11 324.121 1086.18 316.172 1076.42 316.172C1066.66 316.172 1058.72 324.121 1058.72 333.892C1058.72 343.664 1066.66 351.613 1076.42 351.613Z" fill="#1F2D49"/>
<path d="M1082.9 143.194C1085.01 132.766 1080.06 133.058 1078.38 131.381C1078.38 131.381 1072.19 126.276 1067.46 131.016C1062.44 136.048 1033.82 175.281 1033.82 175.281L1051.73 191.835L1055.08 187.824L1063.82 177.396L1073.14 166.238L1074.31 164.999L1086.9 150.706C1086.98 150.633 1081.73 148.737 1082.9 143.194Z" fill="#0074E6"/>
<path d="M1090.4 145.017C1092.8 137.798 1088.94 129.995 1081.73 127.515C1074.52 125.109 1066.73 128.974 1064.26 136.193C1061.85 143.413 1065.71 151.216 1072.92 153.695C1080.21 156.102 1088 152.237 1090.4 145.017Z" fill="#0074E6"/>
<path d="M1074.16 164.929C1074.52 162.741 1075.25 158.366 1076.05 154.428L1080.21 135.176C1080.21 135.176 1069.06 151.657 1063.97 163.106C1060.18 171.711 1055.81 180.462 1055.08 187.827L1063.82 177.399L1073.14 166.241L1074.16 164.929Z" fill="#0058D6"/>
<path d="M1015.9 131.162C1011.61 123.359 1013.72 122.046 1011.9 117.598C1010.08 113.295 1013.28 102.575 1010.22 104.034C1007.16 105.492 1006.22 109.357 1006.22 109.357C1004.1 105.711 1002.21 98.9292 997.259 98.127C992.307 97.3249 991.87 98.9292 989.03 101.263C981.529 107.534 991.069 116.868 992.671 120.442C993.691 122.702 1001.26 129.484 1002.07 131.016L1005.85 136.558L1015.9 131.162Z" fill="white"/>
<path d="M1001.26 109.871L995.22 98.6406" stroke="#7DC1FF" stroke-linecap="round" stroke-linejoin="round"/>
<path d="M997.259 111.694L990.632 101.266" stroke="#7DC1FF" stroke-linecap="round" stroke-linejoin="round"/>
<path d="M992.526 113.735L988.739 107.391" stroke="#7DC1FF" stroke-linecap="round" stroke-linejoin="round"/>
<path d="M1002.72 119.714C1002.72 115.849 1005.05 111.109 1005.05 111.109" stroke="#7DC1FF" stroke-linecap="round" stroke-linejoin="round"/>
<path d="M1051.88 174.991L1015.39 126.35C1015.17 126.059 1014.81 125.84 1014.45 125.84C1014.08 125.767 1013.72 125.84 1013.43 126.059L1003.89 132.403C1003.45 132.695 1003.08 133.205 1003.01 133.716C1002.87 134.226 1002.94 134.809 1003.23 135.32L1032.58 189.502L1051.88 174.991Z" fill="#0074E6"/>
<path d="M1042.99 195.557C1049.76 195.557 1055.23 190.088 1055.23 183.306C1055.23 176.524 1049.76 171.055 1042.99 171.055C1036.22 171.055 1030.76 176.524 1030.76 183.306C1030.76 190.088 1036.29 195.557 1042.99 195.557Z" fill="#0074E6"/>
<path d="M1094.04 120.371C1094.04 120.371 1076.2 126.059 1072.7 127.518C1069.21 128.976 1068.99 134.883 1068.7 139.04C1068.55 141.957 1071.83 189.941 1072.05 217.725C1072.12 223.631 1070.96 227.423 1070.3 230.705C1069.57 233.987 1070.3 235.81 1070.3 235.81L1146.62 236.466C1146.62 236.466 1144.36 139.915 1143.85 136.487C1143.42 133.06 1147.06 130.07 1143.05 128.393L1113.92 120.371H1094.04Z" fill="#1F2D49"/>
<path d="M1084.5 123.508C1084.5 123.508 1087.41 136.853 1089.31 147.5C1091.2 158.147 1091.78 246.385 1091.78 246.385C1091.78 246.385 1069.5 242.009 1066.44 236.905C1063.46 231.8 1069.21 208.756 1069.72 187.827C1070.16 166.898 1065.79 134.373 1070.37 128.758C1070.37 128.685 1071.54 127.519 1084.5 123.508Z" fill="#0074E6"/>
<path d="M1121.93 122.633C1121.93 122.633 1111.37 144.729 1112.03 151.438C1112.68 158.147 1112.68 215.538 1112.03 227.497C1111.59 234.79 1110.5 242.009 1108.75 249.083C1108.75 249.083 1137.59 251.125 1148.73 247.624C1148.73 247.624 1154.05 214.225 1150.55 202.339C1147.06 190.452 1144.44 128.467 1144.44 128.467L1121.93 122.633Z" fill="#0074E6"/>
<path d="M1129.73 152.31C1129.73 152.31 1130.82 192.272 1130.6 205.618C1130.45 213.931 1120.99 217.431 1120.91 222.244C1120.91 225.088 1128.41 221.734 1130.45 224.724C1132.49 227.641 1130.45 231.797 1129 236.902C1127.54 241.934 1142.03 244.486 1146.55 236.537C1151.06 228.589 1153.32 209.191 1150.33 198.981L1138.76 150.195L1129.73 152.31Z" fill="#0058D6"/>
<path d="M1094.41 111.474L1092.73 130.142C1092.73 130.142 1092.29 133.059 1097.32 133.934C1101.32 134.663 1109.63 129.996 1111.45 128.392C1115.6 124.964 1115.96 122.85 1115.52 121.318C1114.87 119.058 1112.83 102.941 1112.83 102.941L1094.41 111.474Z" fill="white"/>
<path d="M1093.31 126.714L1094.33 115.192L1103.22 110.816L1093.31 126.714Z" fill="#7DC1FF" stroke="#7DC1FF" stroke-linecap="round" stroke-linejoin="round"/>
<path d="M1084.57 76.179C1084.57 76.179 1081.15 91.4201 1080.71 101.775C1080.28 112.276 1083.99 114.245 1088.65 115.047C1092.29 115.631 1097.97 115.704 1101.54 113.954C1108.02 110.672 1118.73 102.796 1120.11 101.265C1122.3 98.8583 1122.15 88.2844 1113.85 85.6591C1107.88 83.7631 1092.51 67.574 1084.57 76.179Z" fill="white"/>
<path d="M1084.57 77.855C1089.53 79.824 1098.78 78.5114 1103.95 80.1886C1109.04 81.8659 1104.38 83.616 1104.6 88.5749C1104.75 91.7835 1104.97 97.9091 1106.93 97.7633C1108.9 97.6904 1110.06 90.7626 1114.14 90.9814C1118.29 91.273 1120.19 93.0232 1120.11 95.6485C1120.04 98.2737 1117.05 100.607 1114.72 101.774C1111.81 103.305 1110.57 102.649 1110.57 102.649C1110.57 102.649 1113.85 114.827 1114.36 114.317C1114.36 114.317 1117.93 112.275 1118.58 108.775C1118.58 108.775 1123.32 107.754 1122.22 103.014C1122.22 103.014 1125.14 102.066 1123.75 99.3676C1123.75 99.3676 1131.33 94.2629 1127.39 87.9915C1127.39 87.9915 1130.96 84.4182 1126.67 82.8868C1126.67 82.8868 1132.35 74.5735 1124.26 72.7504C1124.26 72.7504 1124.77 68.8125 1121.06 68.9583C1121.06 68.9583 1119.46 62.1764 1111.3 64.8746C1111.23 63.489 1110.79 62.2493 1109.99 61.0825C1109.19 59.9158 1108.1 59.1865 1106.79 58.676C1102.2 56.853 1099.21 59.4053 1099.21 59.4053C1099.21 59.4053 1094.41 55.4674 1091.86 61.2284C1091.86 61.2284 1088.22 59.3324 1085.45 61.3742C1082.68 63.3432 1084.06 67.4998 1084.06 67.4998C1084.06 67.4998 1080.93 66.7706 1079.77 69.3229C1078.17 72.9691 1080.42 74.2818 1080.42 74.2818C1080.42 74.2818 1075.33 80.3345 1082.46 86.0225L1084.57 77.855Z" fill="#383C42"/>
<path d="M1097.03 92.878C1097.32 91.6383 1096.88 90.4715 1096.08 90.3257C1095.28 90.1798 1094.41 90.982 1094.11 92.2217C1093.82 93.4614 1094.26 94.6282 1095.06 94.774C1095.86 94.9199 1096.74 94.1177 1097.03 92.878Z" fill="#080B09"/>
<path d="M1085.96 90.3975C1086.25 89.1578 1085.81 87.991 1085.01 87.8452C1084.21 87.6993 1083.34 88.5015 1083.05 89.7412C1082.75 90.9809 1083.19 92.1477 1083.99 92.2936C1084.79 92.4394 1085.67 91.5643 1085.96 90.3975Z" fill="#080B09"/>
<path d="M1088.14 93.6094C1088.14 93.6094 1089.53 96.2346 1087.56 96.3076C1085.67 96.3076 1084.57 97.4014 1086.47 99.0057" stroke="#0087FA" stroke-width="1.0783" stroke-linecap="round"/>
<path d="M1086.76 101.484C1087.92 101.557 1090.33 101.776 1091.86 101.849C1091.93 101.849 1091.93 101.849 1092 101.922C1092.08 101.922 1092.08 101.995 1092.08 101.995C1092.08 102.068 1092.08 102.068 1092.08 102.141C1092.08 102.214 1092.08 102.214 1092 102.287C1091.64 102.651 1091.2 103.089 1090.69 103.526C1090.18 103.891 1089.67 104.255 1089.09 104.328C1088.58 104.474 1088.07 104.401 1087.63 104.037C1087.2 103.672 1086.76 103.016 1086.47 101.776V101.703C1086.47 101.703 1086.47 101.63 1086.54 101.63L1086.61 101.557C1086.69 101.484 1086.69 101.484 1086.76 101.484Z" fill="#0087FA" stroke="#0087FA"/>
<path d="M1101.91 85.1486V85.3673C1101.91 85.732 1101.76 86.0966 1101.54 86.3153C1101.25 86.607 1100.96 86.7529 1100.6 86.7529L1094.33 86.68C1094.04 86.68 1093.75 86.607 1093.53 86.3883C1093.31 86.1695 1093.17 85.8778 1093.09 85.5861C1093.09 85.3673 1093.09 85.2215 1093.09 85.0027C1093.17 84.8569 1093.24 84.6381 1093.31 84.4923C1093.46 84.3464 1093.6 84.2006 1093.75 84.1276C1093.9 84.0547 1094.11 83.9818 1094.26 83.9818L1100.52 83.8359C1100.67 83.8359 1100.89 83.8359 1101.03 83.9089C1101.18 83.9818 1101.32 84.0547 1101.47 84.1276C1101.62 84.2735 1101.69 84.3464 1101.76 84.5652C1101.91 84.7839 1101.91 85.0027 1101.91 85.1486Z" fill="#080B09"/>
<path d="M1082.75 82.1589L1088.87 83.6903C1089.02 83.7632 1089.24 83.8361 1089.38 83.909C1089.53 84.0549 1089.67 84.2007 1089.75 84.3466C1089.82 84.4924 1089.89 84.7112 1089.89 84.857C1089.89 85.0758 1089.89 85.2217 1089.82 85.3675C1089.75 85.6592 1089.53 85.878 1089.24 86.0238C1088.94 86.1697 1088.65 86.1697 1088.36 86.0968L1082.24 84.7841C1081.88 84.7112 1081.59 84.4924 1081.37 84.2007C1081.15 83.909 1081.15 83.5444 1081.22 83.1798V82.961C1081.3 82.8152 1081.37 82.6693 1081.44 82.5235C1081.52 82.3776 1081.66 82.3047 1081.81 82.2318C1081.95 82.1589 1082.1 82.0859 1082.32 82.0859C1082.39 82.0859 1082.54 82.0859 1082.75 82.1589Z" fill="#080B09"/>
<path d="M1145.02 138.093C1137.15 130.946 1134.82 135.322 1132.57 135.905C1132.57 135.905 1124.99 138.603 1126.67 145.094C1128.41 151.949 1147.28 196.724 1147.28 196.724L1171.09 191.109L1168.9 184.837L1164.46 172.003L1159.73 158.22L1159.22 156.543L1153.47 138.385C1153.47 138.385 1149.1 141.885 1145.02 138.093Z" fill="#0074E6"/>
<path d="M1148.88 152.02C1154.63 147.061 1155.36 138.383 1150.41 132.549C1145.46 126.788 1136.79 126.059 1130.96 131.018C1125.21 135.976 1124.48 144.654 1129.43 150.488C1134.39 156.249 1143.05 156.978 1148.88 152.02Z" fill="#0074E6"/>
<path d="M1158.85 205.62C1165.63 205.62 1171.09 200.15 1171.09 193.368C1171.09 186.586 1165.63 181.117 1158.85 181.117C1152.08 181.117 1146.62 186.586 1146.62 193.368C1146.62 200.15 1152.08 205.62 1158.85 205.62Z" fill="#5661AE"/>
<path d="M1040.37 200.367L1064.18 204.523C1065.71 204.815 1066.73 203.794 1066.44 202.117L1059.16 160.113C1058.87 158.508 1057.41 157.05 1055.95 156.831L1032.14 152.675C1030.61 152.383 1029.59 153.404 1029.88 155.081L1037.17 197.085C1037.46 198.544 1038.84 200.002 1040.37 200.367Z" fill="#5B9CDD"/>
<path d="M1039.35 200.148L1063.16 204.305C1064.69 204.596 1065.71 203.575 1065.42 201.898L1058.14 159.894C1057.85 158.29 1056.39 156.831 1054.94 156.612L1031.12 152.456C1029.59 152.164 1028.57 153.185 1028.86 154.862L1036.15 196.866C1036.37 198.398 1037.82 199.856 1039.35 200.148Z" fill="url(#paint0_linear_720_38029)"/>
<path d="M1163.95 173.314L1162.64 170.324L1140.58 180.752L1141.6 183.305L1149.1 198.91L1170.72 188.774L1163.95 173.314Z" fill="#0074E6"/>
<path d="M1163.73 204.599C1157.47 206.714 1150.7 203.432 1148.59 197.161C1146.47 190.889 1149.75 184.107 1156.01 181.993C1162.28 179.878 1169.05 183.159 1171.16 189.431C1173.27 195.702 1170 202.411 1163.73 204.599Z" fill="#0074E6"/>
<path d="M1157.62 204.892L1083.48 196.651C1083.48 196.651 1074.96 184.254 1079.91 185.129C1085.01 185.931 1159.29 181.191 1159.29 181.191L1157.62 204.892Z" fill="#0074E6"/>
<path d="M1084.21 185.275L1084.57 196.651C1084.57 196.651 1070.45 197.964 1067.17 197.599C1060.69 196.651 1053.62 194.828 1052.39 193.661C1049.04 190.744 1047.22 186.296 1046.42 183.087C1046.34 182.577 1046.27 182.066 1046.34 181.629C1046.41 181.191 1046.71 180.681 1047.07 180.316C1047.43 179.951 1047.8 179.66 1048.24 179.441C1048.67 179.222 1049.18 179.222 1049.69 179.295L1063.09 181.118C1063.09 181.118 1063.75 178.055 1061.56 176.524C1060.18 175.503 1060.83 172.513 1061.13 171.492C1061.2 171.055 1062.65 170.544 1063.09 170.836C1063.89 171.346 1063.89 173.972 1065.57 175.065C1068.26 176.816 1066.95 178.42 1073.21 180.899C1078.31 182.722 1084.21 185.056 1084.21 185.275Z" fill="white"/>
<path d="M1059.23 184.327C1055.66 184.327 1047.65 182.723 1047.65 182.723" stroke="#7DC1FF" stroke-linecap="round" stroke-linejoin="round"/>
<path d="M1061.05 188.482C1058.14 188.409 1049.84 187.023 1049.84 187.023" stroke="#7DC1FF" stroke-linecap="round" stroke-linejoin="round"/>
<path d="M1060.83 192.932C1058.87 192.859 1052.9 192.203 1052.9 192.203" stroke="#7DC1FF" stroke-linecap="round" stroke-linejoin="round"/>
<path d="M1081.52 182.72C1078.02 181.918 1078.02 198.472 1081.52 199.565C1085.96 201.024 1150.33 204.087 1150.33 204.087L1137.37 182.574L1081.52 182.72Z" fill="#0074E6"/>
<path d="M1076.86 74.0658C1076.35 77.6391 1088.43 75.5972 1102.71 77.4203C1116.98 79.2434 1128.12 83.9835 1128.56 80.7748C1130.38 66.4817 1120.33 53.4283 1106.06 51.4594C1091.71 49.7092 1078.68 59.7727 1076.86 74.0658Z" fill="#E0E1E4"/>
<path d="M1107.95 76.2516C1107.95 76.2516 1108.39 70.4177 1111.16 64.9484C1113.92 59.4791 1117.2 55.4683 1117.71 54.9578C1114.94 52.1867 1110.21 50.7282 1105.55 50.1448C1101.62 49.6344 1094.84 50.8741 1093.53 52.1867C1092.95 52.7701 1090.47 56.4163 1089.31 60.7917C1088.22 65.2401 1088.22 73.1888 1089.38 74.1368C1092.88 73.7722 1107.95 76.2516 1107.95 76.2516Z" fill="#E0E1E4"/>
<path d="M1115.01 78.3646C1115.01 78.3646 1081.22 74.3538 1077.07 75.0101C1068.26 74.4996 1077.07 77.5624 1080.28 78.7292C1081.73 79.2397 1102.34 80.7711 1110.21 80.9898C1118.07 81.2086 1122.52 80.1148 1115.01 78.3646Z" fill="#E0E1E4"/>
<path d="M1109.04 73.0422C1109.04 73.0422 1111.52 56.2697 1117.78 54.957C1117.71 55.1758 1118.36 55.905 1117.78 56.2697C1117.2 56.6343 1112.68 61.8119 1109.04 73.0422Z" fill="#383C42"/>
<path d="M1089.24 72.6039C1089.67 62.5404 1091.57 55.0292 1093.17 53.2061C1093.24 52.6228 1092.88 53.4978 1092.73 53.6437C1091.86 54.4458 1088.65 60.2068 1089.24 72.6039Z" fill="#383C42"/>
</g>
<defs>
<linearGradient id="paint0_linear_720_38029" x1="1028.79" y1="178.365" x2="1065.46" y2="178.365" gradientUnits="userSpaceOnUse">
<stop stop-color="white"/>
<stop offset="1" stop-color="#94B9FF"/>
</linearGradient>
<clipPath id="clip0_720_38029">
<rect width="701" height="418" fill="white" transform="translate(499 50)"/>
</clipPath>
</defs>
</svg>
