<svg width="624" height="628" viewBox="0 0 624 628" fill="none" xmlns="http://www.w3.org/2000/svg">
<path d="M1.51705 19V1.54545H8.50568C9.78977 1.54545 10.8608 1.7358 11.7188 2.11648C12.5767 2.49716 13.2216 3.02557 13.6534 3.7017C14.0852 4.37216 14.3011 5.14489 14.3011 6.01989C14.3011 6.7017 14.1648 7.30114 13.892 7.81818C13.6193 8.32955 13.2443 8.75 12.767 9.07955C12.2955 9.40341 11.7557 9.63352 11.1477 9.76989V9.94034C11.8125 9.96875 12.4347 10.1562 13.0142 10.5028C13.5994 10.8494 14.0739 11.3352 14.4375 11.9602C14.8011 12.5795 14.983 13.3182 14.983 14.1761C14.983 15.1023 14.7528 15.929 14.2926 16.6562C13.8381 17.3778 13.1648 17.9489 12.2727 18.3693C11.3807 18.7898 10.2813 19 8.97443 19H1.51705ZM5.20739 15.983H8.21591C9.24432 15.983 9.99432 15.7869 10.4659 15.3949C10.9375 14.9972 11.1733 14.4687 11.1733 13.8097C11.1733 13.3267 11.0568 12.9006 10.8239 12.5312C10.5909 12.1619 10.2585 11.8722 9.8267 11.6619C9.40057 11.4517 8.89205 11.3466 8.30114 11.3466H5.20739V15.983ZM5.20739 8.84943H7.94318C8.44886 8.84943 8.89773 8.76136 9.28977 8.58523C9.6875 8.40341 10 8.14773 10.2273 7.81818C10.4602 7.48864 10.5767 7.09375 10.5767 6.63352C10.5767 6.00284 10.3523 5.49432 9.90341 5.10795C9.46023 4.72159 8.82955 4.52841 8.01136 4.52841H5.20739V8.84943ZM28.1655 1.54545H31.8558V12.8807C31.8558 14.1534 31.5518 15.267 30.9439 16.2216C30.3416 17.1761 29.4979 17.9205 28.4126 18.4545C27.3274 18.983 26.0632 19.2472 24.62 19.2472C23.1712 19.2472 21.9041 18.983 20.8189 18.4545C19.7337 17.9205 18.8899 17.1761 18.2876 16.2216C17.6854 15.267 17.3842 14.1534 17.3842 12.8807V1.54545H21.0746V12.5653C21.0746 13.2301 21.2195 13.821 21.5092 14.3381C21.8047 14.8551 22.2195 15.2614 22.7536 15.5568C23.2876 15.8523 23.9098 16 24.62 16C25.3359 16 25.9581 15.8523 26.4865 15.5568C27.0206 15.2614 27.4325 14.8551 27.7223 14.3381C28.0178 13.821 28.1655 13.2301 28.1655 12.5653V1.54545ZM38.5824 1.54545V19H34.892V1.54545H38.5824ZM41.6186 19V1.54545H45.3089V15.9574H52.7919V19H41.6186ZM61.4233 19H55.2358V1.54545H61.4744C63.2301 1.54545 64.7415 1.89489 66.0085 2.59375C67.2756 3.28693 68.25 4.28409 68.9318 5.58523C69.6193 6.88636 69.9631 8.44318 69.9631 10.2557C69.9631 12.0739 69.6193 13.6364 68.9318 14.9432C68.25 16.25 67.2699 17.2528 65.9915 17.9517C64.7188 18.6506 63.196 19 61.4233 19ZM58.9261 15.8381H61.2699C62.3608 15.8381 63.2784 15.6449 64.0227 15.2585C64.7727 14.8665 65.3352 14.2614 65.7102 13.4432C66.0909 12.6193 66.2812 11.5568 66.2812 10.2557C66.2812 8.96591 66.0909 7.91193 65.7102 7.09375C65.3352 6.27557 64.7756 5.6733 64.0312 5.28693C63.2869 4.90057 62.3693 4.70739 61.2784 4.70739H58.9261V15.8381ZM87.7202 6.56534C87.652 5.87784 87.3594 5.34375 86.8423 4.96307C86.3253 4.58239 85.6236 4.39204 84.7372 4.39204C84.1349 4.39204 83.6264 4.47727 83.2116 4.64773C82.7969 4.8125 82.4787 5.04261 82.2571 5.33807C82.0412 5.63352 81.9332 5.96875 81.9332 6.34375C81.9219 6.65625 81.9872 6.92898 82.1293 7.16193C82.277 7.39489 82.4787 7.59659 82.7344 7.76705C82.9901 7.93182 83.2855 8.0767 83.6207 8.2017C83.956 8.32102 84.3139 8.4233 84.6946 8.50852L86.2628 8.88352C87.0241 9.05398 87.723 9.28125 88.3594 9.56534C88.9957 9.84943 89.5469 10.1989 90.0128 10.6136C90.4787 11.0284 90.8395 11.517 91.0952 12.0795C91.3565 12.642 91.4901 13.2869 91.4957 14.0142C91.4901 15.0824 91.2173 16.0085 90.6776 16.7926C90.1435 17.571 89.3707 18.1761 88.3594 18.608C87.3537 19.0341 86.1406 19.2472 84.7202 19.2472C83.3111 19.2472 82.0838 19.0312 81.0384 18.5994C79.9986 18.1676 79.1861 17.5284 78.6009 16.6818C78.0213 15.8295 77.7173 14.7756 77.6889 13.5199H81.2599C81.2997 14.1051 81.4673 14.5937 81.7628 14.9858C82.0639 15.3722 82.4645 15.6648 82.9645 15.8636C83.4702 16.0568 84.0412 16.1534 84.6776 16.1534C85.3026 16.1534 85.8452 16.0625 86.3054 15.8807C86.7713 15.6989 87.1321 15.446 87.3878 15.1222C87.6435 14.7983 87.7713 14.4261 87.7713 14.0057C87.7713 13.6136 87.6548 13.2841 87.4219 13.017C87.1946 12.75 86.8594 12.5227 86.4162 12.3352C85.9787 12.1477 85.4418 11.9773 84.8054 11.8239L82.9048 11.3466C81.4332 10.9886 80.2713 10.429 79.419 9.66761C78.5668 8.90625 78.1435 7.88068 78.1491 6.59091C78.1435 5.53409 78.4247 4.6108 78.9929 3.82102C79.5668 3.03125 80.3537 2.41477 81.3537 1.97159C82.3537 1.52841 83.4901 1.30682 84.7628 1.30682C86.0582 1.30682 87.1889 1.52841 88.1548 1.97159C89.1264 2.41477 89.8821 3.03125 90.4219 3.82102C90.9616 4.6108 91.2401 5.52557 91.2571 6.56534H87.7202ZM97.6683 1.54545V19H93.978V1.54545H97.6683ZM100.705 1.54545H105.256L110.062 13.2727H110.267L115.074 1.54545H119.625V19H116.045V7.6392H115.901L111.384 18.9148H108.946L104.429 7.59659H104.284V19H100.705V1.54545ZM122.665 19V1.54545H129.552C130.876 1.54545 132.004 1.7983 132.935 2.30398C133.867 2.80398 134.577 3.5 135.066 4.39204C135.56 5.27841 135.808 6.30114 135.808 7.46023C135.808 8.61932 135.558 9.64205 135.058 10.5284C134.558 11.4148 133.833 12.1051 132.884 12.5994C131.941 13.0937 130.799 13.3409 129.458 13.3409H125.069V10.3835H128.862C129.572 10.3835 130.157 10.2614 130.617 10.017C131.083 9.76705 131.43 9.4233 131.657 8.9858C131.89 8.54261 132.006 8.03409 132.006 7.46023C132.006 6.88068 131.89 6.375 131.657 5.94318C131.43 5.50568 131.083 5.16761 130.617 4.92898C130.151 4.68466 129.56 4.5625 128.844 4.5625H126.356V19H122.665ZM138.205 19V1.54545H141.895V15.9574H149.378V19H138.205ZM148.572 1.54545H152.706L156.686 9.0625H156.857L160.837 1.54545H164.97L158.604 12.8295V19H154.939V12.8295L148.572 1.54545Z" fill="#2456D0"/>
<path d="M15.7038 79.7488C16.0757 79.3922 16.1008 78.7877 15.7599 78.3986L10.152 72L15.7599 65.6014C16.0724 65.2447 16.0773 64.7071 15.7895 64.3452L15.7038 64.2512C15.3318 63.8946 14.754 63.9208 14.4131 64.3099L8.24012 71.3543C8.23618 71.3588 8.2323 71.3633 8.22845 71.3678L8.29624 71.2956C8.25441 71.3357 8.21698 71.3789 8.18395 71.4246C8.17181 71.4416 8.16025 71.4588 8.1493 71.4762C8.13813 71.4938 8.12751 71.5121 8.11752 71.5306C8.10845 71.5475 8.10004 71.5643 8.09213 71.5812C8.0828 71.6012 8.07402 71.6219 8.06597 71.6429C8.0588 71.6614 8.05223 71.6802 8.04624 71.6991C8.04038 71.7178 8.03507 71.7366 8.03032 71.7554C8.02497 71.7763 8.02037 71.7975 8.01646 71.8187C8.01252 71.8405 8.00923 71.8625 8.00668 71.8846C8.00477 71.9006 8.00328 71.9169 8.0022 71.9333C8.00073 71.9558 7.99999 71.9782 8 72.0006C8.00002 72.0225 8.00076 72.0445 8.00222 72.0665C8.00328 72.0831 8.00477 72.0994 8.00665 72.1157C8.00923 72.1375 8.01252 72.1595 8.01654 72.1813C8.02037 72.2025 8.02497 72.2237 8.03026 72.2447C8.03507 72.2634 8.04038 72.2822 8.04624 72.3007C8.05223 72.3198 8.0588 72.3386 8.06595 72.3572C8.07402 72.3781 8.0828 72.3988 8.09231 72.4192C8.10004 72.4357 8.10845 72.4525 8.11738 72.469C8.12751 72.4879 8.13813 72.5062 8.14938 72.5241C8.16025 72.5412 8.17181 72.5584 8.18397 72.5752C8.21698 72.6211 8.25441 72.6643 8.29624 72.7044L8.22845 72.6322C8.2323 72.6367 8.23618 72.6412 8.24012 72.6457L14.4131 79.6901C14.754 80.0792 15.3318 80.1054 15.7038 79.7488Z" fill="white"/>
<path d="M56.2962 64.2512C55.9243 64.6078 55.8992 65.2123 56.2401 65.6014L61.848 72L56.2401 78.3986C55.9276 78.7553 55.9227 79.2929 56.2105 79.6548L56.2962 79.7488C56.6682 80.1054 57.246 80.0792 57.5869 79.6901L63.7599 72.6457C63.7638 72.6412 63.7677 72.6367 63.7715 72.6322L63.7038 72.7044C63.7456 72.6643 63.783 72.6211 63.8161 72.5754C63.8282 72.5584 63.8397 72.5412 63.8507 72.5238C63.8619 72.5062 63.8725 72.4879 63.8825 72.4694C63.8915 72.4525 63.9 72.4357 63.9079 72.4188C63.9172 72.3988 63.926 72.3781 63.934 72.3571C63.9412 72.3386 63.9478 72.3198 63.9538 72.3009C63.9596 72.2822 63.9649 72.2634 63.9697 72.2446C63.975 72.2237 63.9796 72.2025 63.9835 72.1813C63.9875 72.1595 63.9908 72.1375 63.9933 72.1154C63.9952 72.0994 63.9967 72.0831 63.9978 72.0667C63.9993 72.0442 64 72.0218 64 71.9994C64 71.9775 63.9992 71.9555 63.9978 71.9335C63.9967 71.9169 63.9952 71.9006 63.9933 71.8843C63.9908 71.8625 63.9875 71.8405 63.9835 71.8187C63.9796 71.7975 63.975 71.7763 63.9697 71.7553C63.9649 71.7366 63.9596 71.7178 63.9538 71.6993C63.9478 71.6802 63.9412 71.6614 63.934 71.6428C63.926 71.6219 63.9172 71.6012 63.9077 71.5808C63.9 71.5643 63.8915 71.5475 63.8826 71.531C63.8725 71.5121 63.8619 71.4938 63.8506 71.4759C63.8397 71.4588 63.8282 71.4416 63.816 71.4248C63.783 71.3789 63.7456 71.3357 63.7038 71.2956L63.7715 71.3678C63.7677 71.3633 63.7638 71.3588 63.7599 71.3543L57.5869 64.3099C57.246 63.9208 56.6682 63.8946 56.2962 64.2512Z" fill="white"/>
<path d="M111.704 79.7488C112.076 79.3922 112.101 78.7877 111.76 78.3986L106.152 72L111.76 65.6014C112.072 65.2447 112.077 64.7071 111.789 64.3452L111.704 64.2512C111.332 63.8946 110.754 63.9208 110.413 64.3099L104.24 71.3543C104.236 71.3588 104.232 71.3633 104.228 71.3678L104.296 71.2956C104.254 71.3357 104.217 71.3789 104.184 71.4246C104.172 71.4416 104.16 71.4588 104.149 71.4762C104.138 71.4938 104.128 71.5121 104.118 71.5306C104.108 71.5475 104.1 71.5643 104.092 71.5812C104.083 71.6012 104.074 71.6219 104.066 71.6429C104.059 71.6614 104.052 71.6802 104.046 71.6991C104.04 71.7178 104.035 71.7366 104.03 71.7554C104.025 71.7763 104.02 71.7975 104.016 71.8187C104.013 71.8405 104.009 71.8625 104.007 71.8846C104.005 71.9006 104.003 71.9169 104.002 71.9333C104.001 71.9558 104 71.9782 104 72.0006C104 72.0225 104.001 72.0445 104.002 72.0665C104.003 72.0831 104.005 72.0994 104.007 72.1157C104.009 72.1375 104.013 72.1595 104.017 72.1813C104.02 72.2025 104.025 72.2237 104.03 72.2447C104.035 72.2634 104.04 72.2822 104.046 72.3007C104.052 72.3198 104.059 72.3386 104.066 72.3572C104.074 72.3781 104.083 72.3988 104.092 72.4192C104.1 72.4357 104.108 72.4525 104.117 72.469C104.128 72.4879 104.138 72.5062 104.149 72.5241C104.16 72.5412 104.172 72.5584 104.184 72.5752C104.217 72.6211 104.254 72.6643 104.296 72.7044L104.228 72.6322C104.232 72.6367 104.236 72.6412 104.24 72.6457L110.413 79.6901C110.754 80.0792 111.332 80.1054 111.704 79.7488Z" fill="#F6F6F6"/>
<path d="M152.296 64.2512C151.924 64.6078 151.899 65.2123 152.24 65.6014L157.848 72L152.24 78.3986C151.928 78.7553 151.923 79.2929 152.211 79.6548L152.296 79.7488C152.668 80.1054 153.246 80.0792 153.587 79.6901L159.76 72.6457C159.764 72.6412 159.768 72.6367 159.772 72.6322L159.704 72.7044C159.746 72.6643 159.783 72.6211 159.816 72.5754C159.828 72.5584 159.84 72.5412 159.851 72.5238C159.862 72.5062 159.872 72.4879 159.882 72.4694C159.892 72.4525 159.9 72.4357 159.908 72.4188C159.917 72.3988 159.926 72.3781 159.934 72.3571C159.941 72.3386 159.948 72.3198 159.954 72.3009C159.96 72.2822 159.965 72.2634 159.97 72.2446C159.975 72.2237 159.98 72.2025 159.984 72.1813C159.987 72.1595 159.991 72.1375 159.993 72.1154C159.995 72.0994 159.997 72.0831 159.998 72.0667C159.999 72.0442 160 72.0218 160 71.9994C160 71.9775 159.999 71.9555 159.998 71.9335C159.997 71.9169 159.995 71.9006 159.993 71.8843C159.991 71.8625 159.987 71.8405 159.983 71.8187C159.98 71.7975 159.975 71.7763 159.97 71.7553C159.965 71.7366 159.96 71.7178 159.954 71.6993C159.948 71.6802 159.941 71.6614 159.934 71.6428C159.926 71.6219 159.917 71.6012 159.908 71.5808C159.9 71.5643 159.892 71.5475 159.883 71.531C159.872 71.5121 159.862 71.4938 159.851 71.4759C159.84 71.4588 159.828 71.4416 159.816 71.4248C159.783 71.3789 159.746 71.3357 159.704 71.2956L159.772 71.3678C159.768 71.3633 159.764 71.3588 159.76 71.3543L153.587 64.3099C153.246 63.9208 152.668 63.8946 152.296 64.2512Z" fill="#F6F6F6"/>
<path d="M211.749 75.7038C211.392 76.0757 210.788 76.1008 210.399 75.7599L204 70.152L197.601 75.7599C197.245 76.0724 196.707 76.0773 196.345 75.7895L196.251 75.7038C195.895 75.3318 195.921 74.754 196.31 74.4131L203.354 68.2401C203.359 68.2362 203.363 68.2323 203.368 68.2285L203.296 68.2962C203.336 68.2544 203.379 68.217 203.425 68.1839C203.442 68.1718 203.459 68.1603 203.476 68.1493C203.494 68.1381 203.512 68.1275 203.531 68.1175C203.548 68.1085 203.564 68.1 203.581 68.0921C203.601 68.0828 203.622 68.074 203.643 68.066C203.661 68.0588 203.68 68.0522 203.699 68.0462C203.718 68.0404 203.737 68.0351 203.755 68.0303C203.776 68.025 203.797 68.0204 203.819 68.0165C203.841 68.0125 203.863 68.0092 203.885 68.0067C203.901 68.0048 203.917 68.0033 203.933 68.0022C203.956 68.0007 203.978 68 204.001 68C204.022 68 204.045 68.0008 204.067 68.0022C204.083 68.0033 204.099 68.0048 204.116 68.0067C204.137 68.0092 204.159 68.0125 204.181 68.0165C204.203 68.0204 204.224 68.025 204.245 68.0303C204.263 68.0351 204.282 68.0404 204.301 68.0462C204.32 68.0522 204.339 68.0588 204.357 68.066C204.378 68.074 204.399 68.0828 204.419 68.0923C204.436 68.1 204.452 68.1085 204.469 68.1174C204.488 68.1275 204.506 68.1381 204.524 68.1494C204.541 68.1603 204.558 68.1718 204.575 68.184C204.621 68.217 204.664 68.2544 204.704 68.2962L204.632 68.2285C204.637 68.2323 204.641 68.2362 204.646 68.2401L211.69 74.4131C212.079 74.754 212.105 75.3318 211.749 75.7038Z" fill="#3A3C40"/>
<path d="M259.749 68.2962C259.392 67.9243 258.788 67.8992 258.399 68.2401L252 73.848L245.601 68.2401C245.245 67.9276 244.707 67.9227 244.345 68.2105L244.251 68.2962C243.895 68.6682 243.921 69.246 244.31 69.5869L251.354 75.7599C251.359 75.7638 251.363 75.7677 251.368 75.7715L251.296 75.7038C251.336 75.7456 251.379 75.783 251.425 75.8161C251.442 75.8282 251.459 75.8397 251.476 75.8507C251.494 75.8619 251.512 75.8725 251.531 75.8825C251.548 75.8915 251.564 75.9 251.581 75.9079C251.601 75.9172 251.622 75.926 251.643 75.934C251.661 75.9412 251.68 75.9478 251.699 75.9538C251.718 75.9596 251.737 75.9649 251.755 75.9697C251.776 75.975 251.797 75.9796 251.819 75.9835C251.841 75.9875 251.863 75.9908 251.885 75.9933C251.901 75.9952 251.917 75.9967 251.933 75.9978C251.956 75.9993 251.978 76 252.001 76C252.022 76 252.045 75.9992 252.067 75.9978C252.083 75.9967 252.099 75.9952 252.116 75.9933C252.137 75.9908 252.159 75.9875 252.181 75.9835C252.203 75.9796 252.224 75.975 252.245 75.9697C252.263 75.9649 252.282 75.9596 252.301 75.9538C252.32 75.9478 252.339 75.9412 252.357 75.934C252.378 75.926 252.399 75.9172 252.419 75.9077C252.436 75.9 252.452 75.8915 252.469 75.8826C252.488 75.8725 252.506 75.8619 252.524 75.8506C252.541 75.8397 252.558 75.8282 252.575 75.816C252.621 75.783 252.664 75.7456 252.704 75.7038L252.632 75.7715C252.637 75.7677 252.641 75.7638 252.646 75.7599L259.69 69.5869C260.079 69.246 260.105 68.6682 259.749 68.2962Z" fill="#3A3C40"/>
<path d="M294.432 67.0566L305.569 78.1936L294.432 67.0566ZM304.773 66.2611C305.212 65.8218 305.925 65.8218 306.364 66.2611C306.803 66.7005 306.803 67.4128 306.364 67.8521L301.591 72.6246L306.364 77.3981C306.803 77.8374 306.803 78.5497 306.364 78.9891C305.925 79.4284 305.212 79.4284 304.773 78.9891L300 74.2156L295.227 78.9891C294.819 79.397 294.176 79.4262 293.734 79.0765L293.636 78.9891C293.197 78.5497 293.197 77.8374 293.636 77.3981L298.409 72.6246L293.636 67.8521C293.197 67.4128 293.197 66.7005 293.636 66.2611C294.075 65.8218 294.788 65.8218 295.227 66.2611L300 71.0336L304.773 66.2611Z" fill="#3A3C40"/>
<path d="M348 62C348.552 62 349 62.4477 349 63V71H357C357.552 71 358 71.4477 358 72C358 72.5523 357.552 73 357 73H349V81C349 81.5523 348.552 82 348 82C347.448 82 347 81.5523 347 81V73H339C338.448 73 338 72.5523 338 72C338 71.4477 338.448 71 339 71H347V63C347 62.4477 347.448 62 348 62Z" fill="#3A3C40"/>
<path d="M12 138C17.4292 138 21.8479 142.327 21.9962 147.72L22 148H20C20 143.582 16.4183 140 12 140C7.66509 140 4.13546 143.448 4.00381 147.751L4 148H2C2 142.477 6.47715 138 12 138ZM12 125C15.3137 125 18 127.686 18 131C18 134.314 15.3137 137 12 137C8.68629 137 6 134.314 6 131C6 127.686 8.68629 125 12 125ZM12 127C9.79086 127 8 128.791 8 131C8 133.209 9.79086 135 12 135C14.2091 135 16 133.209 16 131C16 128.791 14.2091 127 12 127Z" fill="#3A3C40"/>
<g clip-path="url(#clip0_601_30573)">
<path fill-rule="evenodd" clip-rule="evenodd" d="M70 144H50V142H70V144Z" fill="#3A3C40"/>
<path fill-rule="evenodd" clip-rule="evenodd" d="M55 142L65 142V143C65 143.657 64.8707 144.307 64.6194 144.913C64.3681 145.52 63.9998 146.071 63.5355 146.536C63.0712 147 62.52 147.368 61.9134 147.619C61.3068 147.871 60.6566 148 60 148C59.3434 148 58.6932 147.871 58.0866 147.619C57.48 147.368 56.9288 147 56.4645 146.536C56.0002 146.071 55.6319 145.52 55.3806 144.913C55.1293 144.307 55 143.657 55 143L55 142ZM57.1716 144C57.1892 144.05 57.2081 144.099 57.2284 144.148C57.3791 144.512 57.6001 144.843 57.8787 145.121C58.1573 145.4 58.488 145.621 58.8519 145.772C59.2159 145.922 59.606 146 60 146C60.394 146 60.7841 145.922 61.1481 145.772C61.512 145.621 61.8427 145.4 62.1213 145.121C62.3999 144.843 62.6209 144.512 62.7716 144.148C62.7919 144.099 62.8108 144.05 62.8284 144L57.1716 144Z" fill="#3A3C40"/>
<path fill-rule="evenodd" clip-rule="evenodd" d="M60 128C63.3137 128 66 130.686 66 134V140V142H68V134C68 129.582 64.4183 126 60 126C55.5817 126 52 129.582 52 134V142H54V140V134C54 130.686 56.6863 128 60 128Z" fill="#3A3C40"/>
</g>
<mask id="path-14-inside-1_601_30573" fill="white">
<rect x="98" y="129" width="20" height="14" rx="1"/>
</mask>
<rect x="98" y="129" width="20" height="14" rx="1" stroke="#3A3C40" stroke-width="4" mask="url(#path-14-inside-1_601_30573)"/>
<path d="M99 133L107.445 138.63C107.781 138.854 108.219 138.854 108.555 138.63L117 133" stroke="#3A3C40" stroke-width="2"/>
<path d="M152.77 127H147C145.343 127 144 128.343 144 130V142C144 143.657 145.343 145 147 145H165C166.657 145 168 143.657 168 142V132.824C168 131.167 166.657 129.824 165 129.824H158.182C157.983 129.824 157.789 129.764 157.624 129.653L154.446 127.512C153.951 127.178 153.367 127 152.77 127ZM147 129H152.77C152.969 129 153.164 129.059 153.329 129.171L156.506 131.311C157.001 131.645 157.585 131.824 158.182 131.824H165C165.552 131.824 166 132.271 166 132.824V142C166 142.552 165.552 143 165 143H147C146.448 143 146 142.552 146 142V130C146 129.448 146.448 129 147 129Z" fill="#3A3C40"/>
<path d="M214 128C214.552 128 215 128.448 215 129V143C215 143.552 214.552 144 214 144H194C193.448 144 193 143.552 193 143V129C193 128.448 193.448 128 194 128H214ZM213 129.999H195V141.999H199.741L203.224 137.183C203.277 137.11 203.379 137.094 203.452 137.147C203.466 137.157 203.479 137.169 203.489 137.183L205.161 139.497L208.364 134.514C208.413 134.438 208.514 134.416 208.59 134.465C208.61 134.478 208.627 134.494 208.639 134.514L213 141.299V129.999ZM198.5 131C199.328 131 200 131.672 200 132.5C200 133.328 199.328 134 198.5 134C197.672 134 197 133.328 197 132.5C197 131.672 197.672 131 198.5 131Z" fill="#3A3C40"/>
<path d="M251 126C256.355 126 260.727 130.209 260.988 135.5L262.008 135.5C262.481 135.5 262.865 135.884 262.865 136.357C262.865 136.509 262.825 136.658 262.748 136.789L260.74 140.231C260.502 140.64 259.977 140.778 259.568 140.539C259.44 140.465 259.334 140.358 259.26 140.231L257.252 136.789C257.013 136.38 257.152 135.855 257.56 135.617C257.692 135.54 257.841 135.5 257.992 135.5L258.985 135.501C258.727 131.315 255.251 128 251 128C246.582 128 243 131.582 243 136C243 140.418 246.582 144 251 144C252.76 144 254.431 143.431 255.806 142.396C256.248 142.064 256.875 142.152 257.207 142.593C257.539 143.035 257.45 143.662 257.009 143.994C255.29 145.288 253.197 146 251 146C245.477 146 241 141.523 241 136C241 130.477 245.477 126 251 126Z" fill="#3A3C40"/>
<mask id="mask0_601_30573" style="mask-type:alpha" maskUnits="userSpaceOnUse" x="290" y="126" width="20" height="20">
<path fill-rule="evenodd" clip-rule="evenodd" d="M290 126H309.477V145.477H290V126Z" fill="white"/>
</mask>
<g mask="url(#mask0_601_30573)">
<path fill-rule="evenodd" clip-rule="evenodd" d="M299.739 127.5C295.196 127.5 291.5 131.195 291.5 135.738C291.5 140.281 295.196 143.977 299.739 143.977C304.281 143.977 307.977 140.281 307.977 135.738C307.977 131.195 304.281 127.5 299.739 127.5M299.739 145.477C294.369 145.477 290 141.108 290 135.738C290 130.368 294.369 126 299.739 126C305.109 126 309.477 130.368 309.477 135.738C309.477 141.108 305.109 145.477 299.739 145.477" fill="white"/>
</g>
<mask id="mask1_601_30573" style="mask-type:alpha" maskUnits="userSpaceOnUse" x="305" y="141" width="6" height="6">
<path fill-rule="evenodd" clip-rule="evenodd" d="M305.24 141.707H310.264V146.722H305.24V141.707Z" fill="white"/>
</mask>
<g mask="url(#mask1_601_30573)">
<path fill-rule="evenodd" clip-rule="evenodd" d="M309.514 146.722C309.323 146.722 309.131 146.649 308.984 146.503L305.46 142.989C305.167 142.696 305.166 142.221 305.459 141.928C305.751 141.633 306.226 141.635 306.52 141.926L310.044 145.441C310.337 145.734 310.338 146.208 310.045 146.501C309.899 146.649 309.706 146.722 309.514 146.722" fill="white"/>
</g>
<mask id="mask2_601_30573" style="mask-type:alpha" maskUnits="userSpaceOnUse" x="338" y="126" width="20" height="20">
<path fill-rule="evenodd" clip-rule="evenodd" d="M338 126H357.477V145.477H338V126Z" fill="white"/>
</mask>
<g mask="url(#mask2_601_30573)">
<path fill-rule="evenodd" clip-rule="evenodd" d="M347.739 127.5C343.196 127.5 339.5 131.195 339.5 135.738C339.5 140.281 343.196 143.977 347.739 143.977C352.281 143.977 355.977 140.281 355.977 135.738C355.977 131.195 352.281 127.5 347.739 127.5M347.739 145.477C342.369 145.477 338 141.108 338 135.738C338 130.368 342.369 126 347.739 126C353.109 126 357.477 130.368 357.477 135.738C357.477 141.108 353.109 145.477 347.739 145.477" fill="#3A3C40"/>
</g>
<mask id="mask3_601_30573" style="mask-type:alpha" maskUnits="userSpaceOnUse" x="353" y="141" width="6" height="6">
<path fill-rule="evenodd" clip-rule="evenodd" d="M353.24 141.707H358.264V146.722H353.24V141.707Z" fill="white"/>
</mask>
<g mask="url(#mask3_601_30573)">
<path fill-rule="evenodd" clip-rule="evenodd" d="M357.514 146.722C357.323 146.722 357.131 146.649 356.984 146.503L353.46 142.989C353.167 142.696 353.166 142.221 353.459 141.928C353.751 141.633 354.226 141.635 354.52 141.926L358.044 145.441C358.337 145.734 358.338 146.208 358.045 146.501C357.899 146.649 357.706 146.722 357.514 146.722" fill="#3A3C40"/>
</g>
<path d="M11.1 191C15.5735 191 19.2 194.646 19.2 199.143C19.2 201.303 18.3631 203.267 16.9975 204.725C17.0169 204.735 17.0344 204.748 17.0516 204.761L17.1364 204.836L20.7364 208.455C21.0879 208.809 21.0879 209.382 20.7364 209.735C20.412 210.061 19.9015 210.086 19.5484 209.81L19.4636 209.735L15.8636 206.116C15.7865 206.038 15.7263 205.95 15.683 205.856C14.3811 206.758 12.8018 207.286 11.1 207.286C6.62649 207.286 3 203.64 3 199.143C3 194.646 6.62649 191 11.1 191ZM11.1 192.81C7.62061 192.81 4.8 195.645 4.8 199.143C4.8 202.641 7.62061 205.476 11.1 205.476C14.5794 205.476 17.4 202.641 17.4 199.143C17.4 195.645 14.5794 192.81 11.1 192.81Z" fill="#3A3C40"/>
<path d="M66 207C66.5523 207 67 207.448 67 208C67 208.552 66.5523 209 66 209H54C53.4477 209 53 208.552 53 208C53 207.448 53.4477 207 54 207H66ZM60 193C60.5523 193 61 193.448 61 194V200H62.0077C62.4811 200 62.8648 200.384 62.8648 200.857C62.8648 201.009 62.8245 201.158 62.7481 201.289L60.7404 204.731C60.5019 205.14 59.977 205.278 59.5681 205.039C59.4404 204.965 59.3341 204.858 59.2596 204.731L57.2519 201.289C57.0134 200.88 57.1515 200.355 57.5604 200.117C57.6915 200.04 57.8406 200 57.9923 200H59V194C59 193.448 59.4477 193 60 193Z" fill="#3A3C40"/>
<path d="M107 190C112.355 190 116.727 194.209 116.988 199.5L118.008 199.5C118.481 199.5 118.865 199.884 118.865 200.357C118.865 200.509 118.825 200.658 118.748 200.789L116.74 204.231C116.502 204.64 115.977 204.778 115.568 204.539C115.44 204.465 115.334 204.358 115.26 204.231L113.252 200.789C113.013 200.38 113.152 199.855 113.56 199.617C113.692 199.54 113.841 199.5 113.992 199.5L114.985 199.501C114.727 195.315 111.251 192 107 192C102.582 192 99 195.582 99 200C99 204.418 102.582 208 107 208C108.76 208 110.431 207.431 111.806 206.396C112.248 206.064 112.875 206.152 113.207 206.593C113.539 207.035 113.45 207.662 113.009 207.994C111.29 209.288 109.197 210 107 210C101.477 210 97 205.523 97 200C97 194.477 101.477 190 107 190Z" fill="#3A3C40"/>
<path d="M156 190C161.523 190 166 194.477 166 200C166 205.523 161.523 210 156 210C150.477 210 146 205.523 146 200C146 194.477 150.477 190 156 190ZM156 197.5C155.54 197.5 155.167 197.873 155.167 198.333V204.167C155.167 204.627 155.54 205 156 205C156.46 205 156.833 204.627 156.833 204.167V198.333C156.833 197.873 156.46 197.5 156 197.5ZM156 194.167C155.54 194.167 155.167 194.54 155.167 195C155.167 195.46 155.54 195.833 156 195.833C156.46 195.833 156.833 195.46 156.833 195C156.833 194.54 156.46 194.167 156 194.167Z" fill="#3A3C40"/>
<path fill-rule="evenodd" clip-rule="evenodd" d="M204.763 191.459C204.688 191.326 204.583 191.215 204.458 191.135C204.036 190.866 203.49 191.011 203.237 191.459L194.127 207.569C194.044 207.716 194 207.884 194 208.055C194 208.577 194.399 209 194.89 209H213.11C213.271 209 213.429 208.953 213.568 208.865C213.989 208.597 214.126 208.017 213.873 207.569L204.763 191.459ZM204 203.5C204.46 203.5 204.833 203.127 204.833 202.667L204.833 196.833C204.833 196.373 204.46 196 204 196C203.54 196 203.167 196.373 203.167 196.833L203.167 202.667C203.167 203.127 203.54 203.5 204 203.5ZM204 206.833C204.46 206.833 204.833 206.46 204.833 206C204.833 205.54 204.46 205.167 204 205.167C203.54 205.167 203.167 205.54 203.167 206C203.167 206.46 203.54 206.833 204 206.833Z" fill="#3A3C40"/>
<g clip-path="url(#clip1_601_30573)">
<g clip-path="url(#clip2_601_30573)">
<path d="M22 264C22 269.5 17.5 274 12 274C6.5 274 2 269.5 2 264C2 258.5 6.5 254 12 254C17.5 254 22 258.5 22 264ZM3.6 264C3.6 268.6 7.4 272.4 12 272.4C16.6 272.4 20.4 268.6 20.4 264C20.4 259.4 16.6 255.6 12 255.6C7.4 255.6 3.6 259.4 3.6 264ZM12.8 264.8H11.2H7.4C7 264.8 6.6 264.4 6.6 264C6.6 263.6 7 263.2 7.4 263.2H11.2H12.8H16.6C17 263.2 17.4 263.6 17.4 264C17.4 264.4 17 264.8 16.6 264.8H12.8Z" fill="#3A3C40"/>
</g>
</g>
<g clip-path="url(#clip3_601_30573)">
<path d="M70 264C70 269.5 65.5 274 60 274C54.5 274 50 269.5 50 264C50 258.5 54.5 254 60 254C65.5 254 70 258.5 70 264ZM51.6 264C51.6 268.6 55.4 272.4 60 272.4C64.6 272.4 68.4 268.6 68.4 264C68.4 259.4 64.6 255.6 60 255.6C55.4 255.6 51.6 259.4 51.6 264ZM61.1 264L63.8 266.7C64.1 267 64.1 267.5 63.8 267.8C63.5 268.1 63 268.1 62.7 267.8L60 265.1L57.3 267.8C57 268.1 56.5 268.1 56.2 267.8C55.9 267.5 55.9 267 56.2 266.7L58.9 264L56.2 261.3C55.9 261 55.9 260.5 56.2 260.2C56.5 259.9 57 259.9 57.3 260.2L60 262.9L62.7 260.2C63 259.9 63.5 259.9 63.8 260.2C64.1 260.5 64.1 261 63.8 261.3L61.1 264Z" fill="#3A3C40"/>
</g>
<g clip-path="url(#clip4_601_30573)">
<g clip-path="url(#clip5_601_30573)">
<g clip-path="url(#clip6_601_30573)">
<path d="M118 264C118 269.5 113.5 274 108 274C102.5 274 98 269.5 98 264C98 258.5 102.5 254 108 254C113.5 254 118 258.5 118 264ZM99.6 264C99.6 268.6 103.4 272.4 108 272.4C112.6 272.4 116.4 268.6 116.4 264C116.4 259.4 112.6 255.6 108 255.6C103.4 255.6 99.6 259.4 99.6 264Z" fill="#3A3C40"/>
</g>
</g>
</g>
<rect width="24" height="24" transform="translate(144 252)" fill="white"/>
<g clip-path="url(#clip7_601_30573)">
<path d="M159.9 260.4L154.5 265.8L152.1 263.4C151.8 263.1 151.3 263.1 151 263.4C150.7 263.7 150.7 264.2 151 264.5L154 267.5C154.2 267.7 154.4 267.7 154.6 267.7C154.8 267.7 155 267.6 155.2 267.5L161.2 261.5C161.5 261.2 161.5 260.7 161.2 260.4C160.7 260.1 160.2 260.1 159.9 260.4Z" fill="#3A3C40"/>
<path d="M156 254C150.5 254 146 258.5 146 264C146 269.5 150.5 274 156 274C161.5 274 166 269.5 166 264C166 258.5 161.5 254 156 254ZM156 272.4C151.4 272.4 147.6 268.6 147.6 264C147.6 259.4 151.4 255.6 156 255.6C160.6 255.6 164.4 259.4 164.4 264C164.4 268.6 160.6 272.4 156 272.4Z" fill="#3A3C40"/>
</g>
<path fill-rule="evenodd" clip-rule="evenodd" d="M204 274C209.523 274 214 269.523 214 264C214 258.477 209.523 254 204 254C198.477 254 194 258.477 194 264C194 269.523 198.477 274 204 274ZM209.006 259.949C208.594 259.569 207.951 259.595 207.571 260.007L202.193 265.833L200.401 264.041C200.004 263.644 199.361 263.644 198.964 264.041C198.567 264.438 198.567 265.081 198.964 265.478L201.504 268.017C201.912 268.425 202.577 268.412 202.969 267.988L209.064 261.385C209.444 260.973 209.419 260.33 209.006 259.949Z" fill="#2456D0"/>
<path fill-rule="evenodd" clip-rule="evenodd" d="M252 274C257.523 274 262 269.523 262 264C262 258.477 257.523 254 252 254C246.477 254 242 258.477 242 264C242 269.523 246.477 274 252 274ZM256.243 259.76C255.95 259.467 255.475 259.467 255.182 259.76L252 262.941L248.818 259.76C248.525 259.467 248.05 259.467 247.757 259.76C247.464 260.053 247.464 260.527 247.757 260.82L250.939 264.002L247.757 267.184C247.464 267.477 247.464 267.952 247.757 268.245L247.823 268.303C248.117 268.536 248.546 268.517 248.818 268.245L252 265.063L255.182 268.245C255.475 268.538 255.95 268.538 256.243 268.245C256.536 267.952 256.536 267.477 256.243 267.184L253.06 264.002L256.243 260.82C256.536 260.527 256.536 260.053 256.243 259.76Z" fill="#BDBDBD"/>
<path fill-rule="evenodd" clip-rule="evenodd" d="M300 274C305.523 274 310 269.523 310 264C310 258.477 305.523 254 300 254C294.477 254 290 258.477 290 264C290 269.523 294.477 274 300 274ZM304.243 259.76C303.95 259.467 303.475 259.467 303.182 259.76L300 262.941L296.818 259.76C296.525 259.467 296.05 259.467 295.757 259.76C295.464 260.053 295.464 260.527 295.757 260.82L298.939 264.002L295.757 267.184C295.464 267.477 295.464 267.952 295.757 268.245L295.823 268.303C296.117 268.536 296.546 268.517 296.818 268.245L300 265.063L303.182 268.245C303.475 268.538 303.95 268.538 304.243 268.245C304.536 267.952 304.536 267.477 304.243 267.184L301.06 264.002L304.243 260.82C304.536 260.527 304.536 260.053 304.243 259.76Z" fill="#1185F2"/>
<g clip-path="url(#clip8_601_30573)">
<path d="M17.7 316C17.3 316 16.9 316.1 16.4 316.3C14.7 317 14 318.6 13.4 319.9C12.8 321.2 12.3 322.4 11.9 322.8C11.5 323.2 10.3 323.7 9 324.3C7.7 324.9 6.1 325.5 5.4 327.2C4.7 328.9 5.3 330.5 5.8 331.9C6.3 333.2 6.8 334.5 6.8 335C6.8 335.6 6.3 336.8 5.8 338.1C5.3 339.4 4.6 341 5.3 342.8C6 344.5 7.6 345.2 8.9 345.8C10.2 346.4 11.4 346.9 11.8 347.3C12.2 347.7 12.7 348.9 13.3 350.2C13.9 351.5 14.5 353.1 16.2 353.8C17.9 354.5 19.5 353.9 20.9 353.4C22.2 352.9 23.5 352.4 24 352.4C24.6 352.4 25.8 352.9 27.1 353.4C28.4 353.9 30 354.6 31.8 353.9C33.5 353.2 34.2 351.6 34.8 350.3C35.4 349 35.9 347.8 36.3 347.4C36.7 347 37.9 346.5 39.2 345.9C40.5 345.3 42.1 344.7 42.8 343C43.5 341.3 42.9 339.7 42.4 338.3C41.9 337 41.4 335.7 41.4 335.2C41.4 334.6 41.9 333.4 42.4 332.1C42.9 330.8 43.6 329.2 42.9 327.4C42.2 325.7 40.6 325 39.3 324.4C38 323.9 36.8 323.4 36.4 323C36 322.6 35.5 321.4 34.9 320.1C34.3 318.8 33.7 317.2 32 316.5C30.3 315.8 28.7 316.4 27.3 316.9C26 317.4 24.7 317.9 24.2 317.9C23.6 317.9 22.4 317.4 21.1 316.9C20.1 316.4 19 315.9 17.7 316ZM24.1 325.5C29.4 325.5 33.7 329.8 33.7 335.1C33.7 340.4 29.4 344.7 24.1 344.7C18.8 344.7 14.5 340.4 14.5 335.1C14.4 329.8 18.8 325.5 24.1 325.5ZM24.1 328.5C20.4 328.5 17.5 331.5 17.5 335.1C17.5 338.8 20.5 341.7 24.1 341.7C27.7 341.7 30.7 338.7 30.7 335.1C30.7 331.4 27.8 328.5 24.1 328.5ZM7.1 348.3L1.4 354C1.1 354.3 1 354.6 1 355C1 355.4 1.1 355.7 1.3 356C1.5 356.3 1.8 356.5 2.2 356.6L7.4 357.7L8.5 362.9C8.6 363.3 8.8 363.6 9.1 363.8C9.4 364 9.8 364.1 10.1 364.1C10.5 364.1 10.8 363.9 11.1 363.7L17.5 357.3C16.7 357.3 15.9 357.1 15 356.8C12.1 355.6 11 352.8 10.5 351.6C10.2 350.9 10 350.3 9.8 349.9C9.7 349.8 9.7 349.7 9.6 349.6C9.5 349.5 9.5 349.5 9.3 349.4C8.9 349.2 8.3 348.9 7.6 348.6C7.5 348.4 7.3 348.3 7.1 348.3ZM41.1 348.4C40.8 348.5 40.5 348.7 40.3 348.8C39.6 349.1 39 349.3 38.6 349.5C38.5 349.6 38.4 349.6 38.3 349.7C38.2 349.8 38.2 349.8 38.1 350C37.9 350.4 37.6 351 37.3 351.7C36.7 353 35.6 355.7 32.7 356.9C32 357.2 31.3 357.3 30.7 357.4L37 363.7C37.3 364 37.6 364.1 38 364.1C38.4 364.1 38.7 364 39 363.8C39.3 363.6 39.5 363.3 39.6 362.9L40.7 357.7L45.9 356.6C46.3 356.5 46.6 356.3 46.8 356C47 355.7 47.1 355.4 47.1 355C47.1 354.6 46.9 354.3 46.7 354L41.1 348.4Z" fill="#E0E0E0"/>
</g>
<g clip-path="url(#clip9_601_30573)">
<path d="M99.9002 329.4C100.3 330.3 100.5 331.1 100.7 332C101 333.5 100.8 334.8 100.2 336C100 336.4 99.9002 336.8 99.8002 337.2C99.6002 337.2 99.4002 337.1 99.2002 337.1C97.1002 337.1 95.4002 338.4 94.7002 340C94.3002 339.9 93.9002 339.8 93.4002 339.8C91.0002 339.8 89.1002 341.4 88.7002 343.4H89.3002C90.6002 343.4 91.9002 343.6 93.3002 343.9C93.6002 344 93.9002 344.1 94.2002 344.1C95.1002 344.3 96.2002 344.5 96.9002 344.6C97.4002 344.7 97.8002 344.7 98.2002 344.7C99.0002 344.7 99.7002 344.6 100.6 344.5C101 344.5 101.3 344.4 101.7 344.4H101.9C103.1 344.3 104.2 344.2 105.3 344.2C106.8 344.2 107.8 344.4 108.5 344.8C109.4 345.3 110.2 346.3 110.6 347.4H110.8L116.4 346.7H116.9H117.2C116.7 345.4 115.3 344.3 113.3 343.4C112.8 341.4 110.9 339.9 108.6 339.9C108.1 339.9 107.7 340 107.3 340.1C106.7 338.5 105.2 337.4 103.3 337.2V337C103.9 335.2 103.8 333.1 103.3 331.4C103.1 330.7 102.8 330 102.5 329.4C104.6 329.1 107.9 328.2 110.2 325.8C112.9 323.1 113.6 319.2 113.9 317.2C114 316.5 113.4 315.9 112.7 316C110.7 316.2 106.8 317 104.1 319.7C102.6 321.2 101.7 323 101.2 324.7C100.6 323 99.7002 321.2 98.3002 319.7C95.6002 317 91.7002 316.3 89.7002 316C89.0002 315.9 88.4002 316.5 88.5002 317.2C88.7002 319.2 89.5002 323.1 92.2002 325.8C94.5002 328.2 97.8002 329.1 99.9002 329.4Z" fill="#E0E0E0"/>
<path d="M116.5 349.1L111 349.8V350C110.8 351.5 110.1 352.5 108.8 352.9C106.4 353.7 100.7 354.9 100.4 355H100.1L93.6 354.8C92.9 354.8 92.4 354.2 92.4 353.6C92.4 352.9 93 352.4 93.6 352.4L99.6 352.6C99.8 352.6 100 352.6 100.2 352.5C101.6 352.2 105.7 351.3 107.7 350.7C108.1 350.5 108.5 350.4 108.5 349.7C108.6 348.6 107.9 347.2 107.2 346.8C106.4 346.3 103.9 346.5 101.7 346.7C99.7 346.9 98.7 347 96.7 346.9C95.5 346.8 94 346.4 92.8 346.2C89.3 345.4 86.9 345.8 84.7 346.7C83.9 347 83 347.4 82.3 347.7C80.7 348.4 79 348.9 77.4 349.2L74.2 349.8C73.6 349.9 73 350.6 73 351.4V360.5C73 361.5 74 362.3 75 362.1L78.2 361.4C79.5 361.1 80.8 361.1 82.1 361.4L92 363.6C94.3 364.3 96.6 364.1 98.8 363.1L118.4 353.8C118.7 353.6 118.9 353.4 119 353.1C120.1 350.7 118.3 348.9 116.5 349.1Z" fill="#E0E0E0"/>
</g>
<g clip-path="url(#clip10_601_30573)">
<g clip-path="url(#clip11_601_30573)">
<path d="M168.1 344.7H163.9C163.1 344.7 162.4 345.4 162.4 346.2V348.8C162.4 349.6 163.1 350.3 163.9 350.3H168.1C168.9 350.3 169.6 349.6 169.6 348.8V346.2C169.6 345.5 168.9 344.7 168.1 344.7Z" fill="#E0E0E0"/>
<path d="M157.2 344.7H153C152.2 344.7 151.5 345.4 151.5 346.2V348.8C151.5 349.6 152.2 350.3 153 350.3H157.2C158 350.3 158.7 349.6 158.7 348.8V346.2C158.8 345.5 158 344.7 157.2 344.7Z" fill="#E0E0E0"/>
<path d="M168.1 335.3H163.9C163.1 335.3 162.4 336 162.4 336.8V339.4C162.4 340.2 163.1 340.9 163.9 340.9H168.1C168.9 340.9 169.6 340.2 169.6 339.4V336.8C169.6 336 168.9 335.3 168.1 335.3Z" fill="#E0E0E0"/>
<path d="M157.2 335.3H153C152.2 335.3 151.5 336 151.5 336.8V339.4C151.5 340.2 152.2 340.9 153 340.9H157.2C158 340.9 158.7 340.2 158.7 339.4V336.8C158.8 336 158 335.3 157.2 335.3Z" fill="#E0E0E0"/>
<path d="M178.9 335.3H174.7C173.9 335.3 173.2 336 173.2 336.8V339.4C173.2 340.2 173.9 340.9 174.7 340.9H178.9C179.7 340.9 180.4 340.2 180.4 339.4V336.8C180.4 336 179.7 335.3 178.9 335.3Z" fill="#E0E0E0"/>
<path d="M187.9 345.2V325.1C187.9 323.8 187.4 322.6 186.6 321.7H186.5C185.5 320.6 184.2 320 182.7 320H178.9V317.7C178.9 316.7 178.1 316 177.2 316H174.6C173.6 316 172.9 316.8 172.9 317.7V320H159V317.7C159 316.7 158.2 316 157.3 316H154.7C153.7 316 153 316.8 153 317.7V320H149.2C147.6 320 146.3 320.6 145.3 321.7V321.8C144.5 322.7 144 323.8 144 325.1V352.6C144 355.4 146.3 357.8 149.2 357.8H173.4C175.1 360.9 178.4 363.1 182.1 363.1C187.6 363.1 192 358.7 192 353.2C192 349.9 190.4 347 187.9 345.2ZM172.2 353.2C172.2 353.6 172.3 354 172.3 354.4H149.2C148.2 354.4 147.5 353.6 147.5 352.7V331.7H184.5V343.6C183.7 343.4 183 343.3 182.2 343.3C176.6 343.3 172.2 347.7 172.2 353.2ZM186.2 355.3H181.3C180.6 355.3 180 354.7 180 354V348.9C180 348.2 180.6 347.6 181.3 347.6C182 347.6 182.6 348.2 182.6 348.9V352.7H186.1C186.8 352.7 187.4 353.3 187.4 354C187.5 354.7 186.9 355.3 186.2 355.3Z" fill="#E0E0E0"/>
</g>
</g>
<g clip-path="url(#clip12_601_30573)">
<path d="M239.5 316C239.1 316 238.7 316.2 238.4 316.5C238.1 316.8 238 317.2 238 317.6V319.6C235.2 320.2 233 322.8 233 325.9C233 329.5 236 332.5 239.6 332.5C243.2 332.5 246.2 329.5 246.2 325.9C246.2 322.7 243.9 320 240.9 319.4V317.5C240.9 317.1 240.7 316.7 240.5 316.4C240.3 316.2 239.9 316 239.5 316ZM239.7 324.1C240.2 324.1 240.6 324.3 241 324.6C241.3 324.9 241.5 325.4 241.5 325.9C241.5 326.4 241.3 326.8 241 327.2C240.7 327.5 240.2 327.7 239.7 327.7C239.2 327.7 238.8 327.5 238.4 327.2C238.1 326.9 237.9 326.4 237.9 325.9C237.9 325.4 238.1 325 238.4 324.6C238.8 324.3 239.2 324.1 239.7 324.1ZM247.1 332.1C245.4 334.1 242.8 335.5 240 335.6C239.9 335.6 239.8 335.6 239.7 335.6C239.6 335.6 239.5 335.6 239.4 335.6C236.6 335.5 234 334.2 232.3 332.2L229.5 342.6H227.5C227.1 342.6 226.7 342.7 226.4 343C226.1 343.3 226 343.7 226 344.1C226 344.5 226.2 344.9 226.5 345.2C226.8 345.5 227.2 345.6 227.6 345.6H228.8L226.4 354.4C226.3 354.7 226.3 355 226.4 355.3L227.8 359.5L227 362.1C226.9 362.5 226.9 362.9 227.1 363.3C227.3 363.7 227.6 363.9 228 364C228.4 364.1 228.8 364 229.2 363.8C229.5 363.6 229.8 363.3 229.9 362.9L230.6 360.2L233.9 357.2C234.1 357 234.3 356.8 234.3 356.5L237.2 345.6H242L245 356.5C245.1 356.8 245.2 357 245.4 357.2L248.7 360.2L249.4 362.9C249.5 363.3 249.7 363.6 250.1 363.8C250.4 364 250.9 364.1 251.3 364C251.7 363.9 252 363.6 252.2 363.3C252.4 362.9 252.4 362.5 252.3 362.1L251.6 359.4L253 355.2C253.1 354.9 253.1 354.6 253 354.3L250.6 345.5H251.8C252.2 345.5 252.6 345.4 252.9 345.1C253.2 344.8 253.4 344.4 253.4 344C253.4 343.6 253.2 343.2 252.9 342.9C252.6 342.6 252.2 342.5 251.8 342.5H249.8L247.1 332.1ZM239.7 336.5L241.3 342.5H238.1L239.7 336.5Z" fill="#E0E0E0"/>
</g>
<g clip-path="url(#clip13_601_30573)">
<path d="M289.5 322C289.1 322 288.7 322.2 288.4 322.4C288.2 322.7 288 323.1 288 323.5V339.5H315.2V323.5C315.2 323.1 315 322.7 314.8 322.4C314.5 322.2 314.1 322 313.7 322H289.5ZM318.2 330.4V344C319.8 342.8 321.9 342 324.1 342C329.5 342 333.9 346.4 333.9 351.8C333.9 352.4 333.8 353 333.7 353.5H334.4C334.8 353.5 335.2 353.3 335.5 353.1C335.8 352.8 335.9 352.4 335.9 352V342C335.9 341.7 335.8 341.5 335.7 341.2L329.7 331.2C329.4 330.8 328.9 330.5 328.4 330.5L318.2 330.4ZM288 342.5V352C288 352.4 288.2 352.8 288.4 353.1C288.7 353.4 289.1 353.5 289.5 353.5H289.8C289.7 352.9 289.6 352.4 289.6 351.8C289.6 347.5 292.4 343.8 296.3 342.5H288ZM302.6 342.5C306.5 343.8 309.3 347.5 309.3 351.8C309.3 352.4 309.2 353 309.1 353.5H313.7C313.9 353.5 314.2 353.4 314.4 353.3C314.3 352.8 314.3 352.3 314.3 351.8C314.3 350.3 314.6 348.9 315.3 347.6V342.5H302.6ZM299.5 345C295.7 345 292.7 348.1 292.7 351.8C292.7 355.5 295.8 358.6 299.5 358.6C303.2 358.6 306.3 355.5 306.3 351.8C306.3 348.1 303.2 345 299.5 345ZM324.1 345C320.3 345 317.3 348.1 317.3 351.8C317.3 355.5 320.4 358.6 324.1 358.6C327.8 358.6 330.9 355.5 330.9 351.8C330.9 348.1 327.9 345 324.1 345Z" fill="#E0E0E0"/>
</g>
<g clip-path="url(#clip14_601_30573)">
<path d="M407.2 361.1H405.6V352C405.6 351.6 405.3 351.2 404.8 351.2H391.8C391.4 351.2 391 351.5 391 352V361.1H381.1V344.8C381.1 344.4 380.8 344 380.3 344H364C363.6 344 363.2 344.3 363.2 344.8V361.2H360.8C360.4 361.2 360 361.5 360 362C360 362.4 360.3 362.8 360.8 362.8H407.3C407.7 362.8 408.1 362.5 408.1 362C408.1 361.5 407.7 361.1 407.2 361.1ZM376 361.1H368.5V356C368.5 353.9 370.2 352.3 372.2 352.3C374.3 352.3 375.9 354 375.9 356L376 361.1Z" fill="#E0E0E0"/>
<path d="M394.9 330.8H401.9V349.8H394.9V330.8Z" fill="#E0E0E0"/>
<path d="M407.7 324.6V320.2C407.7 319.8 407.4 319.4 406.9 319.4H404.8V325.3H407C407.4 325.3 407.7 325 407.7 324.6Z" fill="#E0E0E0"/>
<path d="M361 340.6H383.5C383.8 340.6 384.1 340.4 384.2 340.1C384.3 339.8 384.2 339.5 383.9 339.3L373 331.3V325.9C397.7 325.9 369.6 325.9 393.5 325.9V328.6C393.5 329 393.8 329.4 394.3 329.4H402.7C403.1 329.4 403.5 329.1 403.5 328.6V317.8C403.3 317.3 403 317 402.6 317H394.2C393.8 317 393.4 317.3 393.4 317.8V319H372.2C372 319 371.8 319.1 371.7 319.2L366.2 324.6C366 324.8 365.9 325.1 366.1 325.4C366.2 325.7 366.5 325.9 366.8 325.9H371.5V331.2L360.6 339.2C360.3 339.4 360.2 339.7 360.3 340C360.4 340.4 360.7 340.6 361 340.6ZM393.5 320.4V323.6L389.2 320.4H393.5ZM387.6 321.2L392 324.4H387.7V321.2H387.6ZM386.1 324.4H381.8L386.1 321.2V324.4ZM380.3 320.4H384.6L380.3 323.6V320.4ZM378.8 320.4V323.6L374.5 320.4H378.8ZM377.3 324.4H373V321.2L377.3 324.4ZM371.5 324.4H368.6L371.5 321.5V324.4ZM372.2 334.7C373 334.7 373.6 335.3 373.6 336.1C373.6 336.9 373 337.5 372.2 337.5C371.4 337.5 370.8 336.9 370.8 336.1C370.8 335.4 371.5 334.7 372.2 334.7Z" fill="#E0E0E0"/>
</g>
<g clip-path="url(#clip15_601_30573)">
<g clip-path="url(#clip16_601_30573)">
<g clip-path="url(#clip17_601_30573)">
<path d="M454 316H438C436.409 316 434.883 316.632 433.757 317.757C432.632 318.883 432 320.409 432 322V364H460V322C460 320.409 459.368 318.883 458.243 317.757C457.117 316.632 455.591 316 454 316V316ZM444 354H438V350H444V354ZM444 346H438V342H444V346ZM444 338H438V334H444V338ZM444 330H438V326H444V330ZM454 354H448V350H454V354ZM454 346H448V342H454V346ZM454 338H448V334H454V338ZM454 330H448V326H454V330ZM474 326H464V364H480V332C480 330.409 479.368 328.883 478.243 327.757C477.117 326.632 475.591 326 474 326ZM474 354H470V350H474V354ZM474 346H470V342H474V346ZM474 338H470V334H474V338Z" fill="#E0E0E0"/>
</g>
</g>
</g>
<g clip-path="url(#clip18_601_30573)">
<path d="M28.0001 418C28.0001 418.791 27.7655 419.564 27.326 420.222C26.8865 420.88 26.2618 421.393 25.5309 421.696C24.8 421.998 23.9957 422.077 23.2198 421.923C22.4438 421.769 21.7311 421.388 21.1717 420.828C20.6123 420.269 20.2313 419.556 20.077 418.78C19.9226 418.004 20.0019 417.2 20.3046 416.469C20.6074 415.738 21.12 415.114 21.7778 414.674C22.4356 414.235 23.209 414 24.0001 414C25.061 414 26.0784 414.421 26.8286 415.172C27.5787 415.922 28.0001 416.939 28.0001 418ZM33.9161 428.368L27.8001 434.43C27.3039 434.93 26.7135 435.327 26.063 435.598C25.4125 435.869 24.7148 436.009 24.0101 436.009C23.3054 436.009 22.6077 435.869 21.9572 435.598C21.3068 435.327 20.7164 434.93 20.2201 434.43L14.1081 428.4C11.4836 425.694 10.0139 422.074 10.0094 418.305C10.0049 414.535 11.4661 410.912 14.0841 408.2C15.3709 406.871 16.9118 405.813 18.6152 405.092C20.3187 404.37 22.15 403.998 24.0001 403.998C25.8503 403.998 27.6815 404.37 29.385 405.092C31.0885 405.813 32.6294 406.871 33.9161 408.2C36.5302 410.906 37.9913 414.522 37.9913 418.284C37.9913 422.046 36.5302 425.662 33.9161 428.368ZM32.0001 418C32.0001 416.418 31.5309 414.871 30.6519 413.555C29.7728 412.24 28.5234 411.214 27.0616 410.609C25.5998 410.003 23.9912 409.845 22.4394 410.154C20.8876 410.462 19.4621 411.224 18.3433 412.343C17.2244 413.462 16.4625 414.887 16.1538 416.439C15.8452 417.991 16.0036 419.6 16.6091 421.061C17.2146 422.523 18.24 423.773 19.5556 424.652C20.8712 425.531 22.4179 426 24.0001 426C26.1219 426 28.1567 425.157 29.657 423.657C31.1573 422.157 32.0001 420.122 32.0001 418ZM41.5061 422.4C40.7762 425.705 39.1389 428.742 36.7781 431.168L30.6221 437.274C29.7561 438.142 28.7274 438.831 27.595 439.302C26.4625 439.772 25.2484 440.015 24.0221 440.016C22.7965 440.016 21.5828 439.775 20.4503 439.307C19.3179 438.838 18.2889 438.151 17.4221 437.284L11.2961 431.238C8.9664 428.846 7.33133 425.866 6.56612 422.616C5.26711 423.092 4.07937 423.829 3.07612 424.782C2.09822 425.712 1.32087 426.832 0.791881 428.073C0.26289 429.314 -0.00655426 430.651 0.000121064 432V440.15C0.00432426 442.313 0.707705 444.416 2.0053 446.146C3.3029 447.876 5.12515 449.14 7.20012 449.75L12.9401 451.55C13.9042 451.85 14.9084 452.002 15.9181 452C16.8341 451.999 17.7457 451.874 18.6281 451.628L30.1881 448.208C31.2178 447.926 32.3044 447.926 33.3341 448.208L38.1081 449.808C39.2847 450.094 40.511 450.11 41.6945 449.853C42.8779 449.597 43.9877 449.075 44.9402 448.327C45.8927 447.58 46.663 446.625 47.1931 445.537C47.7231 444.448 47.9991 443.253 48.0001 442.042V431.744C47.9933 429.712 47.3684 427.729 46.2086 426.06C45.0487 424.392 43.4086 423.115 41.5061 422.4Z" fill="#E0E0E0"/>
</g>
<g clip-path="url(#clip19_601_30573)">
<path d="M94 439C94.0025 436.453 94.7532 433.963 96.1589 431.838C97.5646 429.714 99.5634 428.05 101.907 427.052C104.25 426.054 106.835 425.767 109.341 426.225C111.846 426.684 114.162 427.869 116 429.632V410C116 408.409 115.368 406.883 114.243 405.757C113.117 404.632 111.591 404 110 404H86C83.3488 404.003 80.8071 405.058 78.9324 406.932C77.0578 408.807 76.0032 411.349 76 414V442C76.0032 444.651 77.0578 447.193 78.9324 449.068C80.8071 450.942 83.3488 451.997 86 452H107C103.552 452 100.246 450.63 97.8076 448.192C95.3696 445.754 94 442.448 94 439ZM86 418C86 417.47 86.2107 416.961 86.5858 416.586C86.9609 416.211 87.4696 416 88 416H104C104.53 416 105.039 416.211 105.414 416.586C105.789 416.961 106 417.47 106 418C106 418.53 105.789 419.039 105.414 419.414C105.039 419.789 104.53 420 104 420H88C87.4696 420 86.9609 419.789 86.5858 419.414C86.2107 419.039 86 418.53 86 418ZM119.414 451.414C119.039 451.789 118.53 452 118 452C117.47 452 116.961 451.789 116.586 451.414L111.772 446.6C110.346 447.51 108.691 447.995 107 448C105.22 448 103.48 447.472 102 446.483C100.52 445.494 99.3663 444.089 98.6851 442.444C98.0039 440.8 97.8257 438.99 98.1729 437.244C98.5202 435.498 99.3774 433.895 100.636 432.636C101.895 431.377 103.498 430.52 105.244 430.173C106.99 429.826 108.8 430.004 110.444 430.685C112.089 431.366 113.494 432.52 114.483 434C115.472 435.48 116 437.22 116 439C115.995 440.691 115.51 442.346 114.6 443.772L119.414 448.586C119.789 448.961 120 449.47 120 450C120 450.53 119.789 451.039 119.414 451.414Z" fill="#E0E0E0"/>
</g>
<g clip-path="url(#clip20_601_30573)">
<g clip-path="url(#clip21_601_30573)">
<path d="M166 404H150C148.409 404 146.883 404.632 145.757 405.757C144.632 406.883 144 408.409 144 410V452H172V410C172 408.409 171.368 406.883 170.243 405.757C169.117 404.632 167.591 404 166 404V404ZM156 442H150V438H156V442ZM156 434H150V430H156V434ZM156 426H150V422H156V426ZM156 418H150V414H156V418ZM166 442H160V438H166V442ZM166 434H160V430H166V434ZM166 426H160V422H166V426ZM166 418H160V414H166V418ZM186 414H176V452H192V420C192 418.409 191.368 416.883 190.243 415.757C189.117 414.632 187.591 414 186 414ZM186 442H182V438H186V442ZM186 434H182V430H186V434ZM186 426H182V422H186V426Z" fill="#E0E0E0"/>
</g>
</g>
<g clip-path="url(#clip22_601_30573)">
<path d="M248 440H232V434H248V440ZM260 418V452H220V410C220 406.686 222.686 404 226 404H246V418H260ZM228 418H238V414H228V418ZM228 426H238V422H228V426ZM252 430H228V444H252V430ZM250 405.172V414H258.828L250 405.172Z" fill="#E0E0E0"/>
</g>
<g clip-path="url(#clip23_601_30573)">
<path d="M318 432H306V428H318V432ZM330 418V452H294V410C294 406.7 296.7 404 300 404H316V418H330ZM322 440H302V444H322V440ZM322 424H302V436H322V424ZM327.7 410.8L323.2 406.3C322.3 405.4 321.2 404.8 320 404.4V414H329.6C329.2 412.8 328.5 411.7 327.7 410.8Z" fill="#E0E0E0"/>
</g>
<g clip-path="url(#clip24_601_30573)">
<g clip-path="url(#clip25_601_30573)">
<path d="M402 412H390V410C390 406.7 387.3 404 384 404C380.7 404 378 406.7 378 410V412H366C362.7 412 360 414.7 360 418V452H408V418C408 414.7 405.3 412 402 412ZM380 442H366V422H380V442ZM382 410C382 408.9 382.9 408 384 408C385.1 408 386 408.9 386 410V416H382V410ZM398 442H386V438H398V442ZM402 434H386V430H402V434ZM402 426H386V422H402V426ZM376 438H370V426H376V438Z" fill="#E0E0E0"/>
</g>
</g>
<g clip-path="url(#clip26_601_30573)">
<path d="M452.058 442.667H441.333V431.942L442.433 430.842L467.275 406H439.5C436.475 406 434 408.475 434 411.5V450H465.167V437.167H478V416.725L452.058 442.667Z" fill="#E0E0E0"/>
<path d="M469 449L477 441H469V449Z" fill="#E0E0E0"/>
<path d="M445 439H450.489L476.834 412.655C478.389 411.1 478.389 408.721 476.834 407.166C475.279 405.611 472.9 405.611 471.345 407.166L445 433.511V439Z" fill="#E0E0E0"/>
</g>
<g clip-path="url(#clip27_601_30573)">
<g clip-path="url(#clip28_601_30573)">
<path d="M532 418C532 410.3 525.7 404 518 404C510.3 404 504 410.3 504 418C504 425.9 508.5 435 514.8 437.4C514.4 438.1 514.1 438.9 514 439.8C514 442.9 517 444.3 519.2 445.4C520.4 446 522 446.7 522 447.3C521.8 447.9 521.5 448.5 521.1 449C520.5 449.9 520.8 451.2 521.7 451.8C522.6 452.4 523.9 452.1 524.5 451.2C525.3 450.1 525.9 448.7 526 447.3C526 444.2 523 442.8 520.8 441.8C519.6 441.2 518 440.5 517.9 440.1C518.2 439.4 518.6 438.7 519 438.1C526.4 436.9 532 426.8 532 418ZM522.3 424.9C523.2 423.4 523.8 421.7 523.9 420C523.9 418.9 524.8 418 525.9 418C527 418 527.9 418.9 527.9 420C527.7 422.5 527 424.9 525.6 427.1C525 428 523.8 428.3 522.8 427.7C521.8 427.1 521.8 425.9 522.3 424.9ZM543 441.2C541.6 440.5 540.2 439.7 540 438.9C539.9 438.5 540 437.6 541 436C547.4 435 552 426 552 418C552.2 411.6 547.2 406.2 540.8 406C540.5 406 540.3 406 540 406C537.5 406 535.1 406.7 533 408.1C535 411 536 414.5 536 418C535.9 422.8 534.7 427.4 532.4 431.6C533.5 433.2 535.1 434.4 536.8 435.3C536.1 436.7 535.8 438.2 536.1 439.8C536.7 442.4 539.1 443.7 541.1 444.7C542.3 445.4 543.7 446.1 543.9 446.8C544 447.6 543.7 448.3 543.3 449C542.7 450 543.1 451.2 544 451.7C545 452.3 546.2 451.9 546.7 451C547.8 449.5 548.1 447.6 547.7 445.7C546.9 443.6 545.2 442 543 441.2ZM542.3 424.9C543.2 423.4 543.8 421.7 543.9 420C543.9 418.9 544.8 418 545.9 418C547 418 547.9 418.9 547.9 420C547.7 422.5 547 424.9 545.6 427.1C545 428 543.8 428.3 542.8 427.7C542 427.1 541.7 425.9 542.3 424.9Z" fill="#E0E0E0"/>
</g>
</g>
<g clip-path="url(#clip29_601_30573)">
<path d="M17.7 492C17.3 492 16.9 492.1 16.4 492.3C14.7 493 14 494.6 13.4 495.9C12.8 497.2 12.3 498.4 11.9 498.8C11.5 499.2 10.3 499.7 9 500.3C7.7 500.9 6.1 501.5 5.4 503.2C4.7 504.9 5.3 506.5 5.8 507.9C6.3 509.2 6.8 510.5 6.8 511C6.8 511.6 6.3 512.8 5.8 514.1C5.3 515.4 4.6 517 5.3 518.8C6 520.5 7.6 521.2 8.9 521.8C10.2 522.4 11.4 522.9 11.8 523.3C12.2 523.7 12.7 524.9 13.3 526.2C13.9 527.5 14.5 529.1 16.2 529.8C17.9 530.5 19.5 529.9 20.9 529.4C22.2 528.9 23.5 528.4 24 528.4C24.6 528.4 25.8 528.9 27.1 529.4C28.4 529.9 30 530.6 31.8 529.9C33.5 529.2 34.2 527.6 34.8 526.3C35.4 525 35.9 523.8 36.3 523.4C36.7 523 37.9 522.5 39.2 521.9C40.5 521.3 42.1 520.7 42.8 519C43.5 517.3 42.9 515.7 42.4 514.3C41.9 513 41.4 511.7 41.4 511.2C41.4 510.6 41.9 509.4 42.4 508.1C42.9 506.8 43.6 505.2 42.9 503.4C42.2 501.7 40.6 501 39.3 500.4C38 499.9 36.8 499.4 36.4 499C36 498.6 35.5 497.4 34.9 496.1C34.3 494.8 33.7 493.2 32 492.5C30.3 491.8 28.7 492.4 27.3 492.9C26 493.4 24.7 493.9 24.2 493.9C23.6 493.9 22.4 493.4 21.1 492.9C20.1 492.4 19 491.9 17.7 492ZM24.1 501.5C29.4 501.5 33.7 505.8 33.7 511.1C33.7 516.4 29.4 520.7 24.1 520.7C18.8 520.7 14.5 516.4 14.5 511.1C14.4 505.8 18.8 501.5 24.1 501.5ZM24.1 504.5C20.4 504.5 17.5 507.5 17.5 511.1C17.5 514.8 20.5 517.7 24.1 517.7C27.7 517.7 30.7 514.7 30.7 511.1C30.7 507.4 27.8 504.5 24.1 504.5ZM7.1 524.3L1.4 530C1.1 530.3 1 530.6 1 531C1 531.4 1.1 531.7 1.3 532C1.5 532.3 1.8 532.5 2.2 532.6L7.4 533.7L8.5 538.9C8.6 539.3 8.8 539.6 9.1 539.8C9.4 540 9.8 540.1 10.1 540.1C10.5 540.1 10.8 539.9 11.1 539.7L17.5 533.3C16.7 533.3 15.9 533.1 15 532.8C12.1 531.6 11 528.8 10.5 527.6C10.2 526.9 10 526.3 9.8 525.9C9.7 525.8 9.7 525.7 9.6 525.6C9.5 525.5 9.5 525.5 9.3 525.4C8.9 525.2 8.3 524.9 7.6 524.6C7.5 524.4 7.3 524.3 7.1 524.3ZM41.1 524.4C40.8 524.5 40.5 524.7 40.3 524.8C39.6 525.1 39 525.3 38.6 525.5C38.5 525.6 38.4 525.6 38.3 525.7C38.2 525.8 38.2 525.8 38.1 526C37.9 526.4 37.6 527 37.3 527.7C36.7 529 35.6 531.7 32.7 532.9C32 533.2 31.3 533.3 30.7 533.4L37 539.7C37.3 540 37.6 540.1 38 540.1C38.4 540.1 38.7 540 39 539.8C39.3 539.6 39.5 539.3 39.6 538.9L40.7 533.7L45.9 532.6C46.3 532.5 46.6 532.3 46.8 532C47 531.7 47.1 531.4 47.1 531C47.1 530.6 46.9 530.3 46.7 530L41.1 524.4Z" fill="#1185F2"/>
</g>
<g clip-path="url(#clip30_601_30573)">
<path d="M99.9002 505.4C100.3 506.3 100.5 507.1 100.7 508C101 509.5 100.8 510.8 100.2 512C100 512.4 99.9002 512.8 99.8002 513.2C99.6002 513.2 99.4002 513.1 99.2002 513.1C97.1002 513.1 95.4002 514.4 94.7002 516C94.3002 515.9 93.9002 515.8 93.4002 515.8C91.0002 515.8 89.1002 517.4 88.7002 519.4H89.3002C90.6002 519.4 91.9002 519.6 93.3002 519.9C93.6002 520 93.9002 520.1 94.2002 520.1C95.1002 520.3 96.2002 520.5 96.9002 520.6C97.4002 520.7 97.8002 520.7 98.2002 520.7C99.0002 520.7 99.7002 520.6 100.6 520.5C101 520.5 101.3 520.4 101.7 520.4H101.9C103.1 520.3 104.2 520.2 105.3 520.2C106.8 520.2 107.8 520.4 108.5 520.8C109.4 521.3 110.2 522.3 110.6 523.4H110.8L116.4 522.7H116.9H117.2C116.7 521.4 115.3 520.3 113.3 519.4C112.8 517.4 110.9 515.9 108.6 515.9C108.1 515.9 107.7 516 107.3 516.1C106.7 514.5 105.2 513.4 103.3 513.2V513C103.9 511.2 103.8 509.1 103.3 507.4C103.1 506.7 102.8 506 102.5 505.4C104.6 505.1 107.9 504.2 110.2 501.8C112.9 499.1 113.6 495.2 113.9 493.2C114 492.5 113.4 491.9 112.7 492C110.7 492.2 106.8 493 104.1 495.7C102.6 497.2 101.7 499 101.2 500.7C100.6 499 99.7002 497.2 98.3002 495.7C95.6002 493 91.7002 492.3 89.7002 492C89.0002 491.9 88.4002 492.5 88.5002 493.2C88.7002 495.2 89.5002 499.1 92.2002 501.8C94.5002 504.2 97.8002 505.1 99.9002 505.4Z" fill="#1185F2"/>
<path d="M116.5 525.1L111 525.8V526C110.8 527.5 110.1 528.5 108.8 528.9C106.4 529.7 100.7 530.9 100.4 531H100.1L93.6 530.8C92.9 530.8 92.4 530.2 92.4 529.6C92.4 528.9 93 528.4 93.6 528.4L99.6 528.6C99.8 528.6 100 528.6 100.2 528.5C101.6 528.2 105.7 527.3 107.7 526.7C108.1 526.5 108.5 526.4 108.5 525.7C108.6 524.6 107.9 523.2 107.2 522.8C106.4 522.3 103.9 522.5 101.7 522.7C99.7 522.9 98.7 523 96.7 522.9C95.5 522.8 94 522.4 92.8 522.2C89.3 521.4 86.9 521.8 84.7 522.7C83.9 523 83 523.4 82.3 523.7C80.7 524.4 79 524.9 77.4 525.2L74.2 525.8C73.6 525.9 73 526.6 73 527.4V536.5C73 537.5 74 538.3 75 538.1L78.2 537.4C79.5 537.1 80.8 537.1 82.1 537.4L92 539.6C94.3 540.3 96.6 540.1 98.8 539.1L118.4 529.8C118.7 529.6 118.9 529.4 119 529.1C120.1 526.7 118.3 524.9 116.5 525.1Z" fill="#1185F2"/>
</g>
<g clip-path="url(#clip31_601_30573)">
<g clip-path="url(#clip32_601_30573)">
<path d="M168.1 520.7H163.9C163.1 520.7 162.4 521.4 162.4 522.2V524.8C162.4 525.6 163.1 526.3 163.9 526.3H168.1C168.9 526.3 169.6 525.6 169.6 524.8V522.2C169.6 521.5 168.9 520.7 168.1 520.7Z" fill="#1185F2"/>
<path d="M157.2 520.7H153C152.2 520.7 151.5 521.4 151.5 522.2V524.8C151.5 525.6 152.2 526.3 153 526.3H157.2C158 526.3 158.7 525.6 158.7 524.8V522.2C158.8 521.5 158 520.7 157.2 520.7Z" fill="#1185F2"/>
<path d="M168.1 511.3H163.9C163.1 511.3 162.4 512 162.4 512.8V515.4C162.4 516.2 163.1 516.9 163.9 516.9H168.1C168.9 516.9 169.6 516.2 169.6 515.4V512.8C169.6 512 168.9 511.3 168.1 511.3Z" fill="#1185F2"/>
<path d="M157.2 511.3H153C152.2 511.3 151.5 512 151.5 512.8V515.4C151.5 516.2 152.2 516.9 153 516.9H157.2C158 516.9 158.7 516.2 158.7 515.4V512.8C158.8 512 158 511.3 157.2 511.3Z" fill="#1185F2"/>
<path d="M178.9 511.3H174.7C173.9 511.3 173.2 512 173.2 512.8V515.4C173.2 516.2 173.9 516.9 174.7 516.9H178.9C179.7 516.9 180.4 516.2 180.4 515.4V512.8C180.4 512 179.7 511.3 178.9 511.3Z" fill="#1185F2"/>
<path d="M187.9 521.2V501.1C187.9 499.8 187.4 498.6 186.6 497.7H186.5C185.5 496.6 184.2 496 182.7 496H178.9V493.7C178.9 492.7 178.1 492 177.2 492H174.6C173.6 492 172.9 492.8 172.9 493.7V496H159V493.7C159 492.7 158.2 492 157.3 492H154.7C153.7 492 153 492.8 153 493.7V496H149.2C147.6 496 146.3 496.6 145.3 497.7V497.8C144.5 498.7 144 499.8 144 501.1V528.6C144 531.4 146.3 533.8 149.2 533.8H173.4C175.1 536.9 178.4 539.1 182.1 539.1C187.6 539.1 192 534.7 192 529.2C192 525.9 190.4 523 187.9 521.2ZM172.2 529.2C172.2 529.6 172.3 530 172.3 530.4H149.2C148.2 530.4 147.5 529.6 147.5 528.7V507.7H184.5V519.6C183.7 519.4 183 519.3 182.2 519.3C176.6 519.3 172.2 523.7 172.2 529.2ZM186.2 531.3H181.3C180.6 531.3 180 530.7 180 530V524.9C180 524.2 180.6 523.6 181.3 523.6C182 523.6 182.6 524.2 182.6 524.9V528.7H186.1C186.8 528.7 187.4 529.3 187.4 530C187.5 530.7 186.9 531.3 186.2 531.3Z" fill="#1185F2"/>
</g>
</g>
<g clip-path="url(#clip33_601_30573)">
<path d="M239.5 492C239.1 492 238.7 492.2 238.4 492.5C238.1 492.8 238 493.2 238 493.6V495.6C235.2 496.2 233 498.8 233 501.9C233 505.5 236 508.5 239.6 508.5C243.2 508.5 246.2 505.5 246.2 501.9C246.2 498.7 243.9 496 240.9 495.4V493.5C240.9 493.1 240.7 492.7 240.5 492.4C240.3 492.2 239.9 492 239.5 492ZM239.7 500.1C240.2 500.1 240.6 500.3 241 500.6C241.3 500.9 241.5 501.4 241.5 501.9C241.5 502.4 241.3 502.8 241 503.2C240.7 503.5 240.2 503.7 239.7 503.7C239.2 503.7 238.8 503.5 238.4 503.2C238.1 502.9 237.9 502.4 237.9 501.9C237.9 501.4 238.1 501 238.4 500.6C238.8 500.3 239.2 500.1 239.7 500.1ZM247.1 508.1C245.4 510.1 242.8 511.5 240 511.6C239.9 511.6 239.8 511.6 239.7 511.6C239.6 511.6 239.5 511.6 239.4 511.6C236.6 511.5 234 510.2 232.3 508.2L229.5 518.6H227.5C227.1 518.6 226.7 518.7 226.4 519C226.1 519.3 226 519.7 226 520.1C226 520.5 226.2 520.9 226.5 521.2C226.8 521.5 227.2 521.6 227.6 521.6H228.8L226.4 530.4C226.3 530.7 226.3 531 226.4 531.3L227.8 535.5L227 538.1C226.9 538.5 226.9 538.9 227.1 539.3C227.3 539.7 227.6 539.9 228 540C228.4 540.1 228.8 540 229.2 539.8C229.5 539.6 229.8 539.3 229.9 538.9L230.6 536.2L233.9 533.2C234.1 533 234.3 532.8 234.3 532.5L237.2 521.6H242L245 532.5C245.1 532.8 245.2 533 245.4 533.2L248.7 536.2L249.4 538.9C249.5 539.3 249.7 539.6 250.1 539.8C250.4 540 250.9 540.1 251.3 540C251.7 539.9 252 539.6 252.2 539.3C252.4 538.9 252.4 538.5 252.3 538.1L251.6 535.4L253 531.2C253.1 530.9 253.1 530.6 253 530.3L250.6 521.5H251.8C252.2 521.5 252.6 521.4 252.9 521.1C253.2 520.8 253.4 520.4 253.4 520C253.4 519.6 253.2 519.2 252.9 518.9C252.6 518.6 252.2 518.5 251.8 518.5H249.8L247.1 508.1ZM239.7 512.5L241.3 518.5H238.1L239.7 512.5Z" fill="#1185F2"/>
</g>
<g clip-path="url(#clip34_601_30573)">
<path d="M289.5 498C289.1 498 288.7 498.2 288.4 498.4C288.2 498.7 288 499.1 288 499.5V515.5H315.2V499.5C315.2 499.1 315 498.7 314.8 498.4C314.5 498.2 314.1 498 313.7 498H289.5ZM318.2 506.4V520C319.8 518.8 321.9 518 324.1 518C329.5 518 333.9 522.4 333.9 527.8C333.9 528.4 333.8 529 333.7 529.5H334.4C334.8 529.5 335.2 529.3 335.5 529.1C335.8 528.8 335.9 528.4 335.9 528V518C335.9 517.7 335.8 517.5 335.7 517.2L329.7 507.2C329.4 506.8 328.9 506.5 328.4 506.5L318.2 506.4ZM288 518.5V528C288 528.4 288.2 528.8 288.4 529.1C288.7 529.4 289.1 529.5 289.5 529.5H289.8C289.7 528.9 289.6 528.4 289.6 527.8C289.6 523.5 292.4 519.8 296.3 518.5H288ZM302.6 518.5C306.5 519.8 309.3 523.5 309.3 527.8C309.3 528.4 309.2 529 309.1 529.5H313.7C313.9 529.5 314.2 529.4 314.4 529.3C314.3 528.8 314.3 528.3 314.3 527.8C314.3 526.3 314.6 524.9 315.3 523.6V518.5H302.6ZM299.5 521C295.7 521 292.7 524.1 292.7 527.8C292.7 531.5 295.8 534.6 299.5 534.6C303.2 534.6 306.3 531.5 306.3 527.8C306.3 524.1 303.2 521 299.5 521ZM324.1 521C320.3 521 317.3 524.1 317.3 527.8C317.3 531.5 320.4 534.6 324.1 534.6C327.8 534.6 330.9 531.5 330.9 527.8C330.9 524.1 327.9 521 324.1 521Z" fill="#1185F2"/>
</g>
<g clip-path="url(#clip35_601_30573)">
<path d="M407.2 537.1H405.6V528C405.6 527.6 405.3 527.2 404.8 527.2H391.8C391.4 527.2 391 527.5 391 528V537.1H381.1V520.8C381.1 520.4 380.8 520 380.3 520H364C363.6 520 363.2 520.3 363.2 520.8V537.2H360.8C360.4 537.2 360 537.5 360 538C360 538.4 360.3 538.8 360.8 538.8H407.3C407.7 538.8 408.1 538.5 408.1 538C408.1 537.5 407.7 537.1 407.2 537.1ZM376 537.1H368.5V532C368.5 529.9 370.2 528.3 372.2 528.3C374.3 528.3 375.9 530 375.9 532L376 537.1Z" fill="#1185F2"/>
<path d="M394.9 506.8H401.9V525.8H394.9V506.8Z" fill="#1185F2"/>
<path d="M407.7 500.6V496.2C407.7 495.8 407.4 495.4 406.9 495.4H404.8V501.3H407C407.4 501.3 407.7 501 407.7 500.6Z" fill="#1185F2"/>
<path d="M361 516.6H383.5C383.8 516.6 384.1 516.4 384.2 516.1C384.3 515.8 384.2 515.5 383.9 515.3L373 507.3V501.9C397.7 501.9 369.6 501.9 393.5 501.9V504.6C393.5 505 393.8 505.4 394.3 505.4H402.7C403.1 505.4 403.5 505.1 403.5 504.6V493.8C403.3 493.3 403 493 402.6 493H394.2C393.8 493 393.4 493.3 393.4 493.8V495H372.2C372 495 371.8 495.1 371.7 495.2L366.2 500.6C366 500.8 365.9 501.1 366.1 501.4C366.2 501.7 366.5 501.9 366.8 501.9H371.5V507.2L360.6 515.2C360.3 515.4 360.2 515.7 360.3 516C360.4 516.4 360.7 516.6 361 516.6ZM393.5 496.4V499.6L389.2 496.4H393.5ZM387.6 497.2L392 500.4H387.7V497.2H387.6ZM386.1 500.4H381.8L386.1 497.2V500.4ZM380.3 496.4H384.6L380.3 499.6V496.4ZM378.8 496.4V499.6L374.5 496.4H378.8ZM377.3 500.4H373V497.2L377.3 500.4ZM371.5 500.4H368.6L371.5 497.5V500.4ZM372.2 510.7C373 510.7 373.6 511.3 373.6 512.1C373.6 512.9 373 513.5 372.2 513.5C371.4 513.5 370.8 512.9 370.8 512.1C370.8 511.4 371.5 510.7 372.2 510.7Z" fill="#1185F2"/>
</g>
<g clip-path="url(#clip36_601_30573)">
<g clip-path="url(#clip37_601_30573)">
<g clip-path="url(#clip38_601_30573)">
<path d="M454 492H438C436.409 492 434.883 492.632 433.757 493.757C432.632 494.883 432 496.409 432 498V540H460V498C460 496.409 459.368 494.883 458.243 493.757C457.117 492.632 455.591 492 454 492V492ZM444 530H438V526H444V530ZM444 522H438V518H444V522ZM444 514H438V510H444V514ZM444 506H438V502H444V506ZM454 530H448V526H454V530ZM454 522H448V518H454V522ZM454 514H448V510H454V514ZM454 506H448V502H454V506ZM474 502H464V540H480V508C480 506.409 479.368 504.883 478.243 503.757C477.117 502.632 475.591 502 474 502ZM474 530H470V526H474V530ZM474 522H470V518H474V522ZM474 514H470V510H474V514Z" fill="#1185F2"/>
</g>
</g>
</g>
<g clip-path="url(#clip39_601_30573)">
<g clip-path="url(#clip40_601_30573)">
<path d="M551.7 536.5L538 513.2C537.1 511.7 534.9 511.7 534.1 513.2L520.3 536.5C519.4 538.1 520.5 540 522.3 540H549.7C551.5 540 552.6 538 551.7 536.5ZM536 536C534.9 536 534 535.1 534 534C534 532.9 534.9 532 536 532C537.1 532 538 532.9 538 534C538 535.1 537.1 536 536 536ZM538 528C538 529.1 537.1 530 536 530C534.9 530 534 529.1 534 528V522C534 520.9 534.9 520 536 520C537.1 520 538 520.9 538 522V528ZM516.8 534.5L530.5 511.1C531.6 509.2 533.7 508 535.9 508C538.1 508 540.2 509.2 541.3 511.2L551.9 529.2V502C551.9 496.5 547.4 492 541.9 492H514C508.5 492 504 496.5 504 502V530C504 535.5 508.5 540 514 540H516.5C515.8 538.2 515.9 536.2 516.8 534.5ZM520 498C521.1 498 522 498.9 522 500C522 501.1 521.1 502 520 502C518.9 502 518 501.1 518 500C518 498.9 518.9 498 520 498ZM512 502C510.9 502 510 501.1 510 500C510 498.9 510.9 498 512 498C513.1 498 514 498.9 514 500C514 501.1 513.1 502 512 502Z" fill="#1185F2"/>
</g>
</g>
<g clip-path="url(#clip41_601_30573)">
<g clip-path="url(#clip42_601_30573)">
<path d="M620.8 499.8C617.5 494.9 611.9 492 606 492C601.3 492 596.9 493.8 593.5 497C590.1 500.2 588.2 504.7 588 509.3C587.9 511.9 588.4 514.5 589.4 516.8C590.2 518.7 591.2 520.4 592.6 521.9L590 524.7C589.2 524.2 588.3 524 587.3 524.1C586.4 524.2 585.5 524.6 584.8 525.3L582.8 527.3L577.2 532.9C576.1 534 575.7 535.5 576.1 536.9C576.5 538.3 577.6 539.5 579.1 539.9C580.5 540.3 582.1 539.9 583.1 538.8L589.4 532.5L590.7 531.2C591.4 530.5 591.8 529.7 591.9 528.7C592 527.8 591.8 526.8 591.3 526L594 523.3C596.7 525.7 600.1 527.2 603.6 527.7C605.8 528 608 527.9 610.3 527.4C616 526.1 620.7 522 622.8 516.4C624.9 510.9 624.2 504.7 620.8 499.8ZM606 524C605.2 524 604.4 523.9 603.6 523.8C600.8 523.3 598.2 522 596.1 519.9C595.2 519 594.4 518 593.8 516.9C592.7 514.8 592 512.5 592 510C592 506.3 593.5 502.7 596.1 500.1C598.7 497.5 602.3 496 606 496C609.7 496 613.2 497.5 615.9 500.1C618.6 502.7 620 506.3 620 510C620 513.7 618.5 517.3 615.9 519.9C613.3 522.5 609.7 524 606 524Z" fill="#1185F2"/>
<path d="M611.4 500.9C611.7 500.4 611.5 499.9 611 499.6C609.4 498.7 607.5 498.2 605.6 498.3C603.7 498.4 601.9 499 600.3 500C599.9 500.3 599.8 500.9 600.1 501.3C600.4 501.7 601 501.9 601.4 501.6C602.7 500.8 604.1 500.3 605.7 500.2C607.2 500.1 608.7 500.5 610 501.3C610.5 501.5 611.1 501.3 611.4 500.9Z" fill="#1185F2"/>
</g>
</g>
<g clip-path="url(#clip43_601_30573)">
<path d="M28.0001 594C28.0001 594.791 27.7655 595.564 27.326 596.222C26.8865 596.88 26.2618 597.393 25.5309 597.696C24.8 597.998 23.9957 598.077 23.2198 597.923C22.4438 597.769 21.7311 597.388 21.1717 596.828C20.6123 596.269 20.2313 595.556 20.077 594.78C19.9226 594.004 20.0019 593.2 20.3046 592.469C20.6074 591.738 21.12 591.114 21.7778 590.674C22.4356 590.235 23.209 590 24.0001 590C25.061 590 26.0784 590.421 26.8286 591.172C27.5787 591.922 28.0001 592.939 28.0001 594ZM33.9161 604.368L27.8001 610.43C27.3039 610.93 26.7135 611.327 26.063 611.598C25.4125 611.869 24.7148 612.009 24.0101 612.009C23.3054 612.009 22.6077 611.869 21.9572 611.598C21.3068 611.327 20.7164 610.93 20.2201 610.43L14.1081 604.4C11.4836 601.694 10.0139 598.074 10.0094 594.305C10.0049 590.535 11.4661 586.912 14.0841 584.2C15.3709 582.871 16.9118 581.813 18.6152 581.092C20.3187 580.37 22.15 579.998 24.0001 579.998C25.8503 579.998 27.6815 580.37 29.385 581.092C31.0885 581.813 32.6294 582.871 33.9161 584.2C36.5302 586.906 37.9913 590.522 37.9913 594.284C37.9913 598.046 36.5302 601.662 33.9161 604.368ZM32.0001 594C32.0001 592.418 31.5309 590.871 30.6519 589.555C29.7728 588.24 28.5234 587.214 27.0616 586.609C25.5998 586.003 23.9912 585.845 22.4394 586.154C20.8876 586.462 19.4621 587.224 18.3433 588.343C17.2244 589.462 16.4625 590.887 16.1538 592.439C15.8452 593.991 16.0036 595.6 16.6091 597.061C17.2146 598.523 18.24 599.773 19.5556 600.652C20.8712 601.531 22.4179 602 24.0001 602C26.1219 602 28.1567 601.157 29.657 599.657C31.1573 598.157 32.0001 596.122 32.0001 594ZM41.5061 598.4C40.7762 601.705 39.1389 604.742 36.7781 607.168L30.6221 613.274C29.7561 614.142 28.7274 614.831 27.595 615.302C26.4625 615.772 25.2484 616.015 24.0221 616.016C22.7965 616.016 21.5828 615.775 20.4503 615.307C19.3179 614.838 18.2889 614.151 17.4221 613.284L11.2961 607.238C8.9664 604.846 7.33133 601.866 6.56612 598.616C5.26711 599.092 4.07937 599.829 3.07612 600.782C2.09822 601.712 1.32087 602.832 0.791881 604.073C0.26289 605.314 -0.00655426 606.651 0.000121064 608V616.15C0.00432426 618.313 0.707705 620.416 2.0053 622.146C3.3029 623.876 5.12515 625.14 7.20012 625.75L12.9401 627.55C13.9042 627.85 14.9084 628.002 15.9181 628C16.8341 627.999 17.7457 627.874 18.6281 627.628L30.1881 624.208C31.2178 623.926 32.3044 623.926 33.3341 624.208L38.1081 625.808C39.2847 626.094 40.511 626.11 41.6945 625.853C42.8779 625.597 43.9877 625.075 44.9402 624.327C45.8927 623.58 46.663 622.625 47.1931 621.537C47.7231 620.448 47.9991 619.253 48.0001 618.042V607.744C47.9933 605.712 47.3684 603.729 46.2086 602.06C45.0487 600.392 43.4086 599.115 41.5061 598.4Z" fill="#1185F2"/>
</g>
<g clip-path="url(#clip44_601_30573)">
<path d="M94 615C94.0025 612.453 94.7532 609.963 96.1589 607.838C97.5646 605.714 99.5634 604.05 101.907 603.052C104.25 602.054 106.835 601.767 109.341 602.225C111.846 602.684 114.162 603.869 116 605.632V586C116 584.409 115.368 582.883 114.243 581.757C113.117 580.632 111.591 580 110 580H86C83.3488 580.003 80.8071 581.058 78.9324 582.932C77.0578 584.807 76.0032 587.349 76 590V618C76.0032 620.651 77.0578 623.193 78.9324 625.068C80.8071 626.942 83.3488 627.997 86 628H107C103.552 628 100.246 626.63 97.8076 624.192C95.3696 621.754 94 618.448 94 615ZM86 594C86 593.47 86.2107 592.961 86.5858 592.586C86.9609 592.211 87.4696 592 88 592H104C104.53 592 105.039 592.211 105.414 592.586C105.789 592.961 106 593.47 106 594C106 594.53 105.789 595.039 105.414 595.414C105.039 595.789 104.53 596 104 596H88C87.4696 596 86.9609 595.789 86.5858 595.414C86.2107 595.039 86 594.53 86 594ZM119.414 627.414C119.039 627.789 118.53 628 118 628C117.47 628 116.961 627.789 116.586 627.414L111.772 622.6C110.346 623.51 108.691 623.995 107 624C105.22 624 103.48 623.472 102 622.483C100.52 621.494 99.3663 620.089 98.6851 618.444C98.0039 616.8 97.8257 614.99 98.1729 613.244C98.5202 611.498 99.3774 609.895 100.636 608.636C101.895 607.377 103.498 606.52 105.244 606.173C106.99 605.826 108.8 606.004 110.444 606.685C112.089 607.366 113.494 608.52 114.483 610C115.472 611.48 116 613.22 116 615C115.995 616.691 115.51 618.346 114.6 619.772L119.414 624.586C119.789 624.961 120 625.47 120 626C120 626.53 119.789 627.039 119.414 627.414Z" fill="#1185F2"/>
</g>
<g clip-path="url(#clip45_601_30573)">
<g clip-path="url(#clip46_601_30573)">
<path d="M166 580H150C148.409 580 146.883 580.632 145.757 581.757C144.632 582.883 144 584.409 144 586V628H172V586C172 584.409 171.368 582.883 170.243 581.757C169.117 580.632 167.591 580 166 580V580ZM156 618H150V614H156V618ZM156 610H150V606H156V610ZM156 602H150V598H156V602ZM156 594H150V590H156V594ZM166 618H160V614H166V618ZM166 610H160V606H166V610ZM166 602H160V598H166V602ZM166 594H160V590H166V594ZM186 590H176V628H192V596C192 594.409 191.368 592.883 190.243 591.757C189.117 590.632 187.591 590 186 590ZM186 618H182V614H186V618ZM186 610H182V606H186V610ZM186 602H182V598H186V602Z" fill="#1185F2"/>
</g>
</g>
<g clip-path="url(#clip47_601_30573)">
<path d="M248 616H232V610H248V616ZM260 594V628H220V586C220 582.686 222.686 580 226 580H246V594H260ZM228 594H238V590H228V594ZM228 602H238V598H228V602ZM252 606H228V620H252V606ZM250 581.172V590H258.828L250 581.172Z" fill="#1185F2"/>
</g>
<g clip-path="url(#clip48_601_30573)">
<path d="M318 608H306V604H318V608ZM330 594V628H294V586C294 582.7 296.7 580 300 580H316V594H330ZM322 616H302V620H322V616ZM322 600H302V612H322V600ZM327.7 586.8L323.2 582.3C322.3 581.4 321.2 580.8 320 580.4V590H329.6C329.2 588.8 328.5 587.7 327.7 586.8Z" fill="#1185F2"/>
</g>
<g clip-path="url(#clip49_601_30573)">
<g clip-path="url(#clip50_601_30573)">
<path d="M402 588H390V586C390 582.7 387.3 580 384 580C380.7 580 378 582.7 378 586V588H366C362.7 588 360 590.7 360 594V628H408V594C408 590.7 405.3 588 402 588ZM380 618H366V598H380V618ZM382 586C382 584.9 382.9 584 384 584C385.1 584 386 584.9 386 586V592H382V586ZM398 618H386V614H398V618ZM402 610H386V606H402V610ZM402 602H386V598H402V602ZM376 614H370V602H376V614Z" fill="#1185F2"/>
</g>
</g>
<g clip-path="url(#clip51_601_30573)">
<path d="M452.058 618.667H441.333V607.942L442.433 606.842L467.275 582H439.5C436.475 582 434 584.475 434 587.5V626H465.167V613.167H478V592.725L452.058 618.667Z" fill="#1185F2"/>
<path d="M469 625L477 617H469V625Z" fill="#1185F2"/>
<path d="M445 615H450.489L476.834 588.655C478.389 587.1 478.389 584.721 476.834 583.166C475.279 581.611 472.9 581.611 471.345 583.166L445 609.511V615Z" fill="#1185F2"/>
</g>
<g clip-path="url(#clip52_601_30573)">
<g clip-path="url(#clip53_601_30573)">
<path d="M532 594C532 586.3 525.7 580 518 580C510.3 580 504 586.3 504 594C504 601.9 508.5 611 514.8 613.4C514.4 614.1 514.1 614.9 514 615.8C514 618.9 517 620.3 519.2 621.4C520.4 622 522 622.7 522 623.3C521.8 623.9 521.5 624.5 521.1 625C520.5 625.9 520.8 627.2 521.7 627.8C522.6 628.4 523.9 628.1 524.5 627.2C525.3 626.1 525.9 624.7 526 623.3C526 620.2 523 618.8 520.8 617.8C519.6 617.2 518 616.5 517.9 616.1C518.2 615.4 518.6 614.7 519 614.1C526.4 612.9 532 602.8 532 594ZM522.3 600.9C523.2 599.4 523.8 597.7 523.9 596C523.9 594.9 524.8 594 525.9 594C527 594 527.9 594.9 527.9 596C527.7 598.5 527 600.9 525.6 603.1C525 604 523.8 604.3 522.8 603.7C521.8 603.1 521.8 601.9 522.3 600.9ZM543 617.2C541.6 616.5 540.2 615.7 540 614.9C539.9 614.5 540 613.6 541 612C547.4 611 552 602 552 594C552.2 587.6 547.2 582.2 540.8 582C540.5 582 540.3 582 540 582C537.5 582 535.1 582.7 533 584.1C535 587 536 590.5 536 594C535.9 598.8 534.7 603.4 532.4 607.6C533.5 609.2 535.1 610.4 536.8 611.3C536.1 612.7 535.8 614.2 536.1 615.8C536.7 618.4 539.1 619.7 541.1 620.7C542.3 621.4 543.7 622.1 543.9 622.8C544 623.6 543.7 624.3 543.3 625C542.7 626 543.1 627.2 544 627.7C545 628.3 546.2 627.9 546.7 627C547.8 625.5 548.1 623.6 547.7 621.7C546.9 619.6 545.2 618 543 617.2ZM542.3 600.9C543.2 599.4 543.8 597.7 543.9 596C543.9 594.9 544.8 594 545.9 594C547 594 547.9 594.9 547.9 596C547.7 598.5 547 600.9 545.6 603.1C545 604 543.8 604.3 542.8 603.7C542 603.1 541.7 601.9 542.3 600.9Z" fill="#1185F2"/>
</g>
</g>
<defs>
<clipPath id="clip0_601_30573">
<rect width="24" height="24" fill="white" transform="translate(48 124)"/>
</clipPath>
<clipPath id="clip1_601_30573">
<rect width="20" height="20" fill="white" transform="translate(2 254)"/>
</clipPath>
<clipPath id="clip2_601_30573">
<rect width="20" height="20" fill="white" transform="translate(2 254)"/>
</clipPath>
<clipPath id="clip3_601_30573">
<rect width="20" height="20" fill="white" transform="translate(50 254)"/>
</clipPath>
<clipPath id="clip4_601_30573">
<rect width="20" height="20" fill="white" transform="translate(98 254)"/>
</clipPath>
<clipPath id="clip5_601_30573">
<rect width="20" height="20" fill="white" transform="translate(98 254)"/>
</clipPath>
<clipPath id="clip6_601_30573">
<rect width="20" height="20" fill="white" transform="translate(98 254)"/>
</clipPath>
<clipPath id="clip7_601_30573">
<rect width="20" height="20" fill="white" transform="translate(146 254)"/>
</clipPath>
<clipPath id="clip8_601_30573">
<rect width="46.1" height="48" fill="white" transform="translate(1 316)"/>
</clipPath>
<clipPath id="clip9_601_30573">
<rect width="46.3" height="48" fill="white" transform="translate(73 316)"/>
</clipPath>
<clipPath id="clip10_601_30573">
<rect width="48" height="48" fill="white" transform="translate(144 316)"/>
</clipPath>
<clipPath id="clip11_601_30573">
<rect width="48" height="47.1" fill="white" transform="translate(144 316)"/>
</clipPath>
<clipPath id="clip12_601_30573">
<rect width="27.4" height="48" fill="white" transform="translate(226 316)"/>
</clipPath>
<clipPath id="clip13_601_30573">
<rect width="48" height="36.7" fill="white" transform="translate(288 322)"/>
</clipPath>
<clipPath id="clip14_601_30573">
<rect width="48" height="45.6" fill="white" transform="translate(360 317)"/>
</clipPath>
<clipPath id="clip15_601_30573">
<rect width="48" height="48" fill="white" transform="translate(432 316)"/>
</clipPath>
<clipPath id="clip16_601_30573">
<rect width="48" height="48" fill="white" transform="translate(432 316)"/>
</clipPath>
<clipPath id="clip17_601_30573">
<rect width="48" height="48" fill="white" transform="translate(432 316)"/>
</clipPath>
<clipPath id="clip18_601_30573">
<rect width="48" height="48" fill="white" transform="translate(0 404)"/>
</clipPath>
<clipPath id="clip19_601_30573">
<rect width="48" height="48" fill="white" transform="translate(72 404)"/>
</clipPath>
<clipPath id="clip20_601_30573">
<rect width="48" height="48" fill="white" transform="translate(144 404)"/>
</clipPath>
<clipPath id="clip21_601_30573">
<rect width="48" height="48" fill="white" transform="translate(144 404)"/>
</clipPath>
<clipPath id="clip22_601_30573">
<rect width="48" height="48" fill="white" transform="translate(216 404)"/>
</clipPath>
<clipPath id="clip23_601_30573">
<rect width="36" height="48" fill="white" transform="translate(294 404)"/>
</clipPath>
<clipPath id="clip24_601_30573">
<rect width="48" height="48" fill="white" transform="translate(360 404)"/>
</clipPath>
<clipPath id="clip25_601_30573">
<rect width="48" height="48" fill="white" transform="translate(360 404)"/>
</clipPath>
<clipPath id="clip26_601_30573">
<rect width="44" height="44" fill="white" transform="translate(434 406)"/>
</clipPath>
<clipPath id="clip27_601_30573">
<rect width="48" height="48" fill="white" transform="translate(504 404)"/>
</clipPath>
<clipPath id="clip28_601_30573">
<rect width="48" height="48" fill="white" transform="translate(504 404)"/>
</clipPath>
<clipPath id="clip29_601_30573">
<rect width="46.1" height="48" fill="white" transform="translate(1 492)"/>
</clipPath>
<clipPath id="clip30_601_30573">
<rect width="46.3" height="48" fill="white" transform="translate(73 492)"/>
</clipPath>
<clipPath id="clip31_601_30573">
<rect width="48" height="48" fill="white" transform="translate(144 492)"/>
</clipPath>
<clipPath id="clip32_601_30573">
<rect width="48" height="47.1" fill="white" transform="translate(144 492)"/>
</clipPath>
<clipPath id="clip33_601_30573">
<rect width="27.4" height="48" fill="white" transform="translate(226 492)"/>
</clipPath>
<clipPath id="clip34_601_30573">
<rect width="48" height="36.7" fill="white" transform="translate(288 498)"/>
</clipPath>
<clipPath id="clip35_601_30573">
<rect width="48" height="45.6" fill="white" transform="translate(360 493)"/>
</clipPath>
<clipPath id="clip36_601_30573">
<rect width="48" height="48" fill="white" transform="translate(432 492)"/>
</clipPath>
<clipPath id="clip37_601_30573">
<rect width="48" height="48" fill="white" transform="translate(432 492)"/>
</clipPath>
<clipPath id="clip38_601_30573">
<rect width="48" height="48" fill="white" transform="translate(432 492)"/>
</clipPath>
<clipPath id="clip39_601_30573">
<rect width="48" height="48" fill="white" transform="translate(504 492)"/>
</clipPath>
<clipPath id="clip40_601_30573">
<rect width="48" height="48" fill="white" transform="translate(504 492)"/>
</clipPath>
<clipPath id="clip41_601_30573">
<rect width="48" height="48" fill="white" transform="translate(576 492)"/>
</clipPath>
<clipPath id="clip42_601_30573">
<rect width="48" height="48.1" fill="white" transform="translate(576 492)"/>
</clipPath>
<clipPath id="clip43_601_30573">
<rect width="48" height="48" fill="white" transform="translate(0 580)"/>
</clipPath>
<clipPath id="clip44_601_30573">
<rect width="48" height="48" fill="white" transform="translate(72 580)"/>
</clipPath>
<clipPath id="clip45_601_30573">
<rect width="48" height="48" fill="white" transform="translate(144 580)"/>
</clipPath>
<clipPath id="clip46_601_30573">
<rect width="48" height="48" fill="white" transform="translate(144 580)"/>
</clipPath>
<clipPath id="clip47_601_30573">
<rect width="48" height="48" fill="white" transform="translate(216 580)"/>
</clipPath>
<clipPath id="clip48_601_30573">
<rect width="36" height="48" fill="white" transform="translate(294 580)"/>
</clipPath>
<clipPath id="clip49_601_30573">
<rect width="48" height="48" fill="white" transform="translate(360 580)"/>
</clipPath>
<clipPath id="clip50_601_30573">
<rect width="48" height="48" fill="white" transform="translate(360 580)"/>
</clipPath>
<clipPath id="clip51_601_30573">
<rect width="44" height="44" fill="white" transform="translate(434 582)"/>
</clipPath>
<clipPath id="clip52_601_30573">
<rect width="48" height="48" fill="white" transform="translate(504 580)"/>
</clipPath>
<clipPath id="clip53_601_30573">
<rect width="48" height="48" fill="white" transform="translate(504 580)"/>
</clipPath>
</defs>
</svg>
